<svg  id="Layer_2" data-name="Layer 2" xmlns="http://www.w3.org/2000/svg" viewBox="0 0 1944 1242">
  <g data-name="b5" id="b5" >
    <polygon opacity="0.7" id="emittor" points="329.121 334.552 188.217 403.216 193.706 423.471 143.707 448.495 187.415 584.667 221.084 610.977 252.105 607.681 314.722 657.971 320.913 653.822 336.488 665.375 464.07 590.913 462.593 583.415 506.228 558.079 488.872 453.93 445.073 422.67 444.552 416.567 440.913 413.375 436.318 387.013 374.232 343.709 354.998 352.673 329.121 334.552" fill="#d1b68c"/>
  </g>
  <g data-name="b4" id="b4" >
    <polygon opacity="0.7" id="emittor-2" data-name="emittor" points="490.509 727.801 536.159 762.836 560.32 756.555 644.681 811.652 663.414 812.48 682.868 813.339 841.773 703.416 836.001 587.638 795.18 561.016 795.047 551.72 780.769 540.63 780.055 515.513 702.952 464.533 683.763 476.101 652.956 455.077 595.259 487.937 512.981 534.728 515.891 552.468 506.228 558.079 462.593 583.415 464.07 590.913 490.509 727.801" fill="#d1b68c"/>
  </g>
  <g data-name="b3" id="b3" >
    <polygon opacity="0.7" id="emittor-3" data-name="emittor" points="454.575 305.626 501.013 282.597 498.155 262.959 616.864 205.655 642.998 220.992 658.701 213.205 722.735 249.566 722.658 267.843 734.604 274.572 734.845 288.402 767.924 308.979 768.161 335.897 770.702 337.264 774.366 389.967 774.573 392.439 776.215 420.366 683.763 476.101 652.956 455.077 595.259 487.937 541.607 455.077 513.878 459.263 474.519 431.507 454.575 305.626" fill="#d1b68c"/>
  </g>
  <g data-name="b2" id="b2" >
    <polygon opacity="0.7" id="emittor-4" data-name="emittor" points="743.101 163.611 786.293 142.857 785.716 123.576 886.573 73.886 913.956 87.141 928.012 80.464 992.483 111.247 992.538 125.535 1007.679 132.822 1007.73 153.084 1036.634 166.222 1035.457 248.763 961.713 291.835 961.767 308.38 911.85 336.098 912.574 374.266 823.595 323.862 790.454 322.995 767.924 308.979 753.023 299.71 743.101 163.611" fill="#d1b68c"/>
  </g>
  <g data-name="b1" id="b1" >
    <polygon opacity="0.7" id="emittor-5" data-name="emittor" points="1182.587 520.756 1234.172 479.207 1248.19 340.013 1216.814 323.052 1216.758 302.747 1196.106 292.989 1196.19 275.928 1117.975 236.621 1103.679 245.375 1070.577 228.251 961.713 291.835 961.767 308.38 911.85 336.098 915.153 510.168 938.604 523.566 1038.658 458.311 1075.381 479.886 1093.637 468.907 1182.587 520.756" fill="#d1b68c"/>
  </g>
  <g data-name="a3" id="a3" >
    <polygon opacity="0.7" id="emittor-6" data-name="emittor" points="1034.578 835.028 1076.614 836.555 1228.786 715.63 1241.533 595.415 1204.697 573.434 1205.229 556.132 1182.048 542.652 1182.587 520.756 1093.637 468.907 1075.381 479.886 1038.658 458.311 911.797 541.049 911.903 552.844 855.366 590.607 862.447 739.489 910.318 773.205 947.086 773.826 1034.578 835.028" fill="#d1b68c"/>
  </g>
  <g data-name="a2" id="a2" >
    <polygon opacity="0.7" id="emitor" points="1681.321 857.19 1795.668 737.181 1848.145 589.987 1812.916 572.65 1820.267 549.765 1778.979 530.012 1784.319 512.823 1674.181 458.414 1659.934 470.153 1614.025 447.961 1444.251 585.848 1412.729 747.427 1565.977 841.29 1595.211 838.226 1639.891 865.708 1681.321 857.19" fill="#d1b68c"/>
  </g>
  <g data-name="a1" id="a1" >
    <polygon opacity="0.7" id="emitor-2" data-name="emitor" points="1064.02 1057.035 1131.924 1102.496 1170.998 1104.269 1296.043 1185.945 1347.533 1185.908 1500.157 1031.387 1531.764 910.396 1490.456 883.799 1493.679 868.998 1454.88 843.974 1459.931 819.639 1345.154 747.674 1326.916 763.893 1278.97 734.095 1071.447 903.157 1064.02 1057.035" fill="#d1b68c"/>
  </g>
  <rect width="1944" height="1242" fill="none"/>
</svg>
