<svg id="Isolation_Mode" data-name="Isolation Mode" xmlns="http://www.w3.org/2000/svg" viewBox="0 0 1080 1080">
  
    <g id="_1" data-name="0">
      <polygon id="emittor" points="957.247 981.722 122.99 981.722 122.753 894.654 957.247 894.654 957.247 981.722" fill="#d1b68c" opacity="0.7"/>
    </g>
    <g id="_2" data-name="1">
      <polygon id="emittor-2" data-name="emittor" points="957.247 894.654 122.753 894.654 122.99 761.676 957.247 761.676 957.247 894.654" fill="#d1b68c" opacity="0.7"/>
    </g>
    <g id="_2" data-name="2">
      <polygon id="emittor-3" data-name="emittor" points="957.247 761.676 122.99 761.676 122.753 628.697 957.247 628.697 957.247 761.676" fill="#d1b68c" opacity="0.7"/>
    </g>
    <g id="_3" data-name="3">
      <polygon id="emittor-4" data-name="emittor" points="957.247 628.697 122.753 628.697 122.99 495.719 957.247 495.719 957.247 628.697" fill="#d1b68c" opacity="0.7"/>
    </g>
    <g id="_4" data-name="4">
      <polygon id="emittor-5" data-name="emittor" points="957.247 495.719 122.99 495.719 122.753 362.74 957.247 362.74 957.247 495.719" fill="#d1b68c" opacity="0.7"/>
    </g>
    <g id="_5" data-name="5">
      <polygon id="emittor-6" data-name="emittor" points="957.247 362.74 122.753 362.74 122.99 229.761 957.247 229.761 957.247 362.74" fill="#d1b68c" opacity="0.7"/>
    </g>
    <g id="_6" data-name="6">
      <polygon id="emittor-7" data-name="emittor" points="957.247 229.761 122.753 229.761 122.99 96.783 957.247 96.783 957.247 229.761" fill="#d1b68c" opacity="0.7"/>
    </g>
    <rect width="1080" height="1080" fill="none"/>
  
</svg>
