<svg id="Layer_1" data-name="Layer 1" xmlns="http://www.w3.org/2000/svg" viewBox="0 0 1080 1080">
    <g id="_1" data-name="1">
      <polygon id="emittor" points="959.223 894.654 124.73 894.654 124.73 761.676 959.223 761.676 959.223 812.056 959.223 894.654" fill="#d1b68c" opacity="0.7"/>
    </g>
    <g id="_0" data-name="0">
      <polygon id="emittor-2" data-name="emittor" points="959.223 982.88 124.73 982.88 124.73 894.654 959.223 894.654 959.223 928.079 959.223 982.88" fill="#d1b68c" opacity="0.7"/>
    </g>
    <g id="_2" data-name="2">
      <polygon id="emittor-3" data-name="emittor" points="959.223 761.676 124.73 761.676 124.73 628.697 959.223 628.697 959.223 695.186 959.223 761.676" fill="#d1b68c" opacity="0.7"/>
    </g>
    <g id="_3" data-name="3">
      <polygon id="emittor-4" data-name="emittor" points="959.223 628.697 124.73 628.697 124.73 495.719 959.223 495.719 959.223 562.208 959.223 628.697" fill="#d1b68c" opacity="0.7"/>
    </g>
    <g id="_4" data-name="4">
      <polygon id="emittor-5" data-name="emittor" points="959.223 495.719 124.73 495.719 124.73 362.74 959.223 362.74 959.223 429.229 959.223 495.719" fill="#d1b68c" opacity="0.7"/>
    </g>
    <g id="_5" data-name="5">
      <polygon id="emittor-6" data-name="emittor" points="959.223 362.74 124.73 362.74 124.73 221.297 959.223 221.297 959.223 292.019 959.223 362.74" fill="#d1b68c" opacity="0.7"/>
    </g>
    <rect width="1080" height="1080" fill="none"/>
</svg>
