<svg id="A_6NP" data-name="A/6NP" xmlns="http://www.w3.org/2000/svg" viewBox="0 0 1340 920">
  <rect width="1340" height="920" fill="none"/>
<g id="_53" data-name="53">
  <polygon  points="582.152 522.532 582.152 457 386.657 457 386.657 757.681 642.861 757.681 642.861 700.687 644.684 700.687 644.684 551.963 582.152 551.963 582.152 522.532" fill="#d8c19e" opacity="0.45"/>
</g>
<g id="_52" data-name="52">
  <polygon  points="701.216 521.973 701.216 362.037 753.996 362.037 753.996 345.011 896.712 345.011 896.712 590.59 953.343 590.59 953.343 757.681 641.361 757.681 641.361 700.687 638.682 700.687 638.682 551.963 701.216 551.963 701.216 521.973" fill="#d8c19e" opacity="0.45"/>
</g>
<g id="_51" data-name="51">
  <polygon  points="591.933 368.037 582.152 368.037 582.152 463 386.657 463 386.657 162.319 896.712 162.319 896.712 351.011 760.252 351.285 759.996 368.037 591.933 368.037" fill="#d8c19e" opacity="0.45"/>
</g>
</svg>
