<svg id="A_6NP" data-name="A/6NP" xmlns="http://www.w3.org/2000/svg" viewBox="0 0 1340 920">
  <g>
    <rect width="1340" height="920" fill="#214f77"/>
    <path d="M576.51583,389.56637a25.81584,25.81584,0,0,1-16.99319-6.47776l17.11742-19.06749" fill="none" stroke="#fff" stroke-miterlimit="10" stroke-width="0.25" opacity="0.5"/>
    <path d="M608.55007,340.57823a25.28458,25.28458,0,0,0-6.34443-16.64343l-18.675,16.7651" fill="none" stroke="#fff" stroke-miterlimit="10" stroke-width="0.25" opacity="0.5"/>
    <path d="M608.56706,399.97387a26.61791,26.61791,0,0,0-6.679-17.52112L582.22819,400.102" fill="none" stroke="#fff" stroke-miterlimit="10" stroke-width="0.25" opacity="0.5"/>
    <path d="M778.26789,389.56637a25.81586,25.81586,0,0,0,16.99319-6.47776l-17.11742-19.06749" fill="none" stroke="#fff" stroke-miterlimit="10" stroke-width="0.25" opacity="0.5"/>
    <path d="M762.75793,340.57823a25.28452,25.28452,0,0,0-6.34442-16.64343l-18.675,16.7651" fill="none" stroke="#fff" stroke-miterlimit="10" stroke-width="0.25" opacity="0.5"/>
    <path d="M761.94925,399.86921a25.28456,25.28456,0,0,0-6.34443-16.64342l-18.675,16.76509" fill="none" stroke="#fff" stroke-miterlimit="10" stroke-width="0.25" opacity="0.5"/>
    <rect x="711.8757" y="494.96227" width="3" height="47.363" transform="translate(1232.01948 -194.73193) rotate(90)" fill="#fff"/>
    <rect x="793.57316" y="545.68101" width="3" height="64.53191" transform="translate(1373.02013 -217.12619) rotate(90)" fill="#fff"/>
    <rect x="671.83847" y="513.03273" width="3" height="129.82849" transform="translate(95.3915 1251.28544) rotate(-90)" fill="#fff"/>
    <rect x="518.10774" y="513.84857" width="3" height="128.19681" transform="translate(-58.33923 1097.55471) rotate(-90)" fill="#fff"/>
    <rect x="775.33711" y="555.77676" width="3" height="20.67021" transform="translate(1553.67422 1132.22373) rotate(180)" fill="#fff"/>
    <rect x="659.05552" y="561.20229" width="3" height="15.24468" transform="translate(1321.11103 1137.64926) rotate(180)" fill="#fff"/>
    <rect x="639.90658" y="561.20229" width="3" height="15.24468" transform="translate(1282.81316 1137.64926) rotate(180)" fill="#fff"/>
    <rect x="620.8853" y="561.20229" width="3" height="15.24468" transform="translate(1244.77061 1137.64926) rotate(180)" fill="#fff"/>
    <rect x="576.5236" y="555.77676" width="3" height="20.67021" transform="translate(1156.0472 1132.22373) rotate(180)" fill="#fff"/>
    <rect x="504.48806" y="555.77676" width="3" height="20.67021" transform="translate(1011.97611 1132.22373) rotate(180)" fill="#fff"/>
    <rect x="517.87103" y="502.61586" width="3" height="23.76596" transform="translate(4.8722 1033.86987) rotate(-90)" fill="#fff"/>
    <rect x="563.14062" y="502.61586" width="3" height="23.76596" transform="translate(50.14178 1079.13946) rotate(-90)" fill="#fff"/>
    <rect x="504.48806" y="463.02477" width="3" height="68.17219" transform="translate(1011.97611 994.22174) rotate(180)" fill="#fff"/>
    <rect x="639.97041" y="540.61718" width="3" height="41.17021" transform="translate(80.26812 1202.6727) rotate(-90)" fill="#fff"/>
    <rect x="554.04787" y="463.02477" width="3" height="16.00266" transform="translate(1111.09575 942.0522) rotate(180)" fill="#fff"/>
    <rect x="564.31052" y="467.26479" width="3" height="23.52529" transform="translate(1044.83795 -86.78309) rotate(90)" fill="#fff"/>
    <rect x="768.57996" y="510.38662" width="3" height="16.51431" transform="translate(1288.72373 -251.43618) rotate(90)" fill="#fff"/>
    <rect x="716.87103" y="467.39977" width="3" height="23.04255" transform="translate(1197.29208 -239.44999) rotate(90)" fill="#fff"/>
    <rect x="726.89231" y="462.97523" width="3" height="14.44581" transform="translate(1456.78462 940.39628) rotate(180)" fill="#fff"/>
    <rect x="775.33711" y="462.97523" width="3" height="67.58342" transform="translate(1553.67422 993.53389) rotate(180)" fill="#fff"/>
    <g>
      <rect x="476.95207" y="579.44697" width="82.96151" height="12.35638" fill="#fff" opacity="0.1"/>
      <g opacity="0.5">
        <path d="M559.66354,579.697v11.85639H477.20212V579.697h82.46142m.25-.25H476.95212v12.35639h82.96142V579.447Z" fill="#fff"/>
      </g>
    </g>
    <g>
      <rect x="443.50934" y="559.09591" width="60.97871" height="17.34042" fill="#fff" opacity="0.1"/>
      <g opacity="0.5">
        <path d="M504.23825,559.3459v16.84042h-60.479V559.3459h60.479m.25-.25h-60.979v17.34042h60.979V559.0959Z" fill="#fff"/>
      </g>
    </g>
    <g>
      <rect x="507.48806" y="559.09591" width="69.03553" height="17.34042" fill="#fff" opacity="0.1"/>
      <g opacity="0.5">
        <path d="M576.27341,559.3459v16.84042H507.73825V559.3459h68.53516m.25-.25H507.48825v17.34042h69.03516V559.0959Z" fill="#fff"/>
      </g>
    </g>
    <g>
      <rect x="507.48806" y="515.99884" width="19.10638" height="11.94813" fill="#fff" opacity="0.1"/>
      <g opacity="0.5">
        <path d="M526.34421,516.24884V527.697h-18.606V516.24884h18.606m.25-.25h-19.106V527.947h19.106V515.99884Z" fill="#fff"/>
      </g>
    </g>
    <g>
      <rect x="557.41722" y="515.99884" width="19.10638" height="11.94813" fill="#fff" opacity="0.1"/>
      <g opacity="0.5">
        <path d="M576.27341,516.24884V527.697h-18.606V516.24884h18.606m.25-.25h-19.106V527.947h19.106V515.99884Z" fill="#fff"/>
      </g>
    </g>
    <g>
      <rect x="607.74523" y="563.29269" width="16.73389" height="9.55318" transform="translate(1184.18156 -48.04281) rotate(90.00001)" fill="#fff" opacity="0.1"/>
      <g opacity="0.5">
        <path d="M620.63864,559.95234v16.23389h-9.05322V559.95234h9.05322m.25-.25h-9.55322v16.73389h9.55322V559.70234Z" fill="#fff"/>
      </g>
    </g>
    <g>
      <rect x="611.33212" y="520.14377" width="123.73039" height="10.41488" fill="#fff" opacity="0.1"/>
      <g opacity="0.5">
        <path d="M734.81247,520.39378v9.91489H611.582v-9.91489H734.81247m.25-.25H611.332v10.41489H735.06247V520.14378Z" fill="#fff"/>
      </g>
    </g>
    <g>
      <rect x="706.84976" y="480.42105" width="23.04255" height="36.72272" fill="#fff" opacity="0.1"/>
      <g opacity="0.5">
        <path d="M707.09958,480.67105l22.543,0v36.22272l-22.543,0V480.67105m-.25-.25v36.72271l23.043,0V480.42106l-23.043,0Z" fill="#fff"/>
      </g>
    </g>
    <g>
      <rect x="649.32553" y="625.45767" width="109.04832" height="17.02659" transform="translate(1337.82071 -69.87868) rotate(90)" fill="#fff" opacity="0.1"/>
      <g opacity="0.5">
        <path d="M695.58639,579.69679l16.52637,0V688.24513H695.58639V579.69679m-.25-.25V688.49513h17.02637V579.44682l-17.02637,0Z" fill="#fff"/>
      </g>
    </g>
    <g>
      <rect x="671.44259" y="625.45767" width="109.04832" height="17.02659" transform="translate(1359.93776 -91.99574) rotate(90)" fill="#fff" opacity="0.1"/>
      <g opacity="0.5">
        <path d="M717.70358,579.69679l16.52637,0V688.24513H717.70358V579.69679m-.25-.25V688.49513H734.48V579.44682l-17.02637,0Z" fill="#fff"/>
      </g>
    </g>
    <g>
      <rect x="767.11526" y="579.44677" width="60.22383" height="29.1168" transform="matrix(-1, 0, 0, -1, 1594.45363, 1188.0113)" fill="#fff" opacity="0.1"/>
      <g opacity="0.5">
        <path d="M767.3652,579.69673l59.72412.00009v28.61679l-59.72412-.00009V579.69673m-.25-.25v29.11679l60.22412.00009V579.44682l-60.22412-.00009Z" fill="#fff"/>
      </g>
    </g>
    <g>
      <rect x="762.78362" y="478.52875" width="60.22383" height="29.1168" transform="translate(299.8077 1285.98226) rotate(-89.99995)" fill="#fff" opacity="0.1"/>
      <g opacity="0.5">
        <path d="M778.58737,463.22523l28.6167,0v59.72383H778.58688l.00049-59.72385m-.25-.25-.00049,60.22385h29.11719V462.97525l-29.1167,0Z" fill="#fff"/>
      </g>
    </g>
    <g>
      <rect x="778.33711" y="559.07466" width="61.002" height="17.3723" fill="#fff" opacity="0.1"/>
      <g opacity="0.5">
        <path d="M778.58688,559.32466l60.50244,0V576.197l-60.50244,0V559.32466m-.25-.25v17.37228l61.00244,0V559.07469l-61.00244,0Z" fill="#fff"/>
      </g>
    </g>
    <g>
      <path d="M710.83756,645.4771H709.62v5.71009a1.50168,1.50168,0,0,1-1.5,1.5l-8.7981,0a1.50168,1.50168,0,0,1-1.5-1.5V639.517a1.50168,1.50168,0,0,1,1.5-1.5H708.12a1.50168,1.50168,0,0,1,1.5,1.5v5.71014h1.21753a.125.125,0,0,1,0,.25ZM709.37,639.517a1.25014,1.25014,0,0,0-1.25-1.25h-8.7981a1.25014,1.25014,0,0,0-1.25,1.25v11.67022a1.2501,1.2501,0,0,0,1.25,1.25l8.7981,0a1.25011,1.25011,0,0,0,1.25-1.25V645.4771h-4.27661a.125.125,0,0,1,0-.25H709.37Z" fill="#fff" opacity="0.5"/>
      <rect x="698.07204" y="638.26697" width="11.29787" height="14.17021" rx="1.25" fill="#fff" opacity="0.1"/>
    </g>
    <rect x="675.78411" y="488.04089" width="56.13131" height="6" transform="translate(212.80887 1194.89064) rotate(-90)" fill="#fff"/>
    <rect x="608.44163" y="513.92569" width="98.40813" height="6.21808" fill="#fff"/>
    <polygon points="579.524 520.144 579.524 530.559 576.524 530.559 576.524 463.025 398.637 463.025 398.637 457.025 582.509 457.025 582.509 463.025 582.524 463.025 582.524 520.144 579.524 520.144" fill="#fff"/>
    <rect x="659.12103" y="629.68633" width="111.98936" height="5.51064" transform="translate(1347.55737 -82.67406) rotate(90)" fill="#fff"/>
    <rect x="700.84976" y="456.97523" width="183.35106" height="6" fill="#fff"/>
    <rect x="386.63699" y="457.02477" width="12" height="24.47539" fill="#fff"/>
    <rect x="386.63699" y="548.77676" width="12" height="39.65957" fill="#fff"/>
    <rect x="443.50933" y="576.43633" width="12" height="124" fill="#fff"/>
    <rect x="461.03593" y="682.69431" width="12" height="23.48404" transform="translate(1161.47226 227.4004) rotate(90)" fill="#fff"/>
    <rect x="570.87103" y="663.50016" width="12" height="61.87234" transform="translate(1271.30737 117.5653) rotate(90)" fill="#fff"/>
    <rect x="701.26731" y="662.13314" width="12" height="64.60638" transform="translate(1401.70364 -12.83098) rotate(90)" fill="#fff"/>
    <rect x="817.03327" y="678.13048" width="12" height="32.6117" transform="translate(1517.4696 -128.59694) rotate(90)" fill="#fff"/>
    <rect x="827.33912" y="576.44697" width="12" height="111.98936" transform="translate(1666.67824 1264.8833) rotate(180)" fill="#fff"/>
    <rect x="884.20082" y="548.7342" width="12" height="39.71277" transform="translate(1780.40164 1137.18117) rotate(180)" fill="#fff"/>
    <rect x="884.20082" y="456.97523" width="12" height="24.51961" transform="translate(1780.40164 938.47008) rotate(180)" fill="#fff"/>
    <g>
      <rect x="386.63699" y="481.50016" width="12" height="67.2766" fill="#d3d3d3" opacity="0.6"/>
      <rect x="358.99869" y="514.38846" width="67.2766" height="1.5" transform="translate(-122.50147 907.77545) rotate(-90)" fill="#fff"/>
    </g>
    <g>
      <rect x="415.07316" y="560.00016" width="12" height="44.87234" transform="translate(1003.50949 161.36317) rotate(90)" fill="#d3d3d3" opacity="0.6"/>
      <rect x="398.63699" y="581.68633" width="44.87234" height="1.5" fill="#fff"/>
    </g>
    <g>
      <rect x="506.35641" y="660.85787" width="12" height="67.15691" transform="translate(1206.79274 182.07992) rotate(90)" fill="#d3d3d3" opacity="0.6"/>
      <rect x="478.77795" y="693.68633" width="67.15691" height="1.5" fill="#fff"/>
    </g>
    <g>
      <rect x="635.38566" y="660.85787" width="12" height="67.15691" transform="translate(1335.82199 53.05067) rotate(90)" fill="#d3d3d3" opacity="0.6"/>
      <rect x="607.8072" y="693.68633" width="67.15691" height="1.5" fill="#fff"/>
    </g>
    <g>
      <rect x="767.14896" y="660.85787" width="12" height="67.15691" transform="translate(1467.58529 -78.71263) rotate(90)" fill="#d3d3d3" opacity="0.6"/>
      <rect x="739.5705" y="693.68633" width="67.15691" height="1.5" fill="#fff"/>
    </g>
    <g>
      <rect x="855.76997" y="560.01612" width="12" height="44.8617" transform="translate(1444.21694 -279.323) rotate(90)" fill="#d3d3d3" opacity="0.6"/>
      <rect x="839.33912" y="581.69697" width="44.8617" height="1.5" fill="#fff"/>
    </g>
    <g>
      <rect x="884.20082" y="481.49484" width="12" height="67.23936" fill="#d3d3d3" opacity="0.6"/>
      <rect x="856.58114" y="514.36452" width="67.23936" height="1.5" transform="translate(375.0863 1405.31534) rotate(-90)" fill="#fff"/>
    </g>
    <g>
      <path d="M484.04872,601.21057H466.97743l0,70.66992h17.07129a3.89579,3.89579,0,0,0,3.91407-3.86816l0-62.93408A3.89539,3.89539,0,0,0,484.04872,601.21057Z" fill="#fff" opacity="0.1"/>
      <rect x="462.77722" y="601.21057" width="3.9502" height="70.66992" fill="#fff" opacity="0.2"/>
      <path d="M484.04872,600.96057H462.52723v.25l0,70.66992v.25h21.52148a4.146,4.146,0,0,0,4.16407-4.11816l0-62.93408A4.14586,4.14586,0,0,0,484.04872,600.96057ZM466.7274,671.88049h-3.95019l0-70.66992h3.9502Zm21.23536-3.86816a3.89579,3.89579,0,0,1-3.91407,3.86816H466.9774l0-70.66992h17.07129a3.89539,3.89539,0,0,1,3.91406,3.86768Z" fill="#fff" opacity="0.5"/>
    </g>
    <g>
      <path d="M543.09739,663.09389l14.12545,0,0-22.05517-14.12545,0a3.89579,3.89579,0,0,0-3.91407,3.86816l0,14.31933A3.89539,3.89539,0,0,0,543.09739,663.09389Z" fill="#fff" opacity="0.1"/>
      <rect x="557.47285" y="641.03873" width="3.9502" height="22.05518" fill="#fff" opacity="0.2"/>
      <path d="M543.09739,663.34389l18.57565,0v-.25l0-22.05517v-.25l-18.57564,0a4.146,4.146,0,0,0-4.16407,4.11816l0,14.31933A4.14586,4.14586,0,0,0,543.09739,663.34389Zm14.37547-22.30516h3.95019l0,22.05517h-3.9502Zm-18.28952,3.86815a3.89579,3.89579,0,0,1,3.91407-3.86816l14.12545,0,0,22.05517-14.12545,0a3.89539,3.89539,0,0,1-3.91406-3.86768Z" fill="#fff" opacity="0.5"/>
    </g>
    <g>
      <path d="M504.16765,664.67469l0,14.12545,22.05517,0,0-14.12545a3.8958,3.8958,0,0,0-3.86816-3.91406l-14.31934,0A3.89538,3.89538,0,0,0,504.16765,664.67469Z" fill="#fff" opacity="0.1"/>
      <rect x="504.16763" y="679.05015" width="22.05518" height="3.9502" fill="#fff" opacity="0.2"/>
      <path d="M503.91765,664.67469l0,18.57564h.25l22.05518,0h.25l0-18.57565a4.146,4.146,0,0,0-4.11816-4.16406l-14.31934,0A4.14585,4.14585,0,0,0,503.91765,664.67469Zm22.30516,14.37546v3.9502l-22.05518,0,0-3.95019Zm-3.86815-18.28951a3.8958,3.8958,0,0,1,3.86816,3.91406l0,14.12545-22.05517,0,0-14.12545a3.89538,3.89538,0,0,1,3.86767-3.91406Z" fill="#fff" opacity="0.5"/>
    </g>
    <g>
      <g opacity="0.5">
        <path d="M515.19528,626.62709a9.91844,9.91844,0,1,1-9.91846,9.91845,9.91863,9.91863,0,0,1,9.91846-9.91845m0-.25a10.16844,10.16844,0,1,0,10.16846,10.16845,10.18,10.18,0,0,0-10.16846-10.16845Z" fill="#fff"/>
      </g>
      <circle cx="515.19523" cy="636.54553" r="9.91843" fill="#fff" opacity="0.1"/>
    </g>
    <g>
      <polyline points="388.137 700.415 443.509 700.415 443.509 588.436 388.137 588.436" fill="#fff" opacity="0.2"/>
      <polyline points="388.137 700.415 388.137 755.909 697.119 755.909 697.119 700.415" fill="#fff" opacity="0.2"/>
      <g opacity="0.5">
        <polygon points="697.12 755.909 388.137 755.909 388.137 588.436 386.637 588.436 386.637 755.909 386.637 757.409 388.137 757.409 697.12 757.409 697.12 755.909" fill="#fff"/>
      </g>
    </g>
    <g>
      <polyline points="951.863 700.415 839.34 700.415 839.34 588.436 951.863 588.436" fill="#fff" opacity="0.2"/>
      <polyline points="951.863 700.415 951.863 755.909 697.12 755.909 697.12 700.415" fill="#fff" opacity="0.2"/>
      <g opacity="0.5">
        <polygon points="697.12 755.909 951.863 755.909 951.863 588.436 953.363 588.436 953.363 755.909 953.363 757.409 951.863 757.409 697.12 757.409 697.12 755.909" fill="#fff"/>
      </g>
      <g opacity="0.5">
        <polyline points="953.363 588.447 896.201 588.447 896.201 586.947 953.363 586.947" fill="#fff"/>
      </g>
    </g>
    <g>
      <polygon points="607.284 614.369 613.221 614.369 613.221 625.943 607.284 625.943 607.284 626.193 613.221 626.193 613.471 626.193 613.471 625.943 613.471 614.369 613.471 614.119 613.221 614.119 607.284 614.119 607.284 614.369" fill="#fff" opacity="0.5"/>
      <rect x="584.6886" y="611.69851" width="22.59574" height="33.95745" transform="translate(1191.97295 1257.35447) rotate(180)" fill="#fff" opacity="0.1"/>
      <g opacity="0.1">
        <rect x="607.28435" y="631.41128" width="5.93617" height="11.57447" transform="translate(1220.50487 1274.39702) rotate(180)" fill="#fff"/>
      </g>
      <g opacity="0.5">
        <path d="M607.03415,611.9485V645.406h-22.0957V611.9485h22.0957m.25-.25h-22.5957V645.656h22.5957V611.6985Z" fill="#fff"/>
      </g>
      <polygon points="607.284 631.411 613.221 631.411 613.221 642.986 607.284 642.986 607.284 643.236 613.221 643.236 613.471 643.236 613.471 642.986 613.471 631.411 613.471 631.161 613.221 631.161 607.284 631.161 607.284 631.411" fill="#fff" opacity="0.5"/>
      <g opacity="0.1">
        <rect x="607.28435" y="614.36873" width="5.93617" height="11.57447" transform="translate(1220.50487 1240.31193) rotate(180)" fill="#fff"/>
      </g>
      <polygon points="584.689 642.986 578.752 642.986 578.752 631.411 584.689 631.411 584.689 631.161 578.752 631.161 578.502 631.161 578.502 631.411 578.502 642.986 578.502 643.236 578.752 643.236 584.689 643.236 584.689 642.986" fill="#fff" opacity="0.5"/>
      <g opacity="0.1">
        <rect x="578.75243" y="614.36872" width="5.93617" height="11.57447" fill="#fff"/>
      </g>
      <polygon points="584.689 625.943 578.752 625.943 578.752 614.369 584.689 614.369 584.689 614.119 578.752 614.119 578.502 614.119 578.502 614.369 578.502 625.943 578.502 626.193 578.752 626.193 584.689 626.193 584.689 625.943" fill="#fff" opacity="0.5"/>
      <g opacity="0.1">
        <rect x="578.75243" y="631.41127" width="5.93617" height="11.57447" fill="#fff"/>
      </g>
    </g>
    <g>
      <rect x="627.00505" y="625.78989" width="51.14348" height="22.81725" transform="translate(15.37824 1289.77527) rotate(-90)" fill="#fff" opacity="0.1"/>
      <g opacity="0.5">
        <path d="M663.73532,611.87678v50.64346H641.41794V611.87678h22.31738m.25-.25H641.16794v51.14346h22.81738V611.62678Z" fill="#fff"/>
      </g>
    </g>
    <g>
      <rect x="645.50917" y="637.0751" width="17.1618" height="17.1618" transform="translate(1299.74606 -8.43408) rotate(90)" fill="#fff" opacity="0.1"/>
      <g>
        <circle cx="650.08222" cy="641.65394" r="2.71813" fill="none" stroke="#fff" stroke-miterlimit="10" stroke-width="0.25" opacity="0.5"/>
        <circle cx="650.08222" cy="649.65805" r="2.71813" fill="none" stroke="#fff" stroke-miterlimit="10" stroke-width="0.25" opacity="0.5"/>
        <circle cx="658.09791" cy="641.65394" r="2.71813" fill="none" stroke="#fff" stroke-miterlimit="10" stroke-width="0.25" opacity="0.5"/>
        <circle cx="658.09791" cy="649.65805" r="2.71813" fill="none" stroke="#fff" stroke-miterlimit="10" stroke-width="0.25" opacity="0.5"/>
      </g>
      <g opacity="0.5">
        <path d="M662.79669,654.36278V636.94914H645.383v17.41364Zm-.25179-17.16186V654.111H645.63483V637.20092Z" fill="#fff"/>
      </g>
    </g>
    <g>
      <g>
        <rect x="796.33366" y="657.48967" width="42.50662" height="19.50429" transform="matrix(0, 1, -1, 0, 1484.82912, -150.34488)" fill="#fff" opacity="0.1"/>
        <g opacity="0.5">
          <path d="M827.08932,646.23851v42.00662l-19.00439,0V646.23851h19.00439m.25-.25H807.83493V688.4951l19.50439,0V645.98851Z" fill="#fff"/>
        </g>
      </g>
      <g>
        <rect x="799.16195" y="664.43938" width="11.45745" height="5.88829" transform="translate(1472.27457 -137.50684) rotate(90.00003)" fill="#fff" opacity="0.1"/>
        <polyline points="807.835 673.112 801.947 673.112 801.947 661.655 807.835 661.655" fill="none" stroke="#fff" stroke-miterlimit="10" stroke-width="0.25" opacity="0.5"/>
      </g>
    </g>
    <g>
      <g>
        <rect x="824.57408" y="462.97525" width="42.50662" height="19.50429" fill="#fff" opacity="0.1"/>
        <g opacity="0.5">
          <path d="M824.82419,463.22523l42.00635,0v19.00428l-42.00635,0V463.22523m-.25-.25v19.50429l42.50635,0V462.97528l-42.50635,0Z" fill="#fff"/>
        </g>
      </g>
      <g>
        <rect x="840.24038" y="482.47955" width="11.45745" height="5.88829" fill="#fff" opacity="0.1"/>
        <polyline points="851.698 482.48 851.698 488.368 840.24 488.368 840.24 482.48" fill="none" stroke="#fff" stroke-miterlimit="10" stroke-width="0.25" opacity="0.5"/>
      </g>
    </g>
    <g>
      <g>
        <path d="M426.32393,516.98492V463.27977H476.8011v53.70515a3.93613,3.93613,0,0,1-3.86817,3.9921H430.19161A3.93572,3.93572,0,0,1,426.32393,516.98492Z" fill="#fff" opacity="0.1"/>
        <path d="M477.0511,463.02478v53.96014a4.18882,4.18882,0,0,1-4.11817,4.24709H430.19161a4.18873,4.18873,0,0,1-4.11768-4.24709V463.02478m.25,0H476.8011M472.93293,520.977a3.93613,3.93613,0,0,0,3.86817-3.9921V463.27977H426.32393v53.70515a3.93572,3.93572,0,0,0,3.86768,3.9921Z" fill="#fff" opacity="0.5"/>
      </g>
      <polygon points="477.641 475.311 504.233 475.311 504.233 463.3 477.641 463.3 477.307 463.3 477.051 463.3 477.051 463.025 504.488 463.025 504.488 475.586 477.051 475.586 477.051 475.311 477.307 475.311 477.641 475.311" fill="#fff" opacity="0.5"/>
      <polygon points="425.484 463.3 398.765 463.3 398.765 475.311 425.484 475.311 425.818 475.311 426.074 475.311 426.074 475.586 398.509 475.586 398.509 463.025 426.074 463.025 426.074 463.3 425.818 463.3 425.484 463.3" fill="#fff" opacity="0.5"/>
      <rect x="477.0511" y="463.29968" width="27.18151" height="12.01102" transform="translate(981.28371 938.61037) rotate(180)" fill="#fff" opacity="0.1"/>
      <rect x="398.76471" y="463.29969" width="27.30922" height="12.01101" transform="translate(824.83865 938.61038) rotate(180)" fill="#fff" opacity="0.1"/>
    </g>
    <g>
      <rect x="744.88417" y="447.98336" width="15.4611" height="45.4448" transform="translate(281.90427 1223.31755) rotate(-89.99964)" fill="#fff" opacity="0.1"/>
      <g opacity="0.5">
        <path d="M775.08737,463.22521l-.00049,14.96108H730.14206l.00049-14.96108h44.94482m.25-.25H729.89255l-.00049,15.46108h45.44482l.00049-15.46108Z" fill="#fff"/>
      </g>
    </g>
    <g>
      <path d="M763.01118,463.22308v1.34253h5.71009a1.50167,1.50167,0,0,1,1.5,1.5v8.7981a1.50167,1.50167,0,0,1-1.5,1.5H757.051a1.50168,1.50168,0,0,1-1.5-1.5l0-8.7981a1.50168,1.50168,0,0,1,1.5-1.5l5.71014,0v-1.34253h.25ZM757.051,464.8156a1.25014,1.25014,0,0,0-1.25,1.25l0,8.7981a1.25014,1.25014,0,0,0,1.25,1.25h11.67023a1.2501,1.2501,0,0,0,1.25-1.25v-8.7981a1.25009,1.25009,0,0,0-1.25-1.25h-5.71009v4.27661a.125.125,0,0,1-.25,0v-4.27661Z" fill="#fff" opacity="0.5"/>
      <rect x="757.23721" y="463.37955" width="11.29787" height="14.17021" rx="1.25" transform="translate(292.42121 1233.35063) rotate(-89.99998)" fill="#fff" opacity="0.1"/>
    </g>
    <g>
      <path d="M742.353,463.22308v1.34253h5.71008a1.50168,1.50168,0,0,1,1.5,1.5v8.79809a1.50169,1.50169,0,0,1-1.5,1.5H736.39287a1.50168,1.50168,0,0,1-1.5-1.5v-8.7981a1.50168,1.50168,0,0,1,1.5-1.5l5.71015,0v-1.34253h.25Zm-5.96015,1.59252a1.25014,1.25014,0,0,0-1.25,1.25v8.7981a1.25014,1.25014,0,0,0,1.25,1.25H748.0631a1.2501,1.2501,0,0,0,1.25-1.25v-8.79809a1.2501,1.2501,0,0,0-1.25-1.25H742.353l0,4.27661a.125.125,0,0,1-.25,0l0-4.27661Z" fill="#fff" opacity="0.5"/>
      <rect x="736.57905" y="463.37955" width="11.29787" height="14.17021" rx="1.25" transform="translate(271.76306 1212.69246) rotate(-89.99998)" fill="#fff" opacity="0.1"/>
    </g>
    <g>
      <rect x="532.36283" y="458.8412" width="17.47297" height="25.89639" transform="translate(69.30823 1012.88722) rotate(-89.99982)" fill="#fff" opacity="0.1"/>
      <g opacity="0.5">
        <path d="M528.40134,463.3029l25.396,0v16.973l-25.396,0V463.3029m-.25-.25v17.47294l25.896,0v-17.473l-25.896,0Z" fill="#fff"/>
      </g>
    </g>
    <g>
      <path d="M541.22435,463.3023v1.34253h5.71008a1.50168,1.50168,0,0,1,1.5,1.5v8.7981a1.50168,1.50168,0,0,1-1.5,1.5H535.2642a1.50168,1.50168,0,0,1-1.5-1.5l0-8.7981a1.50168,1.50168,0,0,1,1.5-1.5h5.71014V463.3023h.25Zm-5.96014,1.59253a1.25014,1.25014,0,0,0-1.25,1.25l0,8.7981a1.25014,1.25014,0,0,0,1.25,1.25h11.67023a1.2501,1.2501,0,0,0,1.25-1.25v-8.7981a1.2501,1.2501,0,0,0-1.25-1.25h-5.71008v4.27661a.125.125,0,1,1-.25,0v-4.27661Z" fill="#fff" opacity="0.5"/>
      <rect x="535.45038" y="463.45877" width="11.29787" height="14.17021" rx="1.25" transform="translate(70.55524 1011.64302) rotate(-89.99998)" fill="#fff" opacity="0.1"/>
    </g>
    <g>
      <path d="M528.15143,463.02478l0,49.97406-20.66333,0,0-49.97406Zm-20.40572,49.7164,20.148,0,0-49.45876-9.9457,0v2.95795h6.98775l0,36.297a7.11608,7.11608,0,1,1-14.23215,0l0-36.297,6.98675,0v-2.95795h-9.94469Zm10.07354-43.646a.12875.12875,0,0,1-.12883-.12882l0-2.46831-6.7291,0,0,36.03932a6.85842,6.85842,0,1,0,13.71685,0l0-36.03932h-6.7301v2.46831A.12875.12875,0,0,1,517.81925,469.09515Z" fill="#fff" opacity="0.5"/>
      <path d="M527.89378,463.28243l0,49.45876-20.148,0,0-49.45876Zm-16.93247,39.2549a6.85842,6.85842,0,0,0,13.71685,0l0-36.03932-13.71685,0Z" fill="#fff" opacity="0.1"/>
      <path d="M517.61609,466.498h.40729a6.65478,6.65478,0,0,1,6.65478,6.65478v36.243a0,0,0,0,1,0,0H510.96132a0,0,0,0,1,0,0v-36.243a6.65478,6.65478,0,0,1,6.65478-6.65478Z" transform="translate(1035.63917 975.89411) rotate(-179.99996)" fill="#fff" opacity="0.2"/>
    </g>
    <g>
      <g opacity="0.5">
        <path d="M771.00483,500.5151v9.7h-9.65015a4.85,4.85,0,0,1,0-9.7h9.65014m.25-.25h-9.90014a5.1,5.1,0,0,0,0,10.2h9.90015v-10.2Z" fill="#fff"/>
      </g>
      <g opacity="0.5">
        <polygon points="775.337 498.282 771.007 498.282 771.007 500.265 771.257 500.265 771.257 498.532 775.087 498.532 775.087 512.199 771.257 512.199 771.257 510.465 771.007 510.465 771.007 512.449 775.337 512.449 775.337 498.282 775.337 498.282" fill="#fff"/>
      </g>
      <path d="M771.00483,500.5151v9.7h-9.65015a4.85,4.85,0,0,1,0-9.7h9.65014" fill="#fff" opacity="0.1"/>
      <rect x="771.25483" y="498.53166" width="3.83228" height="13.66699" fill="#fff" opacity="0.1"/>
    </g>
    <g>
      <g opacity="0.5">
        <path d="M572.19133,489.08586l0,9.7h-9.65014a4.85,4.85,0,0,1,0-9.7l9.65015,0m.25-.25-9.90015,0a5.1,5.1,0,0,0,0,10.2h9.90014l0-10.2Z" fill="#fff"/>
      </g>
      <g opacity="0.5">
        <polygon points="576.523 486.852 572.193 486.852 572.193 488.836 572.443 488.836 572.443 487.102 576.273 487.102 576.273 500.769 572.443 500.769 572.443 499.036 572.193 499.036 572.193 501.019 576.523 501.019 576.523 486.852 576.523 486.852" fill="#fff"/>
      </g>
      <path d="M572.19133,489.08586l0,9.7h-9.65014a4.85,4.85,0,0,1,0-9.7l9.65015,0" fill="#fff" opacity="0.1"/>
      <rect x="572.44132" y="487.10241" width="3.83228" height="13.66699" fill="#fff" opacity="0.1"/>
    </g>
    <g>
      <rect x="678.78879" y="559.94554" width="55.54958" height="16.24707" transform="translate(1413.12702 1136.13833) rotate(-179.99999)" fill="#fff" opacity="0.1"/>
      <rect x="662.29894" y="559.94548" width="16.2466" height="16.24707" transform="translate(1340.84423 1136.13834) rotate(-179.99997)" fill="#fff" opacity="0.1"/>
      <g opacity="0.5">
        <path d="M678.789,559.70207h-16.7334V576.436H678.789V559.70207ZM662.2988,576.19255V559.94548h16.24658v16.24707Z" fill="#fff"/>
      </g>
      <g opacity="0.5">
        <polygon points="734.622 559.702 678.789 559.702 678.789 559.945 734.338 559.946 734.338 576.193 678.789 576.193 678.789 576.436 734.622 576.436 734.622 559.702 734.622 559.702" fill="#fff"/>
      </g>
      <g opacity="0.5">
        <path d="M670.42233,561.77354a6.29524,6.29524,0,1,0,6.29541,6.29526,6.30265,6.30265,0,0,0-6.29541-6.29526Zm0,12.34708a6.05184,6.05184,0,1,1,6.05225-6.05182,6.05841,6.05841,0,0,1-6.05225,6.05182Z" fill="#fff"/>
      </g>
      <circle cx="670.42224" cy="568.06878" r="6.05206" fill="#fff" opacity="0.1"/>
    </g>
    <g>
      <rect x="709.468" y="482.90442" width="17.80608" height="31.75598" fill="#fff" opacity="0.1"/>
      <g opacity="0.5">
        <path d="M709.71823,483.15441l17.30566,0v31.256H709.71823v-31.256m-.25-.25v31.756h17.80566v-31.756l-17.80566,0Z" fill="#fff"/>
      </g>
    </g>
    <g>
      <polyline points="894.712 755.819 697.125 755.819 697.125 755.909 697.114 755.909 697.114 755.819 388.137 755.819 388.137 588.436 391.937 588.436 391.937 752.109 697.114 752.109 391.937 752.109 391.937 588.436 395.737 588.436 395.737 748.309 697.114 748.309 395.737 748.309 395.737 588.436 399.547 588.436 399.547 744.499 697.114 744.499 399.547 744.499 399.547 588.436 403.347 588.436 403.347 740.699 697.114 740.699 403.347 740.699 403.347 588.436 407.147 588.436 407.147 736.899 697.114 736.899 407.147 736.899 407.147 588.436 410.957 588.436 410.957 733.089 697.114 733.089 410.957 733.089 410.957 588.436 414.757 588.436 414.757 729.289 697.114 729.289 414.757 729.289 414.757 588.436 418.557 588.436 418.557 725.489 697.114 725.489 418.557 725.489 418.557 588.436 422.367 588.436 422.367 721.679 697.114 721.679 422.367 721.679 422.367 588.436 426.167 588.436 426.167 717.879 697.114 717.879 426.167 717.879 426.167 588.436 429.967 588.436 429.977 702.659 429.977 714.079 697.114 714.079 429.977 714.079 429.977 702.659 429.967 588.436 433.777 588.436 433.777 710.269 697.114 710.269 433.777 710.269 433.777 588.436 437.577 588.436 437.577 706.469 697.114 706.469 697.114 706.374 437.577 706.374 437.577 588.436 441.387 588.436 441.387 702.564 697.114 702.564 697.125 702.564 841.462 702.564 841.462 588.436 845.272 588.436 845.272 706.374 697.125 706.374" fill="none" stroke="#fff" stroke-miterlimit="10" stroke-width="0.2"/>
      <line x1="898.52219" y1="588.43633" x2="898.52219" y2="755.81871" fill="none" stroke="#fff" stroke-miterlimit="10" stroke-width="0.2"/>
      <line x1="902.33225" y1="588.43633" x2="902.33225" y2="755.81871" fill="none" stroke="#fff" stroke-miterlimit="10" stroke-width="0.2"/>
      <line x1="906.1423" y1="588.43633" x2="906.1423" y2="755.81871" fill="none" stroke="#fff" stroke-miterlimit="10" stroke-width="0.2"/>
      <line x1="909.95236" y1="588.43633" x2="909.95236" y2="755.81871" fill="none" stroke="#fff" stroke-miterlimit="10" stroke-width="0.2"/>
      <line x1="913.76242" y1="588.43633" x2="913.76242" y2="755.81871" fill="none" stroke="#fff" stroke-miterlimit="10" stroke-width="0.2"/>
      <line x1="917.57248" y1="588.43633" x2="917.57248" y2="755.81871" fill="none" stroke="#fff" stroke-miterlimit="10" stroke-width="0.2"/>
      <line x1="921.38254" y1="588.43633" x2="921.38254" y2="755.81871" fill="none" stroke="#fff" stroke-miterlimit="10" stroke-width="0.2"/>
      <line x1="925.1926" y1="588.43633" x2="925.1926" y2="755.81871" fill="none" stroke="#fff" stroke-miterlimit="10" stroke-width="0.2"/>
      <line x1="929.00266" y1="588.43633" x2="929.00266" y2="755.81871" fill="none" stroke="#fff" stroke-miterlimit="10" stroke-width="0.2"/>
      <line x1="932.81271" y1="588.43633" x2="932.81271" y2="755.81871" fill="none" stroke="#fff" stroke-miterlimit="10" stroke-width="0.2"/>
      <line x1="936.62277" y1="588.43633" x2="936.62277" y2="755.81871" fill="none" stroke="#fff" stroke-miterlimit="10" stroke-width="0.2"/>
      <line x1="940.43283" y1="588.43633" x2="940.43283" y2="755.81871" fill="none" stroke="#fff" stroke-miterlimit="10" stroke-width="0.2"/>
      <line x1="944.24289" y1="588.43633" x2="944.24289" y2="755.81871" fill="none" stroke="#fff" stroke-miterlimit="10" stroke-width="0.2"/>
      <line x1="948.05295" y1="588.43633" x2="948.05295" y2="755.81871" fill="none" stroke="#fff" stroke-miterlimit="10" stroke-width="0.2"/>
      <polyline points="697.125 706.469 845.272 706.469 845.272 588.436 849.072 588.436 849.072 710.269 697.125 710.269 849.072 710.269 849.072 588.436 852.882 588.436 852.872 702.659 852.872 714.079 697.125 714.079 852.872 714.079 852.872 702.659 852.882 588.436 856.682 588.436 856.682 717.879 697.125 717.879 856.682 717.879 856.682 588.436 860.482 588.436 860.482 721.679 697.125 721.679 860.482 721.679 860.482 588.436 864.292 588.436 864.292 725.489 697.125 725.489 864.292 725.489 864.292 588.436 868.092 588.436 868.092 729.289 697.125 729.289 868.092 729.289 868.092 588.436 871.892 588.436 871.892 733.089 697.125 733.089 871.892 733.089 871.892 588.436 875.702 588.436 875.702 736.899 697.125 736.899 875.702 736.899 875.702 588.436 879.502 588.436 879.502 740.699 697.125 740.699 879.502 740.699 879.502 588.436 883.302 588.436 883.302 744.499 697.125 744.499 883.302 744.499 883.302 588.436 887.112 588.436 887.112 748.309 697.125 748.309 887.112 748.309 887.112 588.436 890.912 588.436 890.912 752.109 697.125 752.109 890.912 752.109 890.912 588.436 894.712 588.436 951.863 588.436 951.863 755.819 894.712 755.819 894.712 588.436" fill="none" stroke="#fff" stroke-miterlimit="10" stroke-width="0.2"/>
    </g>
    <path d="M576.51583,530.43363a25.81584,25.81584,0,0,0-16.99319,6.47776l17.11742,19.06749" fill="none" stroke="#fff" stroke-miterlimit="10" stroke-width="0.25" opacity="0.5"/>
    <path d="M608.55007,579.42177a25.28458,25.28458,0,0,1-6.34443,16.64343l-18.675-16.7651" fill="none" stroke="#fff" stroke-miterlimit="10" stroke-width="0.25" opacity="0.5"/>
    <path d="M608.56706,520.02613a26.61791,26.61791,0,0,1-6.679,17.52112L582.22819,519.898" fill="none" stroke="#fff" stroke-miterlimit="10" stroke-width="0.25" opacity="0.5"/>
    <path d="M778.26789,530.43363a25.81586,25.81586,0,0,1,16.99319,6.47776l-17.11742,19.06749" fill="none" stroke="#fff" stroke-miterlimit="10" stroke-width="0.25" opacity="0.5"/>
    <path d="M762.75793,579.42177a25.28452,25.28452,0,0,1-6.34442,16.64343l-18.675-16.7651" fill="none" stroke="#fff" stroke-miterlimit="10" stroke-width="0.25" opacity="0.5"/>
    <path d="M761.94925,520.13079a25.28456,25.28456,0,0,1-6.34443,16.64342l-18.675-16.76509" fill="none" stroke="#fff" stroke-miterlimit="10" stroke-width="0.25" opacity="0.5"/>
    <rect x="711.8757" y="377.67473" width="3" height="47.363" transform="translate(312.01948 1114.73193) rotate(-90)" fill="#fff"/>
    <rect x="793.57316" y="309.78707" width="3" height="64.53191" transform="translate(453.02013 1137.12619) rotate(-90)" fill="#fff"/>
    <rect x="671.83847" y="277.13879" width="3" height="129.82849" transform="translate(1015.3915 -331.28544) rotate(90)" fill="#fff"/>
    <rect x="518.10774" y="277.95463" width="3" height="128.19681" transform="translate(861.66077 -177.55471) rotate(90)" fill="#fff"/>
    <rect x="775.33711" y="343.55303" width="3" height="20.67021" transform="translate(1553.67422 707.77627) rotate(180)" fill="#fff"/>
    <rect x="659.05552" y="343.55303" width="3" height="15.24468" transform="translate(1321.11103 702.35074) rotate(180)" fill="#fff"/>
    <rect x="639.90658" y="343.55303" width="3" height="15.24468" transform="translate(1282.81316 702.35074) rotate(180)" fill="#fff"/>
    <rect x="620.8853" y="343.55303" width="3" height="15.24468" transform="translate(1244.77061 702.35074) rotate(180)" fill="#fff"/>
    <rect x="576.5236" y="343.55303" width="3" height="20.67021" transform="translate(1156.0472 707.77627) rotate(180)" fill="#fff"/>
    <rect x="504.48806" y="343.55303" width="3" height="20.67021" transform="translate(1011.97611 707.77627) rotate(180)" fill="#fff"/>
    <rect x="517.87103" y="393.61818" width="3" height="23.76596" transform="translate(924.8722 -113.86987) rotate(90)" fill="#fff"/>
    <rect x="563.14062" y="393.61818" width="3" height="23.76596" transform="translate(970.14178 -159.13946) rotate(90)" fill="#fff"/>
    <rect x="504.48806" y="388.80304" width="3" height="68.17219" transform="translate(1011.97611 845.77826) rotate(180)" fill="#fff"/>
    <rect x="639.97041" y="338.2126" width="3" height="41.17021" transform="translate(1000.26812 -282.6727) rotate(90)" fill="#fff"/>
    <rect x="554.04787" y="440.97257" width="3" height="16.00266" transform="translate(1111.09575 897.9478) rotate(180)" fill="#fff"/>
    <rect x="564.31052" y="429.20993" width="3" height="23.52529" transform="translate(124.83795 1006.78309) rotate(-90)" fill="#fff"/>
    <rect x="768.57996" y="393.09907" width="3" height="16.51431" transform="translate(368.72373 1171.43618) rotate(-90)" fill="#fff"/>
    <rect x="716.87103" y="429.55768" width="3" height="23.04255" transform="translate(277.29208 1159.44999) rotate(-90)" fill="#fff"/>
    <rect x="726.89231" y="442.57895" width="3" height="14.44581" transform="translate(1456.78462 899.60372) rotate(180)" fill="#fff"/>
    <rect x="775.33711" y="389.44134" width="3" height="67.58342" transform="translate(1553.67422 846.46611) rotate(180)" fill="#fff"/>
    <g>
      <rect x="476.95207" y="328.19665" width="82.96151" height="12.35638" fill="#fff" opacity="0.1"/>
      <g opacity="0.5">
        <path d="M559.66354,328.44665V340.303H477.20212V328.44665h82.46142m.25-.25H476.95212V340.553h82.96142V328.19665Z" fill="#fff"/>
      </g>
    </g>
    <g>
      <rect x="443.50934" y="343.56367" width="60.97871" height="17.34042" fill="#fff" opacity="0.1"/>
      <g opacity="0.5">
        <path d="M504.23825,343.81367v16.84041l-60.479,0V343.81367h60.479m.25-.25h-60.979v17.34042l60.979,0V343.56367Z" fill="#fff"/>
      </g>
    </g>
    <g>
      <rect x="507.48806" y="343.56367" width="69.03553" height="17.34042" fill="#fff" opacity="0.1"/>
      <g opacity="0.5">
        <path d="M576.27341,343.81367v16.84041l-68.53516,0V343.81367h68.53516m.25-.25H507.48825v17.34042l69.03516,0V343.56367Z" fill="#fff"/>
      </g>
    </g>
    <g>
      <rect x="507.48806" y="392.05303" width="19.10638" height="11.94813" fill="#fff" opacity="0.1"/>
      <g opacity="0.5">
        <path d="M526.34421,392.303v11.44812h-18.606V392.303h18.606m.25-.25h-19.106v11.94812h19.106V392.053Z" fill="#fff"/>
      </g>
    </g>
    <g>
      <rect x="557.41722" y="392.05303" width="19.10638" height="11.94813" fill="#fff" opacity="0.1"/>
      <g opacity="0.5">
        <path d="M576.27341,392.303v11.44812h-18.606V392.303h18.606m.25-.25h-19.106v11.94812h19.106V392.053Z" fill="#fff"/>
      </g>
    </g>
    <g>
      <rect x="607.74523" y="347.15412" width="16.73389" height="9.55318" transform="translate(264.18156 968.04295) rotate(-90.00001)" fill="#fff" opacity="0.1"/>
      <g opacity="0.5">
        <path d="M620.63864,343.81377v16.23389h-9.05322V343.81377h9.05322m.25-.25h-9.55322v16.73389h9.55322V343.56377Z" fill="#fff"/>
      </g>
    </g>
    <g>
      <rect x="611.33212" y="389.44135" width="123.73039" height="10.41488" fill="#fff" opacity="0.1"/>
      <g opacity="0.5">
        <path d="M734.81247,389.69133v9.9149H611.582v-9.91488l123.23047,0m.25-.25-123.73047,0v10.41488H735.06247v-10.4149Z" fill="#fff"/>
      </g>
    </g>
    <g>
      <rect x="706.84976" y="402.85623" width="23.04255" height="36.72272" fill="#fff" opacity="0.1"/>
      <g opacity="0.5">
        <path d="M729.64255,403.10623v36.22271l-22.543,0V403.10624l22.543,0m.25-.25-23.043,0V439.579l23.043,0V402.85623Z" fill="#fff"/>
      </g>
    </g>
    <g>
      <rect x="649.32553" y="277.51573" width="109.04832" height="17.02659" transform="translate(417.82071 989.87874) rotate(-90)" fill="#fff" opacity="0.1"/>
      <g opacity="0.5">
        <path d="M712.11276,231.75486V340.30317l-16.52637,0V231.75489l16.52637,0m.25-.25-17.02637,0V340.5532l17.02637,0V231.50486Z" fill="#fff"/>
      </g>
    </g>
    <g>
      <rect x="671.44259" y="277.51573" width="109.04832" height="17.02659" transform="translate(439.93776 1011.99579) rotate(-90)" fill="#fff" opacity="0.1"/>
      <g opacity="0.5">
        <path d="M734.23,231.75486V340.30317l-16.52637,0V231.75489l16.52637,0m.25-.25-17.02637,0V340.5532l17.02637,0V231.50486Z" fill="#fff"/>
      </g>
    </g>
    <g>
      <rect x="767.11526" y="311.43643" width="60.22383" height="29.1168" transform="matrix(-1, 0, 0, -1, 1594.45474, 651.9887)" fill="#fff" opacity="0.1"/>
      <g opacity="0.5">
        <path d="M827.08932,311.6864v28.61679l-59.72412.00007V311.68647l59.72412-.00007m.25-.25-60.22412.00007v29.11679l60.22412-.00007V311.4364Z" fill="#fff"/>
      </g>
    </g>
    <g>
      <rect x="762.78362" y="412.35445" width="60.22383" height="29.1168" transform="translate(1219.8077 -365.98305) rotate(89.99995)" fill="#fff" opacity="0.1"/>
      <g opacity="0.5">
        <path d="M807.20407,397.05093v59.72383h-28.6167l-.00049-59.72383h28.61719m.25-.25H778.33688l.00049,60.22383h29.1167V396.80093Z" fill="#fff"/>
      </g>
    </g>
    <g>
      <rect x="778.33711" y="343.55304" width="61.002" height="17.3723" fill="#fff" opacity="0.1"/>
      <g opacity="0.5">
        <path d="M839.08932,343.803v16.87228l-60.50244,0V343.80306l60.50244,0m.25-.25-61.00244,0v17.37228l61.00244,0V343.553Z" fill="#fff"/>
      </g>
    </g>
    <g>
      <path d="M710.83756,274.5229H709.62v-5.71009a1.50168,1.50168,0,0,0-1.5-1.5l-8.7981,0a1.50168,1.50168,0,0,0-1.5,1.5V280.483a1.50168,1.50168,0,0,0,1.5,1.5H708.12a1.50168,1.50168,0,0,0,1.5-1.5V274.7729h1.21753a.125.125,0,0,0,0-.25ZM709.37,280.483a1.25014,1.25014,0,0,1-1.25,1.25h-8.7981a1.25014,1.25014,0,0,1-1.25-1.25V268.81282a1.2501,1.2501,0,0,1,1.25-1.25l8.7981,0a1.25011,1.25011,0,0,1,1.25,1.25v5.71009h-4.27661a.125.125,0,0,0,0,.25H709.37Z" fill="#fff" opacity="0.5"/>
      <rect x="698.07204" y="267.56282" width="11.29787" height="14.17021" rx="1.25" fill="#fff" opacity="0.1"/>
    </g>
    <rect x="675.78411" y="425.95911" width="56.13131" height="6" transform="translate(1132.80887 -274.89064) rotate(90)" fill="#fff"/>
    <rect x="608.44163" y="399.85623" width="98.40813" height="6.21808" fill="#fff"/>
    <polygon points="579.524 399.856 579.524 389.441 576.524 389.441 576.524 456.975 398.637 456.975 398.637 462.975 582.509 462.975 582.509 456.975 582.524 456.975 582.524 399.856 579.524 399.856" fill="#fff"/>
    <rect x="659.12103" y="284.80303" width="111.98936" height="5.51064" transform="translate(427.55737 1002.67406) rotate(-90)" fill="#fff"/>
    <rect x="700.84976" y="457.02477" width="183.35106" height="6" fill="#fff"/>
    <rect x="386.63699" y="438.49984" width="12" height="24.47539" fill="#fff"/>
    <rect x="386.63699" y="331.56367" width="12" height="39.65957" fill="#fff"/>
    <rect x="443.50933" y="219.56367" width="12" height="124" fill="#fff"/>
    <rect x="461.03593" y="213.82165" width="12" height="23.48404" transform="translate(241.47226 692.5996) rotate(-90)" fill="#fff"/>
    <rect x="570.87103" y="194.6275" width="12" height="61.87234" transform="translate(351.30737 802.4347) rotate(-90)" fill="#fff"/>
    <rect x="701.26731" y="193.26048" width="12" height="64.60638" transform="translate(481.70364 932.83098) rotate(-90)" fill="#fff"/>
    <rect x="817.03327" y="209.25782" width="12" height="32.6117" transform="translate(597.4696 1048.59694) rotate(-90)" fill="#fff"/>
    <rect x="827.33912" y="231.56367" width="12" height="111.98936" transform="translate(1666.67824 575.1167) rotate(180)" fill="#fff"/>
    <rect x="884.20082" y="331.55303" width="12" height="39.71277" transform="translate(1780.40164 702.81883) rotate(180)" fill="#fff"/>
    <rect x="884.20082" y="438.50516" width="12" height="24.51961" transform="translate(1780.40164 901.52992) rotate(180)" fill="#fff"/>
    <g>
      <rect x="386.63699" y="371.22324" width="12" height="67.2766" fill="#d3d3d3" opacity="0.6"/>
      <rect x="358.99869" y="404.11154" width="67.2766" height="1.5" transform="translate(797.49853 12.22455) rotate(90)" fill="#fff"/>
    </g>
    <g>
      <rect x="415.07316" y="315.1275" width="12" height="44.87234" transform="translate(83.50949 758.63683) rotate(-90)" fill="#d3d3d3" opacity="0.6"/>
      <rect x="398.63699" y="336.81367" width="44.87234" height="1.5" fill="#fff"/>
    </g>
    <g>
      <rect x="506.35641" y="191.98521" width="12" height="67.15691" transform="translate(286.79274 737.92008) rotate(-90)" fill="#d3d3d3" opacity="0.6"/>
      <rect x="478.77795" y="224.81367" width="67.15691" height="1.5" fill="#fff"/>
    </g>
    <g>
      <rect x="635.38566" y="191.98521" width="12" height="67.15691" transform="translate(415.82199 866.94933) rotate(-90)" fill="#d3d3d3" opacity="0.6"/>
      <rect x="607.8072" y="224.81367" width="67.15691" height="1.5" fill="#fff"/>
    </g>
    <g>
      <rect x="767.14896" y="191.98521" width="12" height="67.15691" transform="translate(547.58529 998.71263) rotate(-90)" fill="#d3d3d3" opacity="0.6"/>
      <rect x="739.5705" y="224.81367" width="67.15691" height="1.5" fill="#fff"/>
    </g>
    <g>
      <rect x="855.76997" y="315.12218" width="12" height="44.8617" transform="translate(524.21694 1199.323) rotate(-90)" fill="#d3d3d3" opacity="0.6"/>
      <rect x="839.33912" y="336.80303" width="44.8617" height="1.5" fill="#fff"/>
    </g>
    <g>
      <rect x="884.20082" y="371.2658" width="12" height="67.23936" fill="#d3d3d3" opacity="0.6"/>
      <rect x="856.58114" y="404.13548" width="67.23936" height="1.5" transform="translate(1295.0863 -485.31534) rotate(90)" fill="#fff"/>
    </g>
    <g>
      <path d="M484.04872,318.78943H466.97743l0-70.66992h17.07129a3.89579,3.89579,0,0,1,3.91407,3.86816l0,62.93408A3.89539,3.89539,0,0,1,484.04872,318.78943Z" fill="#fff" opacity="0.1"/>
      <rect x="462.77722" y="248.11951" width="3.9502" height="70.66992" fill="#fff" opacity="0.2"/>
      <path d="M484.04872,319.03943H462.52723v-.25l0-70.66992v-.25h21.52148a4.146,4.146,0,0,1,4.16407,4.11816l0,62.93408A4.14586,4.14586,0,0,1,484.04872,319.03943ZM466.7274,248.11951h-3.95019l0,70.66992h3.9502Zm21.23536,3.86816a3.89579,3.89579,0,0,0-3.91407-3.86816H466.9774l0,70.66992h17.07129a3.89539,3.89539,0,0,0,3.91406-3.86768Z" fill="#fff" opacity="0.5"/>
    </g>
    <g>
      <path d="M543.09739,256.90611l14.12545,0,0,22.05517-14.12545,0a3.89579,3.89579,0,0,1-3.91407-3.86816l0-14.31933A3.89539,3.89539,0,0,1,543.09739,256.90611Z" fill="#fff" opacity="0.1"/>
      <rect x="557.47285" y="256.9061" width="3.9502" height="22.05518" fill="#fff" opacity="0.2"/>
      <path d="M543.09739,256.65611l18.57565,0v.25l0,22.05517v.25l-18.57564,0a4.146,4.146,0,0,1-4.16407-4.11816l0-14.31933A4.14586,4.14586,0,0,1,543.09739,256.65611Zm14.37547,22.30516h3.95019l0-22.05517h-3.9502Zm-18.28952-3.86815a3.89579,3.89579,0,0,0,3.91407,3.86816l14.12545,0,0-22.05517-14.12545,0a3.89539,3.89539,0,0,0-3.91406,3.86768Z" fill="#fff" opacity="0.5"/>
    </g>
    <g>
      <path d="M504.16765,255.32531l0-14.12545,22.05517,0,0,14.12545a3.8958,3.8958,0,0,1-3.86816,3.91406l-14.31934,0A3.89538,3.89538,0,0,1,504.16765,255.32531Z" fill="#fff" opacity="0.1"/>
      <rect x="504.16763" y="236.99966" width="22.05518" height="3.9502" fill="#fff" opacity="0.2"/>
      <path d="M503.91765,255.32531l0-18.57564h.25l22.05518,0h.25l0,18.57565a4.146,4.146,0,0,1-4.11816,4.16406l-14.31934,0A4.14585,4.14585,0,0,1,503.91765,255.32531Zm22.30516-14.37546v-3.9502l-22.05518,0,0,3.95019Zm-3.86815,18.28951a3.8958,3.8958,0,0,0,3.86816-3.91406l0-14.12545-22.05517,0,0,14.12545a3.89538,3.89538,0,0,0,3.86767,3.91406Z" fill="#fff" opacity="0.5"/>
    </g>
    <g>
      <g opacity="0.5">
        <path d="M515.19528,273.536a9.91843,9.91843,0,1,1-9.91846,9.91843,9.91862,9.91862,0,0,1,9.91846-9.91843m0-.25a10.16843,10.16843,0,1,0,10.16846,10.16843A10.17995,10.17995,0,0,0,515.19528,273.286Z" fill="#fff"/>
      </g>
      <circle cx="515.19523" cy="283.45447" r="9.91843" fill="#fff" opacity="0.1"/>
    </g>
    <g>
      <polyline points="388.137 219.585 443.509 219.585 443.509 331.564 388.137 331.564" fill="#fff" opacity="0.2"/>
      <polyline points="388.137 219.585 388.137 164.091 697.119 164.091 697.119 219.585" fill="#fff" opacity="0.2"/>
      <g opacity="0.5">
        <polygon points="697.12 164.091 388.137 164.091 388.137 331.564 386.637 331.564 386.637 164.091 386.637 162.591 388.137 162.591 697.12 162.591 697.12 164.091" fill="#fff"/>
      </g>
    </g>
    <g>
      <polyline points="894.712 219.585 839.34 219.585 839.34 331.564 894.712 331.564" fill="#fff" opacity="0.2"/>
      <polyline points="894.712 219.585 894.712 164.091 697.12 164.091 697.12 219.585" fill="#fff" opacity="0.2"/>
      <g opacity="0.5">
        <polygon points="697.12 164.091 894.712 164.091 894.712 331.564 896.212 331.564 896.212 164.091 896.212 162.591 894.712 162.591 697.12 162.591 697.12 164.091" fill="#fff"/>
      </g>
    </g>
    <g>
      <polygon points="607.284 305.631 613.221 305.631 613.221 294.057 607.284 294.057 607.284 293.807 613.221 293.807 613.471 293.807 613.471 294.057 613.471 305.631 613.471 305.881 613.221 305.881 607.284 305.881 607.284 305.631" fill="#fff" opacity="0.5"/>
      <rect x="584.6886" y="274.34404" width="22.59574" height="33.95745" transform="translate(1191.97295 582.64553) rotate(180)" fill="#fff" opacity="0.1"/>
      <g opacity="0.1">
        <rect x="607.28435" y="277.01425" width="5.93617" height="11.57447" transform="translate(1220.50487 565.60298) rotate(180)" fill="#fff"/>
      </g>
      <g opacity="0.5">
        <path d="M607.03415,274.59405v33.45744h-22.0957V274.59405h22.0957m.25-.25h-22.5957v33.95744h22.5957V274.34405Z" fill="#fff"/>
      </g>
      <polygon points="607.284 288.589 613.221 288.589 613.221 277.014 607.284 277.014 607.284 276.764 613.221 276.764 613.471 276.764 613.471 277.014 613.471 288.589 613.471 288.839 613.221 288.839 607.284 288.839 607.284 288.589" fill="#fff" opacity="0.5"/>
      <g opacity="0.1">
        <rect x="607.28435" y="294.0568" width="5.93617" height="11.57447" transform="translate(1220.50487 599.68807) rotate(180)" fill="#fff"/>
      </g>
      <polygon points="584.689 277.014 578.752 277.014 578.752 288.589 584.689 288.589 584.689 288.839 578.752 288.839 578.502 288.839 578.502 288.589 578.502 277.014 578.502 276.764 578.752 276.764 584.689 276.764 584.689 277.014" fill="#fff" opacity="0.5"/>
      <g opacity="0.1">
        <rect x="578.75243" y="294.05681" width="5.93617" height="11.57447" fill="#fff"/>
      </g>
      <polygon points="584.689 294.057 578.752 294.057 578.752 305.631 584.689 305.631 584.689 305.881 578.752 305.881 578.502 305.881 578.502 305.631 578.502 294.057 578.502 293.807 578.752 293.807 584.689 293.807 584.689 294.057" fill="#fff" opacity="0.5"/>
      <g opacity="0.1">
        <rect x="578.75243" y="277.01426" width="5.93617" height="11.57447" fill="#fff"/>
      </g>
    </g>
    <g>
      <rect x="627.00505" y="271.39287" width="51.14348" height="22.81725" transform="translate(935.37824 -369.77532) rotate(90)" fill="#fff" opacity="0.1"/>
      <g opacity="0.5">
        <path d="M663.73532,257.47975v50.64347l-22.31738,0V257.47976l22.31738,0m.25-.25-22.81738,0v51.14347l22.81738,0V257.22975Z" fill="#fff"/>
      </g>
    </g>
    <g>
      <rect x="645.50917" y="265.76311" width="17.1618" height="17.1618" transform="translate(379.74606 928.43408) rotate(-90)" fill="#fff" opacity="0.1"/>
      <g>
        <circle cx="650.08222" cy="278.34606" r="2.71813" fill="none" stroke="#fff" stroke-miterlimit="10" stroke-width="0.25" opacity="0.5"/>
        <circle cx="650.08222" cy="270.34195" r="2.71813" fill="none" stroke="#fff" stroke-miterlimit="10" stroke-width="0.25" opacity="0.5"/>
        <circle cx="658.09791" cy="278.34606" r="2.71813" fill="none" stroke="#fff" stroke-miterlimit="10" stroke-width="0.25" opacity="0.5"/>
        <circle cx="658.09791" cy="270.34195" r="2.71813" fill="none" stroke="#fff" stroke-miterlimit="10" stroke-width="0.25" opacity="0.5"/>
      </g>
      <g opacity="0.5">
        <path d="M662.79669,265.63722v17.41364H645.383V265.63722Zm-.25179,17.16186V265.889H645.63483v16.91007Z" fill="#fff"/>
      </g>
    </g>
    <g>
      <g>
        <rect x="796.33366" y="243.00605" width="42.50662" height="19.50429" transform="matrix(0, -1, 1, 0, 564.82912, 1070.34526)" fill="#fff" opacity="0.1"/>
        <g opacity="0.5">
          <path d="M827.08932,231.75487v42.00662l-19.00439,0V231.75489l19.00439,0m.25-.25-19.50439,0v42.50662l19.50439,0V231.50487Z" fill="#fff"/>
        </g>
      </g>
      <g>
        <rect x="799.16195" y="249.67233" width="11.45745" height="5.88829" transform="translate(552.27457 1057.50726) rotate(-90.00003)" fill="#fff" opacity="0.1"/>
        <polyline points="807.835 246.888 801.947 246.888 801.947 258.345 807.835 258.345" fill="none" stroke="#fff" stroke-miterlimit="10" stroke-width="0.25" opacity="0.5"/>
      </g>
    </g>
    <g>
      <g>
        <rect x="824.57408" y="437.52046" width="42.50662" height="19.50429" fill="#fff" opacity="0.1"/>
        <g opacity="0.5">
          <path d="M866.83054,437.77044v19.00429l-42.00635,0V437.77047l42.00635,0m.25-.25-42.50635,0v19.50429l42.50635,0V437.52044Z" fill="#fff"/>
        </g>
      </g>
      <g>
        <rect x="840.24038" y="431.63217" width="11.45745" height="5.88829" fill="#fff" opacity="0.1"/>
        <polyline points="851.698 437.52 851.698 431.632 840.24 431.632 840.24 437.52" fill="none" stroke="#fff" stroke-miterlimit="10" stroke-width="0.25" opacity="0.5"/>
      </g>
    </g>
    <g>
      <g>
        <path d="M426.32393,403.01508v53.70515H476.8011V403.01508a3.93613,3.93613,0,0,0-3.86817-3.9921H430.19161A3.93572,3.93572,0,0,0,426.32393,403.01508Z" fill="#fff" opacity="0.1"/>
        <path d="M477.0511,456.97522V403.01508a4.18882,4.18882,0,0,0-4.11817-4.24709H430.19161a4.18873,4.18873,0,0,0-4.11768,4.24709v53.96014m.25,0H476.8011M472.93293,399.023a3.93613,3.93613,0,0,1,3.86817,3.9921v53.70515H426.32393V403.01508a3.93572,3.93572,0,0,1,3.86768-3.9921Z" fill="#fff" opacity="0.5"/>
      </g>
      <polygon points="477.641 444.689 504.233 444.689 504.233 456.7 477.641 456.7 477.307 456.7 477.051 456.7 477.051 456.975 504.488 456.975 504.488 444.414 477.051 444.414 477.051 444.689 477.307 444.689 477.641 444.689" fill="#fff" opacity="0.5"/>
      <polygon points="425.484 456.7 398.765 456.7 398.765 444.689 425.484 444.689 425.818 444.689 426.074 444.689 426.074 444.414 398.509 444.414 398.509 456.975 426.074 456.975 426.074 456.7 425.818 456.7 425.484 456.7" fill="#fff" opacity="0.5"/>
      <rect x="477.0511" y="444.6893" width="27.18151" height="12.01102" transform="translate(981.28371 901.38963) rotate(180)" fill="#fff" opacity="0.1"/>
      <rect x="398.76471" y="444.6893" width="27.30922" height="12.01101" transform="translate(824.83865 901.38962) rotate(180)" fill="#fff" opacity="0.1"/>
    </g>
    <g>
      <rect x="744.88417" y="426.57184" width="15.4611" height="45.4448" transform="translate(1201.90427 -303.32328) rotate(89.99964)" fill="#fff" opacity="0.1"/>
      <g opacity="0.5">
        <path d="M775.08688,441.81372l.00049,14.96106-44.94482,0-.00049-14.96107h44.94482m.25-.25H729.89206l.00049,15.46107,45.44482,0-.00049-15.46106Z" fill="#fff"/>
      </g>
    </g>
    <g>
      <path d="M763.01118,456.77692v-1.34253h5.71009a1.50167,1.50167,0,0,0,1.5-1.5v-8.7981a1.50167,1.50167,0,0,0-1.5-1.5H757.051a1.50168,1.50168,0,0,0-1.5,1.5l0,8.7981a1.50168,1.50168,0,0,0,1.5,1.5l5.71014,0v1.34253h.25ZM757.051,455.1844a1.25014,1.25014,0,0,1-1.25-1.25l0-8.7981a1.25014,1.25014,0,0,1,1.25-1.25h11.67023a1.2501,1.2501,0,0,1,1.25,1.25v8.7981a1.25009,1.25009,0,0,1-1.25,1.25h-5.71009v-4.27661a.125.125,0,0,0-.25,0v4.27661Z" fill="#fff" opacity="0.5"/>
      <rect x="757.23721" y="442.45024" width="11.29787" height="14.17021" rx="1.25" transform="translate(1212.42121 -313.35097) rotate(89.99998)" fill="#fff" opacity="0.1"/>
    </g>
    <g>
      <path d="M742.353,456.77692v-1.34253h5.71008a1.50168,1.50168,0,0,0,1.5-1.5V445.1363a1.50169,1.50169,0,0,0-1.5-1.5H736.39287a1.50168,1.50168,0,0,0-1.5,1.5v8.7981a1.50168,1.50168,0,0,0,1.5,1.5l5.71015,0v1.34253h.25Zm-5.96015-1.59252a1.25014,1.25014,0,0,1-1.25-1.25v-8.7981a1.25014,1.25014,0,0,1,1.25-1.25H748.0631a1.2501,1.2501,0,0,1,1.25,1.25v8.79809a1.2501,1.2501,0,0,1-1.25,1.25H742.353l0-4.27661a.125.125,0,0,0-.25,0l0,4.27661Z" fill="#fff" opacity="0.5"/>
      <rect x="736.57905" y="442.45024" width="11.29787" height="14.17021" rx="1.25" transform="translate(1191.76306 -292.6928) rotate(89.99998)" fill="#fff" opacity="0.1"/>
    </g>
    <g>
      <rect x="532.36283" y="435.26242" width="17.47297" height="25.89639" transform="translate(989.30823 -92.89011) rotate(89.99982)" fill="#fff" opacity="0.1"/>
      <g opacity="0.5">
        <path d="M553.79733,439.72415v16.97294h-25.396V439.72415h25.396m.25-.25h-25.896v17.47294h25.896V439.47415Z" fill="#fff"/>
      </g>
    </g>
    <g>
      <path d="M541.22435,456.6977v-1.34253h5.71008a1.50168,1.50168,0,0,0,1.5-1.5v-8.7981a1.50168,1.50168,0,0,0-1.5-1.5H535.2642a1.50168,1.50168,0,0,0-1.5,1.5l0,8.7981a1.50168,1.50168,0,0,0,1.5,1.5h5.71014v1.34253h.25Zm-5.96014-1.59253a1.25014,1.25014,0,0,1-1.25-1.25l0-8.7981a1.25014,1.25014,0,0,1,1.25-1.25h11.67023a1.2501,1.2501,0,0,1,1.25,1.25v8.7981a1.2501,1.2501,0,0,1-1.25,1.25h-5.71008v-4.27661a.125.125,0,1,0-.25,0v4.27661Z" fill="#fff" opacity="0.5"/>
      <rect x="535.45038" y="442.37101" width="11.29787" height="14.17021" rx="1.25" transform="translate(990.55524 -91.64336) rotate(89.99998)" fill="#fff" opacity="0.1"/>
    </g>
    <g>
      <path d="M528.15143,456.97522l0-49.97406-20.66333,0,0,49.97406Zm-20.40572-49.7164,20.148,0,0,49.45876-9.9457,0v-2.95795h6.98775l0-36.297a7.11607,7.11607,0,1,0-14.23215,0l0,36.297,6.98675,0v2.95795h-9.94469Zm10.07354,43.646a.12875.12875,0,0,0-.12883.12882l0,2.46831-6.7291,0,0-36.03932a6.85842,6.85842,0,1,1,13.71685,0l0,36.03932h-6.7301v-2.46831A.12875.12875,0,0,0,517.81925,450.90485Z" fill="#fff" opacity="0.5"/>
      <path d="M527.89378,456.71757l0-49.45876-20.148,0,0,49.45876Zm-16.93247-39.2549a6.85843,6.85843,0,1,1,13.71685,0l0,36.03932-13.71685,0Z" fill="#fff" opacity="0.1"/>
      <path d="M510.96132,410.60424h13.71685a0,0,0,0,1,0,0v36.243a6.65478,6.65478,0,0,1-6.65478,6.65478h-.40729a6.65478,6.65478,0,0,1-6.65478-6.65478v-36.243A0,0,0,0,1,510.96132,410.60424Z" transform="translate(1035.63976 864.10589) rotate(179.99996)" fill="#fff" opacity="0.2"/>
    </g>
    <g>
      <g opacity="0.5">
        <path d="M771.00483,419.4849v-9.7h-9.65015a4.85,4.85,0,0,0,0,9.7h9.65014m.25.25h-9.90014a5.1,5.1,0,0,1,0-10.2h9.90015v10.2Z" fill="#fff"/>
      </g>
      <g opacity="0.5">
        <polygon points="775.337 407.551 771.007 407.551 771.007 409.535 771.257 409.535 771.257 407.801 775.087 407.801 775.087 421.468 771.257 421.468 771.257 419.735 771.007 419.735 771.007 421.718 775.337 421.718 775.337 407.551 775.337 407.551" fill="#fff"/>
      </g>
      <path d="M771.00483,419.4849v-9.7h-9.65015a4.85,4.85,0,0,0,0,9.7h9.65014" fill="#fff" opacity="0.1"/>
      <rect x="771.25483" y="407.80135" width="3.83228" height="13.66699" fill="#fff" opacity="0.1"/>
    </g>
    <g>
      <g opacity="0.5">
        <path d="M572.19133,430.91414l0-9.7h-9.65014a4.85,4.85,0,0,0,0,9.7l9.65015,0m.25.25-9.90015,0a5.1,5.1,0,0,1,0-10.2h9.90014l0,10.2Z" fill="#fff"/>
      </g>
      <g opacity="0.5">
        <polygon points="576.523 418.981 572.193 418.981 572.193 420.964 572.443 420.964 572.443 419.231 576.273 419.231 576.273 432.898 572.443 432.898 572.443 431.164 572.193 431.164 572.193 433.148 576.523 433.148 576.523 418.981 576.523 418.981" fill="#fff"/>
      </g>
      <path d="M572.19133,430.91414l0-9.7h-9.65014a4.85,4.85,0,0,0,0,9.7l9.65015,0" fill="#fff" opacity="0.1"/>
      <rect x="572.44132" y="419.23059" width="3.83228" height="13.66699" fill="#fff" opacity="0.1"/>
    </g>
    <g>
      <rect x="678.78879" y="343.80739" width="55.54958" height="16.24707" transform="translate(1413.12725 703.86167) rotate(179.99999)" fill="#fff" opacity="0.1"/>
      <rect x="662.29894" y="343.80745" width="16.2466" height="16.24707" transform="translate(1340.84465 703.86166) rotate(179.99997)" fill="#fff" opacity="0.1"/>
      <g opacity="0.5">
        <path d="M678.789,343.564l-16.7334,0V360.298l16.7334,0V343.564Zm-16.49023,16.4905V343.80745l16.24658,0v16.24708Z" fill="#fff"/>
      </g>
      <g opacity="0.5">
        <polygon points="734.622 343.564 678.789 343.564 678.789 343.807 734.338 343.807 734.338 360.054 678.789 360.055 678.789 360.298 734.622 360.298 734.622 343.564 734.622 343.564" fill="#fff"/>
      </g>
      <g opacity="0.5">
        <path d="M670.42233,345.636a6.29525,6.29525,0,1,0,6.29541,6.29525,6.30267,6.30267,0,0,0-6.29541-6.29525Zm0,12.34707a6.05182,6.05182,0,1,1,6.05225-6.05182,6.05838,6.05838,0,0,1-6.05225,6.05182Z" fill="#fff"/>
      </g>
      <circle cx="670.42224" cy="351.93122" r="6.05206" fill="#fff" opacity="0.1"/>
    </g>
    <g>
      <rect x="709.468" y="405.3396" width="17.80608" height="31.75598" fill="#fff" opacity="0.1"/>
      <g opacity="0.5">
        <path d="M727.02389,405.58959v31.256H709.71823v-31.256l17.30566,0m.25-.25-17.80566,0v31.756h17.80566v-31.756Z" fill="#fff"/>
      </g>
    </g>
    <polyline points="697.125 213.531 845.272 213.531 845.272 331.564 849.072 331.564 849.072 209.731 697.125 209.731 849.072 209.731 849.072 331.564 852.882 331.564 852.872 217.341 852.872 205.921 697.125 205.921 852.872 205.921 852.872 217.341 852.882 331.564 856.682 331.564 856.682 202.121 697.125 202.121 856.682 202.121 856.682 331.564 860.482 331.564 860.482 198.321 697.125 198.321 860.482 198.321 860.482 331.564 864.292 331.564 864.292 194.511 697.125 194.511 864.292 194.511 864.292 331.564 868.092 331.564 868.092 190.711 697.125 190.711 868.092 190.711 868.092 331.564 871.892 331.564 871.892 186.911 697.125 186.911 871.892 186.911 871.892 331.564 875.702 331.564 875.702 183.101 697.125 183.101 875.702 183.101 875.702 331.564 879.502 331.564 879.502 179.301 697.125 179.301 879.502 179.301 879.502 331.564 883.302 331.564 883.302 175.501 697.125 175.501 883.302 175.501 883.302 331.564 887.112 331.564 887.112 171.691 697.125 171.691 887.112 171.691 887.112 331.564 890.912 331.564 890.912 167.891 697.125 167.891 890.912 167.891 890.912 331.564 894.712 331.564 894.712 164.181 697.125 164.181 697.125 164.091 697.114 164.091 697.114 164.181 388.137 164.181 388.137 331.564 391.937 331.564 391.937 167.891 697.114 167.891 391.937 167.891 391.937 331.564 395.737 331.564 395.737 171.691 697.114 171.691 395.737 171.691 395.737 331.564 399.547 331.564 399.547 175.501 697.114 175.501 399.547 175.501 399.547 331.564 403.347 331.564 403.347 179.301 697.114 179.301 403.347 179.301 403.347 331.564 407.147 331.564 407.147 183.101 697.114 183.101 407.147 183.101 407.147 331.564 410.957 331.564 410.957 186.911 697.114 186.911 410.957 186.911 410.957 331.564 414.757 331.564 414.757 190.711 697.114 190.711 414.757 190.711 414.757 331.564 418.557 331.564 418.557 194.511 697.114 194.511 418.557 194.511 418.557 331.564 422.367 331.564 422.367 198.321 697.114 198.321 422.367 198.321 422.367 331.564 426.167 331.564 426.167 202.121 697.114 202.121 426.167 202.121 426.167 331.564 429.967 331.564 429.977 217.341 429.977 205.921 697.114 205.921 429.977 205.921 429.977 217.341 429.967 331.564 433.777 331.564 433.777 209.731 697.114 209.731 433.777 209.731 433.777 331.564 437.577 331.564 437.577 213.531 697.114 213.531 697.114 213.626 437.577 213.626 437.577 331.564 441.387 331.564 441.387 217.436 697.114 217.436 697.125 217.436 841.462 217.436 841.462 331.564 845.272 331.564 845.272 213.626 697.125 213.626" fill="none" stroke="#fff" stroke-miterlimit="10" stroke-width="0.2"/>
    <g>
      <polygon points="665.518 434.473 634.795 434.473 626.88 434.473 626.88 440.473 626.88 445.903 634.795 445.903 634.795 440.473 665.518 440.473 665.518 479.478 634.795 479.478 634.795 474.047 626.88 474.047 626.88 479.478 626.88 485.478 634.795 485.478 665.518 485.478 672.752 485.478 672.752 479.478 672.752 440.473 672.752 434.473 665.518 434.473" fill="#fff"/>
      <polyline points="672.752 456.51 700.85 456.51 700.85 406.331 635.943 406.331 635.943 434.473" fill="none" stroke="#fff" stroke-miterlimit="10" stroke-width="0.5"/>
      <rect x="672.70814" y="406.33095" width="28.14162" height="28.14162" fill="none" stroke="#fff" stroke-miterlimit="10" stroke-width="0.5"/>
      <rect x="635.94348" y="406.33095" width="7.34043" height="28.14162" fill="none" stroke="#fff" stroke-miterlimit="10" stroke-width="0.5"/>
      <rect x="643.2839" y="406.33095" width="7.34043" height="28.14162" fill="none" stroke="#fff" stroke-miterlimit="10" stroke-width="0.5"/>
      <rect x="650.65559" y="406.33095" width="7.34043" height="28.14162" fill="none" stroke="#fff" stroke-miterlimit="10" stroke-width="0.5"/>
      <rect x="657.99602" y="406.33095" width="7.34043" height="28.14162" fill="none" stroke="#fff" stroke-miterlimit="10" stroke-width="0.5"/>
      <rect x="683.10873" y="424.07197" width="7.34043" height="28.14162" transform="translate(248.63616 1124.92173) rotate(-90)" fill="none" stroke="#fff" stroke-miterlimit="10" stroke-width="0.5"/>
      <rect x="683.10873" y="431.4124" width="7.34043" height="28.14162" transform="translate(241.29574 1132.26216) rotate(-90)" fill="none" stroke="#fff" stroke-miterlimit="10" stroke-width="0.5"/>
      <polyline points="672.752 463.54 700.85 463.54 700.85 513.719 635.943 513.719 635.943 485.577" fill="none" stroke="#fff" stroke-miterlimit="10" stroke-width="0.5"/>
      <rect x="672.70814" y="485.57696" width="28.14162" height="28.14162" fill="none" stroke="#fff" stroke-miterlimit="10" stroke-width="0.5"/>
      <rect x="635.94348" y="485.57696" width="7.34043" height="28.14162" fill="none" stroke="#fff" stroke-miterlimit="10" stroke-width="0.5"/>
      <rect x="643.2839" y="485.57696" width="7.34043" height="28.14162" fill="none" stroke="#fff" stroke-miterlimit="10" stroke-width="0.5"/>
      <rect x="650.65559" y="485.57696" width="7.34043" height="28.14162" fill="none" stroke="#fff" stroke-miterlimit="10" stroke-width="0.5"/>
      <rect x="657.99602" y="485.57696" width="7.34043" height="28.14162" fill="none" stroke="#fff" stroke-miterlimit="10" stroke-width="0.5"/>
      <rect x="683.10873" y="467.83594" width="7.34043" height="28.14162" transform="translate(1168.6857 -204.8722) rotate(90)" fill="none" stroke="#fff" stroke-miterlimit="10" stroke-width="0.5"/>
      <rect x="683.10873" y="460.49551" width="7.34043" height="28.14162" transform="translate(1161.34527 -212.21262) rotate(90)" fill="none" stroke="#fff" stroke-miterlimit="10" stroke-width="0.5"/>
      <polygon points="699.546 512.415 635.943 512.415 635.943 513.719 700.85 513.719 700.85 512.415 700.85 407.635 700.85 406.331 635.943 406.331 635.943 407.635 699.546 407.635 699.546 512.415" fill="none" stroke="#fff" stroke-miterlimit="10" stroke-width="0.25"/>
      <g>
        <g>
          <path d="M685.05612,467.63479v19.00237a13.01074,13.01074,0,0,1-13.01074,13.01062h-35.501" fill="none" stroke="#fff" stroke-miterlimit="10" stroke-width="0.5"/>
          <path d="M639.96188,497.24787a.25.25,0,0,1-.07715.34522l-3.22607,2.05469,3.22607,2.05468a.25005.25005,0,1,1-.26855.42188l-3.55713-2.26563a.25011.25011,0,0,1,0-.42187l3.55713-2.26563a.25077.25077,0,0,1,.3457.07666Z" fill="#fff"/>
        </g>
        <g>
          <path d="M635.94333,420.5072h36.10205a13.01072,13.01072,0,0,1,13.01074,13.0106v34.87754" fill="none" stroke="#fff" stroke-miterlimit="10" stroke-width="0.5"/>
          <path d="M682.65622,464.978a.25.25,0,0,1,.34521.07714l2.05469,3.22606,2.05469-3.22606a.25.25,0,1,1,.42187.26856l-2.26562,3.55714a.25013.25013,0,0,1-.42188,0l-2.26562-3.55714a.25077.25077,0,0,1,.07666-.3457Z" fill="#fff"/>
        </g>
        <circle cx="635.94348" cy="420.50719" r="1.15527" fill="none" stroke="#fff" stroke-miterlimit="10" stroke-width="0.5"/>
      </g>
    </g>
  </g>
</svg>
