<svg id="A_6NP" data-name="A/6NP" xmlns="http://www.w3.org/2000/svg" viewBox="0 0 1340 920">
  <rect width="1340" height="920" fill="none"/>
  <g id="_13" data-name="13">
    <polygon id="emittor" points="610.042 543.433 610.042 477.901 414.546 477.901 414.546 778.583 670.75 778.583 670.75 721.589 672.573 721.589 672.573 572.864 610.042 572.864 610.042 543.433" fill="#d8c19e" opacity="0.45"/>
  </g>
  <g id="_12" data-name="12">
    <polygon id="emittor-2" data-name="emittor" points="729.105 542.875 729.105 382.939 781.886 382.939 781.886 365.912 924.601 365.912 924.601 611.492 981.233 611.492 981.233 778.582 669.25 778.582 669.25 721.589 666.573 721.589 666.573 572.864 729.105 572.864 729.105 542.875" fill="#d8c19e" opacity="0.45"/>
  </g>
  <g id="_11" data-name="11">
    <polygon id="emittor-3" data-name="emittor" points="610.042 483.901 414.546 483.901 414.546 377.767 316.242 377.767 316.239 141.417 1023.761 141.417 1023.761 241.62 924.601 241.62 924.601 371.912 787.886 371.912 787.886 388.939 610.042 388.939 610.042 483.901" fill="#d8c19e" opacity="0.45"/>
  </g>
</svg>
