<svg id="B_1PP" data-name="B/1PP" xmlns="http://www.w3.org/2000/svg" viewBox="0 0 800 800">
  <rect width="800" height="800" fill="#214f77"/>
  <polygon points="146.209 360.576 47.555 360.576 47.555 755.548 752.445 755.548 752.445 624.523 146.209 624.523 146.209 360.576" fill="#fff" opacity="0.1"/>
  <path d="M543.594,499.66a26.0997,26.0997,0,0,1-6.549,17.18l-19.27714-17.3056" transform="translate(0 0)" fill="none" stroke="#fff" stroke-miterlimit="10" stroke-width="0.25" opacity="0.5"/>
  <path d="M273.86534,481.59313a23.58006,23.58006,0,0,0,5.91673,15.52147l17.41613-15.63492" transform="translate(0 0)" fill="none" stroke="#fff" stroke-miterlimit="10" stroke-width="0.25" opacity="0.5"/>
  <path d="M284.55511,362.079a23.14146,23.14146,0,0,0,5.80666,15.23274l17.09216-15.34408" transform="translate(0 0)" fill="none" stroke="#fff" stroke-miterlimit="10" stroke-width="0.25" opacity="0.5"/>
  <path d="M224.42835,362.1042a26.08192,26.08192,0,0,0,6.54451,17.16833l19.264-17.29382" transform="translate(0 0)" fill="none" stroke="#fff" stroke-miterlimit="10" stroke-width="0.25" opacity="0.5"/>
  <path d="M349.49652,286.47768a26.80239,26.80239,0,0,1,6.72528-17.64256l19.79614,17.77151" transform="translate(0 0)" fill="none" stroke="#fff" stroke-miterlimit="10" stroke-width="0.25" opacity="0.5"/>
  <path d="M378.61173,265.32674a24.03694,24.03694,0,0,0,15.82221-6.03137l-15.93786-17.75358" transform="translate(0 0)" fill="none" stroke="#fff" stroke-miterlimit="10" stroke-width="0.25" opacity="0.5"/>
  <path d="M495.99043,437.22927A23.15291,23.15291,0,0,1,501.8,421.989l17.17221,15.44122" transform="translate(0 0)" fill="none" stroke="#fff" stroke-miterlimit="10" stroke-width="0.25" opacity="0.5"/>
  <path d="M550.79428,444.71037a26.5722,26.5722,0,0,1,17.491,6.66753L550.66642,471.004" transform="translate(0 0)" fill="none" stroke="#fff" stroke-miterlimit="10" stroke-width="0.25" opacity="0.5"/>
  <path d="M465.72392,475.91837a30.52574,30.52574,0,0,0,20.09343-7.65956L465.50589,445.6415" transform="translate(0 0)" fill="none" stroke="#fff" stroke-miterlimit="10" stroke-width="0.25" opacity="0.5"/>
  <g>
    <path d="M543.7183,268.17537a26.09976,26.09976,0,0,0-6.549-17.18L517.89219,268.301" transform="translate(0 0)" fill="none" stroke="#fff" stroke-miterlimit="10" stroke-width="0.25" opacity="0.5"/>
    <path d="M495.96674,330.59906a23.15293,23.15293,0,0,0,5.80956,15.24032l17.17221-15.44123" transform="translate(0 0)" fill="none" stroke="#fff" stroke-miterlimit="10" stroke-width="0.25" opacity="0.5"/>
    <path d="M551.36249,318.55539a25.89777,25.89777,0,0,0,17.04709-6.49831l-17.17171-19.128" transform="translate(0 0)" fill="none" stroke="#fff" stroke-miterlimit="10" stroke-width="0.25" opacity="0.5"/>
    <path d="M465.64564,291.7407a30.05965,30.05965,0,0,1,19.78668,7.54263L465.501,321.4853" transform="translate(0 0)" fill="none" stroke="#fff" stroke-miterlimit="10" stroke-width="0.25" opacity="0.5"/>
  </g>
  <g>
    <g>
      <line x1="185.55265" y1="285.87221" x2="185.55265" y2="233.35776" fill="none" stroke="#fff" stroke-miterlimit="10" stroke-width="0.25"/>
      <line x1="183.16967" y1="233.25765" x2="187.89308" y2="233.25765" fill="none" stroke="#fff" stroke-miterlimit="10" stroke-width="0.25"/>
    </g>
    <g>
      <line x1="212.87518" y1="285.87221" x2="212.87518" y2="233.35776" fill="none" stroke="#fff" stroke-miterlimit="10" stroke-width="0.25"/>
      <line x1="210.4922" y1="233.25765" x2="215.21561" y2="233.25765" fill="none" stroke="#fff" stroke-miterlimit="10" stroke-width="0.25"/>
    </g>
    <g>
      <line x1="240.19771" y1="285.87221" x2="240.19771" y2="233.35776" fill="none" stroke="#fff" stroke-miterlimit="10" stroke-width="0.25"/>
      <line x1="237.81473" y1="233.25765" x2="242.53814" y2="233.25765" fill="none" stroke="#fff" stroke-miterlimit="10" stroke-width="0.25"/>
    </g>
    <g>
      <line x1="267.52024" y1="285.87221" x2="267.52024" y2="233.35776" fill="none" stroke="#fff" stroke-miterlimit="10" stroke-width="0.25"/>
      <line x1="265.13726" y1="233.25765" x2="269.86067" y2="233.25765" fill="none" stroke="#fff" stroke-miterlimit="10" stroke-width="0.25"/>
    </g>
    <g>
      <line x1="294.84277" y1="285.87221" x2="294.84277" y2="233.35776" fill="none" stroke="#fff" stroke-miterlimit="10" stroke-width="0.25"/>
      <line x1="292.45979" y1="233.25765" x2="297.1832" y2="233.25765" fill="none" stroke="#fff" stroke-miterlimit="10" stroke-width="0.25"/>
    </g>
    <g>
      <line x1="322.1653" y1="285.87221" x2="322.1653" y2="233.35776" fill="none" stroke="#fff" stroke-miterlimit="10" stroke-width="0.25"/>
      <line x1="319.78232" y1="233.25765" x2="324.50573" y2="233.25765" fill="none" stroke="#fff" stroke-miterlimit="10" stroke-width="0.25"/>
    </g>
    <g>
      <line x1="349.48783" y1="285.87221" x2="349.48783" y2="233.35776" fill="none" stroke="#fff" stroke-miterlimit="10" stroke-width="0.25"/>
      <line x1="347.10485" y1="233.25765" x2="351.82826" y2="233.25765" fill="none" stroke="#fff" stroke-miterlimit="10" stroke-width="0.25"/>
    </g>
    <g>
      <line x1="158.23012" y1="285.87221" x2="158.23012" y2="233.35776" fill="none" stroke="#fff" stroke-miterlimit="10" stroke-width="0.25"/>
      <line x1="155.84714" y1="233.25765" x2="160.57055" y2="233.25765" fill="none" stroke="#fff" stroke-miterlimit="10" stroke-width="0.25"/>
    </g>
  </g>
  <g>
    <g>
      <line x1="185.55265" y1="155.14745" x2="185.55265" y2="207.66191" fill="none" stroke="#fff" stroke-miterlimit="10" stroke-width="0.25"/>
      <line x1="183.16967" y1="207.76201" x2="187.89308" y2="207.76201" fill="none" stroke="#fff" stroke-miterlimit="10" stroke-width="0.25"/>
    </g>
    <g>
      <line x1="212.87518" y1="155.14745" x2="212.87518" y2="207.66191" fill="none" stroke="#fff" stroke-miterlimit="10" stroke-width="0.25"/>
      <line x1="210.4922" y1="207.76201" x2="215.21561" y2="207.76201" fill="none" stroke="#fff" stroke-miterlimit="10" stroke-width="0.25"/>
    </g>
    <g>
      <line x1="240.19771" y1="155.14745" x2="240.19771" y2="207.66191" fill="none" stroke="#fff" stroke-miterlimit="10" stroke-width="0.25"/>
      <line x1="237.81473" y1="207.76201" x2="242.53814" y2="207.76201" fill="none" stroke="#fff" stroke-miterlimit="10" stroke-width="0.25"/>
    </g>
    <g>
      <line x1="267.52024" y1="155.14745" x2="267.52024" y2="207.66191" fill="none" stroke="#fff" stroke-miterlimit="10" stroke-width="0.25"/>
      <line x1="265.13726" y1="207.76201" x2="269.86067" y2="207.76201" fill="none" stroke="#fff" stroke-miterlimit="10" stroke-width="0.25"/>
    </g>
    <g>
      <line x1="294.84277" y1="155.14745" x2="294.84277" y2="207.66191" fill="none" stroke="#fff" stroke-miterlimit="10" stroke-width="0.25"/>
      <line x1="292.45979" y1="207.76201" x2="297.1832" y2="207.76201" fill="none" stroke="#fff" stroke-miterlimit="10" stroke-width="0.25"/>
    </g>
    <g>
      <line x1="322.1653" y1="155.14745" x2="322.1653" y2="207.66191" fill="none" stroke="#fff" stroke-miterlimit="10" stroke-width="0.25"/>
      <line x1="319.78232" y1="207.76201" x2="324.50573" y2="207.76201" fill="none" stroke="#fff" stroke-miterlimit="10" stroke-width="0.25"/>
    </g>
    <g>
      <line x1="349.48783" y1="155.14745" x2="349.48783" y2="207.66191" fill="none" stroke="#fff" stroke-miterlimit="10" stroke-width="0.25"/>
      <line x1="347.10485" y1="207.76201" x2="351.82826" y2="207.76201" fill="none" stroke="#fff" stroke-miterlimit="10" stroke-width="0.25"/>
    </g>
    <g>
      <line x1="158.23012" y1="155.14745" x2="158.23012" y2="207.66191" fill="none" stroke="#fff" stroke-miterlimit="10" stroke-width="0.25"/>
      <line x1="155.84714" y1="207.76201" x2="160.57055" y2="207.76201" fill="none" stroke="#fff" stroke-miterlimit="10" stroke-width="0.25"/>
    </g>
  </g>
  <g>
    <line x1="376.81036" y1="155.14745" x2="376.81036" y2="207.66191" fill="none" stroke="#fff" stroke-miterlimit="10" stroke-width="0.25"/>
    <line x1="374.42738" y1="207.76201" x2="379.15079" y2="207.76201" fill="none" stroke="#fff" stroke-miterlimit="10" stroke-width="0.25"/>
  </g>
  <g>
    <line x1="404.13289" y1="155.14745" x2="404.13289" y2="207.66191" fill="none" stroke="#fff" stroke-miterlimit="10" stroke-width="0.25"/>
    <line x1="401.74991" y1="207.76201" x2="406.47332" y2="207.76201" fill="none" stroke="#fff" stroke-miterlimit="10" stroke-width="0.25"/>
  </g>
  <g>
    <line x1="431.45542" y1="155.14745" x2="431.45542" y2="207.66191" fill="none" stroke="#fff" stroke-miterlimit="10" stroke-width="0.25"/>
    <line x1="429.07244" y1="207.76201" x2="433.79585" y2="207.76201" fill="none" stroke="#fff" stroke-miterlimit="10" stroke-width="0.25"/>
  </g>
  <line x1="456.39498" y1="207.76201" x2="461.11838" y2="207.76201" fill="none" stroke="#fff" stroke-miterlimit="10" stroke-width="0.25"/>
  <g>
    <line x1="349.48783" y1="155.14745" x2="349.48783" y2="207.66191" fill="none" stroke="#fff" stroke-miterlimit="10" stroke-width="0.25"/>
    <line x1="347.10485" y1="207.76201" x2="351.82826" y2="207.76201" fill="none" stroke="#fff" stroke-miterlimit="10" stroke-width="0.25"/>
  </g>
  <g>
    <rect x="489.33838" y="387.09302" width="38.0293" height="17.32967" transform="translate(1016.70605 791.51571) rotate(180)" fill="#fff" opacity="0.1"/>
    <g opacity="0.5">
      <path d="M489.08838,404.68073h38.5293V386.835h-38.5293Zm38.2793-.258h-38.0293V387.093h38.0293Z" transform="translate(0 0)" fill="#fff"/>
    </g>
  </g>
  <g>
    <rect x="489.33838" y="363.24727" width="38.0293" height="17.32967" fill="#fff" opacity="0.1"/>
    <g opacity="0.5">
      <path d="M527.61768,362.98924h-38.5293V380.835h38.5293Zm-38.2793.258h38.0293V380.577h-38.0293Z" transform="translate(0 0)" fill="#fff"/>
    </g>
  </g>
  <g>
    <path d="M508.228,387.093v1.34253h-5.71009a1.50168,1.50168,0,0,0-1.5,1.5v8.79809a1.50168,1.50168,0,0,0,1.5,1.5h11.67023a1.50168,1.50168,0,0,0,1.5-1.5v-8.79809a1.50168,1.50168,0,0,0-1.5-1.5H508.478V387.093h-.25Zm5.96014,1.59253a1.25014,1.25014,0,0,1,1.25,1.25v8.79809a1.25014,1.25014,0,0,1-1.25,1.25H502.51791a1.2501,1.2501,0,0,1-1.25-1.25v-8.79809a1.2501,1.2501,0,0,1,1.25-1.25H508.228v4.27661a.125.125,0,0,0,.25,0v-4.27661Z" transform="translate(0 0)" fill="#fff" opacity="0.5"/>
    <rect x="502.70409" y="387.24949" width="11.29787" height="14.17021" rx="1.25" transform="translate(114.01843 902.68762) rotate(-90)" fill="#fff" opacity="0.1"/>
  </g>
  <g>
    <path d="M508.47806,380.577v-1.34253l5.71008,0a1.50168,1.50168,0,0,0,1.5-1.5v-8.79809a1.50168,1.50168,0,0,0-1.5-1.5H502.51791a1.50168,1.50168,0,0,0-1.5,1.5v8.7981a1.50169,1.50169,0,0,0,1.5,1.5h5.71014V380.577h.25Zm-5.96014-1.59253a1.25015,1.25015,0,0,1-1.25-1.25v-8.7981a1.25014,1.25014,0,0,1,1.25-1.25h11.67023a1.2501,1.2501,0,0,1,1.25,1.25v8.79809a1.2501,1.2501,0,0,1-1.25,1.25l-5.71008,0v-4.27661a.125.125,0,0,0-.25,0v4.27661Z" transform="translate(0 0)" fill="#fff" opacity="0.5"/>
    <rect x="502.70409" y="366.25026" width="11.29787" height="14.17021" rx="1.25" transform="translate(881.68823 -135.01778) rotate(89.99998)" fill="#fff" opacity="0.1"/>
  </g>
  <rect x="461.30623" y="380.83498" width="189.44681" height="6" transform="translate(1112.05927 767.66996) rotate(180)" fill="#fff"/>
  <rect x="429.88703" y="351.06902" width="65.53191" height="6" transform="translate(816.72201 -108.58396) rotate(90)" fill="#fff"/>
  <rect x="388.2906" y="214.50983" width="148.72477" height="6" transform="translate(680.16282 -245.14316) rotate(90)" fill="#fff"/>
  <rect x="376.3365" y="285.87221" width="89.31648" height="6" fill="#fff"/>
  <rect x="158.20884" y="285.87221" width="191.40426" height="6" fill="#fff"/>
  <rect x="152.20884" y="476.27815" width="121.78191" height="6" fill="#fff"/>
  <rect x="277.60062" y="416.96661" width="121.78191" height="6" transform="translate(-81.47503 758.45819) rotate(-90)" fill="#fff"/>
  <rect x="591.81256" y="219.69035" width="3" height="99.67223" transform="translate(862.83903 -323.78609) rotate(90)" fill="#fff"/>
  <rect x="489.25836" y="242.24456" width="3" height="54.56383" transform="translate(760.28483 -221.23189) rotate(90)" fill="#fff"/>
  <rect x="532.09131" y="314.23607" width="3" height="29.63399" transform="translate(862.64438 -204.53825) rotate(90)" fill="#fff"/>
  <rect x="479.34197" y="313.82219" width="3.0838" height="30.46176" transform="translate(809.93693 -151.8308) rotate(90)" fill="#fff"/>
  <rect x="416.54009" y="192.66481" width="3.0838" height="84.4697" transform="translate(652.98165 -183.18233) rotate(90)" fill="#fff"/>
  <rect x="375.84714" y="233.35776" width="3.0838" height="8.59956" fill="#fff"/>
  <rect x="375.84714" y="265.20882" width="3.0838" height="26.66339" fill="#fff"/>
  <polygon points="400.378 265.209 397.294 265.209 397.294 291.872 400.378 291.872 403.462 291.872 403.462 265.209 400.378 265.209" fill="#fff"/>
  <rect x="422.01605" y="265.20882" width="3.0838" height="26.66339" fill="#fff"/>
  <rect x="398.93159" y="242.12437" width="3.0838" height="49.2527" transform="translate(133.72277 667.22421) rotate(-90)" fill="#fff"/>
  <rect x="320.95257" y="392.94441" width="3.0838" height="27.68409" transform="translate(-84.29199 729.28092) rotate(-90)" fill="#fff"/>
  <polygon points="308.652 383.798 308.652 386.882 336.337 386.882 336.337 383.798 336.337 380.714 308.652 380.714 308.652 383.798" fill="#fff"/>
  <rect x="319.81895" y="346.48682" width="3.0838" height="28.26146" transform="translate(-39.2567 681.9784) rotate(-90)" fill="#fff"/>
  <rect x="265.81895" y="343.29533" width="3.0838" height="34.64444" transform="translate(-93.2567 627.9784) rotate(-90)" fill="#fff"/>
  <rect x="267.58425" y="360.26275" width="3.0838" height="118.1201" fill="#fff"/>
  <rect x="185.64874" y="323.25278" width="3.0838" height="74.72955" transform="translate(-173.42691 547.80819) rotate(-90)" fill="#fff"/>
  <rect x="308.65242" y="359.07565" width="3.0838" height="49.2527" transform="translate(620.38863 767.40401) rotate(180)" fill="#fff"/>
  <rect x="422.29262" y="476.98457" width="3.0838" height="26.66339" transform="translate(847.66904 980.63254) rotate(180)" fill="#fff"/>
  <polygon points="400.846 503.648 403.93 503.648 403.93 476.985 400.846 476.985 397.762 476.985 397.762 503.648 400.846 503.648" fill="#fff"/>
  <rect x="376.12371" y="476.98457" width="3.0838" height="26.66339" transform="translate(755.33123 980.63254) rotate(180)" fill="#fff"/>
  <rect x="399.20817" y="477.47972" width="3.0838" height="49.2527" transform="translate(902.85614 101.356) rotate(90)" fill="#fff"/>
  <rect x="486.04027" y="362.98923" width="3" height="18.09043" fill="#fff"/>
  <rect x="475.84663" y="352.79559" width="3" height="23.38729" transform="translate(112.85739 841.83587) rotate(-90)" fill="#fff"/>
  <rect x="548.40831" y="271.02647" width="3" height="21.96809" fill="#fff"/>
  <rect x="548.40831" y="318.42009" width="3" height="62.41489" fill="#fff"/>
  <g>
    <g>
      <path d="M572.0399,326.87483V380.58h50.47717V326.87483a3.93613,3.93613,0,0,0-3.86816-3.9921H575.90758A3.93573,3.93573,0,0,0,572.0399,326.87483Z" transform="translate(0 0)" fill="#fff" opacity="0.1"/>
      <path d="M622.76707,380.835V326.87483a4.18882,4.18882,0,0,0-4.11816-4.24708H575.90758a4.18873,4.18873,0,0,0-4.11768,4.24708V380.835m.25,0h50.47717m-3.86816-57.95224a3.93613,3.93613,0,0,1,3.86816,3.9921V380.58H572.0399V326.87483a3.93573,3.93573,0,0,1,3.86768-3.9921Z" transform="translate(0 0)" fill="#fff" opacity="0.5"/>
    </g>
    <polygon points="623.357 368.549 642.893 368.549 642.893 380.56 623.357 380.56 623.023 380.56 622.767 380.56 622.767 380.835 643.149 380.835 643.149 368.274 622.767 368.274 622.767 368.549 623.023 368.549 623.357 368.549" fill="#fff" opacity="0.5"/>
    <polygon points="571.2 380.56 551.664 380.56 551.664 368.549 571.2 368.549 571.534 368.549 571.79 368.549 571.79 368.274 551.408 368.274 551.408 380.835 571.79 380.835 571.79 380.56 571.534 380.56 571.2 380.56" fill="#fff" opacity="0.5"/>
    <rect x="622.76708" y="368.54906" width="20.12616" height="12.01102" transform="translate(1265.66031 749.10914) rotate(180)" fill="#fff" opacity="0.1"/>
    <rect x="551.66375" y="368.54906" width="20.12616" height="12.01101" transform="translate(1123.45366 749.10913) rotate(180)" fill="#fff" opacity="0.1"/>
  </g>
  <g>
    <rect x="588.38496" y="234.04988" width="17.78723" height="91.74036" transform="translate(877.19911 -317.35829) rotate(90.00005)" fill="#fff" opacity="0.1"/>
    <g opacity="0.5">
      <path d="M551.65839,271.27632l91.24047.00024-.00024,17.28711H551.65839V271.27632m-.25-.25v17.78735h91.74023l.00024-17.78711-91.74047-.00024Z" transform="translate(0 0)" fill="#fff"/>
    </g>
  </g>
  <g>
    <path d="M548.40831,380.835V330.55307H527.61768V380.835Zm-20.5314-50.02268h20.27216v49.76344h-10.007v-2.97616h7.0308V341.079a7.15991,7.15991,0,1,0-14.31982,0v36.52057h7.02979v2.97616h-10.006Zm10.13557,43.91491a.12954.12954,0,0,0-.12961.12962v2.48351h-6.77055V341.079a6.90068,6.90068,0,0,1,13.80135,0v36.26133H538.1421v-2.48351A.12954.12954,0,0,0,538.01248,374.72721Z" transform="translate(0 0)" fill="#fff" opacity="0.5"/>
    <path d="M548.14907,380.57574V330.8123H527.87691v49.76344ZM531.11232,341.079a6.90068,6.90068,0,0,1,13.80135,0v36.26133H531.11232Z" transform="translate(0 0)" fill="#fff" opacity="0.1"/>
    <path d="M531.11232,334.17834h13.80135a0,0,0,0,1,0,0v36.50722a6.65478,6.65478,0,0,1-6.65478,6.65478h-.49179a6.65478,6.65478,0,0,1-6.65478-6.65478V334.17834A0,0,0,0,1,531.11232,334.17834Z" transform="translate(1076.02598 711.51868) rotate(180)" fill="#fff" opacity="0.2"/>
  </g>
  <g>
    <g opacity="0.5">
      <path d="M469.98526,354.52441v-9.7h9.65015a4.85,4.85,0,0,1,0,9.7h-9.65015m-.25.25h9.90015a5.1,5.1,0,0,0,0-10.2h-9.90015v10.2Z" transform="translate(0 0)" fill="#fff"/>
    </g>
    <g opacity="0.5">
      <polygon points="469.983 342.591 465.653 342.591 465.653 356.758 469.983 356.758 469.983 354.774 469.733 354.774 469.733 356.508 465.903 356.508 465.903 342.841 469.733 342.841 469.733 344.574 469.983 344.574 469.983 342.591 469.983 342.591" fill="#fff"/>
    </g>
    <path d="M469.98526,354.52441v-9.7h9.65015a4.85,4.85,0,0,1,0,9.7h-9.65015" transform="translate(0 0)" fill="#fff" opacity="0.1"/>
    <rect x="465.90299" y="342.84086" width="3.83228" height="13.66699" transform="translate(935.63825 699.34871) rotate(180)" fill="#fff" opacity="0.1"/>
  </g>
  <path d="M469.98526,354.52441v-9.7h9.65015a4.85,4.85,0,0,1,0,9.7h-9.65015" transform="translate(0 0)" fill="#fff" opacity="0.1"/>
  <g>
    <rect x="465.9056" y="271.27908" width="16.85963" height="16.86013" transform="translate(948.67082 559.41828) rotate(180)" fill="#fff" opacity="0.1"/>
    <g opacity="0.5">
      <path d="M483.01776,271.02656H465.653V288.3918h17.36474V271.02656ZM465.9057,288.13911V271.279h16.85962v16.86011Z" transform="translate(0 0)" fill="#fff"/>
    </g>
    <path d="M482.89193,271.1526" transform="translate(0 0)" fill="none" stroke="#fff" stroke-miterlimit="10" stroke-width="0.25" opacity="0.5"/>
    <g opacity="0.5">
      <polygon points="514.6 271.027 483.018 271.027 483.018 271.279 514.348 271.279 514.348 288.139 483.018 288.139 483.018 288.392 514.6 288.392 514.6 271.027 514.6 271.027" fill="#fff"/>
    </g>
    <g opacity="0.5">
      <path d="M474.33539,273.17622a6.53272,6.53272,0,1,0,6.5332,6.53272,6.5402,6.5402,0,0,0-6.5332-6.53272Zm0,12.81274a6.28015,6.28015,0,1,1,6.28076-6.28,6.28735,6.28735,0,0,1-6.28076,6.28Z" transform="translate(0 0)" fill="#fff"/>
    </g>
    <rect x="483.01784" y="271.27908" width="31.32935" height="16.86013" transform="translate(997.36502 559.41828) rotate(180)" fill="#fff" opacity="0.1"/>
    <circle cx="474.33541" cy="279.70889" r="6.28042" fill="#fff" opacity="0.1"/>
  </g>
  <rect x="394.23626" y="-104.70976" width="12" height="507.71441" transform="translate(549.38371 -251.08881) rotate(90)" fill="#fff"/>
  <rect x="643.14868" y="143.14745" width="12" height="43.51732" fill="#fff"/>
  <rect x="643.14868" y="254.76583" width="12" height="39.53723" fill="#fff"/>
  <rect x="643.14868" y="362.33498" width="12" height="24.5" fill="#fff"/>
  <rect x="643.14868" y="294.30306" width="12" height="68.03191" fill="#d3d3d3" opacity="0.6"/>
  <rect x="615.13272" y="327.56902" width="68.03191" height="1.5" transform="translate(977.4677 -320.82966) rotate(90)" fill="#fff"/>
  <rect x="643.14868" y="186.57951" width="12" height="68.03191" fill="#d3d3d3" opacity="0.6"/>
  <rect x="615.13272" y="219.84547" width="68.03191" height="1.5" transform="translate(869.74415 -428.55321) rotate(90)" fill="#fff"/>
  <rect x="461.30623" y="380.83498" width="189.44681" height="6" transform="translate(1112.05927 767.66996) rotate(180)" fill="#fff"/>
  <rect x="430.17958" y="410.30839" width="64.94681" height="6" transform="translate(49.3446 875.96137) rotate(-90)" fill="#fff"/>
  <rect x="394.2906" y="541.16013" width="136.72477" height="6" transform="translate(-81.50714 1006.81312) rotate(-90)" fill="#fff"/>
  <rect x="296.84714" y="475.79775" width="168.80585" height="6" fill="#fff"/>
  <rect x="591.81256" y="448.30737" width="3" height="99.67223" transform="translate(95.16907 1091.45605) rotate(-90)" fill="#fff"/>
  <rect x="489.25836" y="470.86158" width="3" height="54.56383" transform="translate(-7.38513 988.90185) rotate(-90)" fill="#fff"/>
  <rect x="532.09131" y="423.7999" width="3" height="29.63399" transform="translate(94.97442 972.20821) rotate(-90)" fill="#fff"/>
  <rect x="479.34197" y="423.38602" width="3.0838" height="30.46176" transform="translate(42.26697 919.50076) rotate(-90)" fill="#fff"/>
  <rect x="486.04027" y="386.5903" width="3" height="18.09043" fill="#fff"/>
  <rect x="475.84663" y="391.48708" width="3" height="23.38729" transform="translate(880.52736 -74.16591) rotate(90)" fill="#fff"/>
  <rect x="548.40831" y="470.17009" width="3" height="26.4734" fill="#fff"/>
  <rect x="548.40831" y="386.83498" width="3" height="57.99715" fill="#fff"/>
  <g>
    <path d="M637.36978,584.7696v17.07129l-70.66992,0,0-17.07129a3.89581,3.89581,0,0,1,3.86817-3.91406l62.93408,0A3.89539,3.89539,0,0,1,637.36978,584.7696Z" transform="translate(0 0)" fill="#fff" opacity="0.1"/>
    <rect x="566.69986" y="602.0909" width="70.66992" height="3.9502" fill="#fff" opacity="0.2"/>
    <path d="M637.61978,584.7696v21.52148h-.25l-70.66992,0h-.25l0-21.52149a4.146,4.146,0,0,1,4.11817-4.16406l62.93408,0A4.14586,4.14586,0,0,1,637.61978,584.7696Zm-70.91992,17.32131v3.9502l70.66992,0v-3.95019Zm3.86816-21.23535a3.89581,3.89581,0,0,0-3.86817,3.91406l0,17.07129,70.66992,0V584.7696a3.89539,3.89539,0,0,0-3.86768-3.91406Z" transform="translate(0 0)" fill="#fff" opacity="0.5"/>
  </g>
  <g>
    <g opacity="0.5">
      <path d="M606.49481,548.15229a9.91846,9.91846,0,1,1-9.91846,9.91846,9.9185,9.9185,0,0,1,9.91846-9.91846m0-.25a10.16846,10.16846,0,1,0,10.16846,10.16846,10.17995,10.17995,0,0,0-10.16846-10.16846Z" transform="translate(0 0)" fill="#fff"/>
    </g>
    <circle cx="606.49479" cy="558.07084" r="9.91843" fill="#fff" opacity="0.1"/>
  </g>
  <g>
    <polygon points="542.62 563.867 548.556 563.867 548.556 552.292 542.62 552.292 542.62 552.042 548.556 552.042 548.806 552.042 548.806 552.292 548.806 563.867 548.806 564.117 548.556 564.117 542.62 564.117 542.62 563.867" fill="#fff" opacity="0.5"/>
    <rect x="520.02392" y="532.57966" width="22.59574" height="33.95745" transform="translate(1062.64358 1099.11677) rotate(180)" fill="#fff" opacity="0.1"/>
    <g opacity="0.1">
      <rect x="542.61966" y="535.24987" width="5.93617" height="11.57447" transform="translate(1091.1755 1082.07422) rotate(180)" fill="#fff"/>
    </g>
    <g opacity="0.5">
      <path d="M542.36957,532.82954v33.45752H520.27386V532.82954h22.09571m.25-.25H520.02386v33.95752h22.59571V532.57954Z" transform="translate(0 0)" fill="#fff"/>
    </g>
    <polygon points="542.62 546.824 548.556 546.824 548.556 535.25 542.62 535.25 542.62 535 548.556 535 548.806 535 548.806 535.25 548.806 546.824 548.806 547.074 548.556 547.074 542.62 547.074 542.62 546.824" fill="#fff" opacity="0.5"/>
    <g opacity="0.1">
      <rect x="542.61966" y="552.29242" width="5.93617" height="11.57447" transform="translate(1091.1755 1116.15931) rotate(180)" fill="#fff"/>
    </g>
    <polygon points="520.024 535.25 514.088 535.25 514.088 546.824 520.024 546.824 520.024 547.074 514.088 547.074 513.838 547.074 513.838 546.824 513.838 535.25 513.838 535 514.088 535 520.024 535 520.024 535.25" fill="#fff" opacity="0.5"/>
    <g opacity="0.1">
      <rect x="514.08775" y="552.29243" width="5.93617" height="11.57447" fill="#fff"/>
    </g>
    <polygon points="520.024 552.292 514.088 552.292 514.088 563.867 520.024 563.867 520.024 564.117 514.088 564.117 513.838 564.117 513.838 563.867 513.838 552.292 513.838 552.042 514.088 552.042 520.024 552.042 520.024 552.292" fill="#fff" opacity="0.5"/>
    <g opacity="0.1">
      <rect x="514.08775" y="535.24988" width="5.93617" height="11.57447" fill="#fff"/>
    </g>
  </g>
  <g>
    <g>
      <path d="M572.0399,440.79513V387.09h50.47717v53.70516a3.93613,3.93613,0,0,1-3.86816,3.9921H575.90758A3.93573,3.93573,0,0,1,572.0399,440.79513Z" transform="translate(0 0)" fill="#fff" opacity="0.1"/>
      <path d="M622.76707,386.835v53.96014a4.18882,4.18882,0,0,1-4.11816,4.24708H575.90758a4.18873,4.18873,0,0,1-4.11768-4.24708V386.835m.25,0h50.47717m-3.86816,57.95224a3.93613,3.93613,0,0,0,3.86816-3.9921V387.09H572.0399v53.70516a3.93573,3.93573,0,0,0,3.86768,3.9921Z" transform="translate(0 0)" fill="#fff" opacity="0.5"/>
    </g>
    <polygon points="623.357 399.121 642.893 399.121 642.893 387.11 623.357 387.11 623.023 387.11 622.767 387.11 622.767 386.835 643.149 386.835 643.149 399.396 622.767 399.396 622.767 399.121 623.023 399.121 623.357 399.121" fill="#fff" opacity="0.5"/>
    <polygon points="571.2 387.11 551.664 387.11 551.664 399.121 571.2 399.121 571.534 399.121 571.79 399.121 571.79 399.396 551.408 399.396 551.408 386.835 571.79 386.835 571.79 387.11 571.534 387.11 571.2 387.11" fill="#fff" opacity="0.5"/>
    <rect x="622.76708" y="387.10988" width="20.12616" height="12.01102" transform="translate(1265.66031 786.23078) rotate(180)" fill="#fff" opacity="0.1"/>
    <rect x="551.66375" y="387.10989" width="20.12616" height="12.01101" transform="translate(1123.45366 786.23079) rotate(180)" fill="#fff" opacity="0.1"/>
  </g>
  <g>
    <rect x="600.37174" y="474.45919" width="12.10106" height="62.4694" transform="translate(100.72887 1112.11656) rotate(-90.00005)" fill="#fff" opacity="0.1"/>
    <g opacity="0.5">
      <path d="M637.40692,499.89326v11.60108H575.43768V499.89326h61.96924m.25-.25H575.18768v12.10108h62.46924V499.64326Z" transform="translate(0 0)" fill="#fff"/>
    </g>
  </g>
  <g>
    <rect x="250.23721" y="366.1443" width="17.34734" height="24.75122" transform="translate(517.82185 757.03976) rotate(179.99999)" fill="#fff" opacity="0.1"/>
    <g opacity="0.5">
      <path d="M267.33466,366.39424v24.25122H250.48724V366.39424h16.84742m.25-.25H250.23724v24.75122h17.34742V366.14424Z" transform="translate(0 0)" fill="#fff"/>
    </g>
  </g>
  <g>
    <rect x="188.85507" y="327.63677" width="12.30978" height="50.56717" transform="translate(547.92969 157.90925) rotate(89.99981)" fill="#fff" opacity="0.1"/>
    <g opacity="0.5">
      <path d="M220.04364,347.01558v11.80957H169.9765l-.00024-11.80957h50.06738m.25-.25H169.72626l.00024,12.30957h50.56714V346.76558Z" transform="translate(0 0)" fill="#fff"/>
    </g>
  </g>
  <g>
    <rect x="250.23721" y="393.34623" width="17.34734" height="24.75122" transform="translate(517.82185 811.44362) rotate(179.99999)" fill="#fff" opacity="0.1"/>
    <g opacity="0.5">
      <path d="M267.33466,393.59614v24.25122H250.48724V393.59614h16.84742m.25-.25H250.23724v24.75122h17.34742V393.34614Z" transform="translate(0 0)" fill="#fff"/>
    </g>
  </g>
  <g opacity="0.1">
    <rect x="160.02423" y="366.14431" width="61.24839" height="106.35673" transform="translate(381.29696 838.64529) rotate(179.99998)" fill="#fff" opacity="0.5"/>
  </g>
  <g>
    <rect x="250.23721" y="420.54815" width="17.34734" height="24.75122" transform="translate(517.82186 865.84747) rotate(179.99999)" fill="#fff" opacity="0.1"/>
    <g opacity="0.5">
      <path d="M267.33466,420.79805v24.25122H250.48724V420.79805h16.84742m.25-.25H250.23724v24.75122h17.34742V420.54805Z" transform="translate(0 0)" fill="#fff"/>
    </g>
  </g>
  <g>
    <rect x="250.23721" y="447.75008" width="17.34734" height="24.75122" transform="translate(517.82187 920.25132) rotate(179.99999)" fill="#fff" opacity="0.1"/>
    <g opacity="0.5">
      <path d="M267.33466,448.00019v24.25123H250.48724V448.00019h16.84742m.25-.25H250.23724v24.75123h17.34742V447.75019Z" transform="translate(0 0)" fill="#fff"/>
    </g>
  </g>
  <g>
    <rect x="588.38496" y="441.87973" width="17.78723" height="91.74036" transform="translate(109.52915 1085.02887) rotate(-90.00005)" fill="#fff" opacity="0.1"/>
    <g opacity="0.5">
      <path d="M642.89862,479.1064l.00024,17.28711H551.65839V479.1064h91.24023m.25-.25H551.40839v17.78711h91.74047l-.00024-17.78711Z" transform="translate(0 0)" fill="#fff"/>
    </g>
  </g>
  <g>
    <path d="M548.40831,386.835V437.1169H527.61768V386.835Zm-20.5314,50.02268h20.27216V387.09422h-10.007v2.97616h7.0308V426.591a7.15991,7.15991,0,1,1-14.31982,0V390.07038h7.02979v-2.97616h-10.006Zm10.13557-43.91491a.12954.12954,0,0,1-.12961-.12961v-2.48352h-6.77055V426.591a6.90068,6.90068,0,0,0,13.80135,0V390.32962H538.1421v2.48352A.12954.12954,0,0,1,538.01248,392.94275Z" transform="translate(0 0)" fill="#fff" opacity="0.5"/>
    <path d="M548.14907,387.09422v49.76344H527.87691V387.09422ZM531.11232,426.591a6.90068,6.90068,0,0,0,13.80135,0V390.32962H531.11232Z" transform="translate(0 0)" fill="#fff" opacity="0.1"/>
    <path d="M537.76709,390.32962h.49179a6.65478,6.65478,0,0,1,6.65478,6.65478v36.50722a0,0,0,0,1,0,0H531.11232a0,0,0,0,1,0,0V396.9844A6.65478,6.65478,0,0,1,537.76709,390.32962Z" transform="translate(1076.02598 823.82124) rotate(-180)" fill="#fff" opacity="0.2"/>
  </g>
  <g>
    <g opacity="0.5">
      <path d="M469.98526,413.14555v9.7h9.65015a4.85,4.85,0,0,0,0-9.7h-9.65015m-.25-.25h9.90015a5.1,5.1,0,0,1,0,10.2h-9.90015v-10.2Z" transform="translate(0 0)" fill="#fff"/>
    </g>
    <g opacity="0.5">
      <polygon points="469.983 410.912 465.653 410.912 465.653 425.079 469.983 425.079 469.983 423.096 469.733 423.096 469.733 424.829 465.903 424.829 465.903 411.162 469.733 411.162 469.733 412.895 469.983 412.895 469.983 410.912 469.983 410.912" fill="#fff"/>
    </g>
    <path d="M469.98526,413.14555v9.7h9.65015a4.85,4.85,0,0,0,0-9.7h-9.65015" transform="translate(0 0)" fill="#fff" opacity="0.1"/>
    <rect x="465.90299" y="411.16211" width="3.83228" height="13.66699" transform="translate(935.63825 835.99121) rotate(180)" fill="#fff" opacity="0.1"/>
  </g>
  <path d="M469.98526,413.14555v9.7h9.65015a4.85,4.85,0,0,0,0-9.7h-9.65015" transform="translate(0 0)" fill="#fff" opacity="0.1"/>
  <g>
    <rect x="465.7585" y="479.53076" width="16.85963" height="16.86013" transform="translate(948.37663 975.92164) rotate(180)" fill="#fff" opacity="0.1"/>
    <g opacity="0.5">
      <path d="M482.87079,479.27827h-17.365v17.36524h17.365V479.27827Zm-17.11231,17.11255V479.53071H482.6181v16.86011Z" transform="translate(0 0)" fill="#fff"/>
    </g>
    <path d="M482.74483,496.51736" transform="translate(0 0)" fill="none" stroke="#fff" stroke-miterlimit="10" stroke-width="0.25" opacity="0.5"/>
    <g opacity="0.5">
      <polygon points="514.453 479.278 482.871 479.278 482.871 479.531 514.201 479.531 514.201 496.391 482.871 496.391 482.871 496.644 514.453 496.644 514.453 479.278 514.453 479.278" fill="#fff"/>
    </g>
    <g opacity="0.5">
      <path d="M474.18842,481.42817a6.53284,6.53284,0,1,0,6.5332,6.533,6.54045,6.54045,0,0,0-6.5332-6.533Zm0,12.813a6.28015,6.28015,0,1,1,6.28051-6.28,6.28721,6.28721,0,0,1-6.28051,6.28Z" transform="translate(0 0)" fill="#fff"/>
    </g>
    <rect x="482.87074" y="479.53076" width="31.32935" height="16.86013" transform="translate(997.07083 975.92164) rotate(180)" fill="#fff" opacity="0.1"/>
    <circle cx="474.18831" cy="487.96107" r="6.28042" fill="#fff" opacity="0.1"/>
  </g>
  <path d="M212.78738,426.55215" transform="translate(0 0)" fill="none" stroke="#fff" stroke-miterlimit="10" stroke-width="0.25" opacity="0.5"/>
  <rect x="502.32137" y="472.75042" width="12" height="291.5442" transform="translate(-110.20115 1126.84388) rotate(-90)" fill="#fff"/>
  <rect x="271.53331" y="601.53847" width="12" height="33.96809" transform="translate(-340.9892 896.05582) rotate(-90)" fill="#fff"/>
  <rect x="163.3631" y="595.36826" width="12" height="46.30851" transform="translate(-449.15942 787.88561) rotate(-90)" fill="#fff"/>
  <rect x="146.20884" y="580.73392" width="12" height="31.7886" transform="translate(304.41769 1193.25643) rotate(180)" fill="#fff"/>
  <rect x="146.20884" y="359.07565" width="12" height="153.33601" transform="translate(304.41769 871.48731) rotate(180)" fill="#fff"/>
  <rect x="146.20884" y="143.14745" width="12" height="148.72477" transform="translate(304.41769 435.01966) rotate(180)" fill="#fff"/>
  <rect x="643.14868" y="580.62753" width="12" height="43.89498" fill="#fff"/>
  <rect x="643.14868" y="473.36689" width="12" height="39.22872" fill="#fff"/>
  <rect x="643.14868" y="380.83498" width="12" height="24.5" fill="#fff"/>
  <g>
    <rect x="643.14868" y="512.59562" width="12" height="68.03191" fill="#d3d3d3" opacity="0.6"/>
    <rect x="615.13272" y="545.86158" width="68.03191" height="1.5" transform="translate(102.5371 1195.76025) rotate(-90)" fill="#fff"/>
  </g>
  <g>
    <rect x="322.53331" y="584.50656" width="12" height="68.03191" transform="translate(-289.9892 947.05582) rotate(-90)" fill="#d3d3d3" opacity="0.6"/>
    <rect x="294.51735" y="617.77251" width="68.03191" height="1.5" transform="translate(657.06662 1237.04503) rotate(180)" fill="#fff"/>
  </g>
  <g>
    <rect x="220.53331" y="584.50656" width="12" height="68.03191" transform="translate(-391.9892 845.05582) rotate(-90)" fill="#d3d3d3" opacity="0.6"/>
    <rect x="192.51735" y="617.77251" width="68.03191" height="1.5" transform="translate(453.06662 1237.04503) rotate(180)" fill="#fff"/>
  </g>
  <g>
    <rect x="146.20884" y="512.702" width="12" height="68.03191" transform="translate(304.41769 1093.43592) rotate(180)" fill="#d3d3d3" opacity="0.6"/>
    <rect x="118.19289" y="545.96796" width="68.03191" height="1.5" transform="translate(698.9268 394.50912) rotate(90)" fill="#fff"/>
  </g>
  <rect x="643.14868" y="405.33498" width="12" height="68.03191" fill="#d3d3d3" opacity="0.6"/>
  <rect x="615.13272" y="438.60094" width="68.03191" height="1.5" transform="translate(209.79774 1088.49962) rotate(-90)" fill="#fff"/>
  <g>
    <polyline points="655.149 383.084 752.445 383.084 752.445 144.646 655.149 144.646" fill="#fff" opacity="0.2"/>
    <g opacity="0.5">
      <polygon points="655.149 144.647 752.445 144.647 752.445 383.085 655.149 383.085 655.149 384.585 752.445 384.585 753.945 384.585 753.945 383.085 753.945 144.647 753.945 143.147 752.445 143.147 655.149 143.147 655.149 144.647" fill="#fff"/>
    </g>
  </g>
  <g>
    <polyline points="655.149 623.022 752.445 623.022 752.445 384.584 655.149 384.584" fill="#fff" opacity="0.2"/>
    <g opacity="0.5">
      <polygon points="752.445 384.585 752.445 623.023 655.149 623.022 655.149 624.522 752.445 624.523 753.945 624.523 753.945 623.023 753.945 384.585 752.445 384.585" fill="#fff"/>
    </g>
  </g>
  <g>
    <path d="M637.33045,182.90023l0-17.07129-70.66993,0v17.07128a3.89579,3.89579,0,0,0,3.86816,3.91407l62.93408,0A3.89539,3.89539,0,0,0,637.33045,182.90023Z" transform="translate(0 0)" fill="#fff" opacity="0.1"/>
    <rect x="566.66054" y="161.62873" width="70.66992" height="3.9502" fill="#fff" opacity="0.2"/>
    <path d="M637.58045,182.90023l0-21.52149h-.25l-70.66992,0h-.25l0,21.52148a4.146,4.146,0,0,0,4.11816,4.16407l62.93408,0A4.14586,4.14586,0,0,0,637.58045,182.90023Zm-70.91992-17.32132,0-3.9502,70.66992,0v3.9502Zm3.86816,21.23535a3.89579,3.89579,0,0,1-3.86816-3.91407V165.82891l70.66993,0,0,17.07129a3.89539,3.89539,0,0,1-3.86768,3.91406Z" transform="translate(0 0)" fill="#fff" opacity="0.5"/>
  </g>
  <g>
    <g opacity="0.5">
      <path d="M606.45551,199.68061a9.91846,9.91846,0,1,1-9.91846,9.91846,9.9185,9.9185,0,0,1,9.91846-9.91846m0-.25A10.16846,10.16846,0,1,0,616.624,209.59907a10.17994,10.17994,0,0,0-10.16845-10.16846Z" transform="translate(0 0)" fill="#fff"/>
    </g>
    <circle cx="606.45546" cy="209.59898" r="9.91843" fill="#fff" opacity="0.1"/>
  </g>
  <g>
    <polygon points="542.58 203.803 548.517 203.803 548.517 215.377 542.58 215.377 542.58 215.627 548.517 215.627 548.767 215.627 548.767 215.377 548.767 203.803 548.767 203.553 548.517 203.553 542.58 203.553 542.58 203.803" fill="#fff" opacity="0.5"/>
    <rect x="519.98459" y="201.13271" width="22.59574" height="33.95745" transform="translate(1062.56489 436.22293) rotate(-179.99999)" fill="#fff" opacity="0.1"/>
    <g opacity="0.1">
      <rect x="542.58033" y="220.84547" width="5.93617" height="11.57447" transform="translate(1091.0968 453.26549) rotate(-179.99999)" fill="#fff"/>
    </g>
    <g opacity="0.5">
      <path d="M542.33026,201.38276V234.84h-22.0957V201.38276h22.0957m.25-.25h-22.5957V235.09h22.5957V201.13276Z" transform="translate(0 0)" fill="#fff"/>
    </g>
    <polygon points="542.58 220.845 548.517 220.845 548.517 232.42 542.58 232.42 542.58 232.67 548.517 232.67 548.767 232.67 548.767 232.42 548.767 220.845 548.767 220.595 548.517 220.595 542.58 220.595 542.58 220.845" fill="#fff" opacity="0.5"/>
    <g opacity="0.1">
      <rect x="542.58033" y="203.80293" width="5.93617" height="11.57447" transform="translate(1091.09681 419.18039) rotate(-179.99999)" fill="#fff"/>
    </g>
    <polygon points="519.985 232.42 514.048 232.42 514.048 220.845 519.985 220.845 519.985 220.595 514.048 220.595 513.798 220.595 513.798 220.845 513.798 232.42 513.798 232.67 514.048 232.67 519.985 232.67 519.985 232.42" fill="#fff" opacity="0.5"/>
    <g opacity="0.1">
      <rect x="514.04842" y="203.80291" width="5.93617" height="11.57447" fill="#fff"/>
    </g>
    <polygon points="519.985 215.377 514.048 215.377 514.048 203.803 519.985 203.803 519.985 203.553 514.048 203.553 513.798 203.553 513.798 203.803 513.798 215.377 513.798 215.627 514.048 215.627 519.985 215.627 519.985 215.377" fill="#fff" opacity="0.5"/>
    <g opacity="0.1">
      <rect x="514.04841" y="220.84546" width="5.93617" height="11.57447" fill="#fff"/>
    </g>
  </g>
  <g>
    <rect x="600.3324" y="230.74124" width="12.10106" height="62.4694" transform="translate(868.35943 -344.40675) rotate(90.00005)" fill="#fff" opacity="0.1"/>
    <g opacity="0.5">
      <path d="M637.36761,256.17549v11.60107H575.39813V256.17549h61.96948m.25-.25H575.14813v12.10107h62.46948V255.92549Z" transform="translate(0 0)" fill="#fff"/>
    </g>
  </g>
  <g>
    <g>
      <rect x="465.65299" y="155.14745" width="17.91916" height="112.87901" fill="#fff" opacity="0.1"/>
      <g opacity="0.5">
        <path d="M465.903,267.77644v-112.379h17.41913v112.379H465.903m-.25.25h17.91913v-112.879H465.653v112.879Z" transform="translate(0 0)" fill="#fff"/>
      </g>
    </g>
    <g>
      <rect x="465.78075" y="224.08898" width="17.41358" height="17.41358" transform="translate(948.97508 465.59155) rotate(180)" fill="#fff" opacity="0.1"/>
      <g>
        <circle cx="478.54831" cy="236.86242" r="2.75801" fill="none" stroke="#fff" stroke-miterlimit="10" stroke-width="0.25" opacity="0.5"/>
        <circle cx="470.42677" cy="236.86242" r="2.75801" fill="none" stroke="#fff" stroke-miterlimit="10" stroke-width="0.25" opacity="0.5"/>
        <circle cx="478.54831" cy="228.72913" r="2.75801" fill="none" stroke="#fff" stroke-miterlimit="10" stroke-width="0.25" opacity="0.5"/>
        <circle cx="470.42677" cy="228.72913" r="2.75801" fill="none" stroke="#fff" stroke-miterlimit="10" stroke-width="0.25" opacity="0.5"/>
      </g>
      <g opacity="0.5">
        <path d="M465.653,223.96142h17.66913v17.66913H465.653Zm17.41365.25548H465.90849v17.15817h17.15817Z" transform="translate(0 0)" fill="#fff"/>
      </g>
    </g>
    <g>
      <path d="M466.73679,190.62941h1.21753v5.71008a1.50168,1.50168,0,0,0,1.5,1.5h8.7981a1.50168,1.50168,0,0,0,1.5-1.5V184.66927a1.50168,1.50168,0,0,0-1.5-1.5h-8.7981a1.50168,1.50168,0,0,0-1.5,1.5v5.71014h-1.21753a.125.125,0,1,0,0,.25Zm1.46753-5.96014a1.25014,1.25014,0,0,1,1.25-1.25h8.7981a1.25014,1.25014,0,0,1,1.25,1.25v11.67022a1.2501,1.2501,0,0,1-1.25,1.25h-8.7981a1.2501,1.2501,0,0,1-1.25-1.25v-5.71008h4.27662a.125.125,0,0,0,0-.25h-4.27662Z" transform="translate(0 0)" fill="#fff" opacity="0.5"/>
      <rect x="468.20444" y="183.41927" width="11.29787" height="14.17021" rx="1.25" transform="translate(947.70674 381.00876) rotate(180)" fill="#fff" opacity="0.1"/>
    </g>
  </g>
  <g>
    <g>
      <rect x="465.65299" y="499.64345" width="17.91916" height="112.87901" fill="#fff" opacity="0.1"/>
      <g opacity="0.5">
        <path d="M465.903,499.89347v112.379h17.41913v-112.379H465.903m-.25-.25h17.91913v112.879H465.653v-112.879Z" transform="translate(0 0)" fill="#fff"/>
      </g>
    </g>
    <g>
      <rect x="465.78075" y="526.16734" width="17.41358" height="17.41358" transform="translate(948.97508 1069.74827) rotate(180)" fill="#fff" opacity="0.1"/>
      <g>
        <circle cx="478.54831" cy="530.80749" r="2.75801" fill="none" stroke="#fff" stroke-miterlimit="10" stroke-width="0.25" opacity="0.5"/>
        <circle cx="470.42677" cy="530.80749" r="2.75801" fill="none" stroke="#fff" stroke-miterlimit="10" stroke-width="0.25" opacity="0.5"/>
        <circle cx="478.54831" cy="538.94078" r="2.75801" fill="none" stroke="#fff" stroke-miterlimit="10" stroke-width="0.25" opacity="0.5"/>
        <circle cx="470.42677" cy="538.94078" r="2.75801" fill="none" stroke="#fff" stroke-miterlimit="10" stroke-width="0.25" opacity="0.5"/>
      </g>
      <g opacity="0.5">
        <path d="M465.653,543.70849h17.66913V526.03936H465.653Zm17.41365-.25548H465.90849V526.29484h17.15817Z" transform="translate(0 0)" fill="#fff"/>
      </g>
    </g>
    <g>
      <path d="M466.73679,577.0405h1.21753v-5.71008a1.50168,1.50168,0,0,1,1.5-1.5h8.7981a1.50168,1.50168,0,0,1,1.5,1.5v11.67022a1.50168,1.50168,0,0,1-1.5,1.5h-8.7981a1.50168,1.50168,0,0,1-1.5-1.5V577.2905h-1.21753a.125.125,0,0,1,0-.25Zm1.46753,5.96014a1.25014,1.25014,0,0,0,1.25,1.25h8.7981a1.25014,1.25014,0,0,0,1.25-1.25V571.33042a1.2501,1.2501,0,0,0-1.25-1.25h-8.7981a1.2501,1.2501,0,0,0-1.25,1.25v5.71008h4.27662a.125.125,0,1,1,0,.25h-4.27662Z" transform="translate(0 0)" fill="#fff" opacity="0.5"/>
      <rect x="468.20444" y="570.08042" width="11.29787" height="14.17021" rx="1.25" transform="translate(947.70674 1154.33106) rotate(180)" fill="#fff" opacity="0.1"/>
    </g>
  </g>
  <line x1="269.12615" y1="291.87221" x2="269.12615" y2="359.07508" fill="none" stroke="#fff" stroke-miterlimit="10" stroke-width="0.25"/>
  <line x1="339.40033" y1="291.87221" x2="339.40033" y2="359.07508" fill="none" stroke="#fff" stroke-miterlimit="10" stroke-width="0.25"/>
  <path d="M196.99982,419.23217a3.58684,3.58684,0,0,0-1.24633.21566l-1.00662-2.03729.5512-1.0305a.02342.02342,0,0,1,.02391-.02391c.6231.02391,1.12645.0958,1.12645-.6231,0-.35944-.07188-.64716-.695-.64716H193.1889a.39726.39726,0,0,0,0,.79092,3.01382,3.01382,0,0,1,1.31824.33553l-.4793.86282h-6.13559l.40742-.74294a.368.368,0,0,0,0-.38352.38245.38245,0,0,0-.33553-.19175h-1.19836a.49783.49783,0,0,1-.5512-.43133c0-.23974.26365-.26364.43132-.28755h1.89332a.40742.40742,0,0,0,0-.81484H186.6459a1.12614,1.12614,0,0,0-1.22228,1.07848v.0239a1.28828,1.28828,0,0,0,1.34212,1.22229h.52728c-.23974.43132-.93472,1.70175-1.6058,2.972a3.52317,3.52317,0,0,0-1.3901-.28772,3.59008,3.59008,0,1,0,2.06118.64716l.67108-1.22228,3.06779,3.64305a.87467.87467,0,0,0-.07189.35943,1.02878,1.02878,0,0,0,.81484.9827,1.3731,1.3731,0,0,0,.40757,0,1.00641,1.00641,0,0,0,.57526-.38351h1.62968a3.58475,3.58475,0,1,0,3.54709-4.02657Zm-9.89842,3.59507a2.80416,2.80416,0,0,1-5.60831,0,2.77226,2.77226,0,0,1,2.80415-2.78023,3.37747,3.37747,0,0,1,.9827.16785c-.71906,1.29414-1.31824,2.42064-1.31824,2.42064a.56556.56556,0,0,0-.048.19175.39532.39532,0,0,0,.21567.35944.42924.42924,0,0,0,.5512-.16785l1.29431-2.42047a2.80205,2.80205,0,0,1,1.12645,2.22886Zm7.93312-2.9959a3.5223,3.5223,0,0,0-1.6058,2.63647h-1.414l2.27684-4.17032c.16768.3596.45542.91079.74294,1.5339Zm.35944.71906c.40742.79092.767,1.55778.9586,1.91741h-2.13308a2.79494,2.79494,0,0,1,1.17444-1.91741Zm-7.95709-2.68428h6.13558l-2.10915,3.90669a2.09061,2.09061,0,0,0-.21566-.07189,1.26947,1.26947,0,0,0-.40757-.00018c-.07.01653-.14378.0239-.21567.048-1.00662-1.19836-2.924-3.4752-3.21155-3.81074Zm9.56288,7.76536a2.78768,2.78768,0,0,1-2.75613-2.37279l2.75613.00016a.38245.38245,0,0,0,.33554-.19175.43379.43379,0,0,0,.0239-.38352l-1.24633-2.49249a2.75209,2.75209,0,0,1,.88674-.14378,2.80777,2.80777,0,0,1,2.80416,2.80415,2.772,2.772,0,0,1-2.804,2.78006Z" transform="translate(0 0)" fill="#fff" opacity="0.5"/>
  <line x1="148.16629" y1="291.87221" x2="148.16629" y2="359.07508" fill="none" stroke="#fff" stroke-miterlimit="10" stroke-width="0.25"/>
  <g opacity="0.5">
    <polygon points="753.945 757.048 46.055 757.048 46.055 359.076 146.209 359.076 146.209 360.576 47.555 360.576 47.555 755.548 752.445 755.548 752.445 624.523 753.945 624.523 753.945 757.048" fill="#fff"/>
  </g>
  <polygon points="108.464 330.266 108.464 308.537 121.102 319.402 108.464 330.266" fill="#fff"/>
  <g>
    <polygon points="424.217 358.199 393.493 358.199 385.579 358.199 385.579 364.199 385.579 369.63 393.493 369.63 393.493 364.199 424.217 364.199 424.217 403.205 393.493 403.205 393.493 397.774 385.579 397.774 385.579 403.205 385.579 409.205 393.493 409.205 424.217 409.205 431.451 409.205 431.451 403.205 431.451 364.199 431.451 358.199 424.217 358.199" fill="#fff"/>
    <path d="M394.64235,357.74456" transform="translate(0 0)" fill="#fff"/>
    <polyline points="431.451 380.237 459.549 380.237 459.549 330.058 394.642 330.058 394.642 358.199" fill="none" stroke="#fff" stroke-miterlimit="10" stroke-width="0.5"/>
    <rect x="431.40701" y="330.05773" width="28.14162" height="28.14162" fill="none" stroke="#fff" stroke-miterlimit="10" stroke-width="0.5"/>
    <rect x="394.64235" y="330.05773" width="7.34043" height="28.14162" fill="none" stroke="#fff" stroke-miterlimit="10" stroke-width="0.5"/>
    <rect x="401.98277" y="330.05773" width="7.34043" height="28.14162" fill="none" stroke="#fff" stroke-miterlimit="10" stroke-width="0.5"/>
    <rect x="409.35446" y="330.05773" width="7.34043" height="28.14162" fill="none" stroke="#fff" stroke-miterlimit="10" stroke-width="0.5"/>
    <rect x="416.69489" y="330.05773" width="7.34043" height="28.14162" fill="none" stroke="#fff" stroke-miterlimit="10" stroke-width="0.5"/>
    <rect x="441.8076" y="347.79875" width="7.34043" height="28.14162" transform="translate(83.60826 807.34738) rotate(-90)" fill="none" stroke="#fff" stroke-miterlimit="10" stroke-width="0.5"/>
    <rect x="441.8076" y="355.13918" width="7.34043" height="28.14162" transform="translate(76.26783 814.6878) rotate(-90)" fill="none" stroke="#fff" stroke-miterlimit="10" stroke-width="0.5"/>
    <path d="M394.64235,409.75854" transform="translate(0 0)" fill="#fff"/>
    <polyline points="431.451 387.267 459.549 387.267 459.549 409.304" fill="none" stroke="#fff" stroke-miterlimit="10" stroke-width="0.5"/>
    <polyline points="385.579 409.304 459.549 409.304 459.549 401.963 431.407 401.963" fill="none" stroke="#fff" stroke-miterlimit="10" stroke-width="0.5"/>
    <rect x="441.8076" y="384.22229" width="7.34043" height="28.14162" transform="translate(843.77092 -47.18471) rotate(90)" fill="none" stroke="#fff" stroke-miterlimit="10" stroke-width="0.5"/>
    <polygon points="458.245 409.205 459.549 409.205 459.549 381.08 459.549 331.362 459.549 330.058 394.642 330.058 394.642 331.362 458.245 331.362 458.245 409.205" fill="none" stroke="#fff" stroke-miterlimit="10" stroke-width="0.25"/>
    <g>
      <g>
        <path d="M394.64222,344.234h36.10206A13.01067,13.01067,0,0,1,443.755,357.24464V407.186" transform="translate(0 0)" fill="none" stroke="#fff" stroke-miterlimit="10" stroke-width="0.5"/>
        <path d="M441.35512,403.76868a.25.25,0,0,1,.34521.07715l2.05469,3.22608,2.05469-3.22608a.25.25,0,1,1,.42187.26856l-2.26562,3.55713a.25012.25012,0,0,1-.42188,0l-2.26562-3.55713a.25075.25075,0,0,1,.07666-.34571Z" transform="translate(0 0)" fill="#fff"/>
      </g>
      <circle cx="394.64235" cy="344.23397" r="1.15527" fill="none" stroke="#fff" stroke-miterlimit="10" stroke-width="0.5"/>
    </g>
  </g>
</svg>
