<svg id="A_6NP" data-name="A/6NP" xmlns="http://www.w3.org/2000/svg" viewBox="0 0 1340 920">
  <g id="_24" data-name="24">
    <polygon id="emittor" points="386.657 757.681 642.861 757.681 642.861 700.687 644.684 700.687 644.684 551.963 582.152 551.963 582.152 457 386.657 457 386.657 757.681" fill="#d8c19e" opacity="0.45"/>
  </g>
  <g id="_23" data-name="23">
    <polygon id="emittor-2" data-name="emittor" points="953.343 590.59 953.343 757.681 641.361 757.681 641.361 700.687 638.684 700.687 638.684 551.963 701.216 551.963 701.216 457 896.712 457 896.712 590.59 953.343 590.59" fill="#d8c19e" opacity="0.45"/>
  </g>
  <g id="_22" data-name="22">
    <polygon id="emittor-3" data-name="emittor" points="641.361 162.319 641.361 219.312 638.684 219.312 638.684 368.037 701.216 368.037 701.216 463 896.712 463 896.712 162.319 641.361 162.319" fill="#d8c19e" opacity="0.45"/>
  </g>
  <g id="_21" data-name="21">
    <polygon id="emittor-4" data-name="emittor" points="386.657 162.319 386.657 463 582.152 463 582.152 368.037 644.684 368.037 644.684 219.312 642.861 219.312 642.861 162.319 386.657 162.319" fill="#d8c19e" opacity="0.45"/>
  </g>
  <rect width="1340" height="920" fill="none"/>
</svg>
