<svg id="A_6NP" data-name="A/6NP" xmlns="http://www.w3.org/2000/svg" viewBox="0 0 1340 920">
  <g>
    <rect width="1340" height="920" fill="#214f77"/>
    <g>
      <rect x="730.90155" y="463.2579" width="38.0293" height="17.32967" transform="translate(1499.8324 943.84548) rotate(180)" fill="#fff" opacity="0.1"/>
      <g opacity="0.5">
        <path d="M730.65155,480.84561h38.5293V462.99987h-38.5293Zm38.2793-.258h-38.0293V463.2579h38.0293Z" fill="#fff"/>
      </g>
    </g>
    <g>
      <rect x="730.90155" y="439.41216" width="38.0293" height="17.32967" fill="#fff" opacity="0.1"/>
      <g opacity="0.5">
        <path d="M769.18085,439.15412h-38.5293v17.84575h38.5293Zm-38.2793.258h38.0293v17.32967h-38.0293Z" fill="#fff"/>
      </g>
    </g>
    <g>
      <rect x="514.43764" y="439.41216" width="38.0293" height="17.32967" fill="#fff" opacity="0.1"/>
      <g opacity="0.5">
        <path d="M552.71694,439.15412h-38.5293v17.84575h38.5293Zm-38.2793.258h38.0293v17.32967h-38.0293Z" fill="#fff"/>
      </g>
    </g>
    <g>
      <rect x="514.43764" y="463.2579" width="38.0293" height="17.32967" fill="#fff" opacity="0.1"/>
      <g opacity="0.5">
        <path d="M552.71694,480.84561h-38.5293V462.99987h38.5293Zm-38.2793-.258h38.0293V463.2579h-38.0293Z" fill="#fff"/>
      </g>
    </g>
    <g>
      <rect x="620.76527" y="575.80824" width="17.91916" height="112.87901" transform="translate(1259.44963 1264.49557) rotate(-179.99999)" fill="#fff" opacity="0.1"/>
      <g opacity="0.5">
        <path d="M638.4344,576.05826v112.379H621.01528v-112.379H638.4344m.25-.25H620.76528v112.879H638.6844v-112.879Z" fill="#fff"/>
      </g>
    </g>
    <g>
      <path d="M636.17016,652.82247h-1.21753v-5.71009a1.50168,1.50168,0,0,0-1.5-1.5h-8.79809a1.50168,1.50168,0,0,0-1.5,1.5v11.67023a1.50168,1.50168,0,0,0,1.5,1.5h8.79809a1.50168,1.50168,0,0,0,1.5-1.5v-5.71014h1.21753a.125.125,0,0,0,0-.25Zm-1.46753,5.96014a1.25014,1.25014,0,0,1-1.25,1.25h-8.79809a1.25014,1.25014,0,0,1-1.25-1.25V647.11238a1.2501,1.2501,0,0,1,1.25-1.25h8.79809a1.2501,1.2501,0,0,1,1.25,1.25v5.71009H630.426a.125.125,0,0,0,0,.25h4.27661Z" fill="#fff" opacity="0.5"/>
      <rect x="623.40465" y="645.86239" width="11.29787" height="14.17021" rx="1.25" fill="#fff" opacity="0.1"/>
    </g>
    <g>
      <path d="M533.35131,463.2579v1.34253h-5.71008a1.50168,1.50168,0,0,0-1.5,1.5v8.7981a1.50168,1.50168,0,0,0,1.5,1.5h11.67022a1.50168,1.50168,0,0,0,1.5-1.5v-8.7981a1.50168,1.50168,0,0,0-1.5-1.5h-5.71014V463.2579h-.25Zm5.96014,1.59253a1.25014,1.25014,0,0,1,1.25,1.25v8.7981a1.25014,1.25014,0,0,1-1.25,1.25H527.64123a1.2501,1.2501,0,0,1-1.25-1.25v-8.7981a1.2501,1.2501,0,0,1,1.25-1.25h5.71008V469.127a.125.125,0,1,0,.25,0v-4.27661Z" fill="#fff" opacity="0.5"/>
      <rect x="527.8274" y="463.41437" width="11.29787" height="14.17021" rx="1.25" transform="translate(62.97686 1003.97582) rotate(-90)" fill="#fff" opacity="0.1"/>
    </g>
    <g>
      <path d="M533.60137,456.74183V455.3993h5.71009a1.50168,1.50168,0,0,0,1.5-1.5l0-8.79809a1.50168,1.50168,0,0,0-1.5-1.5H527.64123a1.50168,1.50168,0,0,0-1.5,1.5v8.7981a1.50168,1.50168,0,0,0,1.5,1.5l5.71014,0v1.34253h.25Zm-5.96014-1.59252a1.25014,1.25014,0,0,1-1.25-1.25v-8.7981a1.25014,1.25014,0,0,1,1.25-1.25h11.67022a1.2501,1.2501,0,0,1,1.25,1.25l0,8.79809a1.2501,1.2501,0,0,1-1.25,1.25h-5.71009v-4.27661a.125.125,0,0,0-.25,0v4.27661Z" fill="#fff" opacity="0.5"/>
      <rect x="527.8274" y="442.41515" width="11.29787" height="14.17021" rx="1.25" transform="translate(982.97642 -83.97623) rotate(89.99998)" fill="#fff" opacity="0.1"/>
    </g>
    <g>
      <path d="M749.79117,463.2579v1.34253h-5.71009a1.50168,1.50168,0,0,0-1.5,1.5v8.7981a1.50168,1.50168,0,0,0,1.5,1.5h11.67023a1.50168,1.50168,0,0,0,1.5-1.5v-8.7981a1.50168,1.50168,0,0,0-1.5-1.5h-5.71014V463.2579h-.25Zm5.96014,1.59253a1.25014,1.25014,0,0,1,1.25,1.25v8.7981a1.25014,1.25014,0,0,1-1.25,1.25H744.08108a1.25011,1.25011,0,0,1-1.25-1.25v-8.7981a1.25011,1.25011,0,0,1,1.25-1.25h5.71009V469.127a.125.125,0,1,0,.25,0v-4.27661Z" fill="#fff" opacity="0.5"/>
      <rect x="744.26726" y="463.41437" width="11.29787" height="14.17021" rx="1.25" transform="translate(279.41672 1220.41568) rotate(-90)" fill="#fff" opacity="0.1"/>
    </g>
    <g>
      <path d="M750.04123,456.74183V455.3993h5.71008a1.50168,1.50168,0,0,0,1.5-1.5v-8.79809a1.50168,1.50168,0,0,0-1.5-1.5H744.08108a1.50168,1.50168,0,0,0-1.5,1.5l0,8.7981a1.50168,1.50168,0,0,0,1.5,1.5l5.71014,0v1.34253h.25Zm-5.96014-1.59252a1.25014,1.25014,0,0,1-1.25-1.25l0-8.7981a1.25014,1.25014,0,0,1,1.25-1.25h11.67023a1.2501,1.2501,0,0,1,1.25,1.25v8.79809a1.2501,1.2501,0,0,1-1.25,1.25h-5.71008v-4.27661a.125.125,0,1,0-.25,0v4.27661Z" fill="#fff" opacity="0.5"/>
      <rect x="744.26726" y="442.41515" width="11.29787" height="14.17021" rx="1.25" transform="translate(1199.41621 -300.41609) rotate(89.99998)" fill="#fff" opacity="0.1"/>
    </g>
    <g>
      <rect x="558.37493" y="555.69565" width="16.85963" height="16.86013" fill="#fff" opacity="0.1"/>
      <g opacity="0.5">
        <path d="M575.48723,555.443H558.12236v17.36535h17.36487V555.443Zm-17.1123,17.11273V555.69565h16.85962v16.86011Z" fill="#fff"/>
      </g>
      <g opacity="0.5">
        <polygon points="558.122 555.443 526.54 555.443 526.54 572.808 558.122 572.808 558.122 572.556 526.792 572.556 526.792 555.696 558.122 555.696 558.122 555.443 558.122 555.443" fill="#fff"/>
      </g>
      <g opacity="0.5">
        <path d="M566.80474,557.59317a6.5328,6.5328,0,1,0,6.53332,6.53278,6.54038,6.54038,0,0,0-6.53332-6.53278Zm0,12.813a6.28018,6.28018,0,1,1,6.28064-6.28018,6.28723,6.28723,0,0,1-6.28064,6.28018Z" fill="#fff"/>
      </g>
      <rect x="526.79297" y="555.69565" width="31.32935" height="16.86013" fill="#fff" opacity="0.1"/>
      <circle cx="566.80475" cy="564.12596" r="6.28042" fill="#fff" opacity="0.1"/>
    </g>
    <g>
      <polygon points="547.914 647.447 541.978 647.447 541.978 635.872 547.914 635.872 547.914 635.622 541.978 635.622 541.728 635.622 541.728 635.872 541.728 647.447 541.728 647.697 541.978 647.697 547.914 647.697 547.914 647.447" fill="#fff" opacity="0.5"/>
      <rect x="547.91398" y="616.15933" width="22.59574" height="33.95745" fill="#fff" opacity="0.1"/>
      <g opacity="0.1">
        <rect x="541.97781" y="618.82954" width="5.93617" height="11.57447" fill="#fff"/>
      </g>
      <g opacity="0.5">
        <path d="M570.25969,616.40933v33.45743H548.164V616.40933h22.0957m.25-.25H547.914v33.95743h22.5957V616.15933Z" fill="#fff"/>
      </g>
      <polygon points="547.914 630.404 541.978 630.404 541.978 618.83 547.914 618.83 547.914 618.58 541.978 618.58 541.728 618.58 541.728 618.83 541.728 630.404 541.728 630.654 541.978 630.654 547.914 630.654 547.914 630.404" fill="#fff" opacity="0.5"/>
      <g opacity="0.1">
        <rect x="541.97781" y="635.87209" width="5.93617" height="11.57447" fill="#fff"/>
      </g>
      <polygon points="570.51 618.83 576.446 618.83 576.446 630.404 570.51 630.404 570.51 630.654 576.446 630.654 576.696 630.654 576.696 630.404 576.696 618.83 576.696 618.58 576.446 618.58 570.51 618.58 570.51 618.83" fill="#fff" opacity="0.5"/>
      <g opacity="0.1">
        <rect x="570.50972" y="635.8721" width="5.93617" height="11.57447" transform="translate(1146.95561 1283.31867) rotate(180)" fill="#fff"/>
      </g>
      <polygon points="570.51 635.872 576.446 635.872 576.446 647.447 570.51 647.447 570.51 647.697 576.446 647.697 576.696 647.697 576.696 647.447 576.696 635.872 576.696 635.622 576.446 635.622 570.51 635.622 570.51 635.872" fill="#fff" opacity="0.5"/>
      <g opacity="0.1">
        <rect x="570.50972" y="618.82955" width="5.93617" height="11.57447" transform="translate(1146.95561 1249.23357) rotate(180)" fill="#fff"/>
      </g>
    </g>
    <polyline points="895.212 219.219 895.212 163.913 642.861 163.913 642.861 219.219" fill="#fff" opacity="0.2"/>
    <rect x="391.05228" y="456.99987" width="189.44681" height="6" fill="#fff"/>
    <rect x="546.38637" y="486.76583" width="65.53191" height="6" transform="translate(89.3865 1068.91815) rotate(-90)" fill="#fff"/>
    <rect x="576.15233" y="551.96263" width="68.53191" height="6" transform="translate(1220.83657 1109.92527) rotate(180)" fill="#fff"/>
    <rect x="574.82186" y="618.82502" width="133.72477" height="6" transform="translate(1263.50926 -19.85922) rotate(90)" fill="#fff"/>
    <rect x="446.99275" y="524.47226" width="3" height="99.67223" transform="translate(-125.81563 1022.80113) rotate(-90)" fill="#fff"/>
    <rect x="549.54696" y="547.02646" width="3" height="54.56383" transform="translate(-23.26142 1125.35534) rotate(-90)" fill="#fff"/>
    <rect x="506.714" y="499.96479" width="3" height="29.63399" transform="translate(-6.56778 1022.99579) rotate(-90)" fill="#fff"/>
    <rect x="559.37955" y="499.55091" width="3.0838" height="30.46176" transform="translate(46.13967 1075.70323) rotate(-90)" fill="#fff"/>
    <rect x="575.48845" y="551.96263" width="3" height="23.84574" transform="translate(1153.97689 1127.77101) rotate(180)" fill="#fff"/>
    <rect x="552.76504" y="462.75519" width="3" height="18.09043" transform="translate(1108.53008 943.6008) rotate(180)" fill="#fff"/>
    <rect x="562.95868" y="467.65197" width="3" height="23.38729" transform="translate(1043.8043 -85.11307) rotate(90)" fill="#fff"/>
    <rect x="620.76504" y="557.96263" width="3" height="17.84574" transform="translate(1244.53008 1133.77101) rotate(180)" fill="#fff"/>
    <rect x="628.22464" y="565.34878" width="3" height="17.9192" transform="translate(1204.03302 -55.41626) rotate(90)" fill="#fff"/>
    <rect x="490.39701" y="550.84029" width="3" height="21.96809" transform="translate(983.79402 1123.64867) rotate(180)" fill="#fff"/>
    <rect x="490.39701" y="462.99987" width="3" height="62.41489" transform="translate(983.79402 988.41463) rotate(180)" fill="#fff"/>
    <g>
      <g>
        <path d="M479.76953,671.0602H493.895V649.005H479.76953a3.8958,3.8958,0,0,0-3.91406,3.86817v14.31933A3.89539,3.89539,0,0,0,479.76953,671.0602Z" fill="#fff" opacity="0.1"/>
        <rect x="494.14498" y="649.00502" width="3.9502" height="22.05518" fill="#fff" opacity="0.2"/>
        <path d="M479.76953,671.3102h18.57564V648.755H479.76953a4.146,4.146,0,0,0-4.16406,4.11817v14.31933A4.14586,4.14586,0,0,0,479.76953,671.3102ZM494.145,649.005h3.95019V671.0602H494.145Zm-18.28951,3.86817a3.8958,3.8958,0,0,1,3.91406-3.86817H493.895V671.0602H479.76953a3.89539,3.89539,0,0,1-3.91406-3.86768Z" fill="#fff" opacity="0.5"/>
      </g>
      <g>
        <path d="M479.76953,634.27828H493.895V612.22311H479.76953a3.8958,3.8958,0,0,0-3.91406,3.86816v14.31934A3.89538,3.89538,0,0,0,479.76953,634.27828Z" fill="#fff" opacity="0.1"/>
        <rect x="494.14498" y="612.22311" width="3.9502" height="22.05518" fill="#fff" opacity="0.2"/>
        <path d="M479.76953,634.52828h18.57564V611.97311H479.76953a4.146,4.146,0,0,0-4.16406,4.11816v14.31934A4.14585,4.14585,0,0,0,479.76953,634.52828ZM494.145,612.22311h3.95019v22.05517H494.145Zm-18.28951,3.86816a3.8958,3.8958,0,0,1,3.91406-3.86816H493.895v22.05517H479.76953a3.89538,3.89538,0,0,1-3.91406-3.86767Z" fill="#fff" opacity="0.5"/>
      </g>
    </g>
    <g>
      <path d="M426.20731,606.30669H409.136v70.66992h17.07129a3.8958,3.8958,0,0,0,3.91407-3.86816V610.17437A3.89539,3.89539,0,0,0,426.20731,606.30669Z" fill="#fff" opacity="0.1"/>
      <rect x="404.93583" y="606.30669" width="3.9502" height="70.66992" fill="#fff" opacity="0.2"/>
      <path d="M426.20731,606.05669H404.68583v71.16992h21.52148a4.146,4.146,0,0,0,4.16407-4.11816V610.17437A4.14586,4.14586,0,0,0,426.20731,606.05669ZM408.886,676.97661h-3.95019V606.30669H408.886Zm21.23536-3.86816a3.8958,3.8958,0,0,1-3.91407,3.86816H409.136V606.30669h17.07129a3.89539,3.89539,0,0,1,3.91407,3.86768Z" fill="#fff" opacity="0.5"/>
    </g>
    <g>
      <g opacity="0.5">
        <path d="M452.9063,631.72321a9.91844,9.91844,0,1,1-9.91846,9.91846,9.91848,9.91848,0,0,1,9.91846-9.91846m0-.25a10.16844,10.16844,0,1,0,10.16846,10.16846,10.18,10.18,0,0,0-10.16846-10.16846Z" fill="#fff"/>
      </g>
      <circle cx="452.90627" cy="641.64165" r="9.91843" fill="#fff" opacity="0.1"/>
    </g>
    <g>
      <g>
        <path d="M469.76541,516.96V463.25486H419.28824V516.96a3.93614,3.93614,0,0,0,3.86817,3.9921h42.74133A3.93572,3.93572,0,0,0,469.76541,516.96Z" fill="#fff" opacity="0.1"/>
        <path d="M419.03824,462.99988V516.96a4.18882,4.18882,0,0,0,4.11817,4.24708h42.74133a4.18873,4.18873,0,0,0,4.11767-4.24708V462.99988m-.25,0H419.28824m3.86817,57.95224a3.93614,3.93614,0,0,1-3.86817-3.9921V463.25486h50.47717V516.96a3.93572,3.93572,0,0,1-3.86767,3.9921Z" fill="#fff" opacity="0.5"/>
      </g>
      <polygon points="418.449 475.286 398.912 475.286 398.912 463.275 418.449 463.275 418.783 463.275 419.038 463.275 419.038 463 398.657 463 398.657 475.561 419.038 475.561 419.038 475.286 418.783 475.286 418.449 475.286" fill="#fff" opacity="0.5"/>
      <polygon points="470.605 463.275 490.142 463.275 490.142 475.286 470.605 475.286 470.271 475.286 470.015 475.286 470.015 475.561 490.397 475.561 490.397 463 470.015 463 470.015 463.275 470.271 463.275 470.605 463.275" fill="#fff" opacity="0.5"/>
      <rect x="398.91208" y="463.27477" width="20.12616" height="12.01102" fill="#fff" opacity="0.1"/>
      <rect x="470.01541" y="463.27478" width="20.12616" height="12.01101" fill="#fff" opacity="0.1"/>
    </g>
    <g>
      <rect x="590.70392" y="545.74719" width="17.84573" height="42.2766" transform="translate(32.74108 1166.51206) rotate(-89.99998)" fill="#fff" opacity="0.1"/>
      <g opacity="0.5">
        <path d="M620.51506,558.21262v17.34573H578.73845V558.21262h41.77661m.25-.25H578.48845v17.84573h42.27661V557.96262Z" fill="#fff"/>
      </g>
    </g>
    <g>
      <rect x="444.07117" y="542.01309" width="12.10106" height="79.69137" transform="translate(-131.73755 1031.97988) rotate(-89.99994)" fill="#fff" opacity="0.1"/>
      <g opacity="0.5">
        <path d="M489.71733,576.05826v11.601H410.52605v-11.601h79.19128m.25-.25H410.27605v12.101h79.69128v-12.101Z" fill="#fff"/>
      </g>
    </g>
    <g>
      <rect x="435.63313" y="518.04462" width="17.78723" height="91.74036" transform="translate(-119.38841 1008.44108) rotate(-89.99995)" fill="#fff" opacity="0.1"/>
      <g opacity="0.5">
        <path d="M490.1469,555.27118v17.28723H398.90654V555.27118H490.1469m.25-.25H398.65654v17.78723H490.3969V555.02118Z" fill="#fff"/>
      </g>
    </g>
    <g>
      <path d="M493.397,462.99987v50.28191h20.79063V462.99987Zm20.53139,50.02268H493.65625V463.25911h10.007v2.97616h-7.0308v36.52057a7.15991,7.15991,0,0,0,14.31983,0V466.23527h-7.02979v-2.97616H513.9284Zm-10.13557-43.91491a.12954.12954,0,0,0,.12962-.12962v-2.48351H510.693v36.26133a6.90068,6.90068,0,0,1-13.80135,0V466.49451h6.77156V468.978A.12954.12954,0,0,0,503.79283,469.10764Z" fill="#fff" opacity="0.5"/>
      <path d="M493.65625,463.25911v49.76344H513.9284V463.25911ZM510.693,502.75584a6.90068,6.90068,0,0,1-13.80135,0V466.49451H510.693Z" fill="#fff" opacity="0.1"/>
      <path d="M496.89165,466.49451H510.693a0,0,0,0,1,0,0v36.50722a6.65478,6.65478,0,0,1-6.65478,6.65478h-.49179a6.65478,6.65478,0,0,1-6.65478-6.65478V466.49451A0,0,0,0,1,496.89165,466.49451Z" fill="#fff" opacity="0.2"/>
    </g>
    <g>
      <g opacity="0.5">
        <path d="M571.82005,489.31044v9.7h-9.65014a4.85,4.85,0,0,1,0-9.7h9.65014m.25-.25h-9.90014a5.1,5.1,0,0,0,0,10.2h9.90014v-10.2Z" fill="#fff"/>
      </g>
      <g opacity="0.5">
        <polygon points="576.152 487.077 571.822 487.077 571.822 489.06 572.072 489.06 572.072 487.327 575.902 487.327 575.902 500.994 572.072 500.994 572.072 499.261 571.822 499.261 571.822 501.244 576.152 501.244 576.152 487.077 576.152 487.077" fill="#fff"/>
      </g>
      <path d="M571.82005,489.31044v9.7h-9.65014a4.85,4.85,0,0,1,0-9.7h9.65014" fill="#fff" opacity="0.1"/>
      <rect x="572.07005" y="487.327" width="3.83228" height="13.66699" fill="#fff" opacity="0.1"/>
    </g>
    <path d="M571.82005,489.31044v9.7h-9.65014a4.85,4.85,0,0,1,0-9.7h9.65014" fill="#fff" opacity="0.1"/>
    <g>
      <rect x="621.14308" y="593.4973" width="17.41358" height="17.41358" fill="#fff" opacity="0.1"/>
      <g>
        <circle cx="625.7891" cy="598.13744" r="2.75801" fill="none" stroke="#fff" stroke-miterlimit="10" stroke-width="0.25" opacity="0.5"/>
        <circle cx="633.91065" cy="598.13744" r="2.75801" fill="none" stroke="#fff" stroke-miterlimit="10" stroke-width="0.25" opacity="0.5"/>
        <circle cx="625.7891" cy="606.27073" r="2.75801" fill="none" stroke="#fff" stroke-miterlimit="10" stroke-width="0.25" opacity="0.5"/>
        <circle cx="633.91065" cy="606.27073" r="2.75801" fill="none" stroke="#fff" stroke-miterlimit="10" stroke-width="0.25" opacity="0.5"/>
      </g>
      <g opacity="0.5">
        <path d="M638.6844,611.03844H621.01528V593.36931H638.6844Zm-17.41364-.25548h17.15816V593.62479H621.27076Z" fill="#fff"/>
      </g>
    </g>
    <rect x="404.38796" y="672.01129" width="12" height="45.35221" transform="translate(-284.29945 1105.07536) rotate(-90)" fill="#fff"/>
    <rect x="519.21242" y="670.57096" width="12" height="48.23289" transform="translate(-169.47498 1219.89983) rotate(-90)" fill="#fff"/>
    <rect x="625.02251" y="681.02567" width="12" height="27.32346" transform="translate(-63.66489 1325.70992) rotate(-90)" fill="#fff"/>
    <rect x="386.65664" y="657.17008" width="12" height="43.51732" transform="translate(785.31327 1357.85748) rotate(180)" fill="#fff"/>
    <rect x="386.65664" y="549.53178" width="12" height="39.60638" transform="translate(785.31327 1138.66995) rotate(180)" fill="#fff"/>
    <rect x="386.65664" y="456.99987" width="12" height="24.5" transform="translate(785.31327 938.49974) rotate(180)" fill="#fff"/>
    <rect x="386.65664" y="589.13817" width="12" height="68.03191" transform="translate(785.31327 1246.30825) rotate(180)" fill="#d3d3d3" opacity="0.6"/>
    <rect x="358.64068" y="622.40412" width="68.03191" height="1.5" transform="translate(-230.49749 1015.81076) rotate(-90)" fill="#fff"/>
    <rect x="386.65664" y="481.49987" width="12" height="68.03191" transform="translate(785.31327 1031.03165) rotate(180)" fill="#d3d3d3" opacity="0.6"/>
    <rect x="358.64068" y="514.76583" width="68.03191" height="1.5" transform="translate(-122.85919 908.17246) rotate(-90)" fill="#fff"/>
    <rect x="461.08002" y="660.67144" width="12" height="68.03191" transform="translate(1161.76742 227.60738) rotate(90)" fill="#d3d3d3" opacity="0.6"/>
    <rect x="433.06406" y="693.9374" width="68.03191" height="1.5" transform="translate(934.16004 1389.3748) rotate(180)" fill="#fff"/>
    <rect x="577.34483" y="660.67144" width="12" height="68.03191" transform="translate(1278.03223 111.34257) rotate(90)" fill="#d3d3d3" opacity="0.6"/>
    <rect x="549.32887" y="693.9374" width="68.03191" height="1.5" transform="translate(1166.68966 1389.3748) rotate(180)" fill="#fff"/>
    <polyline points="388.157 219.312 388.157 163.819 641.361 163.819 641.361 219.312" fill="#fff" opacity="0.2"/>
    <g>
      <line x1="388.15664" y1="213.16791" x2="641.36079" y2="213.16801" fill="none" stroke="#fff" stroke-miterlimit="10" stroke-width="0.2"/>
      <line x1="388.15664" y1="209.36433" x2="641.36079" y2="209.36443" fill="none" stroke="#fff" stroke-miterlimit="10" stroke-width="0.2"/>
      <line x1="388.15664" y1="205.56074" x2="641.36079" y2="205.56085" fill="none" stroke="#fff" stroke-miterlimit="10" stroke-width="0.2"/>
      <line x1="388.15664" y1="201.75716" x2="641.36079" y2="201.75726" fill="none" stroke="#fff" stroke-miterlimit="10" stroke-width="0.2"/>
      <line x1="388.15664" y1="197.95358" x2="641.36079" y2="197.95368" fill="none" stroke="#fff" stroke-miterlimit="10" stroke-width="0.2"/>
      <line x1="388.15664" y1="194.15" x2="641.36079" y2="194.1501" fill="none" stroke="#fff" stroke-miterlimit="10" stroke-width="0.2"/>
      <line x1="388.15664" y1="190.34642" x2="641.36079" y2="190.34652" fill="none" stroke="#fff" stroke-miterlimit="10" stroke-width="0.2"/>
      <line x1="388.15664" y1="186.54284" x2="641.36079" y2="186.54294" fill="none" stroke="#fff" stroke-miterlimit="10" stroke-width="0.2"/>
      <line x1="388.15664" y1="182.73926" x2="641.36079" y2="182.73936" fill="none" stroke="#fff" stroke-miterlimit="10" stroke-width="0.2"/>
      <line x1="388.15664" y1="178.93568" x2="641.36079" y2="178.93578" fill="none" stroke="#fff" stroke-miterlimit="10" stroke-width="0.2"/>
      <line x1="388.15664" y1="175.1321" x2="641.36079" y2="175.1322" fill="none" stroke="#fff" stroke-miterlimit="10" stroke-width="0.2"/>
      <line x1="388.15664" y1="171.32852" x2="641.36079" y2="171.32862" fill="none" stroke="#fff" stroke-miterlimit="10" stroke-width="0.2"/>
      <line x1="388.15664" y1="167.52494" x2="641.36079" y2="167.52504" fill="none" stroke="#fff" stroke-miterlimit="10" stroke-width="0.2"/>
      <rect x="388.15664" y="163.7214" width="253.20415" height="53.25013" fill="none" stroke="#fff" stroke-miterlimit="10" stroke-width="0.2"/>
    </g>
    <g>
      <line x1="642.8608" y1="213.09112" x2="895.21184" y2="213.09122" fill="none" stroke="#fff" stroke-miterlimit="10" stroke-width="0.2"/>
      <line x1="642.8608" y1="209.30035" x2="895.21184" y2="209.30045" fill="none" stroke="#fff" stroke-miterlimit="10" stroke-width="0.2"/>
      <line x1="642.8608" y1="205.50959" x2="895.21184" y2="205.50969" fill="none" stroke="#fff" stroke-miterlimit="10" stroke-width="0.2"/>
      <line x1="642.8608" y1="201.71882" x2="895.21184" y2="201.71892" fill="none" stroke="#fff" stroke-miterlimit="10" stroke-width="0.2"/>
      <line x1="642.8608" y1="197.92805" x2="895.21184" y2="197.92815" fill="none" stroke="#fff" stroke-miterlimit="10" stroke-width="0.2"/>
      <line x1="642.8608" y1="194.13729" x2="895.21184" y2="194.13739" fill="none" stroke="#fff" stroke-miterlimit="10" stroke-width="0.2"/>
      <line x1="642.8608" y1="190.34652" x2="895.21184" y2="190.34662" fill="none" stroke="#fff" stroke-miterlimit="10" stroke-width="0.2"/>
      <line x1="642.8608" y1="186.55576" x2="895.21184" y2="186.55586" fill="none" stroke="#fff" stroke-miterlimit="10" stroke-width="0.2"/>
      <line x1="642.8608" y1="182.76499" x2="895.21184" y2="182.76509" fill="none" stroke="#fff" stroke-miterlimit="10" stroke-width="0.2"/>
      <line x1="642.8608" y1="178.97422" x2="895.21184" y2="178.97433" fill="none" stroke="#fff" stroke-miterlimit="10" stroke-width="0.2"/>
      <line x1="642.8608" y1="175.18346" x2="895.21184" y2="175.18356" fill="none" stroke="#fff" stroke-miterlimit="10" stroke-width="0.2"/>
      <line x1="642.8608" y1="171.39269" x2="895.21184" y2="171.39279" fill="none" stroke="#fff" stroke-miterlimit="10" stroke-width="0.2"/>
      <line x1="642.8608" y1="167.60193" x2="895.21184" y2="167.60203" fill="none" stroke="#fff" stroke-miterlimit="10" stroke-width="0.2"/>
      <rect x="642.8608" y="163.81121" width="252.35104" height="53.07072" fill="none" stroke="#fff" stroke-miterlimit="10" stroke-width="0.2"/>
    </g>
    <rect x="391.05228" y="456.99987" width="189.44681" height="6" fill="#fff"/>
    <rect x="546.38637" y="427.23391" width="65.53191" height="6" transform="translate(1009.38624 -148.91842) rotate(90)" fill="#fff"/>
    <rect x="576.15233" y="362.0371" width="68.53191" height="6" transform="translate(1220.83657 730.07421) rotate(180)" fill="#fff"/>
    <rect x="574.82186" y="295.17472" width="133.72477" height="6" transform="translate(343.50952 939.85896) rotate(-90)" fill="#fff"/>
    <rect x="446.99275" y="295.85524" width="3" height="99.67223" transform="translate(794.18411 -102.8014) rotate(90)" fill="#fff"/>
    <rect x="549.54696" y="318.40944" width="3" height="54.56383" transform="translate(896.73831 -205.3556) rotate(90)" fill="#fff"/>
    <rect x="506.714" y="390.40096" width="3" height="29.63399" transform="translate(913.43196 -102.99605) rotate(90)" fill="#fff"/>
    <rect x="559.37955" y="389.98708" width="3.0838" height="30.46176" transform="translate(966.1394 -155.7035) rotate(90)" fill="#fff"/>
    <rect x="575.48845" y="344.19136" width="3" height="23.84574" transform="translate(1153.97689 712.22846) rotate(180)" fill="#fff"/>
    <rect x="552.76504" y="439.15412" width="3" height="18.09043" transform="translate(1108.53008 896.39867) rotate(180)" fill="#fff"/>
    <rect x="562.95868" y="428.96048" width="3" height="23.38729" transform="translate(123.80456 1005.11281) rotate(-90)" fill="#fff"/>
    <rect x="620.76504" y="344.19136" width="3" height="17.84574" transform="translate(1244.53008 706.22846) rotate(180)" fill="#fff"/>
    <rect x="628.22464" y="336.73176" width="3" height="17.9192" transform="translate(284.03328 975.416) rotate(-90)" fill="#fff"/>
    <rect x="490.39701" y="347.19136" width="3" height="21.96809" transform="translate(983.79402 716.3508) rotate(180)" fill="#fff"/>
    <rect x="490.39701" y="394.58498" width="3" height="62.41489" transform="translate(983.79402 851.58484) rotate(180)" fill="#fff"/>
    <rect x="490.93363" y="246.999" width="0.25" height="0.25" transform="translate(982.11725 494.24799) rotate(180)" fill="#fff"/>
    <g>
      <g>
        <path d="M479.76953,248.93954H493.895v22.05518H479.76953a3.89581,3.89581,0,0,1-3.91406-3.86817V252.80722A3.89539,3.89539,0,0,1,479.76953,248.93954Z" fill="#fff" opacity="0.1"/>
        <rect x="494.14498" y="248.93954" width="3.9502" height="22.05518" fill="#fff" opacity="0.2"/>
        <path d="M479.76953,248.68954h18.57564v22.55518H479.76953a4.146,4.146,0,0,1-4.16406-4.11817V252.80722A4.14586,4.14586,0,0,1,479.76953,248.68954ZM494.145,270.99472h3.95019V248.93954H494.145Zm-18.28951-3.86817a3.89581,3.89581,0,0,0,3.91406,3.86817H493.895V248.93954H479.76953a3.89539,3.89539,0,0,0-3.91406,3.86768Z" fill="#fff" opacity="0.5"/>
      </g>
      <g>
        <path d="M479.76953,285.72145H493.895v22.05518H479.76953a3.8958,3.8958,0,0,1-3.91406-3.86816V289.58913A3.89539,3.89539,0,0,1,479.76953,285.72145Z" fill="#fff" opacity="0.1"/>
        <rect x="494.14498" y="285.72145" width="3.9502" height="22.05518" fill="#fff" opacity="0.2"/>
        <path d="M479.76953,285.47145h18.57564v22.55518H479.76953a4.146,4.146,0,0,1-4.16406-4.11816V289.58913A4.14586,4.14586,0,0,1,479.76953,285.47145ZM494.145,307.77663h3.95019V285.72145H494.145Zm-18.28951-3.86816a3.8958,3.8958,0,0,0,3.91406,3.86816H493.895V285.72145H479.76953a3.89539,3.89539,0,0,0-3.91406,3.86768Z" fill="#fff" opacity="0.5"/>
      </g>
    </g>
    <g>
      <path d="M426.20731,313.69305H409.136V243.02312h17.07129a3.89581,3.89581,0,0,1,3.91407,3.86817v62.93408A3.89539,3.89539,0,0,1,426.20731,313.69305Z" fill="#fff" opacity="0.1"/>
      <rect x="404.93583" y="243.02312" width="3.9502" height="70.66992" fill="#fff" opacity="0.2"/>
      <path d="M426.20731,313.94305H404.68583V242.77312h21.52148a4.146,4.146,0,0,1,4.16407,4.11817v62.93408A4.14586,4.14586,0,0,1,426.20731,313.94305ZM408.886,243.02312h-3.95019v70.66993H408.886Zm21.23536,3.86817a3.89581,3.89581,0,0,0-3.91407-3.86817H409.136v70.66993h17.07129a3.89539,3.89539,0,0,0,3.91407-3.86768Z" fill="#fff" opacity="0.5"/>
    </g>
    <g>
      <g opacity="0.5">
        <path d="M452.9063,268.43965a9.91843,9.91843,0,1,1-9.91846,9.91843,9.91847,9.91847,0,0,1,9.91846-9.91843m0-.25a10.16843,10.16843,0,1,0,10.16846,10.16843,10.17995,10.17995,0,0,0-10.16846-10.16843Z" fill="#fff"/>
      </g>
      <circle cx="452.90627" cy="278.35808" r="9.91843" fill="#fff" opacity="0.1"/>
    </g>
    <g>
      <polygon points="547.914 272.553 541.978 272.553 541.978 284.128 547.914 284.128 547.914 284.378 541.978 284.378 541.728 284.378 541.728 284.128 541.728 272.553 541.728 272.303 541.978 272.303 547.914 272.303 547.914 272.553" fill="#fff" opacity="0.5"/>
      <rect x="547.91398" y="269.88296" width="22.59574" height="33.95745" fill="#fff" opacity="0.1"/>
      <g opacity="0.1">
        <rect x="541.97781" y="289.59573" width="5.93617" height="11.57447" fill="#fff"/>
      </g>
      <g opacity="0.5">
        <path d="M570.25969,270.133v33.45744H548.164V270.133h22.0957m.25-.25H547.914v33.95744h22.5957V269.883Z" fill="#fff"/>
      </g>
      <polygon points="547.914 289.596 541.978 289.596 541.978 301.17 547.914 301.17 547.914 301.42 541.978 301.42 541.728 301.42 541.728 301.17 541.728 289.596 541.728 289.346 541.978 289.346 547.914 289.346 547.914 289.596" fill="#fff" opacity="0.5"/>
      <g opacity="0.1">
        <rect x="541.97781" y="272.55318" width="5.93617" height="11.57447" fill="#fff"/>
      </g>
      <polygon points="570.51 301.17 576.446 301.17 576.446 289.596 570.51 289.596 570.51 289.346 576.446 289.346 576.696 289.346 576.696 289.596 576.696 301.17 576.696 301.42 576.446 301.42 570.51 301.42 570.51 301.17" fill="#fff" opacity="0.5"/>
      <g opacity="0.1">
        <rect x="570.50972" y="272.55317" width="5.93617" height="11.57447" transform="translate(1146.95561 556.68081) rotate(180)" fill="#fff"/>
      </g>
      <polygon points="570.51 284.128 576.446 284.128 576.446 272.553 570.51 272.553 570.51 272.303 576.446 272.303 576.696 272.303 576.696 272.553 576.696 284.128 576.696 284.378 576.446 284.378 570.51 284.378 570.51 284.128" fill="#fff" opacity="0.5"/>
      <g opacity="0.1">
        <rect x="570.50972" y="289.59572" width="5.93617" height="11.57447" transform="translate(1146.95561 590.76591) rotate(180)" fill="#fff"/>
      </g>
    </g>
    <g>
      <g>
        <path d="M469.76541,403.03972v53.70516H419.28824V403.03972a3.93614,3.93614,0,0,1,3.86817-3.9921h42.74133A3.93572,3.93572,0,0,1,469.76541,403.03972Z" fill="#fff" opacity="0.1"/>
        <path d="M419.03824,456.99986V403.03972a4.18882,4.18882,0,0,1,4.11817-4.24708h42.74133a4.18873,4.18873,0,0,1,4.11767,4.24708v53.96014m-.25,0H419.28824m3.86817-57.95224a3.93614,3.93614,0,0,0-3.86817,3.9921v53.70516h50.47717V403.03972a3.93572,3.93572,0,0,0-3.86767-3.9921Z" fill="#fff" opacity="0.5"/>
      </g>
      <polygon points="418.449 444.714 398.912 444.714 398.912 456.725 418.449 456.725 418.783 456.725 419.038 456.725 419.038 457 398.657 457 398.657 444.439 419.038 444.439 419.038 444.714 418.783 444.714 418.449 444.714" fill="#fff" opacity="0.5"/>
      <polygon points="470.605 456.725 490.142 456.725 490.142 444.714 470.605 444.714 470.271 444.714 470.015 444.714 470.015 444.439 490.397 444.439 490.397 457 470.015 457 470.015 456.725 470.271 456.725 470.605 456.725" fill="#fff" opacity="0.5"/>
      <rect x="398.91208" y="444.71395" width="20.12616" height="12.01102" fill="#fff" opacity="0.1"/>
      <rect x="470.01541" y="444.71395" width="20.12616" height="12.01101" fill="#fff" opacity="0.1"/>
    </g>
    <g>
      <rect x="590.70392" y="331.97596" width="17.84573" height="42.2766" transform="translate(952.74081 -246.51266) rotate(89.99998)" fill="#fff" opacity="0.1"/>
      <g opacity="0.5">
        <path d="M620.51506,344.44138v17.34573l-41.77661,0V344.44139l41.77661,0m.25-.25-42.27661,0v17.84573l42.27661,0V344.19138Z" fill="#fff"/>
      </g>
    </g>
    <g>
      <rect x="444.07117" y="298.29527" width="12.10106" height="79.69137" transform="translate(788.26219 -111.98108) rotate(89.99994)" fill="#fff" opacity="0.1"/>
      <g opacity="0.5">
        <path d="M489.71733,332.34042v11.60106l-79.19128,0V332.34043l79.19128,0m.25-.25-79.69128,0v12.10106l79.69128,0V332.09042Z" fill="#fff"/>
      </g>
    </g>
    <g>
      <rect x="435.63313" y="310.21476" width="17.78723" height="91.74036" transform="translate(800.61133 -88.44209) rotate(89.99995)" fill="#fff" opacity="0.1"/>
      <g opacity="0.5">
        <path d="M490.1469,347.44132v17.28723l-91.24036,0V347.44134l91.24036,0m.25-.25-91.74036,0v17.78722l91.74036,0V347.19132Z" fill="#fff"/>
      </g>
    </g>
    <g>
      <rect x="620.76527" y="231.31248" width="17.91916" height="112.87901" transform="translate(1259.44974 575.50391) rotate(179.99999)" fill="#fff" opacity="0.1"/>
      <g opacity="0.5">
        <path d="M638.4344,343.94148v-112.379H621.01528v112.379H638.4344m.25.25H620.76528v-112.879H638.6844v112.879Z" fill="#fff"/>
      </g>
    </g>
    <g>
      <path d="M493.397,456.99987V406.71795h20.79063v50.28192Zm20.53139-50.02268H493.65625v49.76344h10.007v-2.97616h-7.0308V417.2439a7.15991,7.15991,0,0,1,14.31983,0v36.52057h-7.02979v2.97616H513.9284ZM503.79283,450.8921a.12954.12954,0,0,1,.12962.12961v2.48352H510.693V417.2439a6.90067,6.90067,0,0,0-13.80135,0v36.26133h6.77156v-2.48352A.12954.12954,0,0,1,503.79283,450.8921Z" fill="#fff" opacity="0.5"/>
      <path d="M493.65625,456.74063V406.97719H513.9284v49.76344ZM510.693,417.2439a6.90067,6.90067,0,0,0-13.80135,0v36.26133H510.693Z" fill="#fff" opacity="0.1"/>
      <path d="M503.54643,410.34323h.49179A6.65478,6.65478,0,0,1,510.693,416.998v36.50722a0,0,0,0,1,0,0H496.89165a0,0,0,0,1,0,0V416.998A6.65478,6.65478,0,0,1,503.54643,410.34323Z" fill="#fff" opacity="0.2"/>
    </g>
    <g>
      <g opacity="0.5">
        <path d="M571.82005,430.6893v-9.7h-9.65014a4.85,4.85,0,0,0,0,9.7h9.65014m.25.25h-9.90014a5.1,5.1,0,0,1,0-10.2h9.90014v10.2Z" fill="#fff"/>
      </g>
      <g opacity="0.5">
        <polygon points="576.152 418.756 571.822 418.756 571.822 420.739 572.072 420.739 572.072 419.006 575.902 419.006 575.902 432.673 572.072 432.673 572.072 430.939 571.822 430.939 571.822 432.923 576.152 432.923 576.152 418.756 576.152 418.756" fill="#fff"/>
      </g>
      <path d="M571.82005,430.6893v-9.7h-9.65014a4.85,4.85,0,0,0,0,9.7h9.65014" fill="#fff" opacity="0.1"/>
      <rect x="572.07005" y="419.00575" width="3.83228" height="13.66699" fill="#fff" opacity="0.1"/>
    </g>
    <path d="M571.82005,430.6893v-9.7h-9.65014a4.85,4.85,0,0,0,0,9.7h9.65014" fill="#fff" opacity="0.1"/>
    <g>
      <rect x="558.37621" y="347.44397" width="16.85963" height="16.86013" fill="#fff" opacity="0.1"/>
      <g opacity="0.5">
        <path d="M575.48845,347.19136H558.12358V364.5567h17.36487V347.19136Zm-17.1123,17.11274V347.444h16.85974V364.3041Z" fill="#fff"/>
      </g>
      <g opacity="0.5">
        <polygon points="558.124 347.191 526.542 347.191 526.542 364.557 558.124 364.557 558.124 364.304 526.793 364.304 526.793 347.444 558.124 347.444 558.124 347.191 558.124 347.191" fill="#fff"/>
      </g>
      <g opacity="0.5">
        <path d="M566.80608,349.341a6.53279,6.53279,0,1,0,6.5332,6.53279,6.54039,6.54039,0,0,0-6.5332-6.53279Zm0,12.813a6.28018,6.28018,0,1,1,6.28064-6.28018,6.28734,6.28734,0,0,1-6.28064,6.28018Z" fill="#fff"/>
      </g>
      <rect x="526.79425" y="347.44397" width="31.32935" height="16.86013" fill="#fff" opacity="0.1"/>
      <circle cx="566.80602" cy="355.87378" r="6.28042" fill="#fff" opacity="0.1"/>
    </g>
    <g>
      <rect x="621.14308" y="309.08886" width="17.41358" height="17.41358" fill="#fff" opacity="0.1"/>
      <g>
        <circle cx="625.7891" cy="321.8623" r="2.75801" fill="none" stroke="#fff" stroke-miterlimit="10" stroke-width="0.25" opacity="0.5"/>
        <circle cx="633.91065" cy="321.8623" r="2.75801" fill="none" stroke="#fff" stroke-miterlimit="10" stroke-width="0.25" opacity="0.5"/>
        <circle cx="625.7891" cy="313.729" r="2.75801" fill="none" stroke="#fff" stroke-miterlimit="10" stroke-width="0.25" opacity="0.5"/>
        <circle cx="633.91065" cy="313.729" r="2.75801" fill="none" stroke="#fff" stroke-miterlimit="10" stroke-width="0.25" opacity="0.5"/>
      </g>
      <g opacity="0.5">
        <path d="M638.6844,308.9613H621.01528v17.66912H638.6844Zm-17.41364.25548h17.15816v17.15816H621.27076Z" fill="#fff"/>
      </g>
    </g>
    <g>
      <path d="M636.17016,267.17727h-1.21753v5.71008a1.50168,1.50168,0,0,1-1.5,1.5h-8.79809a1.50168,1.50168,0,0,1-1.5-1.5V261.21713a1.50168,1.50168,0,0,1,1.5-1.5h8.79809a1.50168,1.50168,0,0,1,1.5,1.5v5.71014h1.21753a.125.125,0,0,1,0,.25Zm-1.46753-5.96014a1.25014,1.25014,0,0,0-1.25-1.25h-8.79809a1.25014,1.25014,0,0,0-1.25,1.25v11.67022a1.2501,1.2501,0,0,0,1.25,1.25h8.79809a1.2501,1.2501,0,0,0,1.25-1.25v-5.71008H630.426a.125.125,0,0,1,0-.25h4.27661Z" fill="#fff" opacity="0.5"/>
      <rect x="623.40465" y="259.96713" width="11.29787" height="14.17021" rx="1.25" fill="#fff" opacity="0.1"/>
    </g>
    <rect x="404.38796" y="202.63623" width="12" height="45.35221" transform="translate(635.70029 -185.07562) rotate(90)" fill="#fff"/>
    <rect x="519.21242" y="201.19589" width="12" height="48.23289" transform="translate(750.52476 -299.90009) rotate(90)" fill="#fff"/>
    <rect x="625.02251" y="211.65061" width="12" height="27.32346" transform="translate(856.33485 -405.71018) rotate(90)" fill="#fff"/>
    <rect x="386.65664" y="219.31234" width="12" height="43.51732" transform="translate(785.31327 482.14199) rotate(180)" fill="#fff"/>
    <rect x="386.65664" y="262.82966" width="12" height="107.6383" transform="translate(785.31327 633.29761) rotate(180)" fill="#fff"/>
    <rect x="386.65664" y="438.49987" width="12" height="24.5" transform="translate(785.31327 901.49974) rotate(180)" fill="#fff"/>
    <rect x="386.65664" y="370.46795" width="12" height="68.03191" transform="translate(785.31327 808.96782) rotate(180)" fill="#d3d3d3" opacity="0.6"/>
    <rect x="358.64068" y="403.73391" width="68.03191" height="1.5" transform="translate(797.14055 11.82727) rotate(90)" fill="#fff"/>
    <rect x="461.08002" y="191.29638" width="12" height="68.03191" transform="translate(241.76769 692.39236) rotate(-90)" fill="#d3d3d3" opacity="0.6"/>
    <rect x="433.06406" y="224.56234" width="68.03191" height="1.5" transform="translate(934.16004 450.62467) rotate(180)" fill="#fff"/>
    <g opacity="0.5">
      <polygon points="641.361 219.312 641.361 163.819 388.157 163.819 388.157 219.312 386.657 219.312 386.657 163.819 386.657 162.319 388.157 162.319 641.361 162.319 642.861 162.319 642.861 163.819 642.861 219.312 641.361 219.312" fill="#fff"/>
    </g>
    <polyline points="641.361 700.687 641.361 756.181 388.157 756.181 388.157 700.688" fill="#fff" opacity="0.2"/>
    <g>
      <line x1="641.3608" y1="706.83183" x2="388.15665" y2="706.83199" fill="none" stroke="#fff" stroke-miterlimit="10" stroke-width="0.2"/>
      <line x1="641.3608" y1="710.63541" x2="388.15665" y2="710.63557" fill="none" stroke="#fff" stroke-miterlimit="10" stroke-width="0.2"/>
      <line x1="641.36081" y1="714.43899" x2="388.15666" y2="714.43915" fill="none" stroke="#fff" stroke-miterlimit="10" stroke-width="0.2"/>
      <line x1="641.36081" y1="718.24257" x2="388.15666" y2="718.24273" fill="none" stroke="#fff" stroke-miterlimit="10" stroke-width="0.2"/>
      <line x1="641.36081" y1="722.04616" x2="388.15666" y2="722.04631" fill="none" stroke="#fff" stroke-miterlimit="10" stroke-width="0.2"/>
      <line x1="641.36082" y1="725.84974" x2="388.15667" y2="725.8499" fill="none" stroke="#fff" stroke-miterlimit="10" stroke-width="0.2"/>
      <line x1="641.36082" y1="729.65332" x2="388.15667" y2="729.65348" fill="none" stroke="#fff" stroke-miterlimit="10" stroke-width="0.2"/>
      <line x1="641.36082" y1="733.4569" x2="388.15668" y2="733.45706" fill="none" stroke="#fff" stroke-miterlimit="10" stroke-width="0.2"/>
      <line x1="641.36083" y1="737.26048" x2="388.15668" y2="737.26064" fill="none" stroke="#fff" stroke-miterlimit="10" stroke-width="0.2"/>
      <line x1="641.36083" y1="741.06406" x2="388.15668" y2="741.06422" fill="none" stroke="#fff" stroke-miterlimit="10" stroke-width="0.2"/>
      <line x1="641.36084" y1="744.86764" x2="388.15669" y2="744.8678" fill="none" stroke="#fff" stroke-miterlimit="10" stroke-width="0.2"/>
      <line x1="641.36084" y1="748.67122" x2="388.15669" y2="748.67138" fill="none" stroke="#fff" stroke-miterlimit="10" stroke-width="0.2"/>
      <line x1="641.36084" y1="752.4748" x2="388.1567" y2="752.47496" fill="none" stroke="#fff" stroke-miterlimit="10" stroke-width="0.2"/>
      <rect x="388.15667" y="703.02833" width="253.20415" height="53.25013" fill="none" stroke="#fff" stroke-miterlimit="10" stroke-width="0.2"/>
    </g>
    <g opacity="0.5">
      <polygon points="388.157 700.688 388.157 756.181 641.361 756.181 641.361 700.687 642.861 700.687 642.861 756.181 642.861 757.681 641.361 757.681 388.157 757.681 386.657 757.681 386.657 756.181 386.657 700.688 388.157 700.688" fill="#fff"/>
    </g>
    <rect x="577.34483" y="191.29638" width="12" height="68.03191" transform="translate(358.03249 808.65716) rotate(-90)" fill="#d3d3d3" opacity="0.6"/>
    <rect x="549.32887" y="224.56234" width="68.03191" height="1.5" transform="translate(1166.68966 450.62467) rotate(180)" fill="#fff"/>
    <rect x="702.8694" y="456.99987" width="189.44681" height="6" transform="translate(1595.18561 919.99974) rotate(180)" fill="#fff"/>
    <rect x="671.4502" y="427.23391" width="65.53191" height="6" transform="translate(1134.45007 -273.98225) rotate(90)" fill="#fff"/>
    <rect x="638.68424" y="362.0371" width="68.53191" height="6" fill="#fff"/>
    <rect x="574.82186" y="295.17472" width="133.72477" height="6" transform="translate(343.50952 939.85896) rotate(-90)" fill="#fff"/>
    <rect x="833.37573" y="295.85524" width="3" height="99.67223" transform="translate(1180.56709 -489.18437) rotate(90)" fill="#fff"/>
    <rect x="730.82153" y="318.40944" width="3" height="54.56383" transform="translate(1078.01289 -386.63017) rotate(90)" fill="#fff"/>
    <rect x="773.65448" y="390.40096" width="3" height="29.63399" transform="translate(1180.37244 -369.93653) rotate(90)" fill="#fff"/>
    <rect x="720.90514" y="389.98708" width="3.0838" height="30.46176" transform="translate(1127.66499 -317.22908) rotate(90)" fill="#fff"/>
    <rect x="704.88004" y="344.19136" width="3" height="23.84574" fill="#fff"/>
    <rect x="727.60345" y="439.15412" width="3" height="18.09043" fill="#fff"/>
    <rect x="717.4098" y="428.96048" width="3" height="23.38729" transform="translate(278.25568 1159.56393) rotate(-90)" fill="#fff"/>
    <rect x="659.60345" y="344.19136" width="3" height="17.84574" fill="#fff"/>
    <rect x="652.14384" y="336.73176" width="3" height="17.9192" transform="translate(307.95249 999.3352) rotate(-90)" fill="#fff"/>
    <rect x="789.97148" y="347.19136" width="3" height="21.96809" fill="#fff"/>
    <rect x="789.97148" y="394.58498" width="3" height="62.41489" fill="#fff"/>
    <rect x="792.18486" y="246.999" width="0.25" height="0.25" fill="#fff"/>
    <g>
      <g>
        <path d="M803.599,248.93954H789.47351v22.05518H803.599a3.89581,3.89581,0,0,0,3.91406-3.86817V252.80722A3.89539,3.89539,0,0,0,803.599,248.93954Z" fill="#fff" opacity="0.1"/>
        <rect x="785.27331" y="248.93954" width="3.9502" height="22.05518" fill="#fff" opacity="0.2"/>
        <path d="M803.599,248.68954H785.02331v22.55518H803.599a4.146,4.146,0,0,0,4.16406-4.11817V252.80722A4.14586,4.14586,0,0,0,803.599,248.68954Zm-14.37545,22.30518h-3.9502V248.93954h3.9502Zm18.28951-3.86817a3.89581,3.89581,0,0,1-3.91406,3.86817H789.47351V248.93954H803.599a3.89539,3.89539,0,0,1,3.91406,3.86768Z" fill="#fff" opacity="0.5"/>
      </g>
      <g>
        <path d="M803.599,285.72145H789.47351v22.05518H803.599a3.8958,3.8958,0,0,0,3.91406-3.86816V289.58913A3.89539,3.89539,0,0,0,803.599,285.72145Z" fill="#fff" opacity="0.1"/>
        <rect x="785.27331" y="285.72145" width="3.9502" height="22.05518" fill="#fff" opacity="0.2"/>
        <path d="M803.599,285.47145H785.02331v22.55518H803.599a4.146,4.146,0,0,0,4.16406-4.11816V289.58913A4.14586,4.14586,0,0,0,803.599,285.47145Zm-14.37545,22.30518h-3.9502V285.72145h3.9502Zm18.28951-3.86816a3.8958,3.8958,0,0,1-3.91406,3.86816H789.47351V285.72145H803.599a3.89539,3.89539,0,0,1,3.91406,3.86768Z" fill="#fff" opacity="0.5"/>
      </g>
    </g>
    <g>
      <path d="M857.16117,313.69305h17.07129V243.02312H857.16117a3.89581,3.89581,0,0,0-3.91406,3.86817v62.93408A3.89539,3.89539,0,0,0,857.16117,313.69305Z" fill="#fff" opacity="0.1"/>
      <rect x="874.48246" y="243.02312" width="3.9502" height="70.66992" fill="#fff" opacity="0.2"/>
      <path d="M857.16117,313.94305h21.52149V242.77312H857.16117a4.146,4.146,0,0,0-4.16406,4.11817v62.93408A4.14586,4.14586,0,0,0,857.16117,313.94305Zm17.32129-70.91993h3.9502v70.66993h-3.9502Zm-21.23535,3.86817a3.89581,3.89581,0,0,1,3.91406-3.86817h17.07129v70.66993H857.16117a3.89539,3.89539,0,0,1-3.91406-3.86768Z" fill="#fff" opacity="0.5"/>
    </g>
    <g>
      <g opacity="0.5">
        <path d="M830.46221,268.43965a9.91843,9.91843,0,1,1-9.91846,9.91843,9.91846,9.91846,0,0,1,9.91846-9.91843m0-.25a10.16843,10.16843,0,1,0,10.16845,10.16843,10.17994,10.17994,0,0,0-10.16845-10.16843Z" fill="#fff"/>
      </g>
      <circle cx="830.46222" cy="278.35808" r="9.91843" fill="#fff" opacity="0.1"/>
    </g>
    <g>
      <polygon points="735.455 272.553 741.391 272.553 741.391 284.128 735.455 284.128 735.455 284.378 741.391 284.378 741.641 284.378 741.641 284.128 741.641 272.553 741.641 272.303 741.391 272.303 735.455 272.303 735.455 272.553" fill="#fff" opacity="0.5"/>
      <rect x="712.85876" y="269.88296" width="22.59574" height="33.95745" transform="translate(1448.31327 573.72337) rotate(180)" fill="#fff" opacity="0.1"/>
      <g opacity="0.1">
        <rect x="735.45451" y="289.59573" width="5.93617" height="11.57447" transform="translate(1476.84519 590.76593) rotate(180)" fill="#fff"/>
      </g>
      <g opacity="0.5">
        <path d="M735.20452,270.133v33.45744H713.10881V270.133h22.09571m.25-.25H712.85881v33.95744h22.59571V269.883Z" fill="#fff"/>
      </g>
      <polygon points="735.455 289.596 741.391 289.596 741.391 301.17 735.455 301.17 735.455 301.42 741.391 301.42 741.641 301.42 741.641 301.17 741.641 289.596 741.641 289.346 741.391 289.346 735.455 289.346 735.455 289.596" fill="#fff" opacity="0.5"/>
      <g opacity="0.1">
        <rect x="735.45451" y="272.55318" width="5.93617" height="11.57447" transform="translate(1476.84519 556.68083) rotate(180)" fill="#fff"/>
      </g>
      <polygon points="712.859 301.17 706.922 301.17 706.922 289.596 712.859 289.596 712.859 289.346 706.922 289.346 706.672 289.346 706.672 289.596 706.672 301.17 706.672 301.42 706.922 301.42 712.859 301.42 712.859 301.17" fill="#fff" opacity="0.5"/>
      <g opacity="0.1">
        <rect x="706.92259" y="272.55317" width="5.93617" height="11.57447" fill="#fff"/>
      </g>
      <polygon points="712.859 284.128 706.922 284.128 706.922 272.553 712.859 272.553 712.859 272.303 706.922 272.303 706.672 272.303 706.672 272.553 706.672 284.128 706.672 284.378 706.922 284.378 712.859 284.378 712.859 284.128" fill="#fff" opacity="0.5"/>
      <g opacity="0.1">
        <rect x="706.92259" y="289.59572" width="5.93617" height="11.57447" fill="#fff"/>
      </g>
    </g>
    <g>
      <g>
        <path d="M813.60307,403.03972v53.70516h50.47717V403.03972a3.93613,3.93613,0,0,0-3.86816-3.9921H817.47075A3.93573,3.93573,0,0,0,813.60307,403.03972Z" fill="#fff" opacity="0.1"/>
        <path d="M864.33024,456.99986V403.03972a4.18882,4.18882,0,0,0-4.11816-4.24708H817.47075a4.18873,4.18873,0,0,0-4.11768,4.24708v53.96014m.25,0h50.47717m-3.86816-57.95224a3.93613,3.93613,0,0,1,3.86816,3.9921v53.70516H813.60307V403.03972a3.93573,3.93573,0,0,1,3.86768-3.9921Z" fill="#fff" opacity="0.5"/>
      </g>
      <polygon points="864.92 444.714 884.456 444.714 884.456 456.725 864.92 456.725 864.586 456.725 864.33 456.725 864.33 457 884.712 457 884.712 444.439 864.33 444.439 864.33 444.714 864.586 444.714 864.92 444.714" fill="#fff" opacity="0.5"/>
      <polygon points="812.764 456.725 793.227 456.725 793.227 444.714 812.764 444.714 813.098 444.714 813.353 444.714 813.353 444.439 792.971 444.439 792.971 457 813.353 457 813.353 456.725 813.098 456.725 812.764 456.725" fill="#fff" opacity="0.5"/>
      <rect x="864.33025" y="444.71395" width="20.12616" height="12.01102" transform="translate(1748.78665 901.43891) rotate(180)" fill="#fff" opacity="0.1"/>
      <rect x="793.22692" y="444.71395" width="20.12616" height="12.01101" transform="translate(1606.58 901.43891) rotate(180)" fill="#fff" opacity="0.1"/>
    </g>
    <g>
      <rect x="674.81884" y="331.97596" width="17.84573" height="42.2766" transform="translate(1036.85621 -330.62732) rotate(90.00002)" fill="#fff" opacity="0.1"/>
      <g opacity="0.5">
        <path d="M662.85344,344.44138l41.77661,0v17.34573l-41.77661,0V344.44138m-.25-.25v17.84573l42.27661,0V344.19139l-42.27661,0Z" fill="#fff"/>
      </g>
    </g>
    <g>
      <rect x="827.19626" y="298.29527" width="12.10106" height="79.69137" transform="translate(1171.38861 -495.10549) rotate(90.00006)" fill="#fff" opacity="0.1"/>
      <g opacity="0.5">
        <path d="M793.65117,332.34042l79.19129,0v11.60106l-79.19141,0,.00012-11.60106m-.25-.25-.00012,12.10106,79.69141,0V332.09043l-79.69129,0Z" fill="#fff"/>
      </g>
    </g>
    <g>
      <rect x="829.94813" y="310.21476" width="17.78723" height="91.74036" transform="translate(1194.92736 -482.75651) rotate(90.00005)" fill="#fff" opacity="0.1"/>
      <g opacity="0.5">
        <path d="M793.22161,347.44132l91.24035,0v17.28722l-91.24035,0V347.44132m-.25-.25v17.78723l91.74035,0V347.19134l-91.74035,0Z" fill="#fff"/>
      </g>
    </g>
    <g>
      <rect x="644.68406" y="231.31248" width="17.91916" height="112.87901" fill="#fff" opacity="0.1"/>
      <g opacity="0.5">
        <path d="M644.93408,343.94148v-112.379h17.41913v112.379H644.93408m-.25.25h17.91913v-112.879H644.68408v112.879Z" fill="#fff"/>
      </g>
    </g>
    <g>
      <path d="M789.97148,456.99987V406.71795H769.18085v50.28192Zm-20.5314-50.02268h20.27216v49.76344h-10.007v-2.97616h7.0308V417.2439a7.15991,7.15991,0,1,0-14.31982,0v36.52057H779.446v2.97616h-10.006Zm10.13558,43.91491a.12954.12954,0,0,0-.12962.12961v2.48352h-6.77055V417.2439a6.90068,6.90068,0,0,1,13.80135,0v36.26133h-6.77157v-2.48352A.12954.12954,0,0,0,779.57566,450.8921Z" fill="#fff" opacity="0.5"/>
      <path d="M789.71224,456.74063V406.97719H769.44008v49.76344ZM772.67549,417.2439a6.90067,6.90067,0,0,1,13.80135,0v36.26133H772.67549Z" fill="#fff" opacity="0.1"/>
      <path d="M772.67549,410.34323h13.80135a0,0,0,0,1,0,0v36.50722a6.65478,6.65478,0,0,1-6.65478,6.65478h-.49179a6.65478,6.65478,0,0,1-6.65478-6.65478V410.34323a0,0,0,0,1,0,0Z" transform="translate(1559.15232 863.84845) rotate(180)" fill="#fff" opacity="0.2"/>
    </g>
    <g>
      <g opacity="0.5">
        <path d="M711.54843,430.6893v-9.7h9.65015a4.85,4.85,0,0,1,0,9.7h-9.65015m-.25.25h9.90015a5.1,5.1,0,0,0,0-10.2h-9.90015v10.2Z" fill="#fff"/>
      </g>
      <g opacity="0.5">
        <polygon points="711.546 418.756 707.216 418.756 707.216 432.923 711.546 432.923 711.546 430.939 711.296 430.939 711.296 432.673 707.466 432.673 707.466 419.006 711.296 419.006 711.296 420.739 711.546 420.739 711.546 418.756 711.546 418.756" fill="#fff"/>
      </g>
      <path d="M711.54843,430.6893v-9.7h9.65015a4.85,4.85,0,0,1,0,9.7h-9.65015" fill="#fff" opacity="0.1"/>
      <rect x="707.46616" y="419.00575" width="3.83228" height="13.66699" transform="translate(1418.76459 851.67849) rotate(180)" fill="#fff" opacity="0.1"/>
    </g>
    <path d="M711.54843,430.6893v-9.7h9.65015a4.85,4.85,0,0,1,0,9.7h-9.65015" fill="#fff" opacity="0.1"/>
    <g>
      <rect x="708.13265" y="347.44397" width="16.85963" height="16.86013" transform="translate(1433.12493 711.74806) rotate(180)" fill="#fff" opacity="0.1"/>
      <g opacity="0.5">
        <path d="M725.24492,347.19136H707.88005V364.5567h17.36487V347.19136Zm-17.1123,17.11274V347.444h16.85962V364.3041Z" fill="#fff"/>
      </g>
      <g opacity="0.5">
        <polygon points="756.827 347.191 725.245 347.191 725.245 347.444 756.575 347.444 756.575 364.304 725.245 364.304 725.245 364.557 756.827 364.557 756.827 347.191 756.827 347.191" fill="#fff"/>
      </g>
      <g opacity="0.5">
        <path d="M716.56243,349.341a6.53279,6.53279,0,1,0,6.53332,6.53279,6.54036,6.54036,0,0,0-6.53332-6.53279Zm0,12.813a6.28018,6.28018,0,1,1,6.28076-6.28018,6.28723,6.28723,0,0,1-6.28076,6.28018Z" fill="#fff"/>
      </g>
      <rect x="725.24489" y="347.44397" width="31.32935" height="16.86013" transform="translate(1481.81913 711.74806) rotate(180)" fill="#fff" opacity="0.1"/>
      <circle cx="716.56247" cy="355.87378" r="6.28042" fill="#fff" opacity="0.1"/>
    </g>
    <g>
      <rect x="644.81182" y="309.08886" width="17.41358" height="17.41358" transform="translate(1307.03722 635.5913) rotate(180)" fill="#fff" opacity="0.1"/>
      <g>
        <circle cx="657.57938" cy="321.8623" r="2.75801" fill="none" stroke="#fff" stroke-miterlimit="10" stroke-width="0.25" opacity="0.5"/>
        <circle cx="649.45784" cy="321.8623" r="2.75801" fill="none" stroke="#fff" stroke-miterlimit="10" stroke-width="0.25" opacity="0.5"/>
        <circle cx="657.57938" cy="313.729" r="2.75801" fill="none" stroke="#fff" stroke-miterlimit="10" stroke-width="0.25" opacity="0.5"/>
        <circle cx="649.45784" cy="313.729" r="2.75801" fill="none" stroke="#fff" stroke-miterlimit="10" stroke-width="0.25" opacity="0.5"/>
      </g>
      <g opacity="0.5">
        <path d="M644.68408,308.9613h17.66913v17.66912H644.68408Zm17.41365.25548H644.93956v17.15816h17.15817Z" fill="#fff"/>
      </g>
    </g>
    <g>
      <path d="M647.19832,267.17727h1.21753v5.71008a1.50168,1.50168,0,0,0,1.5,1.5h8.7981a1.50168,1.50168,0,0,0,1.5-1.5V261.21713a1.50168,1.50168,0,0,0-1.5-1.5h-8.7981a1.50168,1.50168,0,0,0-1.5,1.5v5.71014h-1.21753a.125.125,0,0,0,0,.25Zm1.46753-5.96014a1.25014,1.25014,0,0,1,1.25-1.25h8.7981a1.25014,1.25014,0,0,1,1.25,1.25v11.67022a1.2501,1.2501,0,0,1-1.25,1.25h-8.7981a1.2501,1.2501,0,0,1-1.25-1.25v-5.71008h4.27661a.125.125,0,0,0,0-.25h-4.27661Z" fill="#fff" opacity="0.5"/>
      <rect x="648.66596" y="259.96713" width="11.29787" height="14.17021" rx="1.25" transform="translate(1308.6298 534.10448) rotate(180)" fill="#fff" opacity="0.1"/>
    </g>
    <rect x="866.98053" y="202.63623" width="12" height="45.35221" transform="translate(1098.29287 -647.66819) rotate(90)" fill="#fff"/>
    <rect x="752.15606" y="201.19589" width="12" height="48.23289" transform="translate(983.4684 -532.84373) rotate(90)" fill="#fff"/>
    <rect x="646.34597" y="211.65061" width="12" height="27.32346" transform="translate(877.65831 -427.03364) rotate(90)" fill="#fff"/>
    <rect x="884.71185" y="219.31234" width="12" height="43.51732" fill="#fff"/>
    <rect x="884.71185" y="262.82966" width="12" height="107.6383" fill="#fff"/>
    <rect x="884.71185" y="438.49987" width="12" height="24.5" fill="#fff"/>
    <rect x="884.71185" y="370.46795" width="12" height="68.03191" fill="#d3d3d3" opacity="0.6"/>
    <rect x="856.69589" y="403.73391" width="68.03191" height="1.5" transform="translate(1295.19576 -486.22794) rotate(90)" fill="#fff"/>
    <rect x="810.28846" y="191.29638" width="12" height="68.03191" transform="translate(590.97613 1041.6008) rotate(-90)" fill="#d3d3d3" opacity="0.6"/>
    <rect x="782.27251" y="224.56234" width="68.03191" height="1.5" fill="#fff"/>
    <g opacity="0.5">
      <polygon points="642.861 219.312 642.861 163.819 895.212 163.819 895.212 219.312 896.712 219.312 896.712 163.819 896.712 162.319 895.212 162.319 642.861 162.319 641.361 162.319 641.361 163.819 641.361 219.312 642.861 219.312" fill="#fff"/>
    </g>
    <rect x="694.02366" y="191.29638" width="12" height="68.03191" transform="translate(474.71132 925.33599) rotate(-90)" fill="#d3d3d3" opacity="0.6"/>
    <rect x="666.0077" y="224.56234" width="68.03191" height="1.5" fill="#fff"/>
    <polyline points="951.843 700.687 896.712 700.687 896.712 592.09 951.843 592.09" fill="#fff" opacity="0.2"/>
    <polyline points="951.843 700.687 951.843 756.181 642.861 756.181 642.861 700.687" fill="#fff" opacity="0.2"/>
    <rect x="702.8694" y="456.99987" width="189.44681" height="6" transform="translate(1595.18561 919.99974) rotate(180)" fill="#fff"/>
    <rect x="671.4502" y="486.76583" width="65.53191" height="6" transform="translate(214.45033 1193.98198) rotate(-90)" fill="#fff"/>
    <rect x="638.68424" y="551.96263" width="68.53191" height="6" fill="#fff"/>
    <rect x="574.82186" y="618.82502" width="133.72477" height="6" transform="translate(1263.50926 -19.85922) rotate(90)" fill="#fff"/>
    <rect x="833.37573" y="524.47226" width="3" height="99.67223" transform="translate(260.56735 1409.18411) rotate(-90)" fill="#fff"/>
    <rect x="730.82153" y="547.02646" width="3" height="54.56383" transform="translate(158.01315 1306.62991) rotate(-90)" fill="#fff"/>
    <rect x="773.65448" y="499.96479" width="3" height="29.63399" transform="translate(260.3727 1289.93627) rotate(-90)" fill="#fff"/>
    <rect x="720.90514" y="499.55091" width="3.0838" height="30.46176" transform="translate(207.66525 1237.22882) rotate(-90)" fill="#fff"/>
    <rect x="704.88004" y="551.96263" width="3" height="23.84574" fill="#fff"/>
    <rect x="727.60345" y="462.75519" width="3" height="18.09043" fill="#fff"/>
    <rect x="717.4098" y="467.65197" width="3" height="23.38729" transform="translate(1198.25542 -239.56419) rotate(90)" fill="#fff"/>
    <rect x="659.60345" y="557.96263" width="3" height="17.84574" fill="#fff"/>
    <rect x="652.14384" y="565.34878" width="3" height="17.9192" transform="translate(1227.95222 -79.33546) rotate(90)" fill="#fff"/>
    <rect x="789.97148" y="550.84029" width="3" height="21.96809" fill="#fff"/>
    <rect x="789.97148" y="462.99987" width="3" height="62.41489" fill="#fff"/>
    <g>
      <g>
        <path d="M803.599,671.0602H789.47351V649.005H803.599a3.8958,3.8958,0,0,1,3.91406,3.86817v14.31933A3.89539,3.89539,0,0,1,803.599,671.0602Z" fill="#fff" opacity="0.1"/>
        <rect x="785.27331" y="649.00502" width="3.9502" height="22.05518" fill="#fff" opacity="0.2"/>
        <path d="M803.599,671.3102H785.02331V648.755H803.599a4.146,4.146,0,0,1,4.16406,4.11817v14.31933A4.14586,4.14586,0,0,1,803.599,671.3102ZM789.22351,649.005h-3.9502V671.0602h3.9502Zm18.28951,3.86817A3.8958,3.8958,0,0,0,803.599,649.005H789.47351V671.0602H803.599a3.89539,3.89539,0,0,0,3.91406-3.86768Z" fill="#fff" opacity="0.5"/>
      </g>
      <g>
        <path d="M803.599,634.27828H789.47351V612.22311H803.599a3.8958,3.8958,0,0,1,3.91406,3.86816v14.31934A3.89538,3.89538,0,0,1,803.599,634.27828Z" fill="#fff" opacity="0.1"/>
        <rect x="785.27331" y="612.22311" width="3.9502" height="22.05518" fill="#fff" opacity="0.2"/>
        <path d="M803.599,634.52828H785.02331V611.97311H803.599a4.146,4.146,0,0,1,4.16406,4.11816v14.31934A4.14585,4.14585,0,0,1,803.599,634.52828Zm-14.37545-22.30517h-3.9502v22.05517h3.9502Zm18.28951,3.86816a3.8958,3.8958,0,0,0-3.91406-3.86816H789.47351v22.05517H803.599a3.89538,3.89538,0,0,0,3.91406-3.86767Z" fill="#fff" opacity="0.5"/>
      </g>
    </g>
    <g>
      <path d="M857.16117,606.30669h17.07129v70.66992H857.16117a3.8958,3.8958,0,0,1-3.91406-3.86816V610.17437A3.89539,3.89539,0,0,1,857.16117,606.30669Z" fill="#fff" opacity="0.1"/>
      <rect x="874.48246" y="606.30669" width="3.9502" height="70.66992" fill="#fff" opacity="0.2"/>
      <path d="M857.16117,606.05669h21.52149v71.16992H857.16117a4.146,4.146,0,0,1-4.16406-4.11816V610.17437A4.14586,4.14586,0,0,1,857.16117,606.05669Zm17.32129,70.91992h3.9502V606.30669h-3.9502Zm-21.23535-3.86816a3.8958,3.8958,0,0,0,3.91406,3.86816h17.07129V606.30669H857.16117a3.89539,3.89539,0,0,0-3.91406,3.86768Z" fill="#fff" opacity="0.5"/>
    </g>
    <g>
      <g opacity="0.5">
        <path d="M830.46221,631.72321a9.91844,9.91844,0,1,1-9.91846,9.91846,9.91847,9.91847,0,0,1,9.91846-9.91846m0-.25a10.16844,10.16844,0,1,0,10.16845,10.16846,10.18,10.18,0,0,0-10.16845-10.16846Z" fill="#fff"/>
      </g>
      <circle cx="830.46222" cy="641.64165" r="9.91843" fill="#fff" opacity="0.1"/>
    </g>
    <g>
      <polygon points="735.455 647.447 741.391 647.447 741.391 635.872 735.455 635.872 735.455 635.622 741.391 635.622 741.641 635.622 741.641 635.872 741.641 647.447 741.641 647.697 741.391 647.697 735.455 647.697 735.455 647.447" fill="#fff" opacity="0.5"/>
      <rect x="712.85876" y="616.15933" width="22.59574" height="33.95745" transform="translate(1448.31327 1266.2761) rotate(180)" fill="#fff" opacity="0.1"/>
      <g opacity="0.1">
        <rect x="735.45451" y="618.82954" width="5.93617" height="11.57447" transform="translate(1476.84519 1249.23355) rotate(180)" fill="#fff"/>
      </g>
      <g opacity="0.5">
        <path d="M735.20452,616.40933v33.45743H713.10881V616.40933h22.09571m.25-.25H712.85881v33.95743h22.59571V616.15933Z" fill="#fff"/>
      </g>
      <polygon points="735.455 630.404 741.391 630.404 741.391 618.83 735.455 618.83 735.455 618.58 741.391 618.58 741.641 618.58 741.641 618.83 741.641 630.404 741.641 630.654 741.391 630.654 735.455 630.654 735.455 630.404" fill="#fff" opacity="0.5"/>
      <g opacity="0.1">
        <rect x="735.45451" y="635.87209" width="5.93617" height="11.57447" transform="translate(1476.84519 1283.31865) rotate(180)" fill="#fff"/>
      </g>
      <polygon points="712.859 618.83 706.922 618.83 706.922 630.404 712.859 630.404 712.859 630.654 706.922 630.654 706.672 630.654 706.672 630.404 706.672 618.83 706.672 618.58 706.922 618.58 712.859 618.58 712.859 618.83" fill="#fff" opacity="0.5"/>
      <g opacity="0.1">
        <rect x="706.92259" y="635.8721" width="5.93617" height="11.57447" fill="#fff"/>
      </g>
      <polygon points="712.859 635.872 706.922 635.872 706.922 647.447 712.859 647.447 712.859 647.697 706.922 647.697 706.672 647.697 706.672 647.447 706.672 635.872 706.672 635.622 706.922 635.622 712.859 635.622 712.859 635.872" fill="#fff" opacity="0.5"/>
      <g opacity="0.1">
        <rect x="706.92259" y="618.82955" width="5.93617" height="11.57447" fill="#fff"/>
      </g>
    </g>
    <g>
      <g>
        <path d="M813.60307,516.96V463.25486h50.47717V516.96a3.93613,3.93613,0,0,1-3.86816,3.9921H817.47075A3.93573,3.93573,0,0,1,813.60307,516.96Z" fill="#fff" opacity="0.1"/>
        <path d="M864.33024,462.99988V516.96a4.18882,4.18882,0,0,1-4.11816,4.24708H817.47075a4.18873,4.18873,0,0,1-4.11768-4.24708V462.99988m.25,0h50.47717m-3.86816,57.95224a3.93613,3.93613,0,0,0,3.86816-3.9921V463.25486H813.60307V516.96a3.93573,3.93573,0,0,0,3.86768,3.9921Z" fill="#fff" opacity="0.5"/>
      </g>
      <polygon points="864.92 475.286 884.456 475.286 884.456 463.275 864.92 463.275 864.586 463.275 864.33 463.275 864.33 463 884.712 463 884.712 475.561 864.33 475.561 864.33 475.286 864.586 475.286 864.92 475.286" fill="#fff" opacity="0.5"/>
      <polygon points="812.764 463.275 793.227 463.275 793.227 475.286 812.764 475.286 813.098 475.286 813.353 475.286 813.353 475.561 792.971 475.561 792.971 463 813.353 463 813.353 463.275 813.098 463.275 812.764 463.275" fill="#fff" opacity="0.5"/>
      <rect x="864.33025" y="463.27477" width="20.12616" height="12.01102" transform="translate(1748.78665 938.56056) rotate(180)" fill="#fff" opacity="0.1"/>
      <rect x="793.22692" y="463.27478" width="20.12616" height="12.01101" transform="translate(1606.58 938.56057) rotate(180)" fill="#fff" opacity="0.1"/>
    </g>
    <g>
      <rect x="674.81884" y="545.74719" width="17.84573" height="42.2766" transform="translate(116.85647 1250.6274) rotate(-90.00002)" fill="#fff" opacity="0.1"/>
      <g opacity="0.5">
        <path d="M704.63005,558.21262v17.34573H662.85344V558.21262h41.77661m.25-.25H662.60344v17.84573h42.27661V557.96262Z" fill="#fff"/>
      </g>
    </g>
    <g>
      <rect x="827.19626" y="542.01309" width="12.10106" height="79.69137" transform="translate(251.38887 1415.10617) rotate(-90.00006)" fill="#fff" opacity="0.1"/>
      <g opacity="0.5">
        <path d="M872.84246,576.05826v11.601H793.65117l-.00012-11.601h79.19141m.25-.25H793.40105l.00012,12.101h79.69129v-12.101Z" fill="#fff"/>
      </g>
    </g>
    <g>
      <rect x="829.94813" y="518.04462" width="17.78723" height="91.74036" transform="translate(274.92762 1402.75699) rotate(-90.00005)" fill="#fff" opacity="0.1"/>
      <g opacity="0.5">
        <path d="M884.462,555.27118v17.28723H793.22161V555.27118H884.462m.25-.25H792.97161v17.78723H884.712V555.02118Z" fill="#fff"/>
      </g>
    </g>
    <g>
      <rect x="644.68406" y="575.80824" width="17.91916" height="112.87901" fill="#fff" opacity="0.1"/>
      <g opacity="0.5">
        <path d="M644.93408,576.05826v112.379h17.41913v-112.379H644.93408m-.25-.25h17.91913v112.879H644.68408v-112.879Z" fill="#fff"/>
      </g>
    </g>
    <g>
      <path d="M789.97148,462.99987v50.28191H769.18085V462.99987Zm-20.5314,50.02268h20.27216V463.25911h-10.007v2.97616h7.0308v36.52057a7.15991,7.15991,0,1,1-14.31982,0V466.23527H779.446v-2.97616h-10.006Zm10.13558-43.91491a.12954.12954,0,0,1-.12962-.12962v-2.48351h-6.77055v36.26133a6.90067,6.90067,0,0,0,13.80135,0V466.49451h-6.77157V468.978A.12954.12954,0,0,1,779.57566,469.10764Z" fill="#fff" opacity="0.5"/>
      <path d="M789.71224,463.25911v49.76344H769.44008V463.25911Zm-17.03675,39.49673a6.90068,6.90068,0,0,0,13.80135,0V466.49451H772.67549Z" fill="#fff" opacity="0.1"/>
      <path d="M779.33027,466.49451h.49179a6.65478,6.65478,0,0,1,6.65478,6.65478v36.50722a0,0,0,0,1,0,0H772.67549a0,0,0,0,1,0,0V473.14929A6.65478,6.65478,0,0,1,779.33027,466.49451Z" transform="translate(1559.15232 976.15102) rotate(-180)" fill="#fff" opacity="0.2"/>
    </g>
    <g>
      <g opacity="0.5">
        <path d="M711.54843,489.31044v9.7h9.65015a4.85,4.85,0,0,0,0-9.7h-9.65015m-.25-.25h9.90015a5.1,5.1,0,0,1,0,10.2h-9.90015v-10.2Z" fill="#fff"/>
      </g>
      <g opacity="0.5">
        <polygon points="711.546 487.077 707.216 487.077 707.216 501.244 711.546 501.244 711.546 499.261 711.296 499.261 711.296 500.994 707.466 500.994 707.466 487.327 711.296 487.327 711.296 489.06 711.546 489.06 711.546 487.077 711.546 487.077" fill="#fff"/>
      </g>
      <path d="M711.54843,489.31044v9.7h9.65015a4.85,4.85,0,0,0,0-9.7h-9.65015" fill="#fff" opacity="0.1"/>
      <rect x="707.46616" y="487.327" width="3.83228" height="13.66699" transform="translate(1418.76459 988.32099) rotate(180)" fill="#fff" opacity="0.1"/>
    </g>
    <path d="M711.54843,489.31044v9.7h9.65015a4.85,4.85,0,0,0,0-9.7h-9.65015" fill="#fff" opacity="0.1"/>
    <g>
      <rect x="708.13265" y="555.69565" width="16.85963" height="16.86013" transform="translate(1433.12493 1128.25142) rotate(180)" fill="#fff" opacity="0.1"/>
      <g opacity="0.5">
        <path d="M725.24492,555.443H707.88005v17.36535h17.36487V555.443Zm-17.1123,17.11273V555.69565h16.85962v16.86011Z" fill="#fff"/>
      </g>
      <g opacity="0.5">
        <polygon points="756.827 555.443 725.245 555.443 725.245 555.696 756.575 555.696 756.575 572.556 725.245 572.556 725.245 572.808 756.827 572.808 756.827 555.443 756.827 555.443" fill="#fff"/>
      </g>
      <g opacity="0.5">
        <path d="M716.56243,557.59317a6.5328,6.5328,0,1,0,6.53332,6.53278,6.54035,6.54035,0,0,0-6.53332-6.53278Zm0,12.813a6.28018,6.28018,0,1,1,6.28076-6.28018,6.28723,6.28723,0,0,1-6.28076,6.28018Z" fill="#fff"/>
      </g>
      <rect x="725.24489" y="555.69565" width="31.32935" height="16.86013" transform="translate(1481.81913 1128.25142) rotate(180)" fill="#fff" opacity="0.1"/>
      <circle cx="716.56247" cy="564.12596" r="6.28042" fill="#fff" opacity="0.1"/>
    </g>
    <g>
      <rect x="644.81182" y="593.4973" width="17.41358" height="17.41358" transform="translate(1307.03722 1204.40818) rotate(180)" fill="#fff" opacity="0.1"/>
      <g>
        <circle cx="657.57938" cy="598.13744" r="2.75801" fill="none" stroke="#fff" stroke-miterlimit="10" stroke-width="0.25" opacity="0.5"/>
        <circle cx="649.45784" cy="598.13744" r="2.75801" fill="none" stroke="#fff" stroke-miterlimit="10" stroke-width="0.25" opacity="0.5"/>
        <circle cx="657.57938" cy="606.27073" r="2.75801" fill="none" stroke="#fff" stroke-miterlimit="10" stroke-width="0.25" opacity="0.5"/>
        <circle cx="649.45784" cy="606.27073" r="2.75801" fill="none" stroke="#fff" stroke-miterlimit="10" stroke-width="0.25" opacity="0.5"/>
      </g>
      <g opacity="0.5">
        <path d="M644.68408,611.03844h17.66913V593.36931H644.68408Zm17.41365-.25548H644.93956V593.62479h17.15817Z" fill="#fff"/>
      </g>
    </g>
    <g>
      <path d="M647.19832,652.82247h1.21753v-5.71009a1.50168,1.50168,0,0,1,1.5-1.5h8.7981a1.50168,1.50168,0,0,1,1.5,1.5v11.67023a1.50168,1.50168,0,0,1-1.5,1.5h-8.7981a1.50168,1.50168,0,0,1-1.5-1.5v-5.71014h-1.21753a.125.125,0,0,1,0-.25Zm1.46753,5.96014a1.25014,1.25014,0,0,0,1.25,1.25h8.7981a1.25014,1.25014,0,0,0,1.25-1.25V647.11238a1.2501,1.2501,0,0,0-1.25-1.25h-8.7981a1.2501,1.2501,0,0,0-1.25,1.25v5.71009h4.27661a.125.125,0,0,1,0,.25h-4.27661Z" fill="#fff" opacity="0.5"/>
      <rect x="648.66596" y="645.86239" width="11.29787" height="14.17021" rx="1.25" transform="translate(1308.6298 1305.89499) rotate(180)" fill="#fff" opacity="0.1"/>
    </g>
    <rect x="866.98053" y="672.01129" width="12" height="45.35221" transform="translate(178.29313 1567.66793) rotate(-90)" fill="#fff"/>
    <rect x="752.15606" y="670.57096" width="12" height="48.23289" transform="translate(63.46866 1452.84346) rotate(-90)" fill="#fff"/>
    <polygon points="638.684 688.687 639.537 700.687 666.008 700.687 666.008 688.687 638.684 688.687" fill="#fff"/>
    <rect x="884.71185" y="660.12221" width="12" height="40.56519" fill="#fff"/>
    <rect x="884.71185" y="549.53178" width="12" height="42.55851" fill="#fff"/>
    <rect x="884.71185" y="456.99987" width="12" height="24.5" fill="#fff"/>
    <rect x="884.71185" y="592.09029" width="12" height="68.03191" fill="#d3d3d3" opacity="0.6"/>
    <rect x="856.69589" y="625.35625" width="68.03191" height="1.5" transform="translate(264.6056 1516.8181) rotate(-90)" fill="#fff"/>
    <rect x="884.71185" y="481.49987" width="12" height="68.03191" fill="#d3d3d3" opacity="0.6"/>
    <rect x="856.69589" y="514.76583" width="68.03191" height="1.5" transform="translate(375.19602 1406.22768) rotate(-90)" fill="#fff"/>
    <rect x="810.28846" y="660.67144" width="12" height="68.03191" transform="translate(1510.97587 -121.60106) rotate(90)" fill="#d3d3d3" opacity="0.6"/>
    <rect x="782.27251" y="693.9374" width="68.03191" height="1.5" fill="#fff"/>
    <g opacity="0.5">
      <polygon points="642.861 700.687 642.861 756.181 951.843 756.181 951.843 592.09 953.343 592.09 953.343 756.181 953.343 757.681 951.843 757.681 642.861 757.681 641.361 757.681 641.361 756.181 641.361 700.687 642.861 700.687" fill="#fff"/>
    </g>
    <rect x="896.71185" y="590.59029" width="56.63152" height="1.5" fill="#fff" opacity="0.5"/>
    <rect x="694.02366" y="660.67144" width="12" height="68.03191" transform="translate(1394.71106 -5.33626) rotate(90)" fill="#d3d3d3" opacity="0.6"/>
    <rect x="666.0077" y="693.9374" width="68.03191" height="1.5" fill="#fff"/>
    <g>
      <polygon points="902.403 592.09 902.403 706.646 642.866 706.646 642.866 702.836 898.593 702.836 898.593 592.09 902.403 592.09" fill="none" stroke="#fff" stroke-miterlimit="10" stroke-width="0.2"/>
      <polygon points="951.843 592.09 951.843 756.091 642.866 756.091 642.866 752.381 948.043 752.381 948.043 592.09 951.843 592.09" fill="none" stroke="#fff" stroke-miterlimit="10" stroke-width="0.2"/>
      <polygon points="906.203 592.09 906.203 710.541 642.866 710.541 642.866 706.741 902.403 706.741 902.403 592.09 906.203 592.09" fill="none" stroke="#fff" stroke-miterlimit="10" stroke-width="0.2"/>
      <polygon points="910.013 592.09 910.003 702.931 910.003 714.351 642.866 714.351 642.866 710.541 906.203 710.541 906.203 592.09 910.013 592.09" fill="none" stroke="#fff" stroke-miterlimit="10" stroke-width="0.2"/>
      <polygon points="913.813 592.09 913.813 718.151 642.866 718.151 642.866 714.351 910.003 714.351 910.003 702.931 910.013 592.09 913.813 592.09" fill="none" stroke="#fff" stroke-miterlimit="10" stroke-width="0.2"/>
      <polygon points="917.613 592.09 917.613 721.951 642.866 721.951 642.866 718.151 913.813 718.151 913.813 592.09 917.613 592.09" fill="none" stroke="#fff" stroke-miterlimit="10" stroke-width="0.2"/>
      <polygon points="921.423 592.09 921.423 725.761 642.866 725.761 642.866 721.951 917.613 721.951 917.613 592.09 921.423 592.09" fill="none" stroke="#fff" stroke-miterlimit="10" stroke-width="0.2"/>
      <polygon points="925.223 592.09 925.223 729.561 642.866 729.561 642.866 725.761 921.423 725.761 921.423 592.09 925.223 592.09" fill="none" stroke="#fff" stroke-miterlimit="10" stroke-width="0.2"/>
      <polygon points="948.043 592.09 948.043 752.381 642.866 752.381 642.866 748.581 944.243 748.581 944.243 592.09 948.043 592.09" fill="none" stroke="#fff" stroke-miterlimit="10" stroke-width="0.2"/>
      <line x1="642.86647" y1="756.18058" x2="642.86647" y2="756.09058" fill="none" stroke="#fff" stroke-miterlimit="10" stroke-width="0.2"/>
      <polygon points="929.023 592.09 929.023 733.361 642.866 733.361 642.866 729.561 925.223 729.561 925.223 592.09 929.023 592.09" fill="none" stroke="#fff" stroke-miterlimit="10" stroke-width="0.2"/>
      <polygon points="944.243 592.09 944.243 748.581 642.866 748.581 642.866 744.771 940.433 744.771 940.433 592.09 944.243 592.09" fill="none" stroke="#fff" stroke-miterlimit="10" stroke-width="0.2"/>
      <polygon points="940.433 592.09 940.433 744.771 642.866 744.771 642.866 740.971 936.633 740.971 936.633 592.09 940.433 592.09" fill="none" stroke="#fff" stroke-miterlimit="10" stroke-width="0.2"/>
      <polygon points="936.633 592.09 936.633 740.971 642.866 740.971 642.866 737.171 932.833 737.171 932.833 592.09 936.633 592.09" fill="none" stroke="#fff" stroke-miterlimit="10" stroke-width="0.2"/>
      <polygon points="932.833 592.09 932.833 737.171 642.866 737.171 642.866 733.361 929.023 733.361 929.023 592.09 932.833 592.09" fill="none" stroke="#fff" stroke-miterlimit="10" stroke-width="0.2"/>
    </g>
    <g>
      <path d="M523.89068,575.66964a26.09968,26.09968,0,0,1-6.549,17.18l-19.27715-17.3056" fill="none" stroke="#fff" stroke-miterlimit="10" stroke-width="0.25" opacity="0.5"/>
      <path d="M545.81612,513.246a23.153,23.153,0,0,0-5.80955-15.24032l-17.17221,15.44123" fill="none" stroke="#fff" stroke-miterlimit="10" stroke-width="0.25" opacity="0.5"/>
      <path d="M490.42038,525.28963a25.89775,25.89775,0,0,0-17.04709,6.4983l17.17171,19.128" fill="none" stroke="#fff" stroke-miterlimit="10" stroke-width="0.25" opacity="0.5"/>
      <path d="M576.13722,552.10432a30.05972,30.05972,0,0,1-19.78668-7.54263l19.93133-22.202" fill="none" stroke="#fff" stroke-miterlimit="10" stroke-width="0.25" opacity="0.5"/>
    </g>
    <g>
      <path d="M759.46361,575.66724a26.09972,26.09972,0,0,0,6.549,17.18l19.27714-17.30561" fill="none" stroke="#fff" stroke-miterlimit="10" stroke-width="0.25" opacity="0.5"/>
      <path d="M737.53816,513.24355a23.15293,23.15293,0,0,1,5.80956-15.24032l17.17221,15.44123" fill="none" stroke="#fff" stroke-miterlimit="10" stroke-width="0.25" opacity="0.5"/>
      <path d="M792.93391,525.28722a25.89777,25.89777,0,0,1,17.04709,6.49831l-17.17171,19.128" fill="none" stroke="#fff" stroke-miterlimit="10" stroke-width="0.25" opacity="0.5"/>
      <path d="M707.21706,552.10191a30.05965,30.05965,0,0,0,19.78668-7.54263l-19.93133-22.202" fill="none" stroke="#fff" stroke-miterlimit="10" stroke-width="0.25" opacity="0.5"/>
    </g>
    <g>
      <path d="M759.45536,344.34026a26.09972,26.09972,0,0,1,6.549-17.18l19.27715,17.30561" fill="none" stroke="#fff" stroke-miterlimit="10" stroke-width="0.25" opacity="0.5"/>
      <path d="M737.52991,406.76394a23.15291,23.15291,0,0,0,5.80956,15.24032L760.51168,406.563" fill="none" stroke="#fff" stroke-miterlimit="10" stroke-width="0.25" opacity="0.5"/>
      <path d="M792.92566,394.72027a25.89771,25.89771,0,0,0,17.04709-6.4983L792.801,369.094" fill="none" stroke="#fff" stroke-miterlimit="10" stroke-width="0.25" opacity="0.5"/>
      <path d="M707.20882,367.90558a30.05971,30.05971,0,0,1,19.78667,7.54264l-19.93133,22.202" fill="none" stroke="#fff" stroke-miterlimit="10" stroke-width="0.25" opacity="0.5"/>
    </g>
    <g>
      <path d="M523.89483,344.32429a26.09972,26.09972,0,0,0-6.549-17.18l-19.27714,17.30561" fill="none" stroke="#fff" stroke-miterlimit="10" stroke-width="0.25" opacity="0.5"/>
      <path d="M545.82028,406.748a23.15293,23.15293,0,0,1-5.80956,15.24032l-17.17221-15.44123" fill="none" stroke="#fff" stroke-miterlimit="10" stroke-width="0.25" opacity="0.5"/>
      <path d="M490.42453,394.70431a25.89777,25.89777,0,0,1-17.04709-6.49831l17.17171-19.128" fill="none" stroke="#fff" stroke-miterlimit="10" stroke-width="0.25" opacity="0.5"/>
      <path d="M576.14138,367.88962a30.05965,30.05965,0,0,0-19.78668,7.54263l19.93133,22.202" fill="none" stroke="#fff" stroke-miterlimit="10" stroke-width="0.25" opacity="0.5"/>
    </g>
    <g>
      <polygon points="665.884 434.705 635.161 434.705 627.246 434.705 627.246 440.705 627.246 446.136 635.161 446.136 635.161 440.705 665.884 440.705 665.884 479.71 635.161 479.71 635.161 474.279 627.246 474.279 627.246 479.71 627.246 485.71 635.161 485.71 665.884 485.71 673.118 485.71 673.118 479.71 673.118 440.705 673.118 434.705 665.884 434.705" fill="#fff"/>
      <polyline points="673.118 456.742 701.216 456.742 701.216 406.563 636.31 406.563 636.31 434.705" fill="none" stroke="#fff" stroke-miterlimit="10" stroke-width="0.5"/>
      <rect x="673.07454" y="406.56304" width="28.14162" height="28.14162" fill="none" stroke="#fff" stroke-miterlimit="10" stroke-width="0.5"/>
      <rect x="636.30988" y="406.56304" width="7.34043" height="28.14162" fill="none" stroke="#fff" stroke-miterlimit="10" stroke-width="0.5"/>
      <rect x="643.6503" y="406.56304" width="7.34043" height="28.14162" fill="none" stroke="#fff" stroke-miterlimit="10" stroke-width="0.5"/>
      <rect x="651.02199" y="406.56304" width="7.34043" height="28.14162" fill="none" stroke="#fff" stroke-miterlimit="10" stroke-width="0.5"/>
      <rect x="658.36242" y="406.56304" width="7.34043" height="28.14162" fill="none" stroke="#fff" stroke-miterlimit="10" stroke-width="0.5"/>
      <rect x="683.47513" y="424.30406" width="7.34043" height="28.14162" transform="translate(248.77047 1125.52022) rotate(-90)" fill="none" stroke="#fff" stroke-miterlimit="10" stroke-width="0.5"/>
      <rect x="683.47513" y="431.64449" width="7.34043" height="28.14162" transform="translate(241.43005 1132.86065) rotate(-90)" fill="none" stroke="#fff" stroke-miterlimit="10" stroke-width="0.5"/>
      <polyline points="673.118 463.772 701.216 463.772 701.216 513.951 636.31 513.951 636.31 485.809" fill="none" stroke="#fff" stroke-miterlimit="10" stroke-width="0.5"/>
      <rect x="673.07454" y="485.80906" width="28.14162" height="28.14162" fill="none" stroke="#fff" stroke-miterlimit="10" stroke-width="0.5"/>
      <rect x="636.30988" y="485.80906" width="7.34043" height="28.14162" fill="none" stroke="#fff" stroke-miterlimit="10" stroke-width="0.5"/>
      <rect x="643.6503" y="485.80906" width="7.34043" height="28.14162" fill="none" stroke="#fff" stroke-miterlimit="10" stroke-width="0.5"/>
      <rect x="651.02199" y="485.80906" width="7.34043" height="28.14162" fill="none" stroke="#fff" stroke-miterlimit="10" stroke-width="0.5"/>
      <rect x="658.36242" y="485.80906" width="7.34043" height="28.14162" fill="none" stroke="#fff" stroke-miterlimit="10" stroke-width="0.5"/>
      <rect x="683.47513" y="468.06803" width="7.34043" height="28.14162" transform="translate(1169.28419 -205.0065) rotate(90)" fill="none" stroke="#fff" stroke-miterlimit="10" stroke-width="0.5"/>
      <rect x="683.47513" y="460.72761" width="7.34043" height="28.14162" transform="translate(1161.94376 -212.34693) rotate(90)" fill="none" stroke="#fff" stroke-miterlimit="10" stroke-width="0.5"/>
      <polygon points="699.912 512.647 636.31 512.647 636.31 513.951 701.216 513.951 701.216 512.647 701.216 407.867 701.216 406.563 636.31 406.563 636.31 407.867 699.912 407.867 699.912 512.647" fill="none" stroke="#fff" stroke-miterlimit="10" stroke-width="0.25"/>
      <g>
        <g>
          <path d="M685.42253,467.86688v19.00237A13.01053,13.01053,0,0,1,672.412,499.87987h-35.501" fill="none" stroke="#fff" stroke-miterlimit="10" stroke-width="0.5"/>
          <path d="M640.32842,497.48a.25.25,0,0,1-.07715.34521l-3.22607,2.05469,3.22607,2.05469a.25.25,0,1,1-.26855.42187l-3.55713-2.26562a.2501.2501,0,0,1,0-.42188l3.55713-2.26562a.25077.25077,0,0,1,.3457.07666Z" fill="#fff"/>
        </g>
        <g>
          <path d="M636.30986,420.73928H672.412a13.01052,13.01052,0,0,1,13.01049,13.01062v34.87753" fill="none" stroke="#fff" stroke-miterlimit="10" stroke-width="0.5"/>
          <path d="M683.02263,465.21a.25.25,0,0,1,.34522.07715l2.05468,3.22606,2.05469-3.22606a.25005.25005,0,1,1,.42188.26855l-2.26563,3.55715a.25013.25013,0,0,1-.42187,0l-2.26563-3.55715a.25077.25077,0,0,1,.07666-.3457Z" fill="#fff"/>
        </g>
        <circle cx="636.30988" cy="420.73928" r="1.15527" fill="none" stroke="#fff" stroke-miterlimit="10" stroke-width="0.5"/>
      </g>
    </g>
  </g>
</svg>
