<svg id="A_6NP" data-name="A/6NP" xmlns="http://www.w3.org/2000/svg" viewBox="0 0 1340 920">
  <g>
    <rect width="1340" height="920" fill="#214f77"/>
    <g>
      <rect x="521.28622" y="414.38552" width="36.17451" height="17.71713" fill="#fff" opacity="0.1"/>
      <g opacity="0.5">
        <path d="M557.21074,414.63552v17.21713l-35.67453,0V414.63552h35.67453m.25-.25H521.28621v17.71714l36.17453,0V414.38552Z" fill="#fff"/>
      </g>
    </g>
    <g>
      <rect x="580.65425" y="435.07967" width="23.38728" height="24.97606" fill="#fff" opacity="0.1"/>
      <g opacity="0.5">
        <path d="M603.79152,435.32967v24.47606H580.90425V435.32967h22.88727m.25-.25H580.65425v24.97606h23.38727V435.07967Z" fill="#fff"/>
      </g>
    </g>
    <g>
      <rect x="735.10514" y="409.26535" width="17.87115" height="50.79033" transform="translate(1488.08403 869.31658) rotate(179.99966)" fill="#fff" opacity="0.1"/>
      <g opacity="0.5">
        <path d="M752.72631,409.5153v50.29034l-17.37116.0001V409.51541l17.37116-.00011m.25-.25-17.87116.00012v50.79033l17.87116-.0001V409.26529Z" fill="#fff"/>
      </g>
    </g>
    <g>
      <rect x="759.15703" y="483.23588" width="17.84692" height="19.17576" transform="translate(275.25847 1260.90536) rotate(-90.00013)" fill="#fff" opacity="0.1"/>
      <g opacity="0.5">
        <path d="M777.41832,484.15029l.00006,17.34692-18.67572,0-.00006-17.34693,18.67572,0m.25-.25-19.17572,0,.00006,17.84693,19.17572,0-.00006-17.84692Z" fill="#fff"/>
      </g>
    </g>
    <g>
      <rect x="780.66876" y="483.90016" width="99.90868" height="17.59167" transform="matrix(-1, 0, 0, -1, 1661.24622, 985.39197)" fill="#fff" opacity="0.1"/>
      <g opacity="0.5">
        <path d="M880.32744,484.15016v17.09166l-99.40869,0V484.15016h99.40869m.25-.25H780.66875v17.59168l99.90869,0V483.90016Z" fill="#fff"/>
      </g>
    </g>
    <g>
      <rect x="690.49267" y="578.8642" width="41.93496" height="17.84562" transform="translate(1422.92034 1175.57397) rotate(180)" fill="#fff" opacity="0.1"/>
      <g opacity="0.5">
        <path d="M732.1776,579.1142l.00006,17.34561h-41.435V579.1142H732.1776m.25-.25H690.49266v17.84561h41.935l-.00006-17.84561Z" fill="#fff"/>
      </g>
    </g>
    <g>
      <path d="M711.93728,579.11082v1.34253h-5.71009a1.50169,1.50169,0,0,0-1.5,1.5v8.7981a1.50168,1.50168,0,0,0,1.5,1.5h11.67023a1.50168,1.50168,0,0,0,1.5-1.5v-8.7981a1.50168,1.50168,0,0,0-1.5-1.5h-5.71014v-1.34253h-.25Zm5.96014,1.59253a1.25014,1.25014,0,0,1,1.25,1.25v8.7981a1.25014,1.25014,0,0,1-1.25,1.25H706.22719a1.2501,1.2501,0,0,1-1.25-1.25v-8.7981a1.2501,1.2501,0,0,1,1.25-1.25h5.71009V584.98a.125.125,0,0,0,.25,0v-4.27662Z" fill="#fff" opacity="0.5"/>
      <rect x="706.41337" y="579.2673" width="11.29787" height="14.17021" rx="1.25" transform="translate(125.7099 1298.41471) rotate(-90)" fill="#fff" opacity="0.1"/>
    </g>
    <g>
      <path d="M840.79357,484.14527v1.34253h-5.71008a1.50168,1.50168,0,0,0-1.5,1.5v8.7981a1.50168,1.50168,0,0,0,1.5,1.5h11.67022a1.50168,1.50168,0,0,0,1.5-1.5v-8.7981a1.50168,1.50168,0,0,0-1.5-1.5h-5.71014v-1.34253h-.25Zm5.96014,1.59253a1.25014,1.25014,0,0,1,1.25,1.25v8.7981a1.25014,1.25014,0,0,1-1.25,1.25H835.08349a1.2501,1.2501,0,0,1-1.25-1.25v-8.7981a1.2501,1.2501,0,0,1,1.25-1.25h5.71008v4.27662a.125.125,0,0,0,.25,0V485.7378Z" fill="#fff" opacity="0.5"/>
      <rect x="835.26966" y="484.30175" width="11.29787" height="14.17021" rx="1.25" transform="translate(349.53175 1332.30545) rotate(-90)" fill="#fff" opacity="0.1"/>
    </g>
    <g>
      <path d="M767.95546,484.14527v1.34253h-5.71009a1.50169,1.50169,0,0,0-1.5,1.5v8.7981a1.50168,1.50168,0,0,0,1.5,1.5H773.9156a1.50168,1.50168,0,0,0,1.5-1.5v-8.7981a1.50168,1.50168,0,0,0-1.5-1.5h-5.71014v-1.34253h-.25Zm5.96014,1.59253a1.25014,1.25014,0,0,1,1.25,1.25v8.7981a1.25014,1.25014,0,0,1-1.25,1.25H762.24537a1.2501,1.2501,0,0,1-1.25-1.25v-8.7981a1.25011,1.25011,0,0,1,1.25-1.25h5.71009v4.27662a.125.125,0,1,0,.25,0V485.7378Z" fill="#fff" opacity="0.5"/>
      <rect x="762.43155" y="484.30175" width="11.29787" height="14.17021" rx="1.25" transform="translate(276.69364 1259.46734) rotate(-90)" fill="#fff" opacity="0.1"/>
    </g>
    <g>
      <path d="M735.353,445.38411h1.34253v5.71008a1.50168,1.50168,0,0,0,1.5,1.5h8.7981a1.50168,1.50168,0,0,0,1.5-1.5l0-11.67023a1.50168,1.50168,0,0,0-1.5-1.5l-8.79809,0a1.50168,1.50168,0,0,0-1.5,1.5v5.71014H735.353v.25Zm1.59253-5.96014a1.25014,1.25014,0,0,1,1.25-1.25l8.79809,0a1.25014,1.25014,0,0,1,1.25,1.25l0,11.67023a1.2501,1.2501,0,0,1-1.25,1.25h-8.7981a1.2501,1.2501,0,0,1-1.25-1.25v-5.71008h4.27661a.125.125,0,0,0,0-.25h-4.27661Z" fill="#fff" opacity="0.5"/>
      <rect x="736.94562" y="438.17397" width="11.29787" height="14.17021" rx="1.25" transform="translate(1485.18926 890.51791) rotate(179.99998)" fill="#fff" opacity="0.1"/>
    </g>
    <g>
      <path d="M735.353,424.72594h1.34253V430.436a1.50168,1.50168,0,0,0,1.5,1.5l8.7981,0a1.50168,1.50168,0,0,0,1.5-1.5l0-11.67022a1.50168,1.50168,0,0,0-1.5-1.5h-8.79809a1.50168,1.50168,0,0,0-1.5,1.5v5.71014H735.353v.25Zm1.59253-5.96014a1.25014,1.25014,0,0,1,1.25-1.25h8.79809a1.25014,1.25014,0,0,1,1.25,1.25l0,11.67022a1.2501,1.2501,0,0,1-1.25,1.25l-8.7981,0a1.2501,1.2501,0,0,1-1.25-1.25v-5.71009h4.27661a.125.125,0,0,0,0-.25h-4.27661Z" fill="#fff" opacity="0.5"/>
      <rect x="736.94562" y="417.5158" width="11.29787" height="14.17021" rx="1.25" transform="translate(1485.18925 849.20158) rotate(179.99998)" fill="#fff" opacity="0.1"/>
    </g>
    <g>
      <path d="M540.10436,431.85133V430.5088h5.71008a1.50168,1.50168,0,0,0,1.5-1.5v-8.7981a1.50169,1.50169,0,0,0-1.5-1.5H534.14421a1.50168,1.50168,0,0,0-1.5,1.5v8.7981a1.50168,1.50168,0,0,0,1.5,1.5h5.71015v1.34253h.25Zm-5.96015-1.59253a1.25014,1.25014,0,0,1-1.25-1.25v-8.7981a1.25014,1.25014,0,0,1,1.25-1.25h11.67022a1.25011,1.25011,0,0,1,1.25,1.25v8.7981a1.2501,1.2501,0,0,1-1.25,1.25h-5.71008l0-4.27661a.125.125,0,0,0-.25,0l0,4.27661Z" fill="#fff" opacity="0.5"/>
      <rect x="534.33039" y="417.52464" width="11.29787" height="14.17021" rx="1.25" transform="translate(964.58891 -115.3697) rotate(89.99998)" fill="#fff" opacity="0.1"/>
    </g>
    <g>
      <rect x="521.28622" y="462.57701" width="33.30217" height="15.32446" fill="#fff" opacity="0.1"/>
      <g opacity="0.5">
        <path d="M554.3384,462.827v14.82447H521.53621V462.827H554.3384m.25-.25H521.28621v15.32447H554.5884V462.577Z" fill="#fff"/>
      </g>
    </g>
    <g>
      <path d="M538.381,477.65015v-1.34253l5.71008,0a1.50168,1.50168,0,0,0,1.5-1.5v-8.79809a1.50168,1.50168,0,0,0-1.5-1.5H532.4208a1.50168,1.50168,0,0,0-1.5,1.5l0,8.7981a1.50168,1.50168,0,0,0,1.5,1.5H538.131v1.34253h.25Zm-5.96014-1.59253a1.25014,1.25014,0,0,1-1.25-1.25l0-8.7981a1.25015,1.25015,0,0,1,1.25-1.25H544.091a1.2501,1.2501,0,0,1,1.25,1.25v8.79809a1.2501,1.2501,0,0,1-1.25,1.25l-5.71008,0V471.781a.125.125,0,1,0-.25,0v4.27661Z" fill="#fff" opacity="0.5"/>
      <rect x="532.60698" y="463.32346" width="11.29787" height="14.17021" rx="1.25" transform="translate(1008.66432 -67.84749) rotate(89.99998)" fill="#fff" opacity="0.1"/>
    </g>
    <g>
      <path d="M562.35267,483.90148V485.244h-5.71008a1.50168,1.50168,0,0,0-1.5,1.5l0,8.79809a1.50168,1.50168,0,0,0,1.5,1.5h11.67022a1.50168,1.50168,0,0,0,1.5-1.5V486.744a1.50168,1.50168,0,0,0-1.5-1.5l-5.71015,0v-1.34253h-.25Zm5.96015,1.59252a1.25014,1.25014,0,0,1,1.25,1.25v8.7981a1.25014,1.25014,0,0,1-1.25,1.25H556.6426a1.2501,1.2501,0,0,1-1.25-1.25l0-8.79809a1.2501,1.2501,0,0,1,1.25-1.25h5.71008l0,4.27661a.125.125,0,0,0,.25,0l0-4.27661Z" fill="#fff" opacity="0.5"/>
      <rect x="556.82877" y="484.05795" width="11.29787" height="14.17021" rx="1.25" transform="translate(71.33489 1053.62096) rotate(-90.00002)" fill="#fff" opacity="0.1"/>
    </g>
    <g>
      <rect x="542.32685" y="484.15951" width="38.0293" height="17.32967" fill="#fff" opacity="0.1"/>
      <g opacity="0.5">
        <path d="M580.60615,501.74722h-38.5293V483.90148h38.5293Zm-38.2793-.258h38.0293V484.15951h-38.0293Z" fill="#fff"/>
      </g>
    </g>
    <g>
      <rect x="672.57341" y="632.15301" width="60.61068" height="28.99863" transform="matrix(-1, 0, 0, -1, 1405.75755, 1293.3046)" fill="#fff" opacity="0.1"/>
      <g opacity="0.5">
        <path d="M732.93407,632.403v28.49862H672.82341V632.403h60.11066m.25-.25H672.57341v28.99862h60.61066V632.153Z" fill="#fff"/>
      </g>
    </g>
    <g>
      <rect x="747.19554" y="662.05578" width="77.43617" height="17.62892" transform="translate(1456.78371 -115.04353) rotate(89.99999)" fill="#fff" opacity="0.1"/>
      <g opacity="0.5">
        <path d="M794.47808,632.40213v76.93619l-17.12891,0V632.40216l17.12891,0m.25-.25-17.62891,0v77.43619l17.62891,0V632.15213Z" fill="#fff"/>
      </g>
    </g>
    <g>
      <g>
        <rect x="661.0723" y="675.33748" width="42.50662" height="19.50429" transform="translate(1367.41497 2.76375) rotate(89.99998)" fill="#fff" opacity="0.1"/>
        <g opacity="0.5">
          <path d="M691.82775,664.08631v42.00662H672.82347V664.08634l19.00428,0m.25-.25-19.50428,0v42.50659h19.50428V663.83631Z" fill="#fff"/>
        </g>
      </g>
      <g>
        <rect x="689.29318" y="682.2872" width="11.45745" height="5.88829" transform="translate(1380.25294 -9.79087) rotate(89.99997)" fill="#fff" opacity="0.1"/>
        <polyline points="692.078 690.96 697.966 690.96 697.966 679.503 692.078 679.503" fill="none" stroke="#fff" stroke-miterlimit="10" stroke-width="0.25" opacity="0.5"/>
      </g>
    </g>
    <g>
      <rect x="787.88567" y="459.87499" width="92.61758" height="18.02189" transform="translate(1668.38893 937.77185) rotate(180)" fill="#fff" opacity="0.1"/>
      <g opacity="0.5">
        <path d="M880.25322,460.125l.00006,17.52189H788.13567V460.125h92.11755m.25-.25H787.88567v18.02189h92.61761l-.00006-18.02189Z" fill="#fff"/>
      </g>
    </g>
    <g>
      <rect x="761.27697" y="503.42396" width="55.84237" height="17.05952" transform="matrix(0, -1, 1, 0, 277.24495, 1301.15221)" fill="#fff" opacity="0.1"/>
      <g opacity="0.5">
        <path d="M797.47789,484.28253l.00006,55.34237-16.5595,0-.00007-55.34236,16.55951,0m.25-.25-17.05951,0,.00007,55.84236,17.0595,0-.00006-55.84237Z" fill="#fff"/>
      </g>
    </g>
    <g>
      <rect x="787.32584" y="529.47276" width="3.74468" height="17.05952" transform="translate(251.20323 1327.20586) rotate(-90.00055)" fill="#fff" opacity="0.1"/>
      <g opacity="0.5">
        <path d="M797.478,536.38018v3.24469h-16.5595l-.00007-3.24469H797.478m.25-.25H780.66838l.00007,3.74469H797.728v-3.74469Z" fill="#fff"/>
      </g>
    </g>
    <g>
      <polygon points="575.803 668.348 569.867 668.348 569.867 656.774 575.803 656.774 575.803 656.524 569.867 656.524 569.617 656.524 569.617 656.774 569.617 668.348 569.617 668.598 569.867 668.598 575.803 668.598 575.803 668.348" fill="#fff" opacity="0.5"/>
      <rect x="575.80319" y="637.06093" width="22.59574" height="33.95745" fill="#fff" opacity="0.1"/>
      <g opacity="0.1">
        <rect x="569.86702" y="639.73115" width="5.93617" height="11.57447" fill="#fff"/>
      </g>
      <g opacity="0.5">
        <path d="M598.14894,637.311v33.45742H576.05318V637.311h22.09576m.25-.25H575.80318v33.95742h22.59576V637.061Z" fill="#fff"/>
      </g>
      <polygon points="575.803 651.306 569.867 651.306 569.867 639.731 575.803 639.731 575.803 639.481 569.867 639.481 569.617 639.481 569.617 639.731 569.617 651.306 569.617 651.556 569.867 651.556 575.803 651.556 575.803 651.306" fill="#fff" opacity="0.5"/>
      <g opacity="0.1">
        <rect x="569.86702" y="656.7737" width="5.93617" height="11.57447" fill="#fff"/>
      </g>
      <polygon points="598.399 639.731 604.335 639.731 604.335 651.306 598.399 651.306 598.399 651.556 604.335 651.556 604.585 651.556 604.585 651.306 604.585 639.731 604.585 639.481 604.335 639.481 598.399 639.481 598.399 639.731" fill="#fff" opacity="0.5"/>
      <g opacity="0.1">
        <rect x="598.39893" y="656.77371" width="5.93617" height="11.57447" transform="translate(1202.73403 1325.12188) rotate(180)" fill="#fff"/>
      </g>
      <polygon points="598.399 656.774 604.335 656.774 604.335 668.348 598.399 668.348 598.399 668.598 604.335 668.598 604.585 668.598 604.585 668.348 604.585 656.774 604.585 656.524 604.335 656.524 598.399 656.524 598.399 656.774" fill="#fff" opacity="0.5"/>
      <g opacity="0.1">
        <rect x="598.39893" y="639.73116" width="5.93617" height="11.57447" transform="translate(1202.73403 1291.03678) rotate(180)" fill="#fff"/>
      </g>
    </g>
    <rect x="418.94148" y="477.90148" width="189.44681" height="6" fill="#fff"/>
    <rect x="574.27558" y="507.66743" width="65.53191" height="6" transform="translate(96.3741 1117.70897) rotate(-90)" fill="#fff"/>
    <rect x="604.04154" y="572.86424" width="68.53191" height="6" transform="translate(1276.61499 1151.72848) rotate(180)" fill="#fff"/>
    <rect x="602.71107" y="639.72663" width="133.72477" height="6" transform="translate(1312.30008 -26.84683) rotate(90)" fill="#fff"/>
    <rect x="474.88196" y="545.37387" width="3" height="99.67223" transform="translate(-118.82802 1071.59195) rotate(-90)" fill="#fff"/>
    <rect x="577.43616" y="567.92807" width="3" height="54.56383" transform="translate(-16.27382 1174.14615) rotate(-90)" fill="#fff"/>
    <rect x="709.16603" y="592.56024" width="3" height="76.18516" transform="translate(80.01322 1341.31884) rotate(-90)" fill="#fff"/>
    <rect x="782.972" y="620.39687" width="3" height="20.51189" transform="translate(153.81919 1415.12482) rotate(-90)" fill="#fff"/>
    <rect x="782.972" y="531.11893" width="3" height="20.51189" transform="translate(243.09712 1325.84688) rotate(-90)" fill="#fff"/>
    <rect x="741.81497" y="533.16528" width="3" height="16.4192" transform="translate(201.94009 1284.68985) rotate(-90)" fill="#fff"/>
    <rect x="777.66839" y="483.90148" width="3" height="55.9734" fill="#fff"/>
    <rect x="784.88569" y="454.16743" width="3" height="23.83771" fill="#fff"/>
    <rect x="784.88569" y="382.93871" width="3" height="48.54516" fill="#fff"/>
    <rect x="534.60321" y="520.8664" width="3" height="29.63399" transform="translate(0.41982 1071.7866) rotate(-90)" fill="#fff"/>
    <rect x="587.26876" y="520.45251" width="3.0838" height="30.46176" transform="translate(53.12727 1124.49405) rotate(-90)" fill="#fff"/>
    <rect x="603.37765" y="572.86424" width="3" height="23.84574" transform="translate(1209.75531 1169.57423) rotate(180)" fill="#fff"/>
    <rect x="580.65425" y="483.65679" width="3" height="18.09043" transform="translate(1164.3085 985.40402) rotate(180)" fill="#fff"/>
    <rect x="590.84789" y="488.55358" width="3" height="23.38729" transform="translate(1092.59511 -92.10067) rotate(90)" fill="#fff"/>
    <rect x="648.65425" y="578.86424" width="3" height="17.84574" transform="translate(1300.3085 1175.57423) rotate(180)" fill="#fff"/>
    <rect x="656.11385" y="586.25039" width="3" height="17.9192" transform="translate(1252.82384 -62.40386) rotate(90)" fill="#fff"/>
    <rect x="518.28622" y="571.7419" width="3" height="21.96809" transform="translate(1039.57244 1165.45189) rotate(180)" fill="#fff"/>
    <rect x="518.28622" y="483.90148" width="3" height="62.41489" transform="translate(1039.57244 1030.21785) rotate(180)" fill="#fff"/>
    <g>
      <g>
        <path d="M507.65874,691.96181h14.12545V669.90663H507.65874a3.89579,3.89579,0,0,0-3.91406,3.86816v14.31934A3.89539,3.89539,0,0,0,507.65874,691.96181Z" fill="#fff" opacity="0.1"/>
        <rect x="522.03419" y="669.90663" width="3.9502" height="22.05518" fill="#fff" opacity="0.2"/>
        <path d="M507.65874,692.21181h18.57564V669.65663H507.65874a4.146,4.146,0,0,0-4.16406,4.11816v14.31934A4.14586,4.14586,0,0,0,507.65874,692.21181Zm14.37545-22.30518h3.95019v22.05518h-3.95019Zm-18.28951,3.86816a3.89579,3.89579,0,0,1,3.91406-3.86816h14.12545v22.05518H507.65874a3.89539,3.89539,0,0,1-3.91406-3.86768Z" fill="#fff" opacity="0.5"/>
      </g>
      <g>
        <path d="M507.65874,655.17989h14.12545V633.12471H507.65874a3.8958,3.8958,0,0,0-3.91406,3.86817v14.31933A3.89538,3.89538,0,0,0,507.65874,655.17989Z" fill="#fff" opacity="0.1"/>
        <rect x="522.03419" y="633.12471" width="3.9502" height="22.05518" fill="#fff" opacity="0.2"/>
        <path d="M507.65874,655.42989h18.57564V632.87471H507.65874a4.146,4.146,0,0,0-4.16406,4.11817v14.31933A4.14586,4.14586,0,0,0,507.65874,655.42989Zm14.37545-22.30518h3.95019v22.05518h-3.95019Zm-18.28951,3.86817a3.8958,3.8958,0,0,1,3.91406-3.86817h14.12545v22.05518H507.65874a3.89538,3.89538,0,0,1-3.91406-3.86768Z" fill="#fff" opacity="0.5"/>
      </g>
    </g>
    <g>
      <path d="M454.09652,627.2083H437.02523v70.66992h17.07129a3.89579,3.89579,0,0,0,3.91406-3.86816V631.076A3.89538,3.89538,0,0,0,454.09652,627.2083Z" fill="#fff" opacity="0.1"/>
      <rect x="432.82504" y="627.2083" width="3.9502" height="70.66992" fill="#fff" opacity="0.2"/>
      <path d="M454.09652,626.9583H432.575v71.16992h21.52148a4.146,4.146,0,0,0,4.16406-4.11816V631.076A4.14585,4.14585,0,0,0,454.09652,626.9583Zm-17.32129,70.91992H432.825V627.2083h3.95019Zm21.23535-3.86816a3.89579,3.89579,0,0,1-3.91406,3.86816H437.02523V627.2083h17.07129a3.89538,3.89538,0,0,1,3.91406,3.86767Z" fill="#fff" opacity="0.5"/>
    </g>
    <g>
      <g opacity="0.5">
        <path d="M480.79549,652.62482a9.91844,9.91844,0,1,1-9.91846,9.91843,9.91845,9.91845,0,0,1,9.91846-9.91843m0-.25a10.16844,10.16844,0,1,0,10.16843,10.16843,10.18,10.18,0,0,0-10.16843-10.16843Z" fill="#fff"/>
      </g>
      <circle cx="480.79548" cy="662.54326" r="9.91843" fill="#fff" opacity="0.1"/>
    </g>
    <g>
      <g>
        <path d="M497.65462,537.86162V484.15647H447.17745v53.70515a3.93613,3.93613,0,0,0,3.86817,3.9921h42.74132A3.93572,3.93572,0,0,0,497.65462,537.86162Z" fill="#fff" opacity="0.1"/>
        <path d="M446.92745,483.90148v53.96014a4.18882,4.18882,0,0,0,4.11817,4.24709h42.74132a4.18873,4.18873,0,0,0,4.11768-4.24709V483.90148m-.25,0H447.17745m3.86817,57.95224a3.93613,3.93613,0,0,1-3.86817-3.9921V484.15647h50.47717v53.70515a3.93572,3.93572,0,0,1-3.86768,3.9921Z" fill="#fff" opacity="0.5"/>
      </g>
      <polygon points="446.338 496.187 426.801 496.187 426.801 484.176 446.338 484.176 446.672 484.176 446.927 484.176 446.927 483.901 426.546 483.901 426.546 496.462 446.927 496.462 446.927 496.187 446.672 496.187 446.338 496.187" fill="#fff" opacity="0.5"/>
      <polygon points="498.494 484.176 518.031 484.176 518.031 496.187 498.494 496.187 498.16 496.187 497.905 496.187 497.905 496.462 518.286 496.462 518.286 483.901 497.905 483.901 497.905 484.176 498.16 484.176 498.494 484.176" fill="#fff" opacity="0.5"/>
      <rect x="426.80129" y="484.17638" width="20.12616" height="12.01102" fill="#fff" opacity="0.1"/>
      <rect x="497.90462" y="484.17639" width="20.12616" height="12.01101" fill="#fff" opacity="0.1"/>
    </g>
    <g>
      <rect x="618.59313" y="566.64879" width="17.84573" height="42.2766" transform="translate(39.72867 1215.30286) rotate(-89.99998)" fill="#fff" opacity="0.1"/>
      <g opacity="0.5">
        <path d="M648.40429,579.11423V596.46H606.6277V579.11423h41.77659m.25-.25H606.3777V596.71h42.27659V578.86423Z" fill="#fff"/>
      </g>
    </g>
    <g>
      <rect x="471.96038" y="562.9147" width="12.10106" height="79.69137" transform="translate(-124.74998 1080.77067) rotate(-89.99994)" fill="#fff" opacity="0.1"/>
      <g opacity="0.5">
        <path d="M438.41521,596.95984l79.19138,0v11.601H438.41521V596.95984m-.25-.25v12.10108h79.69138v-12.101l-79.69138,0Z" fill="#fff"/>
      </g>
    </g>
    <g>
      <rect x="463.52234" y="538.94622" width="17.78723" height="91.74036" transform="translate(-112.40083 1057.23188) rotate(-89.99995)" fill="#fff" opacity="0.1"/>
      <g opacity="0.5">
        <path d="M518.03615,576.17279l0,17.28723H426.79576l0-17.28723h91.24035m.25-.25H426.5458l0,17.78723h91.74036l0-17.78723Z" fill="#fff"/>
      </g>
    </g>
    <g>
      <rect x="648.65181" y="596.70999" width="17.91916" height="112.87901" transform="translate(1315.2227 1306.29908) rotate(-179.99999)" fill="#fff" opacity="0.1"/>
      <g opacity="0.5">
        <path d="M666.32094,596.96V709.339H648.90181V596.96h17.41913m.25-.25H648.65181V709.589h17.91913V596.71Z" fill="#fff"/>
      </g>
    </g>
    <g>
      <path d="M521.28622,483.90148v50.28191h20.79063V483.90148Zm20.53139,50.02267H521.54546V484.16071h10.007v2.97617h-7.0308v36.52056a7.15991,7.15991,0,1,0,14.31983,0V487.13688h-7.02979v-2.97617h10.00595ZM531.682,490.00925a.12955.12955,0,0,0,.12962-.12962v-2.48351h6.77055v36.26132a6.90068,6.90068,0,1,1-13.80135,0V487.39612h6.77156v2.48351A.12955.12955,0,0,0,531.682,490.00925Z" fill="#fff" opacity="0.5"/>
      <path d="M521.54546,484.16071v49.76344h20.27215V484.16071Zm17.03675,39.49673a6.90068,6.90068,0,1,1-13.80135,0V487.39612h13.80135Z" fill="#fff" opacity="0.1"/>
      <path d="M524.78086,487.39612h13.80135a0,0,0,0,1,0,0v36.50722a6.65478,6.65478,0,0,1-6.65478,6.65478h-.49179a6.65478,6.65478,0,0,1-6.65478-6.65478V487.39612A0,0,0,0,1,524.78086,487.39612Z" fill="#fff" opacity="0.2"/>
    </g>
    <g>
      <path d="M735.10537,409.52194h49.78032V388.93871H735.10537ZM784.629,389.19536v20.06993H735.362v-9.90714h2.94648v6.96066h36.15624a7.08848,7.08848,0,1,0,0-14.177H738.3085v6.95966H735.362v-9.90614Zm-43.47683,10.03446a.12825.12825,0,0,0-.12832-.12832h-2.45874v-6.703h35.89959a6.83183,6.83183,0,1,1,0,13.66367H738.56515v-6.704h2.45874A.12826.12826,0,0,0,741.15221,399.22982Z" fill="#fff" opacity="0.5"/>
      <path d="M735.362,409.26529h49.267V389.19536H735.362Zm39.10272-16.8668a6.83183,6.83183,0,1,1,0,13.66367H738.56515V392.39849Z" fill="#fff" opacity="0.1"/>
      <path d="M753.099,377.86461H766.7627a0,0,0,0,1,0,0v36.07665a6.65478,6.65478,0,0,1-6.65478,6.65478h-.35412a6.65478,6.65478,0,0,1-6.65478-6.65478V377.86461A0,0,0,0,1,753.099,377.86461Z" transform="translate(360.70054 1159.16119) rotate(-90)" fill="#fff" opacity="0.2"/>
    </g>
    <g>
      <path d="M604.04154,432.30306l0-46.19121-19.0992,0,0,46.19121ZM585.18044,386.35l18.62291,0,0,45.71492-9.19284,0,0-2.734,6.45881,0,0-33.54942a6.57742,6.57742,0,1,0-13.15483,0l0,33.54942h6.45788v2.734h-9.19192Zm9.311,40.34218a.119.119,0,0,0-.11908.11907l0,2.28147-6.21973,0,0-33.31128a6.33927,6.33927,0,1,1,12.67853,0l0,33.31128h-6.22066v-2.28147A.119.119,0,0,0,594.49147,426.69219Z" fill="#fff" opacity="0.5"/>
      <path d="M603.80339,432.06491l0-45.71492-18.62291,0,0,45.71491Zm-15.65075-36.28345a6.33927,6.33927,0,0,1,12.67853,0l0,33.31128-12.67853,0Z" fill="#fff" opacity="0.1"/>
      <path d="M588.15265,389.44219h12.67853a0,0,0,0,1,0,0v33.31127a6.33927,6.33927,0,0,1-6.33927,6.33927h0a6.33926,6.33926,0,0,1-6.33926-6.33926V389.44219a0,0,0,0,1,0,0Z" transform="translate(1188.98454 818.5339) rotate(179.9999)" fill="#fff" opacity="0.2"/>
    </g>
    <g>
      <g opacity="0.5">
        <path d="M599.70926,510.21205v9.7h-9.65014a4.85,4.85,0,0,1,0-9.7h9.65014m.25-.25h-9.90014a5.1,5.1,0,0,0,0,10.2h9.90014v-10.2Z" fill="#fff"/>
      </g>
      <g opacity="0.5">
        <polygon points="604.042 507.979 599.711 507.979 599.711 509.962 599.961 509.962 599.961 508.229 603.792 508.229 603.792 521.896 599.961 521.896 599.961 520.162 599.711 520.162 599.711 522.146 604.042 522.146 604.042 507.979 604.042 507.979" fill="#fff"/>
      </g>
      <path d="M599.70926,510.21205v9.7h-9.65014a4.85,4.85,0,0,1,0-9.7h9.65014" fill="#fff" opacity="0.1"/>
      <rect x="599.95926" y="508.2286" width="3.83228" height="13.66699" fill="#fff" opacity="0.1"/>
    </g>
    <path d="M599.70926,510.21205v9.7h-9.65014a4.85,4.85,0,0,1,0-9.7h9.65014" fill="#fff" opacity="0.1"/>
    <g>
      <rect x="586.26541" y="576.59725" width="16.85963" height="16.86013" fill="#fff" opacity="0.1"/>
      <g opacity="0.5">
        <path d="M603.37764,576.34464H586.01281V593.71h17.36483V576.34464ZM586.2654,593.45737V576.59726h16.85965v16.86011Z" fill="#fff"/>
      </g>
      <g opacity="0.5">
        <polygon points="586.013 576.345 554.431 576.345 554.431 593.71 586.013 593.71 586.013 593.457 554.682 593.457 554.682 576.597 586.013 576.597 586.013 576.345 586.013 576.345" fill="#fff"/>
      </g>
      <g opacity="0.5">
        <path d="M594.69524,578.49478a6.53278,6.53278,0,1,0,6.53326,6.53278,6.54036,6.54036,0,0,0-6.53326-6.53278Zm0,12.813a6.28018,6.28018,0,1,1,6.28067-6.28018,6.28726,6.28726,0,0,1-6.28067,6.28018Z" fill="#fff"/>
      </g>
      <rect x="554.68345" y="576.59725" width="31.32935" height="16.86013" fill="#fff" opacity="0.1"/>
      <circle cx="594.69523" cy="585.02756" r="6.28042" fill="#fff" opacity="0.1"/>
    </g>
    <g>
      <rect x="649.03229" y="614.3989" width="17.41358" height="17.41358" fill="#fff" opacity="0.1"/>
      <g>
        <circle cx="653.67831" cy="619.03905" r="2.75801" fill="none" stroke="#fff" stroke-miterlimit="10" stroke-width="0.25" opacity="0.5"/>
        <circle cx="661.79986" cy="619.03905" r="2.75801" fill="none" stroke="#fff" stroke-miterlimit="10" stroke-width="0.25" opacity="0.5"/>
        <circle cx="653.67831" cy="627.17234" r="2.75801" fill="none" stroke="#fff" stroke-miterlimit="10" stroke-width="0.25" opacity="0.5"/>
        <circle cx="661.79986" cy="627.17234" r="2.75801" fill="none" stroke="#fff" stroke-miterlimit="10" stroke-width="0.25" opacity="0.5"/>
      </g>
      <g opacity="0.5">
        <path d="M666.57361,631.94005H648.90449V614.27092h17.66912ZM649.16,631.68457h17.15816V614.5264H649.16Z" fill="#fff"/>
      </g>
    </g>
    <g>
      <path d="M663.61256,673.72407H662.395V668.014a1.50168,1.50168,0,0,0-1.5-1.5h-8.7981a1.50168,1.50168,0,0,0-1.5,1.5v11.67023a1.50168,1.50168,0,0,0,1.5,1.5h8.7981a1.50169,1.50169,0,0,0,1.5-1.5v-5.71015h1.21752a.125.125,0,0,0,0-.25Zm-1.46752,5.96015a1.25014,1.25014,0,0,1-1.25,1.25h-8.7981a1.25014,1.25014,0,0,1-1.25-1.25V668.014a1.2501,1.2501,0,0,1,1.25-1.25h8.7981a1.2501,1.2501,0,0,1,1.25,1.25v5.71008h-4.27662a.125.125,0,0,0,0,.25H662.145Z" fill="#fff" opacity="0.5"/>
      <rect x="650.84705" y="666.764" width="11.29787" height="14.17021" rx="1.25" fill="#fff" opacity="0.1"/>
    </g>
    <g>
      <rect x="690.49266" y="365.91212" width="91.39302" height="17.02659" fill="#fff" opacity="0.1"/>
      <g opacity="0.5">
        <path d="M781.63567,366.16212V382.6887h-90.893V366.16212h90.893m.25-.25h-91.393V382.9387h91.393V365.91212Z" fill="#fff"/>
      </g>
    </g>
    <g>
      <rect x="605.52457" y="301.06637" width="61.13665" height="28.97548" fill="#fff" opacity="0.1"/>
      <g opacity="0.5">
        <path d="M666.41118,301.31637l.00006,28.47548H605.77459l0-28.47548h60.63663m.25-.25H605.52455l0,28.97548h61.13665l-.00006-28.97548Z" fill="#fff"/>
      </g>
    </g>
    <g>
      <rect x="526.68803" y="282.22742" width="77.82789" height="17.80218" transform="translate(274.47353 856.73052) rotate(-90.00001)" fill="#fff" opacity="0.1"/>
      <g opacity="0.5">
        <path d="M574.25307,252.46456v77.32788l-17.30218,0V252.46458l17.30218,0m.25-.25-17.80218,0v77.82788l17.80218,0V252.21456Z" fill="#fff"/>
      </g>
    </g>
    <g>
      <rect x="462.73124" y="301.06637" width="58.55497" height="28.97548" fill="#fff" opacity="0.1"/>
      <g opacity="0.5">
        <path d="M521.03621,301.31637v28.47548h-58.055V301.31637h58.055m.25-.25h-58.555v28.97548h58.555V301.06637Z" fill="#fff"/>
      </g>
    </g>
    <g>
      <rect x="426.54585" y="364.78978" width="65.61701" height="18.14893" fill="#fff" opacity="0.1"/>
      <g opacity="0.5">
        <path d="M491.91286,365.03977v17.64894h-65.117V365.03978l65.117,0m.25-.25-65.617,0v18.14893h65.617V364.78977Z" fill="#fff"/>
      </g>
    </g>
    <g>
      <rect x="396.533" y="282.22742" width="77.82789" height="17.80218" transform="translate(144.31848 726.57549) rotate(-90.00001)" fill="#fff" opacity="0.1"/>
      <g opacity="0.5">
        <path d="M444.098,252.46456v77.32788l-17.30218,0V252.46458l17.30218,0m.25-.25-17.80218,0v77.82788l17.80218,0V252.21456Z" fill="#fff"/>
      </g>
    </g>
    <g>
      <rect x="820.95259" y="353.55573" width="79.56133" height="12.35638" fill="#fff" opacity="0.1"/>
      <g opacity="0.5">
        <path d="M900.2639,353.80573v11.85638H821.20256V353.80573H900.2639m.25-.25H820.95256v12.35638H900.5139V353.55573Z" fill="#fff"/>
      </g>
    </g>
    <g>
      <path d="M737.45915,380.42774v-1.21753h5.71008a1.50168,1.50168,0,0,0,1.5-1.5v-8.7981a1.50168,1.50168,0,0,0-1.5-1.5H731.499a1.50168,1.50168,0,0,0-1.5,1.5v8.7981a1.50168,1.50168,0,0,0,1.5,1.5h5.71015v1.21753a.125.125,0,0,0,.25,0Zm-5.96015-1.46753a1.25014,1.25014,0,0,1-1.25-1.25v-8.7981a1.25014,1.25014,0,0,1,1.25-1.25h11.67023a1.2501,1.2501,0,0,1,1.25,1.25v8.7981a1.2501,1.2501,0,0,1-1.25,1.25h-5.71008V374.6836a.125.125,0,1,0-.25,0v4.27661Z" fill="#fff" opacity="0.5"/>
      <rect x="731.68518" y="366.22606" width="11.29787" height="14.17021" rx="1.25" transform="matrix(0, 1, -1, 0, 1110.64526, -364.02296)" fill="#fff" opacity="0.1"/>
    </g>
    <rect x="432.27717" y="692.9129" width="12" height="45.35221" transform="translate(-277.31184 1153.86617) rotate(-90)" fill="#fff"/>
    <rect x="547.10163" y="691.47256" width="12" height="48.23289" transform="translate(-162.48737 1268.69064) rotate(-90)" fill="#fff"/>
    <rect x="652.91172" y="701.92728" width="12" height="27.32346" transform="translate(-56.67729 1374.50073) rotate(-90)" fill="#fff"/>
    <rect x="414.54585" y="678.07169" width="12" height="43.51732" transform="translate(841.09169 1399.6607) rotate(180)" fill="#fff"/>
    <rect x="414.54585" y="570.43339" width="12" height="39.60638" transform="translate(841.09169 1180.47316) rotate(180)" fill="#fff"/>
    <rect x="414.54585" y="477.90148" width="12" height="24.5" transform="translate(841.09169 980.30295) rotate(180)" fill="#fff"/>
    <rect x="414.54585" y="610.03977" width="12" height="68.03191" transform="translate(841.09169 1288.11146) rotate(180)" fill="#d3d3d3" opacity="0.6"/>
    <rect x="386.52989" y="643.30573" width="68.03191" height="1.5" transform="translate(-223.50989 1064.60158) rotate(-90)" fill="#fff"/>
    <rect x="414.54585" y="502.40148" width="12" height="68.03191" transform="translate(841.09169 1072.83487) rotate(180)" fill="#d3d3d3" opacity="0.6"/>
    <rect x="386.52989" y="535.66743" width="68.03191" height="1.5" transform="translate(-115.87159 956.96328) rotate(-90)" fill="#fff"/>
    <rect x="488.96923" y="681.57305" width="12" height="68.03191" transform="translate(1210.55824 220.61978) rotate(90)" fill="#d3d3d3" opacity="0.6"/>
    <rect x="460.95327" y="714.83901" width="68.03191" height="1.5" transform="translate(989.93846 1431.17802) rotate(180)" fill="#fff"/>
    <rect x="605.23404" y="681.57305" width="12" height="68.03191" transform="translate(1326.82305 104.35497) rotate(90)" fill="#d3d3d3" opacity="0.6"/>
    <rect x="577.21808" y="714.83901" width="68.03191" height="1.5" transform="translate(1222.46807 1431.17802) rotate(180)" fill="#fff"/>
    <rect x="418.94148" y="477.90148" width="189.44681" height="6" fill="#fff"/>
    <rect x="556.56015" y="430.42009" width="100.96277" height="6" transform="translate(1040.46163 -173.62144) rotate(90)" fill="#fff"/>
    <rect x="580.65425" y="460.05573" width="3" height="18.09043" transform="translate(1164.3085 938.20189) rotate(180)" fill="#fff"/>
    <rect x="590.84789" y="449.86209" width="3" height="23.38729" transform="translate(130.79216 1053.90362) rotate(-90)" fill="#fff"/>
    <rect x="521.56497" y="382.65996" width="3" height="3.5575" transform="translate(138.62626 907.50368) rotate(-90)" fill="#fff"/>
    <rect x="457.85435" y="351.6302" width="3" height="65.61702" transform="translate(74.91564 843.79306) rotate(-90)" fill="#fff"/>
    <rect x="474.20276" y="282.38495" width="3" height="98.31383" transform="translate(144.1609 807.24462) rotate(-90)" fill="#fff"/>
    <rect x="562.31813" y="318.06415" width="3" height="26.95542" transform="translate(232.27627 895.35999) rotate(-90)" fill="#fff"/>
    <rect x="553.70111" y="252.21394" width="3" height="77.82792" transform="translate(1110.40222 582.2558) rotate(180)" fill="#fff"/>
    <rect x="633.14475" y="299.61316" width="3" height="63.8574" transform="translate(303.1029 966.18661) rotate(-90)" fill="#fff"/>
    <rect x="648.65425" y="365.91211" width="3" height="17.0266" transform="translate(1300.3085 748.85082) rotate(180)" fill="#fff"/>
    <rect x="656.11385" y="358.45251" width="3" height="17.9192" transform="translate(290.20174 1025.02597) rotate(-90)" fill="#fff"/>
    <rect x="576.3788" y="358.27597" width="3" height="52.32548" transform="translate(193.44009 962.31751) rotate(-90)" fill="#fff"/>
    <rect x="561.16388" y="392.20201" width="3" height="82.75532" transform="translate(129.08421 996.24354) rotate(-90)" fill="#fff"/>
    <rect x="518.28622" y="460.51868" width="3" height="17.38278" transform="translate(1039.57244 938.42015) rotate(180)" fill="#fff"/>
    <rect x="518.28622" y="362.12369" width="3" height="75.71929" transform="translate(1039.57244 799.96667) rotate(180)" fill="#fff"/>
    <rect x="518.28622" y="333.04186" width="3" height="3.51919" transform="translate(1039.57244 669.60291) rotate(180)" fill="#fff"/>
    <rect x="518.82283" y="267.9006" width="0.25" height="0.25" transform="translate(1037.89567 536.0512) rotate(180)" fill="#fff"/>
    <g>
      <g>
        <path d="M497.65462,423.94133v53.70515H447.17745V423.94133a3.93613,3.93613,0,0,1,3.86817-3.9921h42.74132A3.93572,3.93572,0,0,1,497.65462,423.94133Z" fill="#fff" opacity="0.1"/>
        <path d="M446.92745,477.90147V423.94133a4.18882,4.18882,0,0,1,4.11817-4.24709h42.74132a4.18873,4.18873,0,0,1,4.11768,4.24709v53.96014m-.25,0H447.17745m3.86817-57.95224a3.93613,3.93613,0,0,0-3.86817,3.9921v53.70515h50.47717V423.94133a3.93572,3.93572,0,0,0-3.86768-3.9921Z" fill="#fff" opacity="0.5"/>
      </g>
      <polygon points="446.338 465.616 426.801 465.616 426.801 477.627 446.338 477.627 446.672 477.627 446.927 477.627 446.927 477.901 426.546 477.901 426.546 465.341 446.927 465.341 446.927 465.616 446.672 465.616 446.338 465.616" fill="#fff" opacity="0.5"/>
      <polygon points="498.494 477.627 518.031 477.627 518.031 465.616 498.494 465.616 498.16 465.616 497.905 465.616 497.905 465.341 518.286 465.341 518.286 477.901 497.905 477.901 497.905 477.627 498.16 477.627 498.494 477.627" fill="#fff" opacity="0.5"/>
      <rect x="426.80129" y="465.61555" width="20.12616" height="12.01102" fill="#fff" opacity="0.1"/>
      <rect x="497.90462" y="465.61555" width="20.12616" height="12.01101" fill="#fff" opacity="0.1"/>
    </g>
    <g>
      <g>
        <path d="M829.66947,425.87226V372.16711h50.47717v53.70515a3.93613,3.93613,0,0,1-3.86817,3.9921H833.53715A3.93572,3.93572,0,0,1,829.66947,425.87226Z" fill="#fff" opacity="0.1"/>
        <path d="M880.39664,371.91212v53.96014a4.18882,4.18882,0,0,1-4.11817,4.24709H833.53715a4.18873,4.18873,0,0,1-4.11768-4.24709V371.91212m.25,0h50.47717m-3.86817,57.95224a3.93613,3.93613,0,0,0,3.86817-3.9921V372.16711H829.66947v53.70515a3.93572,3.93572,0,0,0,3.86768,3.9921Z" fill="#fff" opacity="0.5"/>
      </g>
      <polygon points="880.986 384.198 912.346 384.198 912.346 372.187 880.986 372.187 880.652 372.187 880.397 372.187 880.397 371.912 912.601 371.912 912.601 384.473 880.397 384.473 880.397 384.198 880.652 384.198 880.986 384.198" fill="#fff" opacity="0.5"/>
      <polygon points="828.83 372.187 788.141 372.187 788.141 384.198 828.83 384.198 829.164 384.198 829.419 384.198 829.419 384.473 787.886 384.473 787.886 371.912 829.419 371.912 829.419 372.187 829.164 372.187 828.83 372.187" fill="#fff" opacity="0.5"/>
      <rect x="880.39664" y="372.18702" width="31.94897" height="12.01102" transform="translate(1792.74226 756.38505) rotate(180)" fill="#fff" opacity="0.1"/>
      <rect x="788.14113" y="372.18703" width="41.27834" height="12.01101" transform="translate(1617.56061 756.38506) rotate(180)" fill="#fff" opacity="0.1"/>
    </g>
    <rect x="432.27717" y="223.53784" width="12" height="45.35221" transform="translate(684.49111 -192.06322) rotate(90)" fill="#fff"/>
    <rect x="547.10163" y="222.0975" width="12" height="48.23289" transform="translate(799.31558 -306.88769) rotate(90)" fill="#fff"/>
    <rect x="652.91172" y="232.55221" width="12" height="27.32346" transform="translate(905.12567 -412.69778) rotate(90)" fill="#fff"/>
    <rect x="414.54585" y="240.21394" width="12" height="43.51732" transform="translate(841.09169 523.94521) rotate(180)" fill="#fff"/>
    <rect x="414.54585" y="283.73126" width="12" height="107.6383" transform="translate(841.09169 675.10082) rotate(180)" fill="#fff"/>
    <rect x="414.54585" y="459.40148" width="12" height="24.5" transform="translate(841.09169 943.30295) rotate(180)" fill="#fff"/>
    <rect x="414.54585" y="391.36956" width="12" height="68.03191" transform="translate(841.09169 850.77104) rotate(180)" fill="#d3d3d3" opacity="0.6"/>
    <rect x="386.52989" y="424.63552" width="68.03191" height="1.5" transform="translate(845.93136 4.83967) rotate(90)" fill="#fff"/>
    <rect x="488.96923" y="212.19799" width="12" height="68.03191" transform="translate(248.75529 741.18317) rotate(-90)" fill="#d3d3d3" opacity="0.6"/>
    <rect x="460.95327" y="245.46394" width="68.03191" height="1.5" transform="translate(989.93846 492.42789) rotate(180)" fill="#fff"/>
    <polyline points="669.25 721.589 669.25 777.082 416.046 777.083 416.046 721.589" fill="#fff" opacity="0.2"/>
    <g>
      <line x1="669.25001" y1="727.73344" x2="416.04586" y2="727.7336" fill="none" stroke="#fff" stroke-miterlimit="10" stroke-width="0.2"/>
      <line x1="669.25001" y1="731.53702" x2="416.04586" y2="731.53718" fill="none" stroke="#fff" stroke-miterlimit="10" stroke-width="0.2"/>
      <line x1="669.25001" y1="735.3406" x2="416.04587" y2="735.34076" fill="none" stroke="#fff" stroke-miterlimit="10" stroke-width="0.2"/>
      <line x1="669.25002" y1="739.14418" x2="416.04587" y2="739.14434" fill="none" stroke="#fff" stroke-miterlimit="10" stroke-width="0.2"/>
      <line x1="669.25002" y1="742.94776" x2="416.04587" y2="742.94792" fill="none" stroke="#fff" stroke-miterlimit="10" stroke-width="0.2"/>
      <line x1="669.25003" y1="746.75134" x2="416.04588" y2="746.7515" fill="none" stroke="#fff" stroke-miterlimit="10" stroke-width="0.2"/>
      <line x1="669.25003" y1="750.55492" x2="416.04588" y2="750.55508" fill="none" stroke="#fff" stroke-miterlimit="10" stroke-width="0.2"/>
      <line x1="669.25003" y1="754.3585" x2="416.04588" y2="754.35866" fill="none" stroke="#fff" stroke-miterlimit="10" stroke-width="0.2"/>
      <line x1="669.25004" y1="758.16209" x2="416.04589" y2="758.16225" fill="none" stroke="#fff" stroke-miterlimit="10" stroke-width="0.2"/>
      <line x1="669.25004" y1="761.96567" x2="416.04589" y2="761.96583" fill="none" stroke="#fff" stroke-miterlimit="10" stroke-width="0.2"/>
      <line x1="669.25005" y1="765.76925" x2="416.0459" y2="765.76941" fill="none" stroke="#fff" stroke-miterlimit="10" stroke-width="0.2"/>
      <line x1="669.25005" y1="769.57283" x2="416.0459" y2="769.57299" fill="none" stroke="#fff" stroke-miterlimit="10" stroke-width="0.2"/>
      <line x1="669.25005" y1="773.37641" x2="416.0459" y2="773.37657" fill="none" stroke="#fff" stroke-miterlimit="10" stroke-width="0.2"/>
      <rect x="416.04588" y="723.92994" width="253.20415" height="53.25013" fill="none" stroke="#fff" stroke-miterlimit="10" stroke-width="0.2"/>
    </g>
    <g opacity="0.5">
      <polygon points="416.046 721.589 416.046 777.083 669.25 777.082 669.25 721.589 670.75 721.589 670.75 777.082 670.75 778.582 669.25 778.582 416.046 778.583 414.546 778.583 414.546 777.083 414.546 721.589 416.046 721.589" fill="#fff"/>
    </g>
    <rect x="605.23404" y="212.19799" width="12" height="68.03191" transform="translate(365.02009 857.44798) rotate(-90)" fill="#d3d3d3" opacity="0.6"/>
    <rect x="577.21808" y="245.46394" width="68.03191" height="1.5" transform="translate(1222.46807 492.42789) rotate(180)" fill="#fff"/>
    <rect x="730.75861" y="477.90148" width="152.55319" height="6" transform="translate(1614.07041 961.80295) rotate(180)" fill="#fff"/>
    <rect x="908.84371" y="477.90148" width="3.75734" height="6" transform="translate(1821.44477 961.80295) rotate(180)" fill="#fff"/>
    <rect x="684.62398" y="433.42009" width="94.96277" height="6" transform="translate(1168.52546 -295.68527) rotate(90)" fill="#fff"/>
    <rect x="648.65425" y="382.93871" width="138.48734" height="6" fill="#fff"/>
    <rect x="782.71606" y="365.91211" width="129.885" height="6" fill="#fff"/>
    <rect x="776.37239" y="371.42541" width="17.0266" height="6" transform="translate(1159.3111 -410.46028) rotate(90)" fill="#fff"/>
    <rect x="659.0884" y="369.51318" width="20.85106" height="6" transform="translate(1042.02711 -297.00075) rotate(90)" fill="#fff"/>
    <rect x="610.04154" y="382.93871" width="9.7809" height="6" fill="#fff"/>
    <rect x="627.55149" y="291.2359" width="84.04392" height="6" transform="translate(375.33755 963.80935) rotate(-90)" fill="#fff"/>
    <rect x="755.49265" y="460.05573" width="3" height="18.09043" fill="#fff"/>
    <rect x="745.29901" y="449.86209" width="3" height="23.38729" transform="translate(285.24328 1208.35474) rotate(-90)" fill="#fff"/>
    <rect x="687.49265" y="365.91211" width="3" height="17.0266" fill="#fff"/>
    <rect x="680.03305" y="358.45251" width="3" height="17.9192" transform="translate(314.12094 1048.94517) rotate(-90)" fill="#fff"/>
    <rect x="820.07407" y="267.9006" width="0.25" height="0.25" fill="#fff"/>
    <rect x="894.86974" y="223.53784" width="12" height="45.35221" transform="translate(1147.08368 -654.6558) rotate(90)" fill="#fff"/>
    <rect x="780.04527" y="222.0975" width="12" height="48.23289" transform="translate(1032.25921 -539.83133) rotate(90)" fill="#fff"/>
    <rect x="674.23518" y="232.55221" width="12" height="27.32346" transform="translate(926.44912 -434.02124) rotate(90)" fill="#fff"/>
    <rect x="912.60106" y="240.21394" width="12" height="43.51732" fill="#fff"/>
    <rect x="912.60106" y="283.73126" width="12" height="107.6383" fill="#fff"/>
    <rect x="912.60106" y="459.40148" width="12" height="24.5" fill="#fff"/>
    <rect x="912.60106" y="391.36956" width="12" height="68.03191" fill="#d3d3d3" opacity="0.6"/>
    <rect x="884.5851" y="424.63552" width="68.03191" height="1.5" transform="translate(1343.98658 -493.21554) rotate(90)" fill="#fff"/>
    <rect x="838.17767" y="212.19799" width="12" height="68.03191" transform="translate(597.96373 1090.39162) rotate(-90)" fill="#d3d3d3" opacity="0.6"/>
    <rect x="810.16172" y="245.46394" width="68.03191" height="1.5" fill="#fff"/>
    <g opacity="0.5">
      <polygon points="670.75 142.917 1022.261 142.917 1022.261 240.214 1023.761 240.214 1023.761 142.917 1023.761 141.417 1022.261 141.417 670.75 141.417 670.75 142.917" fill="#fff"/>
    </g>
    <g opacity="0.5">
      <rect x="316.2406" y="376.26678" width="98.30525" height="1.5" fill="#fff"/>
    </g>
    <g opacity="0.5">
      <polyline points="317.739 376.267 317.739 142.917 669.25 142.917 670.75 142.917 670.75 141.417 669.25 141.417 317.739 141.417 316.239 141.417 316.239 142.917 316.239 376.27" fill="#fff"/>
    </g>
    <polygon points="670.75 143.022 317.739 143.022 317.739 240.121 317.719 240.121 317.719 376.27 414.817 376.27 414.817 240.121 670.75 240.121 1022.261 240.121 1022.261 143.022 670.75 143.022" fill="#fff" opacity="0.2"/>
    <g opacity="0.5">
      <rect x="924.60106" y="240.12046" width="99.1598" height="1.5" fill="#fff"/>
    </g>
    <rect x="721.91287" y="212.19799" width="12" height="68.03191" transform="translate(481.69892 974.12681) rotate(-90)" fill="#d3d3d3" opacity="0.6"/>
    <rect x="693.89691" y="245.46394" width="68.03191" height="1.5" fill="#fff"/>
    <polyline points="979.733 721.589 924.602 721.589 924.601 612.992 979.732 612.992" fill="#fff" opacity="0.2"/>
    <polyline points="979.733 721.589 979.733 777.082 670.75 777.082 670.75 721.589" fill="#fff" opacity="0.2"/>
    <rect x="699.61866" y="507.38818" width="64.9734" height="6" transform="translate(221.71719 1242.49354) rotate(-90)" fill="#fff"/>
    <rect x="666.57345" y="572.86424" width="68.53191" height="6" fill="#fff"/>
    <rect x="602.71107" y="639.72663" width="133.72477" height="6" transform="translate(1312.30008 -26.84683) rotate(90)" fill="#fff"/>
    <rect x="732.42762" y="572.86424" width="3" height="27.32979" fill="#fff"/>
    <rect x="794.72795" y="625.66211" width="3" height="83.92689" fill="#fff"/>
    <rect x="794.72795" y="539.87488" width="3" height="60.33074" fill="#fff"/>
    <rect x="732.42762" y="625.61956" width="3" height="3.53325" fill="#fff"/>
    <rect x="755.49265" y="483.65679" width="3" height="18.09043" fill="#fff"/>
    <rect x="745.29901" y="488.55358" width="3" height="23.38729" transform="translate(1247.04623 -246.55179) rotate(90)" fill="#fff"/>
    <rect x="687.49265" y="578.86424" width="3" height="17.84574" fill="#fff"/>
    <rect x="680.03305" y="586.25039" width="3" height="17.9192" transform="translate(1276.74304 -86.32307) rotate(90)" fill="#fff"/>
    <g>
      <g>
        <path d="M836.935,693.96249H822.80953V671.90731H836.935a3.8958,3.8958,0,0,1,3.91407,3.86817v14.31933A3.89539,3.89539,0,0,1,836.935,693.96249Z" fill="#fff" opacity="0.1"/>
        <rect x="818.60933" y="671.90731" width="3.9502" height="22.05518" fill="#fff" opacity="0.2"/>
        <path d="M836.935,694.21249H818.35933V671.65731H836.935a4.146,4.146,0,0,1,4.16407,4.11817v14.31933A4.14586,4.14586,0,0,1,836.935,694.21249Zm-14.37544-22.30518h-3.9502v22.05518h3.9502Zm18.28951,3.86817a3.8958,3.8958,0,0,0-3.91407-3.86817H822.80953v22.05518H836.935a3.89539,3.89539,0,0,0,3.91407-3.86768Z" fill="#fff" opacity="0.5"/>
      </g>
      <g>
        <path d="M836.935,657.18057H822.80953V635.1254H836.935a3.8958,3.8958,0,0,1,3.91407,3.86816V653.3129A3.89539,3.89539,0,0,1,836.935,657.18057Z" fill="#fff" opacity="0.1"/>
        <rect x="818.60933" y="635.1254" width="3.9502" height="22.05518" fill="#fff" opacity="0.2"/>
        <path d="M836.935,657.43057H818.35933V634.8754H836.935a4.146,4.146,0,0,1,4.16407,4.11816V653.3129A4.14586,4.14586,0,0,1,836.935,657.43057ZM822.55953,635.1254h-3.9502v22.05517h3.9502Zm18.28951,3.86816a3.8958,3.8958,0,0,0-3.91407-3.86816H822.80953v22.05517H836.935a3.89539,3.89539,0,0,0,3.91407-3.86767Z" fill="#fff" opacity="0.5"/>
      </g>
    </g>
    <g>
      <path d="M884.80038,629.209h17.07129V699.8789H884.80038a3.8958,3.8958,0,0,1-3.91406-3.86816V633.07666A3.89539,3.89539,0,0,1,884.80038,629.209Z" fill="#fff" opacity="0.1"/>
      <rect x="902.12167" y="629.20898" width="3.9502" height="70.66992" fill="#fff" opacity="0.2"/>
      <path d="M884.80038,628.959h21.52149V700.1289H884.80038a4.146,4.146,0,0,1-4.16406-4.11816V633.07666A4.14586,4.14586,0,0,1,884.80038,628.959Zm17.32129,70.91992h3.9502V629.209h-3.9502Zm-21.23535-3.86816a3.8958,3.8958,0,0,0,3.91406,3.86816h17.07129V629.209H884.80038a3.89539,3.89539,0,0,0-3.91406,3.86768Z" fill="#fff" opacity="0.5"/>
    </g>
    <g>
      <g opacity="0.5">
        <path d="M857.79815,654.62552a9.91843,9.91843,0,1,1-9.9184,9.91843,9.91841,9.91841,0,0,1,9.9184-9.91843m0-.25A10.16843,10.16843,0,1,0,867.9666,664.544a10.17992,10.17992,0,0,0-10.16845-10.16843Z" fill="#fff"/>
      </g>
      <circle cx="857.79817" cy="664.54394" r="9.91843" fill="#fff" opacity="0.1"/>
    </g>
    <g>
      <g>
        <path d="M830.935,329.10923H816.80953V307.05406H830.935a3.8958,3.8958,0,0,1,3.91407,3.86816v14.31934A3.89539,3.89539,0,0,1,830.935,329.10923Z" fill="#fff" opacity="0.1"/>
        <rect x="812.60933" y="307.05406" width="3.9502" height="22.05518" fill="#fff" opacity="0.2"/>
        <path d="M830.935,329.35923H812.35933V306.80406H830.935a4.146,4.146,0,0,1,4.16407,4.11816v14.31934A4.14586,4.14586,0,0,1,830.935,329.35923Zm-14.37544-22.30517h-3.9502v22.05517h3.9502Zm18.28951,3.86816a3.8958,3.8958,0,0,0-3.91407-3.86816H816.80953v22.05517H830.935a3.89539,3.89539,0,0,0,3.91407-3.86767Z" fill="#fff" opacity="0.5"/>
      </g>
      <g>
        <path d="M830.935,292.32732H816.80953V270.27214H830.935a3.8958,3.8958,0,0,1,3.91407,3.86817v14.31933A3.89539,3.89539,0,0,1,830.935,292.32732Z" fill="#fff" opacity="0.1"/>
        <rect x="812.60933" y="270.27214" width="3.9502" height="22.05518" fill="#fff" opacity="0.2"/>
        <path d="M830.935,292.57732H812.35933V270.02214H830.935a4.146,4.146,0,0,1,4.16407,4.11817v14.31933A4.14586,4.14586,0,0,1,830.935,292.57732Zm-14.37544-22.30518h-3.9502v22.05518h3.9502Zm18.28951,3.86817a3.8958,3.8958,0,0,0-3.91407-3.86817H816.80953v22.05518H830.935a3.89539,3.89539,0,0,0,3.91407-3.86768Z" fill="#fff" opacity="0.5"/>
      </g>
    </g>
    <g>
      <path d="M884.80038,264.35573h17.07129v70.66992H884.80038a3.8958,3.8958,0,0,1-3.91406-3.86817V268.2234A3.89538,3.89538,0,0,1,884.80038,264.35573Z" fill="#fff" opacity="0.1"/>
      <rect x="902.12167" y="264.35573" width="3.9502" height="70.66992" fill="#fff" opacity="0.2"/>
      <path d="M884.80038,264.10573h21.52149v71.16992H884.80038a4.146,4.146,0,0,1-4.16406-4.11817V268.2234A4.14585,4.14585,0,0,1,884.80038,264.10573Zm17.32129,70.91992h3.9502V264.35573h-3.9502Zm-21.23535-3.86817a3.8958,3.8958,0,0,0,3.91406,3.86817h17.07129V264.35573H884.80038a3.89538,3.89538,0,0,0-3.91406,3.86767Z" fill="#fff" opacity="0.5"/>
    </g>
    <g>
      <g opacity="0.5">
        <path d="M857.79815,289.77226a9.91843,9.91843,0,1,1-9.9184,9.91843,9.91842,9.91842,0,0,1,9.9184-9.91843m0-.25a10.16843,10.16843,0,1,0,10.16845,10.16843,10.17993,10.17993,0,0,0-10.16845-10.16843Z" fill="#fff"/>
      </g>
      <circle cx="857.79817" cy="299.69069" r="9.91843" fill="#fff" opacity="0.1"/>
    </g>
    <g>
      <polygon points="877.711 571.83 877.711 565.893 866.136 565.893 866.136 571.83 865.886 571.83 865.886 565.893 865.886 565.643 866.136 565.643 877.711 565.643 877.961 565.643 877.961 565.893 877.961 571.83 877.711 571.83" fill="#fff" opacity="0.5"/>
      <rect x="852.1043" y="566.14882" width="22.59574" height="33.95745" transform="translate(1446.52971 -280.27463) rotate(90)" fill="#fff" opacity="0.1"/>
      <g opacity="0.1">
        <rect x="851.91281" y="563.07435" width="5.93617" height="11.57447" transform="translate(1423.74247 -286.01931) rotate(90)" fill="#fff"/>
      </g>
      <g opacity="0.5">
        <path d="M880.13091,572.07965v22.09577H846.67345V572.07965h33.45746m.25-.25H846.42345v22.59577h33.95746V571.82965Z" fill="#fff"/>
      </g>
      <polygon points="860.668 571.83 860.668 565.893 849.094 565.893 849.094 571.83 848.844 571.83 848.844 565.893 848.844 565.643 849.094 565.643 860.668 565.643 860.918 565.643 860.918 565.893 860.918 571.83 860.668 571.83" fill="#fff" opacity="0.5"/>
      <g opacity="0.1">
        <rect x="868.95535" y="563.07435" width="5.93617" height="11.57447" transform="translate(1440.78502 -303.06186) rotate(90)" fill="#fff"/>
      </g>
      <polygon points="849.094 594.425 849.094 600.362 860.668 600.362 860.668 594.425 860.918 594.425 860.918 600.362 860.918 600.612 860.668 600.612 849.094 600.612 848.844 600.612 848.844 600.362 848.844 594.425 849.094 594.425" fill="#fff" opacity="0.5"/>
      <g opacity="0.1">
        <rect x="868.95536" y="591.60626" width="5.93617" height="11.57447" transform="translate(274.52995 1469.31695) rotate(-90)" fill="#fff"/>
      </g>
      <polygon points="866.136 594.425 866.136 600.362 877.711 600.362 877.711 594.425 877.961 594.425 877.961 600.362 877.961 600.612 877.711 600.612 866.136 600.612 865.886 600.612 865.886 600.362 865.886 594.425 866.136 594.425" fill="#fff" opacity="0.5"/>
      <g opacity="0.1">
        <rect x="851.91282" y="591.60626" width="5.93617" height="11.57447" transform="translate(257.4874 1452.2744) rotate(-90)" fill="#fff"/>
      </g>
    </g>
    <g>
      <polygon points="760.112 272.683 760.112 266.747 748.538 266.747 748.538 272.683 748.288 272.683 748.288 266.747 748.288 266.497 748.538 266.497 760.112 266.497 760.362 266.497 760.362 266.747 760.362 272.683 760.112 272.683" fill="#fff" opacity="0.5"/>
      <rect x="734.5056" y="267.00265" width="22.59574" height="33.95745" transform="translate(1029.78484 -461.8221) rotate(90)" fill="#fff" opacity="0.1"/>
      <g opacity="0.1">
        <rect x="734.31411" y="263.92818" width="5.93617" height="11.57447" transform="translate(1006.99761 -467.56678) rotate(90)" fill="#fff"/>
      </g>
      <g opacity="0.5">
        <path d="M762.53221,272.9335v22.09574H729.07476V272.9335h33.45745m.25-.25H728.82476v22.59574h33.95745V272.6835Z" fill="#fff"/>
      </g>
      <polygon points="743.069 272.683 743.069 266.747 731.495 266.747 731.495 272.683 731.245 272.683 731.245 266.747 731.245 266.497 731.495 266.497 743.069 266.497 743.319 266.497 743.319 266.747 743.319 272.683 743.069 272.683" fill="#fff" opacity="0.5"/>
      <g opacity="0.1">
        <rect x="751.35666" y="263.92818" width="5.93617" height="11.57447" transform="translate(1024.04016 -484.60933) rotate(90)" fill="#fff"/>
      </g>
      <polygon points="731.495 295.279 731.495 301.216 743.069 301.216 743.069 295.279 743.319 295.279 743.319 301.216 743.319 301.466 743.069 301.466 731.495 301.466 731.245 301.466 731.245 301.216 731.245 295.279 731.495 295.279" fill="#fff" opacity="0.5"/>
      <g opacity="0.1">
        <rect x="751.35667" y="292.4601" width="5.93617" height="11.57447" transform="translate(456.07742 1052.57208) rotate(-90)" fill="#fff"/>
      </g>
      <polygon points="748.538 295.279 748.538 301.216 760.112 301.216 760.112 295.279 760.362 295.279 760.362 301.216 760.362 301.466 760.112 301.466 748.538 301.466 748.288 301.466 748.288 301.216 748.288 295.279 748.538 295.279" fill="#fff" opacity="0.5"/>
      <g opacity="0.1">
        <rect x="734.31412" y="292.4601" width="5.93617" height="11.57447" transform="translate(439.03487 1035.52953) rotate(-90)" fill="#fff"/>
      </g>
    </g>
    <g>
      <rect x="797.72793" y="633.32175" width="12.30611" height="68.15272" transform="translate(1607.76247 1334.79561) rotate(179.99996)" fill="#fff" opacity="0.1"/>
      <g opacity="0.5">
        <path d="M809.78405,633.57175v67.65271l-11.8061,0V633.57175h11.8061m.25-.25H797.728v68.15274l12.3061,0V633.32175Z" fill="#fff"/>
      </g>
    </g>
    <g>
      <rect x="829.43362" y="527.75579" width="51.14348" height="22.81725" transform="translate(1710.01076 1078.32877) rotate(180)" fill="#fff" opacity="0.1"/>
      <g opacity="0.5">
        <path d="M880.32708,528.00579V550.323H829.68364V528.00579h50.64344m.25-.25H829.43364V550.573h51.14344V527.75579Z" fill="#fff"/>
      </g>
    </g>
    <g>
      <rect x="668.19398" y="600.86548" width="32.70401" height="23.87175" transform="translate(1297.34634 -71.74553) rotate(89.99992)" fill="#fff" opacity="0.1"/>
      <g opacity="0.5">
        <path d="M696.23186,596.69934v32.204h-23.3717l-.00006-32.204h23.37176m.25-.25H672.6101l.00006,32.704h23.8717v-32.704Z" fill="#fff"/>
      </g>
    </g>
    <g>
      <g opacity="0.5">
        <path d="M739.43764,515.93142v9.7h9.65015a4.85,4.85,0,0,0,0-9.7h-9.65015m-.25-.25h9.90015a5.1,5.1,0,0,1,0,10.2h-9.90015v-10.2Z" fill="#fff"/>
      </g>
      <g opacity="0.5">
        <polygon points="739.435 513.698 735.105 513.698 735.105 527.865 739.435 527.865 739.435 525.882 739.185 525.882 739.185 527.615 735.355 527.615 735.355 513.948 739.185 513.948 739.185 515.681 739.435 515.681 739.435 513.698 739.435 513.698" fill="#fff"/>
      </g>
      <path d="M739.43764,515.93142v9.7h9.65015a4.85,4.85,0,0,0,0-9.7h-9.65015" fill="#fff" opacity="0.1"/>
      <rect x="735.35537" y="513.94798" width="3.83228" height="13.66699" transform="translate(1474.54301 1041.56295) rotate(180)" fill="#fff" opacity="0.1"/>
    </g>
    <g>
      <g opacity="0.5">
        <path d="M562.41489,473.5692h9.7v-9.65015a4.85,4.85,0,0,0-9.7,0v9.65015m-.25.25v-9.90015a5.1,5.1,0,0,1,10.2,0v9.90015Z" fill="#fff"/>
      </g>
      <g opacity="0.5">
        <polygon points="574.348 473.571 572.365 473.571 572.365 473.821 574.098 473.821 574.098 477.651 560.431 477.651 560.431 473.821 562.165 473.821 562.165 473.571 560.181 473.571 560.181 477.901 574.348 477.901 574.348 473.571 574.348 473.571" fill="#fff"/>
      </g>
      <path d="M562.41489,473.5692h9.7v-9.65015a4.85,4.85,0,0,0-9.7,0v9.65015" fill="#fff" opacity="0.1"/>
      <rect x="565.3488" y="468.90184" width="3.83228" height="13.66699" transform="translate(1043.00008 -91.52977) rotate(89.99998)" fill="#fff" opacity="0.1"/>
    </g>
    <g>
      <g opacity="0.5">
        <path d="M566.35146,427.77038h9.7l0-9.65015a4.85,4.85,0,0,0-9.7,0v9.65015m-.25.25v-9.90015a5.1,5.1,0,0,1,10.2,0l0,9.90015Z" fill="#fff"/>
      </g>
      <g opacity="0.5">
        <polygon points="578.285 427.773 576.302 427.773 576.302 428.023 578.035 428.023 578.035 431.853 564.368 431.853 564.368 428.023 566.101 428.023 566.101 427.773 564.118 427.773 564.118 432.103 578.285 432.103 578.285 427.773 578.285 427.773" fill="#fff"/>
      </g>
      <path d="M566.35146,427.77038h9.7l0-9.65015a4.85,4.85,0,0,0-9.7,0v9.65015" fill="#fff" opacity="0.1"/>
      <rect x="569.28538" y="423.10302" width="3.83228" height="13.66699" transform="translate(1001.13784 -141.26515) rotate(89.99998)" fill="#fff" opacity="0.1"/>
    </g>
    <g>
      <g opacity="0.5">
        <path d="M766.83912,473.57051h9.7v-9.65015a4.85,4.85,0,0,0-9.7,0v9.65014m-.25.25v-9.90014a5.1,5.1,0,0,1,10.2,0v9.90015Z" fill="#fff"/>
      </g>
      <g opacity="0.5">
        <polygon points="778.773 473.573 776.789 473.573 776.789 473.823 778.523 473.823 778.523 477.653 764.856 477.653 764.856 473.823 766.589 473.823 766.589 473.573 764.606 473.573 764.606 477.903 778.773 477.903 778.773 473.573 778.773 473.573" fill="#fff"/>
      </g>
      <path d="M766.83912,473.57051h9.7v-9.65015a4.85,4.85,0,0,0-9.7,0v9.65014" fill="#fff" opacity="0.1"/>
      <rect x="769.77303" y="468.90315" width="3.83228" height="13.66699" transform="translate(1247.42556 -295.95269) rotate(89.99998)" fill="#fff" opacity="0.1"/>
    </g>
    <g>
      <rect x="767.7366" y="570.11823" width="36.61743" height="16.86013" transform="matrix(0, -1, 1, 0, 207.49726, 1364.59378)" fill="#fff" opacity="0.1"/>
      <rect x="777.61545" y="543.12726" width="16.85963" height="16.86013" transform="translate(234.48821 1337.60278) rotate(-90.00002)" fill="#fff" opacity="0.1"/>
      <g opacity="0.5">
        <path d="M794.728,542.8749l-17.36535,0v17.36484H794.728V542.8749Zm-17.11273,17.11225V543.12752l16.86011,0v16.85964Z" fill="#fff"/>
      </g>
      <g opacity="0.5">
        <polygon points="794.728 560.24 794.475 560.24 794.475 596.857 777.615 596.857 777.615 560.24 777.363 560.24 777.363 597.151 794.728 597.151 794.728 560.24 794.728 560.24" fill="#fff"/>
      </g>
      <g opacity="0.5">
        <path d="M786.045,545.02405a6.53328,6.53328,0,1,0,6.53278,6.53326,6.54032,6.54032,0,0,0-6.53278-6.53326Zm0,12.81393a6.28066,6.28066,0,1,1,6.28015-6.28067A6.28728,6.28728,0,0,1,786.045,557.838Z" fill="#fff"/>
      </g>
      <circle cx="786.04502" cy="551.55733" r="6.28042" fill="#fff" opacity="0.1"/>
    </g>
    <g>
      <rect x="554.69941" y="365.82597" width="16.85963" height="16.86013" transform="translate(1126.25859 748.51187) rotate(179.99998)" fill="#fff" opacity="0.1"/>
      <g opacity="0.5">
        <path d="M571.81163,365.57336l-17.36483,0v17.36534l17.36486,0,0-17.36534ZM554.69942,382.6861V365.826l16.85962,0V382.6861Z" fill="#fff"/>
      </g>
      <g opacity="0.5">
        <polygon points="616.844 365.573 571.812 365.573 571.812 365.826 616.485 365.826 616.485 382.686 571.812 382.686 571.812 382.938 616.844 382.938 616.844 365.573 616.844 365.573" fill="#fff"/>
      </g>
      <g opacity="0.5">
        <path d="M563.12923,367.7235a6.53279,6.53279,0,1,0,6.53326,6.53278,6.54037,6.54037,0,0,0-6.53326-6.53278Zm0,12.813a6.28018,6.28018,0,1,1,6.28067-6.28018,6.28726,6.28726,0,0,1-6.28067,6.28018Z" fill="#fff"/>
      </g>
      <rect x="571.8118" y="365.82554" width="44.67186" height="16.86013" transform="translate(1188.29555 748.51105) rotate(179.99999)" fill="#fff" opacity="0.1"/>
      <circle cx="563.12923" cy="374.25628" r="6.28042" fill="#fff" opacity="0.1"/>
    </g>
    <rect x="894.86974" y="692.9129" width="12" height="45.35221" transform="translate(185.28073 1616.45875) rotate(-90)" fill="#fff"/>
    <rect x="780.04527" y="691.47256" width="12" height="48.23289" transform="translate(70.45626 1501.63428) rotate(-90)" fill="#fff"/>
    <polygon points="666.573 709.589 667.427 721.589 693.897 721.589 693.897 709.589 666.573 709.589" fill="#fff"/>
    <rect x="912.60106" y="681.02382" width="12" height="40.56519" fill="#fff"/>
    <rect x="912.60106" y="570.43339" width="12" height="42.55851" fill="#fff"/>
    <rect x="912.60106" y="477.90148" width="12" height="24.5" fill="#fff"/>
    <rect x="912.60106" y="612.9919" width="12" height="68.03191" fill="#d3d3d3" opacity="0.6"/>
    <rect x="884.5851" y="646.25786" width="68.03191" height="1.5" transform="translate(271.5932 1565.60892) rotate(-90)" fill="#fff"/>
    <rect x="912.60106" y="502.40148" width="12" height="68.03191" fill="#d3d3d3" opacity="0.6"/>
    <rect x="884.5851" y="535.66743" width="68.03191" height="1.5" transform="translate(382.18363 1455.01849) rotate(-90)" fill="#fff"/>
    <rect x="838.17767" y="681.57305" width="12" height="68.03191" transform="translate(1559.76668 -128.58867) rotate(90)" fill="#d3d3d3" opacity="0.6"/>
    <rect x="810.16172" y="714.83901" width="68.03191" height="1.5" fill="#fff"/>
    <g opacity="0.5">
      <polygon points="670.75 721.589 670.75 777.082 979.733 777.082 979.733 612.992 981.233 612.992 981.233 777.082 981.233 778.582 979.733 778.582 670.75 778.582 669.25 778.582 669.25 777.082 669.25 721.589 670.75 721.589" fill="#fff"/>
    </g>
    <rect x="924.60106" y="611.4919" width="56.63152" height="1.5" fill="#fff" opacity="0.5"/>
    <rect x="721.91287" y="681.57305" width="12" height="68.03191" transform="translate(1443.50188 -12.32386) rotate(90)" fill="#d3d3d3" opacity="0.6"/>
    <rect x="693.89691" y="714.83901" width="68.03191" height="1.5" fill="#fff"/>
    <g>
      <polygon points="930.292 612.992 930.292 727.548 670.756 727.548 670.756 723.738 926.482 723.738 926.482 612.992 930.292 612.992" fill="none" stroke="#fff" stroke-miterlimit="10" stroke-width="0.2"/>
      <polygon points="979.733 612.992 979.733 776.992 670.756 776.992 670.756 773.282 975.933 773.282 975.933 612.992 979.733 612.992" fill="none" stroke="#fff" stroke-miterlimit="10" stroke-width="0.2"/>
      <polygon points="934.092 612.992 934.092 731.442 670.756 731.442 670.756 727.642 930.292 727.642 930.292 612.992 934.092 612.992" fill="none" stroke="#fff" stroke-miterlimit="10" stroke-width="0.2"/>
      <polygon points="937.903 612.992 937.893 723.832 937.893 735.252 670.756 735.252 670.756 731.442 934.092 731.442 934.092 612.992 937.903 612.992" fill="none" stroke="#fff" stroke-miterlimit="10" stroke-width="0.2"/>
      <polygon points="941.703 612.992 941.703 739.052 670.756 739.052 670.756 735.252 937.893 735.252 937.893 723.832 937.903 612.992 941.703 612.992" fill="none" stroke="#fff" stroke-miterlimit="10" stroke-width="0.2"/>
      <polygon points="945.503 612.992 945.503 742.852 670.756 742.852 670.756 739.052 941.703 739.052 941.703 612.992 945.503 612.992" fill="none" stroke="#fff" stroke-miterlimit="10" stroke-width="0.2"/>
      <polygon points="949.312 612.992 949.312 746.662 670.756 746.662 670.756 742.852 945.503 742.852 945.503 612.992 949.312 612.992" fill="none" stroke="#fff" stroke-miterlimit="10" stroke-width="0.2"/>
      <polygon points="953.112 612.992 953.112 750.462 670.756 750.462 670.756 746.662 949.312 746.662 949.312 612.992 953.112 612.992" fill="none" stroke="#fff" stroke-miterlimit="10" stroke-width="0.2"/>
      <polygon points="975.933 612.992 975.933 773.282 670.756 773.282 670.756 769.482 972.133 769.482 972.133 612.992 975.933 612.992" fill="none" stroke="#fff" stroke-miterlimit="10" stroke-width="0.2"/>
      <line x1="670.75568" y1="777.08219" x2="670.75568" y2="776.99219" fill="none" stroke="#fff" stroke-miterlimit="10" stroke-width="0.2"/>
      <polygon points="956.913 612.992 956.913 754.262 670.756 754.262 670.756 750.462 953.112 750.462 953.112 612.992 956.913 612.992" fill="none" stroke="#fff" stroke-miterlimit="10" stroke-width="0.2"/>
      <polygon points="972.133 612.992 972.133 769.482 670.756 769.482 670.756 765.672 968.322 765.672 968.322 612.992 972.133 612.992" fill="none" stroke="#fff" stroke-miterlimit="10" stroke-width="0.2"/>
      <polygon points="968.322 612.992 968.322 765.672 670.756 765.672 670.756 761.872 964.523 761.872 964.523 612.992 968.322 612.992" fill="none" stroke="#fff" stroke-miterlimit="10" stroke-width="0.2"/>
      <polygon points="964.523 612.992 964.523 761.872 670.756 761.872 670.756 758.072 960.723 758.072 960.723 612.992 964.523 612.992" fill="none" stroke="#fff" stroke-miterlimit="10" stroke-width="0.2"/>
      <polygon points="960.723 612.992 960.723 758.072 670.756 758.072 670.756 754.262 956.913 754.262 956.913 612.992 960.723 612.992" fill="none" stroke="#fff" stroke-miterlimit="10" stroke-width="0.2"/>
    </g>
    <g>
      <rect x="836.65457" y="529.19007" width="17.1618" height="17.1618" fill="#fff" opacity="0.1"/>
      <g>
        <circle cx="841.23341" cy="533.76313" r="2.71813" fill="none" stroke="#fff" stroke-miterlimit="10" stroke-width="0.25" opacity="0.5"/>
        <circle cx="849.23753" cy="533.76313" r="2.71813" fill="none" stroke="#fff" stroke-miterlimit="10" stroke-width="0.25" opacity="0.5"/>
        <circle cx="841.23341" cy="541.77882" r="2.71813" fill="none" stroke="#fff" stroke-miterlimit="10" stroke-width="0.25" opacity="0.5"/>
        <circle cx="849.23753" cy="541.77882" r="2.71813" fill="none" stroke="#fff" stroke-miterlimit="10" stroke-width="0.25" opacity="0.5"/>
      </g>
      <g opacity="0.5">
        <path d="M853.94226,546.47759H836.52861V529.06394h17.41365Zm-17.16186-.25179h16.91007V529.31573H836.7804Z" fill="#fff"/>
      </g>
    </g>
    <g>
      <rect x="711.76637" y="316.706" width="51.14348" height="22.81725" transform="translate(1474.67624 656.2292) rotate(180)" fill="#fff" opacity="0.1"/>
      <g opacity="0.5">
        <path d="M762.65984,316.956v22.31724l-50.64349,0V316.956h50.64349m.25-.25H711.76635v22.81725l51.14349,0V316.706Z" fill="#fff"/>
      </g>
    </g>
    <g>
      <rect x="728.88748" y="320.78815" width="17.1618" height="17.1618" fill="#fff" opacity="0.1"/>
      <g>
        <circle cx="733.46632" cy="325.3612" r="2.71813" fill="none" stroke="#fff" stroke-miterlimit="10" stroke-width="0.25" opacity="0.5"/>
        <circle cx="741.47044" cy="325.3612" r="2.71813" fill="none" stroke="#fff" stroke-miterlimit="10" stroke-width="0.25" opacity="0.5"/>
        <circle cx="733.46632" cy="333.37689" r="2.71813" fill="none" stroke="#fff" stroke-miterlimit="10" stroke-width="0.25" opacity="0.5"/>
        <circle cx="741.47044" cy="333.37689" r="2.71813" fill="none" stroke="#fff" stroke-miterlimit="10" stroke-width="0.25" opacity="0.5"/>
      </g>
      <g opacity="0.5">
        <path d="M746.17517,338.07566H728.76152V320.662h17.41365Zm-17.16186-.25179h16.91007V320.9138H729.01331Z" fill="#fff"/>
      </g>
    </g>
    <g>
      <rect x="671.62707" y="603.89999" width="26.79502" height="18.06379" transform="translate(1297.95554 -72.09352) rotate(89.99992)" fill="#fff" opacity="0.1"/>
      <g opacity="0.5">
        <path d="M693.80645,599.78437l.00006,26.295-17.56378,0-.00007-26.295,17.56379,0m.25-.25-18.06379,0,.00007,26.795,18.06378,0-.00006-26.795Z" fill="#fff"/>
      </g>
    </g>
    <g>
      <g>
        <rect x="605.58184" y="252.21394" width="42.50662" height="19.50429" transform="translate(1253.67032 523.93213) rotate(180)" fill="#fff" opacity="0.1"/>
        <g opacity="0.5">
          <path d="M647.83843,252.46394l.00006,19.00429-42.00665,0V252.464l42.00659,0m.25-.25-42.50659,0v19.50429l42.50665,0-.00006-19.50429Z" fill="#fff"/>
        </g>
      </g>
      <g>
        <rect x="620.96471" y="271.71824" width="11.45745" height="5.88829" transform="translate(1253.3869 549.3247) rotate(179.99999)" fill="#fff" opacity="0.1"/>
        <polyline points="620.965 271.718 620.965 277.607 632.422 277.607 632.422 271.718" fill="none" stroke="#fff" stroke-miterlimit="10" stroke-width="0.25" opacity="0.5"/>
      </g>
    </g>
    <g>
      <g>
        <rect x="479.53707" y="252.21394" width="42.50662" height="19.50429" transform="translate(1001.58077 523.93214) rotate(180)" fill="#fff" opacity="0.1"/>
        <g opacity="0.5">
          <path d="M521.79369,252.46394v19.00429l-42.00662,0V252.464l42.00662,0m.25-.25-42.50662,0v19.50429l42.50662,0V252.21394Z" fill="#fff"/>
        </g>
      </g>
      <g>
        <rect x="494.91993" y="271.71824" width="11.45745" height="5.88829" transform="translate(1001.29735 549.32471) rotate(179.99999)" fill="#fff" opacity="0.1"/>
        <polyline points="494.92 271.718 494.92 277.607 506.377 277.607 506.377 271.718" fill="none" stroke="#fff" stroke-miterlimit="10" stroke-width="0.25" opacity="0.5"/>
      </g>
    </g>
    <g>
      <rect x="582.89561" y="437.47329" width="18.90457" height="20.18882" fill="#fff" opacity="0.1"/>
      <g opacity="0.5">
        <path d="M601.55019,437.72328v19.68883H583.14562V437.72328h18.40457m.25-.25H582.89562v20.18883h18.90457V437.47328Z" fill="#fff"/>
      </g>
    </g>
    <g>
      <path d="M551.77989,596.57125a26.09975,26.09975,0,0,1-6.549,17.18l-19.27715-17.3056" fill="none" stroke="#fff" stroke-miterlimit="10" stroke-width="0.25" opacity="0.5"/>
      <path d="M573.70533,534.14757a23.153,23.153,0,0,0-5.80955-15.24032l-17.17222,15.44122" fill="none" stroke="#fff" stroke-miterlimit="10" stroke-width="0.25" opacity="0.5"/>
      <path d="M518.30958,546.19124a25.89772,25.89772,0,0,0-17.04708,6.4983l17.17171,19.128" fill="none" stroke="#fff" stroke-miterlimit="10" stroke-width="0.25" opacity="0.5"/>
      <path d="M604.02643,573.00593a30.05977,30.05977,0,0,1-19.78668-7.54263l19.93133-22.202" fill="none" stroke="#fff" stroke-miterlimit="10" stroke-width="0.25" opacity="0.5"/>
    </g>
    <path d="M774.34032,632.07315a26.09972,26.09972,0,0,1-6.549,17.18L748.5142,631.94757" fill="none" stroke="#fff" stroke-miterlimit="10" stroke-width="0.25" opacity="0.5"/>
    <path d="M774.341,539.96329a23.153,23.153,0,0,0-5.80955-15.24032l-17.17221,15.44122" fill="none" stroke="#fff" stroke-miterlimit="10" stroke-width="0.25" opacity="0.5"/>
    <path d="M521.28351,460.64381a23.15293,23.15293,0,0,0,15.24032-5.80956L521.0826,437.662" fill="none" stroke="#fff" stroke-miterlimit="10" stroke-width="0.25" opacity="0.5"/>
    <path d="M784.89984,431.35778a23.15294,23.15294,0,0,0-15.24033,5.80956l15.44123,17.17221" fill="none" stroke="#fff" stroke-miterlimit="10" stroke-width="0.25" opacity="0.5"/>
    <path d="M732.483,600.06832a25.89777,25.89777,0,0,0-17.04709,6.49831l17.17171,19.128" fill="none" stroke="#fff" stroke-miterlimit="10" stroke-width="0.25" opacity="0.5"/>
    <path d="M908.96791,478.06827a26.13356,26.13356,0,0,0-6.55748-17.20231L883.10829,478.194" fill="none" stroke="#fff" stroke-miterlimit="10" stroke-width="0.25" opacity="0.5"/>
    <path d="M797.64962,600.08149a25.98845,25.98845,0,0,1,17.10683,6.52108l-17.23188,19.195" fill="none" stroke="#fff" stroke-miterlimit="10" stroke-width="0.25" opacity="0.5"/>
    <path d="M672.4989,336.13431a26.40327,26.40327,0,0,1,17.37986,6.62515l-17.50691,19.50136" fill="none" stroke="#fff" stroke-miterlimit="10" stroke-width="0.25" opacity="0.5"/>
    <path d="M518.27659,362.24615a26.03443,26.03443,0,0,1-17.13705-6.53259l17.26233-19.22891" fill="none" stroke="#fff" stroke-miterlimit="10" stroke-width="0.25" opacity="0.5"/>
    <path d="M524.736,330.07826a26.03443,26.03443,0,0,1,6.53259-17.137l19.22892,17.26232" fill="none" stroke="#fff" stroke-miterlimit="10" stroke-width="0.25" opacity="0.5"/>
    <path d="M602.84112,330.07826a26.03443,26.03443,0,0,0-6.53259-17.137l-19.22892,17.26232" fill="none" stroke="#fff" stroke-miterlimit="10" stroke-width="0.25" opacity="0.5"/>
    <path d="M492.01955,384.94033a26.86559,26.86559,0,0,0,6.74115,17.68415l19.8428-17.81343" fill="none" stroke="#fff" stroke-miterlimit="10" stroke-width="0.25" opacity="0.5"/>
    <path d="M551.83622,385.60983a27.601,27.601,0,0,1-6.92568,18.16824l-20.386-18.30105" fill="none" stroke="#fff" stroke-miterlimit="10" stroke-width="0.25" opacity="0.5"/>
    <path d="M734.99771,572.99042a30.56361,30.56361,0,0,0,20.11836-7.66907l-20.26543-22.57414" fill="none" stroke="#fff" stroke-miterlimit="10" stroke-width="0.25" opacity="0.5"/>
    <path d="M619.70588,383.25613a29.6054,29.6054,0,0,1,7.42863-19.48762l21.86641,19.63009" fill="none" stroke="#fff" stroke-miterlimit="10" stroke-width="0.25" opacity="0.5"/>
    <g>
      <polygon points="693.774 455.606 663.05 455.606 655.135 455.606 655.135 461.606 655.135 467.037 663.05 467.037 663.05 461.606 693.774 461.606 693.774 500.612 663.05 500.612 663.05 495.181 655.135 495.181 655.135 500.612 655.135 506.612 663.05 506.612 693.774 506.612 701.008 506.612 701.008 500.612 701.008 461.606 701.008 455.606 693.774 455.606" fill="#fff"/>
      <polyline points="701.008 477.643 729.105 477.643 729.105 427.465 664.199 427.465 664.199 455.606" fill="none" stroke="#fff" stroke-miterlimit="10" stroke-width="0.5"/>
      <rect x="700.96374" y="427.46465" width="28.14162" height="28.14162" fill="none" stroke="#fff" stroke-miterlimit="10" stroke-width="0.5"/>
      <rect x="664.19909" y="427.46465" width="7.34043" height="28.14162" fill="none" stroke="#fff" stroke-miterlimit="10" stroke-width="0.5"/>
      <rect x="671.53951" y="427.46465" width="7.34043" height="28.14162" fill="none" stroke="#fff" stroke-miterlimit="10" stroke-width="0.5"/>
      <rect x="678.9112" y="427.46465" width="7.34043" height="28.14162" fill="none" stroke="#fff" stroke-miterlimit="10" stroke-width="0.5"/>
      <rect x="686.25163" y="427.46465" width="7.34043" height="28.14162" fill="none" stroke="#fff" stroke-miterlimit="10" stroke-width="0.5"/>
      <rect x="711.36434" y="445.20567" width="7.34043" height="28.14162" transform="translate(255.75807 1174.31104) rotate(-90)" fill="none" stroke="#fff" stroke-miterlimit="10" stroke-width="0.5"/>
      <rect x="711.36434" y="452.5461" width="7.34043" height="28.14162" transform="translate(248.41765 1181.65146) rotate(-90)" fill="none" stroke="#fff" stroke-miterlimit="10" stroke-width="0.5"/>
      <polyline points="701.008 484.673 729.105 484.673 729.105 534.852 664.199 534.852 664.199 506.711" fill="none" stroke="#fff" stroke-miterlimit="10" stroke-width="0.5"/>
      <rect x="700.96374" y="506.71066" width="28.14162" height="28.14162" fill="none" stroke="#fff" stroke-miterlimit="10" stroke-width="0.5"/>
      <rect x="664.19909" y="506.71066" width="7.34043" height="28.14162" fill="none" stroke="#fff" stroke-miterlimit="10" stroke-width="0.5"/>
      <rect x="671.53951" y="506.71066" width="7.34043" height="28.14162" fill="none" stroke="#fff" stroke-miterlimit="10" stroke-width="0.5"/>
      <rect x="678.9112" y="506.71066" width="7.34043" height="28.14162" fill="none" stroke="#fff" stroke-miterlimit="10" stroke-width="0.5"/>
      <rect x="686.25163" y="506.71066" width="7.34043" height="28.14162" fill="none" stroke="#fff" stroke-miterlimit="10" stroke-width="0.5"/>
      <rect x="711.36434" y="488.96964" width="7.34043" height="28.14162" transform="translate(1218.07501 -211.99411) rotate(90)" fill="none" stroke="#fff" stroke-miterlimit="10" stroke-width="0.5"/>
      <rect x="711.36434" y="481.62921" width="7.34043" height="28.14162" transform="translate(1210.73458 -219.33453) rotate(90)" fill="none" stroke="#fff" stroke-miterlimit="10" stroke-width="0.5"/>
      <polygon points="727.802 533.548 664.199 533.548 664.199 534.852 729.105 534.852 729.105 533.548 729.105 428.768 729.105 427.465 664.199 427.465 664.199 428.768 727.802 428.768 727.802 533.548" fill="none" stroke="#fff" stroke-miterlimit="10" stroke-width="0.25"/>
      <g>
        <g>
          <path d="M713.31182,488.7685v19.00236a13.01064,13.01064,0,0,1-13.01062,13.01062h-35.501" fill="none" stroke="#fff" stroke-miterlimit="10" stroke-width="0.5"/>
          <path d="M668.21764,518.38158a.25.25,0,0,1-.07715.3452l-3.22607,2.0547,3.22607,2.05469a.25.25,0,1,1-.26855.42187l-3.55713-2.26562a.2501.2501,0,0,1,0-.42188l3.55713-2.26564a.2508.2508,0,0,1,.3457.07668Z" fill="#fff"/>
        </g>
        <g>
          <path d="M664.19908,441.64089H700.3012a13.01064,13.01064,0,0,1,13.01062,13.01062V489.529" fill="none" stroke="#fff" stroke-miterlimit="10" stroke-width="0.5"/>
          <path d="M710.91191,486.11165a.25.25,0,0,1,.34522.07715l2.05469,3.226,2.05468-3.226a.25005.25005,0,1,1,.42188.26855l-2.26563,3.55715a.25012.25012,0,0,1-.42187,0l-2.26563-3.55715a.25077.25077,0,0,1,.07666-.3457Z" fill="#fff"/>
        </g>
        <circle cx="664.19909" cy="441.64089" r="1.15527" fill="none" stroke="#fff" stroke-miterlimit="10" stroke-width="0.5"/>
      </g>
    </g>
  </g>
</svg>
