<svg id="A_6NP" data-name="A/6NP" xmlns="http://www.w3.org/2000/svg" viewBox="0 0 1340 920">
  <g>
    <rect width="1340" height="920" fill="#214f77"/>
    <polygon points="416.209 370.576 317.555 370.576 317.555 765.548 1022.445 765.548 1022.445 634.523 416.209 634.523 416.209 370.576" fill="#fff" opacity="0.1"/>
    <path d="M813.594,509.66a26.0997,26.0997,0,0,1-6.549,17.18l-19.27714-17.3056" fill="none" stroke="#fff" stroke-miterlimit="10" stroke-width="0.25" opacity="0.5"/>
    <path d="M543.86534,491.59313a23.58006,23.58006,0,0,0,5.91673,15.52147l17.41613-15.63492" fill="none" stroke="#fff" stroke-miterlimit="10" stroke-width="0.25" opacity="0.5"/>
    <path d="M554.55511,372.079a23.14146,23.14146,0,0,0,5.80666,15.23274l17.09216-15.34408" fill="none" stroke="#fff" stroke-miterlimit="10" stroke-width="0.25" opacity="0.5"/>
    <path d="M494.42835,372.1042a26.08192,26.08192,0,0,0,6.54451,17.16833l19.264-17.29382" fill="none" stroke="#fff" stroke-miterlimit="10" stroke-width="0.25" opacity="0.5"/>
    <path d="M619.49652,296.47768a26.80239,26.80239,0,0,1,6.72528-17.64256l19.79614,17.77151" fill="none" stroke="#fff" stroke-miterlimit="10" stroke-width="0.25" opacity="0.5"/>
    <path d="M648.61173,275.32674a24.03694,24.03694,0,0,0,15.82221-6.03137l-15.93786-17.75358" fill="none" stroke="#fff" stroke-miterlimit="10" stroke-width="0.25" opacity="0.5"/>
    <path d="M765.99043,447.22927A23.15291,23.15291,0,0,1,771.8,431.989l17.17221,15.44122" fill="none" stroke="#fff" stroke-miterlimit="10" stroke-width="0.25" opacity="0.5"/>
    <path d="M820.79428,454.71037a26.5722,26.5722,0,0,1,17.491,6.66753L820.66642,481.004" fill="none" stroke="#fff" stroke-miterlimit="10" stroke-width="0.25" opacity="0.5"/>
    <path d="M735.72392,485.91837a30.52574,30.52574,0,0,0,20.09343-7.65956L735.50589,455.6415" fill="none" stroke="#fff" stroke-miterlimit="10" stroke-width="0.25" opacity="0.5"/>
    <path d="M813.7183,278.17537a26.09976,26.09976,0,0,0-6.549-17.18L787.89219,278.301" fill="none" stroke="#fff" stroke-miterlimit="10" stroke-width="0.25" opacity="0.5"/>
    <path d="M765.96674,340.59906a23.15293,23.15293,0,0,0,5.80956,15.24032l17.17221-15.44123" fill="none" stroke="#fff" stroke-miterlimit="10" stroke-width="0.25" opacity="0.5"/>
    <path d="M821.36249,328.55539a25.89777,25.89777,0,0,0,17.04709-6.49831l-17.17171-19.128" fill="none" stroke="#fff" stroke-miterlimit="10" stroke-width="0.25" opacity="0.5"/>
    <path d="M735.64564,301.7407a30.05965,30.05965,0,0,1,19.78668,7.54263L735.501,331.4853" fill="none" stroke="#fff" stroke-miterlimit="10" stroke-width="0.25" opacity="0.5"/>
    <g>
      <line x1="455.55265" y1="295.87221" x2="455.55265" y2="243.35776" fill="none" stroke="#fff" stroke-miterlimit="10" stroke-width="0.25"/>
      <line x1="453.16967" y1="243.25765" x2="457.89308" y2="243.25765" fill="none" stroke="#fff" stroke-miterlimit="10" stroke-width="0.25"/>
    </g>
    <g>
      <line x1="482.87518" y1="295.87221" x2="482.87518" y2="243.35776" fill="none" stroke="#fff" stroke-miterlimit="10" stroke-width="0.25"/>
      <line x1="480.4922" y1="243.25765" x2="485.21561" y2="243.25765" fill="none" stroke="#fff" stroke-miterlimit="10" stroke-width="0.25"/>
    </g>
    <g>
      <line x1="510.19771" y1="295.87221" x2="510.19771" y2="243.35776" fill="none" stroke="#fff" stroke-miterlimit="10" stroke-width="0.25"/>
      <line x1="507.81473" y1="243.25765" x2="512.53814" y2="243.25765" fill="none" stroke="#fff" stroke-miterlimit="10" stroke-width="0.25"/>
    </g>
    <g>
      <line x1="537.52024" y1="295.87221" x2="537.52024" y2="243.35776" fill="none" stroke="#fff" stroke-miterlimit="10" stroke-width="0.25"/>
      <line x1="535.13726" y1="243.25765" x2="539.86067" y2="243.25765" fill="none" stroke="#fff" stroke-miterlimit="10" stroke-width="0.25"/>
    </g>
    <g>
      <line x1="564.84277" y1="295.87221" x2="564.84277" y2="243.35776" fill="none" stroke="#fff" stroke-miterlimit="10" stroke-width="0.25"/>
      <line x1="562.45979" y1="243.25765" x2="567.1832" y2="243.25765" fill="none" stroke="#fff" stroke-miterlimit="10" stroke-width="0.25"/>
    </g>
    <g>
      <line x1="592.1653" y1="295.87221" x2="592.1653" y2="243.35776" fill="none" stroke="#fff" stroke-miterlimit="10" stroke-width="0.25"/>
      <line x1="589.78232" y1="243.25765" x2="594.50573" y2="243.25765" fill="none" stroke="#fff" stroke-miterlimit="10" stroke-width="0.25"/>
    </g>
    <g>
      <line x1="619.48783" y1="295.87221" x2="619.48783" y2="243.35776" fill="none" stroke="#fff" stroke-miterlimit="10" stroke-width="0.25"/>
      <line x1="617.10485" y1="243.25765" x2="621.82826" y2="243.25765" fill="none" stroke="#fff" stroke-miterlimit="10" stroke-width="0.25"/>
    </g>
    <g>
      <line x1="428.23012" y1="295.87221" x2="428.23012" y2="243.35776" fill="none" stroke="#fff" stroke-miterlimit="10" stroke-width="0.25"/>
      <line x1="425.84714" y1="243.25765" x2="430.57055" y2="243.25765" fill="none" stroke="#fff" stroke-miterlimit="10" stroke-width="0.25"/>
    </g>
    <g>
      <line x1="455.55265" y1="165.14745" x2="455.55265" y2="217.66191" fill="none" stroke="#fff" stroke-miterlimit="10" stroke-width="0.25"/>
      <line x1="453.16967" y1="217.76202" x2="457.89308" y2="217.76202" fill="none" stroke="#fff" stroke-miterlimit="10" stroke-width="0.25"/>
    </g>
    <g>
      <line x1="482.87518" y1="165.14745" x2="482.87518" y2="217.66191" fill="none" stroke="#fff" stroke-miterlimit="10" stroke-width="0.25"/>
      <line x1="480.4922" y1="217.76202" x2="485.21561" y2="217.76202" fill="none" stroke="#fff" stroke-miterlimit="10" stroke-width="0.25"/>
    </g>
    <g>
      <line x1="510.19771" y1="165.14745" x2="510.19771" y2="217.66191" fill="none" stroke="#fff" stroke-miterlimit="10" stroke-width="0.25"/>
      <line x1="507.81473" y1="217.76202" x2="512.53814" y2="217.76202" fill="none" stroke="#fff" stroke-miterlimit="10" stroke-width="0.25"/>
    </g>
    <g>
      <line x1="537.52024" y1="165.14745" x2="537.52024" y2="217.66191" fill="none" stroke="#fff" stroke-miterlimit="10" stroke-width="0.25"/>
      <line x1="535.13726" y1="217.76202" x2="539.86067" y2="217.76202" fill="none" stroke="#fff" stroke-miterlimit="10" stroke-width="0.25"/>
    </g>
    <g>
      <line x1="564.84277" y1="165.14745" x2="564.84277" y2="217.66191" fill="none" stroke="#fff" stroke-miterlimit="10" stroke-width="0.25"/>
      <line x1="562.45979" y1="217.76202" x2="567.1832" y2="217.76202" fill="none" stroke="#fff" stroke-miterlimit="10" stroke-width="0.25"/>
    </g>
    <g>
      <line x1="592.1653" y1="165.14745" x2="592.1653" y2="217.66191" fill="none" stroke="#fff" stroke-miterlimit="10" stroke-width="0.25"/>
      <line x1="589.78232" y1="217.76202" x2="594.50573" y2="217.76202" fill="none" stroke="#fff" stroke-miterlimit="10" stroke-width="0.25"/>
    </g>
    <g>
      <line x1="619.48783" y1="165.14745" x2="619.48783" y2="217.66191" fill="none" stroke="#fff" stroke-miterlimit="10" stroke-width="0.25"/>
      <line x1="617.10485" y1="217.76202" x2="621.82826" y2="217.76202" fill="none" stroke="#fff" stroke-miterlimit="10" stroke-width="0.25"/>
    </g>
    <g>
      <line x1="428.23012" y1="165.14745" x2="428.23012" y2="217.66191" fill="none" stroke="#fff" stroke-miterlimit="10" stroke-width="0.25"/>
      <line x1="425.84714" y1="217.76202" x2="430.57055" y2="217.76202" fill="none" stroke="#fff" stroke-miterlimit="10" stroke-width="0.25"/>
    </g>
    <line x1="646.81036" y1="165.14745" x2="646.81036" y2="217.66191" fill="none" stroke="#fff" stroke-miterlimit="10" stroke-width="0.25"/>
    <line x1="644.42738" y1="217.76202" x2="649.15079" y2="217.76202" fill="none" stroke="#fff" stroke-miterlimit="10" stroke-width="0.25"/>
    <line x1="674.13289" y1="165.14745" x2="674.13289" y2="217.66191" fill="none" stroke="#fff" stroke-miterlimit="10" stroke-width="0.25"/>
    <line x1="671.74991" y1="217.76202" x2="676.47332" y2="217.76202" fill="none" stroke="#fff" stroke-miterlimit="10" stroke-width="0.25"/>
    <line x1="701.45542" y1="165.14745" x2="701.45542" y2="217.66191" fill="none" stroke="#fff" stroke-miterlimit="10" stroke-width="0.25"/>
    <line x1="699.07244" y1="217.76202" x2="703.79585" y2="217.76202" fill="none" stroke="#fff" stroke-miterlimit="10" stroke-width="0.25"/>
    <line x1="726.39498" y1="217.76202" x2="731.11838" y2="217.76202" fill="none" stroke="#fff" stroke-miterlimit="10" stroke-width="0.25"/>
    <line x1="619.48783" y1="165.14745" x2="619.48783" y2="217.66191" fill="none" stroke="#fff" stroke-miterlimit="10" stroke-width="0.25"/>
    <line x1="617.10485" y1="217.76202" x2="621.82826" y2="217.76202" fill="none" stroke="#fff" stroke-miterlimit="10" stroke-width="0.25"/>
    <rect x="759.33838" y="397.09302" width="38.0293" height="17.32967" transform="translate(1556.70605 811.51571) rotate(180)" fill="#fff" opacity="0.1"/>
    <g opacity="0.5">
      <path d="M759.08838,414.68073h38.5293V396.835h-38.5293Zm38.2793-.258h-38.0293V397.093h38.0293Z" fill="#fff"/>
    </g>
    <rect x="759.33838" y="373.24727" width="38.0293" height="17.32967" fill="#fff" opacity="0.1"/>
    <g opacity="0.5">
      <path d="M797.61768,372.98924h-38.5293V390.835h38.5293Zm-38.2793.258h38.0293V390.577h-38.0293Z" fill="#fff"/>
    </g>
    <path d="M778.228,397.093v1.34253h-5.71009a1.50168,1.50168,0,0,0-1.5,1.5v8.79809a1.50168,1.50168,0,0,0,1.5,1.5h11.67023a1.50168,1.50168,0,0,0,1.5-1.5v-8.79809a1.50168,1.50168,0,0,0-1.5-1.5H778.478V397.093h-.25Zm5.96014,1.59253a1.25014,1.25014,0,0,1,1.25,1.25v8.79809a1.25014,1.25014,0,0,1-1.25,1.25H772.51791a1.2501,1.2501,0,0,1-1.25-1.25v-8.79809a1.2501,1.2501,0,0,1,1.25-1.25H778.228v4.27661a.125.125,0,0,0,.25,0v-4.27661Z" fill="#fff" opacity="0.5"/>
    <rect x="772.70409" y="397.24949" width="11.29787" height="14.17021" rx="1.25" transform="translate(374.01843 1182.68762) rotate(-90)" fill="#fff" opacity="0.1"/>
    <path d="M778.47806,390.577v-1.34253l5.71008,0a1.50168,1.50168,0,0,0,1.5-1.5v-8.79809a1.50168,1.50168,0,0,0-1.5-1.5H772.51791a1.50168,1.50168,0,0,0-1.5,1.5v8.7981a1.50169,1.50169,0,0,0,1.5,1.5h5.71014V390.577h.25Zm-5.96014-1.59253a1.25015,1.25015,0,0,1-1.25-1.25v-8.7981a1.25014,1.25014,0,0,1,1.25-1.25h11.67023a1.2501,1.2501,0,0,1,1.25,1.25v8.79809a1.2501,1.2501,0,0,1-1.25,1.25l-5.71008,0v-4.27661a.125.125,0,0,0-.25,0v4.27661Z" fill="#fff" opacity="0.5"/>
    <rect x="772.70409" y="376.25026" width="11.29787" height="14.17021" rx="1.25" transform="translate(1161.68814 -395.01778) rotate(89.99998)" fill="#fff" opacity="0.1"/>
    <rect x="731.30623" y="390.83498" width="189.44681" height="6" transform="translate(1652.05927 787.66996) rotate(180)" fill="#fff"/>
    <rect x="699.88703" y="361.06902" width="65.53191" height="6" transform="translate(1096.72201 -368.58396) rotate(90)" fill="#fff"/>
    <rect x="658.2906" y="224.50983" width="148.72477" height="6" transform="translate(960.16282 -505.14316) rotate(90)" fill="#fff"/>
    <rect x="646.3365" y="295.87221" width="89.31648" height="6" fill="#fff"/>
    <rect x="428.20884" y="295.87221" width="191.40426" height="6" fill="#fff"/>
    <rect x="422.20884" y="486.27815" width="121.78191" height="6" fill="#fff"/>
    <rect x="547.60062" y="426.96661" width="121.78191" height="6" transform="translate(178.52497 1038.45819) rotate(-90)" fill="#fff"/>
    <rect x="861.81256" y="229.69035" width="3" height="99.67223" transform="translate(1142.83903 -583.78609) rotate(90)" fill="#fff"/>
    <rect x="759.25836" y="252.24456" width="3" height="54.56383" transform="translate(1040.28483 -481.23189) rotate(90)" fill="#fff"/>
    <rect x="802.09131" y="324.23607" width="3" height="29.63399" transform="translate(1142.64438 -464.53825) rotate(90)" fill="#fff"/>
    <rect x="749.34197" y="323.82219" width="3.0838" height="30.46176" transform="translate(1089.93693 -411.8308) rotate(90)" fill="#fff"/>
    <rect x="686.54009" y="202.66481" width="3.0838" height="84.4697" transform="translate(932.98165 -443.18233) rotate(90)" fill="#fff"/>
    <rect x="645.84714" y="243.35776" width="3.0838" height="8.59956" fill="#fff"/>
    <rect x="645.84714" y="275.20882" width="3.0838" height="26.66339" fill="#fff"/>
    <polygon points="670.378 275.209 667.294 275.209 667.294 301.872 670.378 301.872 673.462 301.872 673.462 275.209 670.378 275.209" fill="#fff"/>
    <rect x="692.01605" y="275.20882" width="3.0838" height="26.66339" fill="#fff"/>
    <rect x="668.93159" y="252.12437" width="3.0838" height="49.2527" transform="translate(393.72277 947.22421) rotate(-90)" fill="#fff"/>
    <rect x="590.95257" y="402.94441" width="3.0838" height="27.68409" transform="translate(175.70801 1009.28092) rotate(-90)" fill="#fff"/>
    <polygon points="578.652 393.798 578.652 396.882 606.337 396.882 606.337 393.798 606.337 390.714 578.652 390.714 578.652 393.798" fill="#fff"/>
    <rect x="589.81895" y="356.48682" width="3.0838" height="28.26146" transform="translate(220.7433 961.9784) rotate(-90)" fill="#fff"/>
    <rect x="535.81895" y="353.29533" width="3.0838" height="34.64444" transform="translate(166.7433 907.9784) rotate(-90)" fill="#fff"/>
    <rect x="537.58425" y="370.26275" width="3.0838" height="118.1201" fill="#fff"/>
    <rect x="455.64874" y="333.25278" width="3.0838" height="74.72955" transform="translate(86.57309 827.80819) rotate(-90)" fill="#fff"/>
    <rect x="578.65242" y="369.07565" width="3.0838" height="49.2527" transform="translate(1160.38863 787.40401) rotate(180)" fill="#fff"/>
    <rect x="692.29262" y="486.98457" width="3.0838" height="26.66339" transform="translate(1387.66904 1000.63254) rotate(180)" fill="#fff"/>
    <polygon points="670.846 513.648 673.93 513.648 673.93 486.985 670.846 486.985 667.762 486.985 667.762 513.648 670.846 513.648" fill="#fff"/>
    <rect x="646.12371" y="486.98457" width="3.0838" height="26.66339" transform="translate(1295.33123 1000.63254) rotate(180)" fill="#fff"/>
    <rect x="669.20817" y="487.47972" width="3.0838" height="49.2527" transform="translate(1182.85614 -158.644) rotate(90)" fill="#fff"/>
    <rect x="756.04027" y="372.98924" width="3" height="18.09043" fill="#fff"/>
    <rect x="745.84663" y="362.79559" width="3" height="23.38729" transform="translate(372.85739 1121.83587) rotate(-90)" fill="#fff"/>
    <rect x="818.40831" y="281.02647" width="3" height="21.96809" fill="#fff"/>
    <rect x="818.40831" y="328.42009" width="3" height="62.41489" fill="#fff"/>
    <g>
      <path d="M842.0399,336.87483V390.58h50.47717V336.87483a3.93613,3.93613,0,0,0-3.86816-3.9921H845.90758A3.93573,3.93573,0,0,0,842.0399,336.87483Z" fill="#fff" opacity="0.1"/>
      <path d="M892.76707,390.835V336.87483a4.18882,4.18882,0,0,0-4.11816-4.24708H845.90758a4.18873,4.18873,0,0,0-4.11768,4.24708V390.835m.25,0h50.47717m-3.86816-57.95224a3.93613,3.93613,0,0,1,3.86816,3.9921V390.58H842.0399V336.87483a3.93573,3.93573,0,0,1,3.86768-3.9921Z" fill="#fff" opacity="0.5"/>
    </g>
    <polygon points="893.357 378.549 912.893 378.549 912.893 390.56 893.357 390.56 893.023 390.56 892.767 390.56 892.767 390.835 913.149 390.835 913.149 378.274 892.767 378.274 892.767 378.549 893.023 378.549 893.357 378.549" fill="#fff" opacity="0.5"/>
    <polygon points="841.2 390.56 821.664 390.56 821.664 378.549 841.2 378.549 841.534 378.549 841.79 378.549 841.79 378.274 821.408 378.274 821.408 390.835 841.79 390.835 841.79 390.56 841.534 390.56 841.2 390.56" fill="#fff" opacity="0.5"/>
    <rect x="892.76708" y="378.54906" width="20.12616" height="12.01102" transform="translate(1805.66031 769.10914) rotate(180)" fill="#fff" opacity="0.1"/>
    <rect x="821.66375" y="378.54906" width="20.12616" height="12.01101" transform="translate(1663.45366 769.10913) rotate(180)" fill="#fff" opacity="0.1"/>
    <rect x="858.38496" y="244.04988" width="17.78723" height="91.74036" transform="translate(1157.19932 -577.35828) rotate(90.00005)" fill="#fff" opacity="0.1"/>
    <g opacity="0.5">
      <path d="M821.65845,281.27644l91.24023,0v17.28722H821.65845V281.27644m-.25-.25v17.78723h91.74023V281.02645l-91.74023,0Z" fill="#fff"/>
    </g>
    <path d="M818.40831,390.835V340.55307H797.61768V390.835Zm-20.5314-50.02268h20.27216v49.76344h-10.007v-2.97616h7.0308V351.079a7.15991,7.15991,0,1,0-14.31982,0v36.52057h7.02979v2.97616h-10.006Zm10.13557,43.91491a.12954.12954,0,0,0-.12961.12962v2.48351h-6.77055V351.079a6.90067,6.90067,0,0,1,13.80135,0v36.26133H808.1421v-2.48351A.12954.12954,0,0,0,808.01248,384.72721Z" fill="#fff" opacity="0.5"/>
    <path d="M818.14907,390.57574V340.8123H797.87691v49.76344ZM801.11232,351.079a6.90067,6.90067,0,0,1,13.80135,0v36.26133H801.11232Z" fill="#fff" opacity="0.1"/>
    <path d="M801.11232,344.17834h13.80135a0,0,0,0,1,0,0v36.50722a6.65478,6.65478,0,0,1-6.65478,6.65478h-.49179a6.65478,6.65478,0,0,1-6.65478-6.65478V344.17834A0,0,0,0,1,801.11232,344.17834Z" transform="translate(1616.02598 731.51868) rotate(180)" fill="#fff" opacity="0.2"/>
    <g opacity="0.5">
      <path d="M739.98526,364.52441v-9.7h9.65015a4.85,4.85,0,0,1,0,9.7h-9.65015m-.25.25h9.90015a5.1,5.1,0,0,0,0-10.2h-9.90015v10.2Z" fill="#fff"/>
    </g>
    <g opacity="0.5">
      <polygon points="739.983 352.591 735.653 352.591 735.653 366.758 739.983 366.758 739.983 364.774 739.733 364.774 739.733 366.508 735.903 366.508 735.903 352.841 739.733 352.841 739.733 354.574 739.983 354.574 739.983 352.591 739.983 352.591" fill="#fff"/>
    </g>
    <path d="M739.98526,364.52441v-9.7h9.65015a4.85,4.85,0,0,1,0,9.7h-9.65015" fill="#fff" opacity="0.1"/>
    <rect x="735.90299" y="352.84086" width="3.83228" height="13.66699" transform="translate(1475.63825 719.34871) rotate(180)" fill="#fff" opacity="0.1"/>
    <path d="M739.98526,364.52441v-9.7h9.65015a4.85,4.85,0,0,1,0,9.7h-9.65015" fill="#fff" opacity="0.1"/>
    <rect x="735.9056" y="281.27908" width="16.85963" height="16.86013" transform="translate(1488.67082 579.41828) rotate(180)" fill="#fff" opacity="0.1"/>
    <g opacity="0.5">
      <path d="M753.01782,281.02647H735.65308v17.36535h17.36474V281.02647Zm-17.1123,17.11274V281.27908h16.85962v16.86013Z" fill="#fff"/>
    </g>
    <g opacity="0.5">
      <polygon points="784.6 281.026 753.018 281.026 753.018 281.279 784.348 281.279 784.348 298.139 753.018 298.139 753.018 298.392 784.6 298.392 784.6 281.026 784.6 281.026" fill="#fff"/>
    </g>
    <g opacity="0.5">
      <path d="M744.33545,283.17611a6.53279,6.53279,0,1,0,6.5332,6.53278,6.5402,6.5402,0,0,0-6.5332-6.53278Zm0,12.813a6.28017,6.28017,0,1,1,6.28052-6.28018,6.28725,6.28725,0,0,1-6.28052,6.28018Z" fill="#fff"/>
    </g>
    <rect x="753.01784" y="281.27908" width="31.32935" height="16.86013" transform="translate(1537.36502 579.41828) rotate(180)" fill="#fff" opacity="0.1"/>
    <circle cx="744.33541" cy="289.70889" r="6.28042" fill="#fff" opacity="0.1"/>
    <rect x="664.23626" y="-94.70976" width="12" height="507.71441" transform="translate(829.38371 -511.08881) rotate(90)" fill="#fff"/>
    <rect x="913.14868" y="153.14745" width="12" height="43.51732" fill="#fff"/>
    <rect x="913.14868" y="264.76583" width="12" height="39.53723" fill="#fff"/>
    <rect x="913.14868" y="372.33498" width="12" height="24.5" fill="#fff"/>
    <rect x="913.14868" y="304.30307" width="12" height="68.03191" fill="#d3d3d3" opacity="0.6"/>
    <rect x="885.13272" y="337.56902" width="68.03191" height="1.5" transform="translate(1257.4677 -580.82966) rotate(90)" fill="#fff"/>
    <rect x="913.14868" y="196.57951" width="12" height="68.03191" fill="#d3d3d3" opacity="0.6"/>
    <rect x="885.13272" y="229.84547" width="68.03191" height="1.5" transform="translate(1149.74415 -688.55321) rotate(90)" fill="#fff"/>
    <rect x="731.30623" y="390.83498" width="189.44681" height="6" transform="translate(1652.05927 787.66996) rotate(180)" fill="#fff"/>
    <rect x="700.17958" y="420.30839" width="64.94681" height="6" transform="translate(309.3446 1155.96137) rotate(-90)" fill="#fff"/>
    <rect x="664.2906" y="551.16013" width="136.72477" height="6" transform="translate(178.49286 1286.81312) rotate(-90)" fill="#fff"/>
    <rect x="566.84714" y="485.79775" width="168.80585" height="6" fill="#fff"/>
    <rect x="861.81256" y="458.30737" width="3" height="99.67223" transform="translate(355.16907 1371.45605) rotate(-90)" fill="#fff"/>
    <rect x="759.25836" y="480.86158" width="3" height="54.56383" transform="translate(252.61487 1268.90185) rotate(-90)" fill="#fff"/>
    <rect x="802.09131" y="433.7999" width="3" height="29.63399" transform="translate(354.97442 1252.20821) rotate(-90)" fill="#fff"/>
    <rect x="749.34197" y="433.38602" width="3.0838" height="30.46176" transform="translate(302.26697 1199.50076) rotate(-90)" fill="#fff"/>
    <rect x="756.04027" y="396.5903" width="3" height="18.09043" fill="#fff"/>
    <rect x="745.84663" y="401.48708" width="3" height="23.38729" transform="translate(1160.52736 -334.16591) rotate(90)" fill="#fff"/>
    <rect x="818.40831" y="480.17009" width="3" height="26.4734" fill="#fff"/>
    <rect x="818.40831" y="396.83498" width="3" height="57.99715" fill="#fff"/>
    <path d="M907.36978,594.7696v17.07129l-70.66992,0,0-17.07129a3.89581,3.89581,0,0,1,3.86817-3.91406l62.93408,0A3.89539,3.89539,0,0,1,907.36978,594.7696Z" fill="#fff" opacity="0.1"/>
    <rect x="836.69986" y="612.0909" width="70.66992" height="3.9502" fill="#fff" opacity="0.2"/>
    <path d="M907.61978,594.7696v21.52148h-.25l-70.66992,0h-.25l0-21.52149a4.146,4.146,0,0,1,4.11817-4.16406l62.93408,0A4.14586,4.14586,0,0,1,907.61978,594.7696Zm-70.91992,17.32131v3.9502l70.66992,0v-3.95019Zm3.86816-21.23535a3.89581,3.89581,0,0,0-3.86817,3.91406l0,17.07129,70.66992,0V594.7696a3.89539,3.89539,0,0,0-3.86768-3.91406Z" fill="#fff" opacity="0.5"/>
    <g opacity="0.5">
      <path d="M876.49487,558.1524a9.91844,9.91844,0,1,1-9.91845,9.91845,9.91848,9.91848,0,0,1,9.91845-9.91845m0-.25a10.16844,10.16844,0,1,0,10.16846,10.16845,10.18,10.18,0,0,0-10.16846-10.16845Z" fill="#fff"/>
    </g>
    <circle cx="876.49479" cy="568.07084" r="9.91843" fill="#fff" opacity="0.1"/>
    <polygon points="812.62 573.867 818.556 573.867 818.556 562.292 812.62 562.292 812.62 562.042 818.556 562.042 818.806 562.042 818.806 562.292 818.806 573.867 818.806 574.117 818.556 574.117 812.62 574.117 812.62 573.867" fill="#fff" opacity="0.5"/>
    <rect x="790.02392" y="542.57966" width="22.59574" height="33.95745" transform="translate(1602.64358 1119.11677) rotate(180)" fill="#fff" opacity="0.1"/>
    <g opacity="0.1">
      <rect x="812.61966" y="545.24987" width="5.93617" height="11.57447" transform="translate(1631.1755 1102.07422) rotate(180)" fill="#fff"/>
    </g>
    <g opacity="0.5">
      <path d="M812.36963,542.82967v33.45744h-22.0957V542.82967h22.0957m.25-.25h-22.5957v33.95744h22.5957V542.57967Z" fill="#fff"/>
    </g>
    <polygon points="812.62 556.824 818.556 556.824 818.556 545.25 812.62 545.25 812.62 545 818.556 545 818.806 545 818.806 545.25 818.806 556.824 818.806 557.074 818.556 557.074 812.62 557.074 812.62 556.824" fill="#fff" opacity="0.5"/>
    <g opacity="0.1">
      <rect x="812.61966" y="562.29242" width="5.93617" height="11.57447" transform="translate(1631.1755 1136.15931) rotate(180)" fill="#fff"/>
    </g>
    <polygon points="790.024 545.25 784.088 545.25 784.088 556.824 790.024 556.824 790.024 557.074 784.088 557.074 783.838 557.074 783.838 556.824 783.838 545.25 783.838 545 784.088 545 790.024 545 790.024 545.25" fill="#fff" opacity="0.5"/>
    <g opacity="0.1">
      <rect x="784.08775" y="562.29243" width="5.93617" height="11.57447" fill="#fff"/>
    </g>
    <polygon points="790.024 562.292 784.088 562.292 784.088 573.867 790.024 573.867 790.024 574.117 784.088 574.117 783.838 574.117 783.838 573.867 783.838 562.292 783.838 562.042 784.088 562.042 790.024 562.042 790.024 562.292" fill="#fff" opacity="0.5"/>
    <g opacity="0.1">
      <rect x="784.08775" y="545.24989" width="5.93617" height="11.57447" fill="#fff"/>
    </g>
    <g>
      <path d="M842.0399,450.79513V397.09h50.47717v53.70516a3.93613,3.93613,0,0,1-3.86816,3.9921H845.90758A3.93573,3.93573,0,0,1,842.0399,450.79513Z" fill="#fff" opacity="0.1"/>
      <path d="M892.76707,396.835v53.96014a4.18882,4.18882,0,0,1-4.11816,4.24708H845.90758a4.18873,4.18873,0,0,1-4.11768-4.24708V396.835m.25,0h50.47717m-3.86816,57.95224a3.93613,3.93613,0,0,0,3.86816-3.9921V397.09H842.0399v53.70516a3.93573,3.93573,0,0,0,3.86768,3.9921Z" fill="#fff" opacity="0.5"/>
    </g>
    <polygon points="893.357 409.121 912.893 409.121 912.893 397.11 893.357 397.11 893.023 397.11 892.767 397.11 892.767 396.835 913.149 396.835 913.149 409.396 892.767 409.396 892.767 409.121 893.023 409.121 893.357 409.121" fill="#fff" opacity="0.5"/>
    <polygon points="841.2 397.11 821.664 397.11 821.664 409.121 841.2 409.121 841.534 409.121 841.79 409.121 841.79 409.396 821.408 409.396 821.408 396.835 841.79 396.835 841.79 397.11 841.534 397.11 841.2 397.11" fill="#fff" opacity="0.5"/>
    <rect x="892.76708" y="397.10988" width="20.12616" height="12.01102" transform="translate(1805.66031 806.23079) rotate(180)" fill="#fff" opacity="0.1"/>
    <rect x="821.66375" y="397.10989" width="20.12616" height="12.01101" transform="translate(1663.45366 806.23079) rotate(180)" fill="#fff" opacity="0.1"/>
    <rect x="870.37174" y="484.45919" width="12.10106" height="62.4694" transform="translate(360.72908 1392.11657) rotate(-90.00005)" fill="#fff" opacity="0.1"/>
    <g opacity="0.5">
      <path d="M907.407,509.89336v11.60106H845.4375V509.89336H907.407m.25-.25H845.1875v12.10106H907.657V509.64336Z" fill="#fff"/>
    </g>
    <rect x="520.23721" y="376.1443" width="17.34734" height="24.75122" transform="translate(1057.82185 777.0397) rotate(179.99999)" fill="#fff" opacity="0.1"/>
    <g opacity="0.5">
      <path d="M537.33447,376.3943v24.25122H520.4873V376.3943h16.84717m.25-.25H520.2373v24.75122h17.34717V376.1443Z" fill="#fff"/>
    </g>
    <rect x="458.85507" y="337.63677" width="12.30978" height="50.56717" transform="translate(827.92882 -102.09078) rotate(89.99981)" fill="#fff" opacity="0.1"/>
    <g opacity="0.5">
      <path d="M490.04346,357.01545v11.80979l-50.06714,0V357.01548l50.06714,0m.25-.25-50.56714,0v12.30979l50.56714,0V356.76545Z" fill="#fff"/>
    </g>
    <rect x="520.23721" y="403.34623" width="17.34734" height="24.75122" transform="translate(1057.82186 831.44355) rotate(179.99999)" fill="#fff" opacity="0.1"/>
    <g opacity="0.5">
      <path d="M537.33447,403.59623v24.25122H520.4873V403.59623h16.84717m.25-.25H520.2373v24.75122h17.34717V403.34623Z" fill="#fff"/>
    </g>
    <rect x="430.02423" y="376.14431" width="61.24839" height="106.35673" transform="translate(921.29696 858.64522) rotate(179.99998)" fill="#fff" opacity="0.5"/>
    <rect x="520.23721" y="430.54815" width="17.34734" height="24.75122" transform="translate(1057.82186 885.84741) rotate(179.99999)" fill="#fff" opacity="0.1"/>
    <g opacity="0.5">
      <path d="M537.33447,430.79815v24.25122H520.4873V430.79815h16.84717m.25-.25H520.2373v24.75122h17.34717V430.54815Z" fill="#fff"/>
    </g>
    <rect x="520.23721" y="457.75008" width="17.34734" height="24.75122" transform="translate(1057.82187 940.25126) rotate(179.99999)" fill="#fff" opacity="0.1"/>
    <g opacity="0.5">
      <path d="M537.33447,458.00008V482.2513H520.4873V458.00008h16.84717m.25-.25H520.2373V482.5013h17.34717V457.75008Z" fill="#fff"/>
    </g>
    <rect x="858.38496" y="451.87973" width="17.78723" height="91.74036" transform="translate(369.52936 1365.02888) rotate(-90.00005)" fill="#fff" opacity="0.1"/>
    <g opacity="0.5">
      <path d="M912.89868,489.10629v17.28723H821.65845V489.1063l91.24023,0m.25-.25-91.74023,0v17.78722h91.74023V488.85629Z" fill="#fff"/>
    </g>
    <path d="M818.40831,396.835V447.1169H797.61768V396.835Zm-20.5314,50.02268h20.27216V397.09422h-10.007v2.97616h7.0308V436.591a7.15991,7.15991,0,1,1-14.31982,0V400.07038h7.02979v-2.97616h-10.006Zm10.13557-43.91491a.12954.12954,0,0,1-.12961-.12961v-2.48352h-6.77055V436.591a6.90068,6.90068,0,0,0,13.80135,0V400.32962H808.1421v2.48352A.12954.12954,0,0,1,808.01248,402.94275Z" fill="#fff" opacity="0.5"/>
    <path d="M818.14907,397.09422v49.76344H797.87691V397.09422ZM801.11232,436.591a6.90067,6.90067,0,0,0,13.80135,0V400.32962H801.11232Z" fill="#fff" opacity="0.1"/>
    <path d="M807.76709,400.32962h.49179a6.65478,6.65478,0,0,1,6.65478,6.65478v36.50722a0,0,0,0,1,0,0H801.11232a0,0,0,0,1,0,0V406.9844a6.65478,6.65478,0,0,1,6.65478-6.65478Z" transform="translate(1616.02598 843.82125) rotate(-180)" fill="#fff" opacity="0.2"/>
    <g opacity="0.5">
      <path d="M739.98526,423.14555v9.7h9.65015a4.85,4.85,0,0,0,0-9.7h-9.65015m-.25-.25h9.90015a5.1,5.1,0,0,1,0,10.2h-9.90015v-10.2Z" fill="#fff"/>
    </g>
    <g opacity="0.5">
      <polygon points="739.983 420.912 735.653 420.912 735.653 435.079 739.983 435.079 739.983 433.096 739.733 433.096 739.733 434.829 735.903 434.829 735.903 421.162 739.733 421.162 739.733 422.896 739.983 422.896 739.983 420.912 739.983 420.912" fill="#fff"/>
    </g>
    <path d="M739.98526,423.14555v9.7h9.65015a4.85,4.85,0,0,0,0-9.7h-9.65015" fill="#fff" opacity="0.1"/>
    <rect x="735.90299" y="421.16211" width="3.83228" height="13.66699" transform="translate(1475.63825 855.99121) rotate(180)" fill="#fff" opacity="0.1"/>
    <path d="M739.98526,423.14555v9.7h9.65015a4.85,4.85,0,0,0,0-9.7h-9.65015" fill="#fff" opacity="0.1"/>
    <rect x="735.7585" y="489.53076" width="16.85963" height="16.86013" transform="translate(1488.37663 995.92164) rotate(180)" fill="#fff" opacity="0.1"/>
    <g opacity="0.5">
      <path d="M752.87085,489.27815h-17.365v17.36534h17.365V489.27815Zm-17.11231,17.11273V489.53076h16.85962v16.86012Z" fill="#fff"/>
    </g>
    <g opacity="0.5">
      <polygon points="784.453 489.278 752.871 489.278 752.871 489.531 784.201 489.531 784.201 506.391 752.871 506.391 752.871 506.643 784.453 506.643 784.453 489.278 784.453 489.278" fill="#fff"/>
    </g>
    <g opacity="0.5">
      <path d="M744.18823,491.42828a6.53279,6.53279,0,1,0,6.53345,6.53279,6.54036,6.54036,0,0,0-6.53345-6.53279Zm0,12.813a6.28018,6.28018,0,1,1,6.28076-6.28018,6.28721,6.28721,0,0,1-6.28076,6.28018Z" fill="#fff"/>
    </g>
    <rect x="752.87074" y="489.53076" width="31.32935" height="16.86013" transform="translate(1537.07083 995.92164) rotate(180)" fill="#fff" opacity="0.1"/>
    <circle cx="744.18831" cy="497.96107" r="6.28042" fill="#fff" opacity="0.1"/>
    <rect x="772.32137" y="482.75042" width="12" height="291.5442" transform="translate(149.79885 1406.84388) rotate(-90)" fill="#fff"/>
    <rect x="541.53331" y="611.53847" width="12" height="33.96809" transform="translate(-80.9892 1176.05582) rotate(-90)" fill="#fff"/>
    <rect x="433.3631" y="605.36826" width="12" height="46.30851" transform="translate(-189.15942 1067.88561) rotate(-90)" fill="#fff"/>
    <rect x="416.20884" y="590.73392" width="12" height="31.7886" transform="translate(844.41769 1213.25643) rotate(180)" fill="#fff"/>
    <rect x="416.20884" y="369.07565" width="12" height="153.33601" transform="translate(844.41769 891.48731) rotate(180)" fill="#fff"/>
    <rect x="416.20884" y="153.14745" width="12" height="148.72477" transform="translate(844.41769 455.01966) rotate(180)" fill="#fff"/>
    <rect x="913.14868" y="590.62753" width="12" height="43.89498" fill="#fff"/>
    <rect x="913.14868" y="483.3669" width="12" height="39.22872" fill="#fff"/>
    <rect x="913.14868" y="390.83498" width="12" height="24.5" fill="#fff"/>
    <rect x="913.14868" y="522.59562" width="12" height="68.03191" fill="#d3d3d3" opacity="0.6"/>
    <rect x="885.13272" y="555.86158" width="68.03191" height="1.5" transform="translate(362.5371 1475.76026) rotate(-90)" fill="#fff"/>
    <rect x="592.53331" y="594.50656" width="12" height="68.03191" transform="translate(-29.9892 1227.05582) rotate(-90)" fill="#d3d3d3" opacity="0.6"/>
    <rect x="564.51735" y="627.77251" width="68.03191" height="1.5" transform="translate(1197.06662 1257.04503) rotate(180)" fill="#fff"/>
    <rect x="490.53331" y="594.50656" width="12" height="68.03191" transform="translate(-131.9892 1125.05582) rotate(-90)" fill="#d3d3d3" opacity="0.6"/>
    <rect x="462.51735" y="627.77251" width="68.03191" height="1.5" transform="translate(993.06662 1257.04503) rotate(180)" fill="#fff"/>
    <rect x="416.20884" y="522.702" width="12" height="68.03191" transform="translate(844.41769 1113.43592) rotate(180)" fill="#d3d3d3" opacity="0.6"/>
    <rect x="388.19289" y="555.96796" width="68.03191" height="1.5" transform="translate(978.9268 134.50912) rotate(90)" fill="#fff"/>
    <rect x="913.14868" y="415.33498" width="12" height="68.03191" fill="#d3d3d3" opacity="0.6"/>
    <rect x="885.13272" y="448.60094" width="68.03191" height="1.5" transform="translate(469.79774 1368.49962) rotate(-90)" fill="#fff"/>
    <polyline points="925.149 393.084 1022.445 393.084 1022.445 154.646 925.149 154.646" fill="#fff" opacity="0.2"/>
    <g opacity="0.5">
      <polygon points="925.149 154.647 1022.445 154.647 1022.445 393.085 925.149 393.085 925.149 394.585 1022.445 394.585 1023.945 394.585 1023.945 393.085 1023.945 154.647 1023.945 153.147 1022.445 153.147 925.149 153.147 925.149 154.647" fill="#fff"/>
    </g>
    <polyline points="925.149 633.022 1022.445 633.022 1022.445 394.584 925.149 394.584" fill="#fff" opacity="0.2"/>
    <g opacity="0.5">
      <polygon points="1022.445 394.585 1022.445 633.023 925.149 633.023 925.149 634.523 1022.445 634.523 1023.945 634.523 1023.945 633.023 1023.945 394.585 1022.445 394.585" fill="#fff"/>
    </g>
    <path d="M907.33045,192.90023l0-17.07129-70.66993,0v17.07128a3.89579,3.89579,0,0,0,3.86816,3.91407l62.93408,0A3.89539,3.89539,0,0,0,907.33045,192.90023Z" fill="#fff" opacity="0.1"/>
    <rect x="836.66054" y="171.62873" width="70.66992" height="3.9502" fill="#fff" opacity="0.2"/>
    <path d="M907.58045,192.90023l0-21.52149h-.25l-70.66992,0h-.25l0,21.52148a4.146,4.146,0,0,0,4.11816,4.16407l62.93408,0A4.14586,4.14586,0,0,0,907.58045,192.90023Zm-70.91992-17.32132,0-3.9502,70.66992,0v3.9502Zm3.86816,21.23535a3.89579,3.89579,0,0,1-3.86816-3.91407V175.82891l70.66993,0,0,17.07129a3.89539,3.89539,0,0,1-3.86768,3.91406Z" fill="#fff" opacity="0.5"/>
    <g opacity="0.5">
      <path d="M876.45557,209.68054a9.91844,9.91844,0,1,1-9.91846,9.91844,9.91828,9.91828,0,0,1,9.91846-9.91844m0-.25A10.16844,10.16844,0,1,0,886.62378,219.599a10.18,10.18,0,0,0-10.16821-10.16844Z" fill="#fff"/>
    </g>
    <circle cx="876.45546" cy="219.59898" r="9.91843" fill="#fff" opacity="0.1"/>
    <polygon points="812.58 213.803 818.517 213.803 818.517 225.377 812.58 225.377 812.58 225.627 818.517 225.627 818.767 225.627 818.767 225.377 818.767 213.803 818.767 213.553 818.517 213.553 812.58 213.553 812.58 213.803" fill="#fff" opacity="0.5"/>
    <rect x="789.98459" y="211.13271" width="22.59574" height="33.95745" transform="translate(1602.56489 456.22296) rotate(-179.99999)" fill="#fff" opacity="0.1"/>
    <g opacity="0.1">
      <rect x="812.58033" y="230.84547" width="5.93617" height="11.57447" transform="translate(1631.0968 473.26552) rotate(-179.99999)" fill="#fff"/>
    </g>
    <g opacity="0.5">
      <path d="M812.33032,211.38271v33.45744h-22.0957V211.38271h22.0957m.25-.25h-22.5957v33.95744h22.5957V211.13271Z" fill="#fff"/>
    </g>
    <polygon points="812.58 230.845 818.517 230.845 818.517 242.42 812.58 242.42 812.58 242.67 818.517 242.67 818.767 242.67 818.767 242.42 818.767 230.845 818.767 230.595 818.517 230.595 812.58 230.595 812.58 230.845" fill="#fff" opacity="0.5"/>
    <g opacity="0.1">
      <rect x="812.58033" y="213.80293" width="5.93617" height="11.57447" transform="translate(1631.0968 439.18043) rotate(-179.99999)" fill="#fff"/>
    </g>
    <polygon points="789.985 242.42 784.048 242.42 784.048 230.845 789.985 230.845 789.985 230.595 784.048 230.595 783.798 230.595 783.798 230.845 783.798 242.42 783.798 242.67 784.048 242.67 789.985 242.67 789.985 242.42" fill="#fff" opacity="0.5"/>
    <g opacity="0.1">
      <rect x="784.04842" y="213.80291" width="5.93617" height="11.57447" fill="#fff"/>
    </g>
    <polygon points="789.985 225.377 784.048 225.377 784.048 213.803 789.985 213.803 789.985 213.553 784.048 213.553 783.798 213.553 783.798 213.803 783.798 225.377 783.798 225.627 784.048 225.627 789.985 225.627 789.985 225.377" fill="#fff" opacity="0.5"/>
    <g opacity="0.1">
      <rect x="784.04841" y="230.84546" width="5.93617" height="11.57447" fill="#fff"/>
    </g>
    <rect x="870.3324" y="240.74124" width="12.10106" height="62.4694" transform="translate(1148.35968 -604.40674) rotate(90.00005)" fill="#fff" opacity="0.1"/>
    <g opacity="0.5">
      <path d="M845.39819,266.1754l61.96949,0v11.60105l-61.96949,0v-11.601m-.25-.25v12.101l62.46949,0V265.92542l-62.46949,0Z" fill="#fff"/>
    </g>
    <g>
      <rect x="735.65299" y="165.14745" width="17.91916" height="112.87901" fill="#fff" opacity="0.1"/>
      <g opacity="0.5">
        <path d="M735.903,277.77644v-112.379h17.41913v112.379H735.903m-.25.25h17.91913v-112.879H735.653v112.879Z" fill="#fff"/>
      </g>
    </g>
    <g>
      <rect x="735.78075" y="234.08898" width="17.41358" height="17.41358" transform="translate(1488.97508 485.59155) rotate(180)" fill="#fff" opacity="0.1"/>
      <g>
        <circle cx="748.54831" cy="246.86242" r="2.75801" fill="none" stroke="#fff" stroke-miterlimit="10" stroke-width="0.25" opacity="0.5"/>
        <circle cx="740.42677" cy="246.86242" r="2.75801" fill="none" stroke="#fff" stroke-miterlimit="10" stroke-width="0.25" opacity="0.5"/>
        <circle cx="748.54831" cy="238.72913" r="2.75801" fill="none" stroke="#fff" stroke-miterlimit="10" stroke-width="0.25" opacity="0.5"/>
        <circle cx="740.42677" cy="238.72913" r="2.75801" fill="none" stroke="#fff" stroke-miterlimit="10" stroke-width="0.25" opacity="0.5"/>
      </g>
      <g opacity="0.5">
        <path d="M735.653,233.96142h17.66913v17.66913H735.653Zm17.41365.25548H735.90849v17.15817h17.15817Z" fill="#fff"/>
      </g>
    </g>
    <g>
      <path d="M736.73679,200.62941h1.21753v5.71008a1.50168,1.50168,0,0,0,1.5,1.5h8.7981a1.50168,1.50168,0,0,0,1.5-1.5V194.66927a1.50168,1.50168,0,0,0-1.5-1.5h-8.7981a1.50168,1.50168,0,0,0-1.5,1.5v5.71014h-1.21753a.125.125,0,0,0,0,.25Zm1.46753-5.96014a1.25014,1.25014,0,0,1,1.25-1.25h8.7981a1.25014,1.25014,0,0,1,1.25,1.25v11.67022a1.2501,1.2501,0,0,1-1.25,1.25h-8.7981a1.2501,1.2501,0,0,1-1.25-1.25v-5.71008h4.27662a.125.125,0,0,0,0-.25h-4.27662Z" fill="#fff" opacity="0.5"/>
      <rect x="738.20444" y="193.41927" width="11.29787" height="14.17021" rx="1.25" transform="translate(1487.70674 401.00876) rotate(180)" fill="#fff" opacity="0.1"/>
    </g>
    <g>
      <rect x="735.65299" y="509.64345" width="17.91916" height="112.87901" fill="#fff" opacity="0.1"/>
      <g opacity="0.5">
        <path d="M735.903,509.89347v112.379h17.41913v-112.379H735.903m-.25-.25h17.91913v112.879H735.653v-112.879Z" fill="#fff"/>
      </g>
    </g>
    <g>
      <rect x="735.78075" y="536.16734" width="17.41358" height="17.41358" transform="translate(1488.97508 1089.74827) rotate(180)" fill="#fff" opacity="0.1"/>
      <g>
        <circle cx="748.54831" cy="540.80749" r="2.75801" fill="none" stroke="#fff" stroke-miterlimit="10" stroke-width="0.25" opacity="0.5"/>
        <circle cx="740.42677" cy="540.80749" r="2.75801" fill="none" stroke="#fff" stroke-miterlimit="10" stroke-width="0.25" opacity="0.5"/>
        <circle cx="748.54831" cy="548.94078" r="2.75801" fill="none" stroke="#fff" stroke-miterlimit="10" stroke-width="0.25" opacity="0.5"/>
        <circle cx="740.42677" cy="548.94078" r="2.75801" fill="none" stroke="#fff" stroke-miterlimit="10" stroke-width="0.25" opacity="0.5"/>
      </g>
      <g opacity="0.5">
        <path d="M735.653,553.70849h17.66913V536.03936H735.653Zm17.41365-.25548H735.90849V536.29484h17.15817Z" fill="#fff"/>
      </g>
    </g>
    <g>
      <path d="M736.73679,587.0405h1.21753v-5.71008a1.50168,1.50168,0,0,1,1.5-1.5h8.7981a1.50168,1.50168,0,0,1,1.5,1.5v11.67022a1.50168,1.50168,0,0,1-1.5,1.5h-8.7981a1.50168,1.50168,0,0,1-1.5-1.5V587.2905h-1.21753a.125.125,0,0,1,0-.25Zm1.46753,5.96014a1.25014,1.25014,0,0,0,1.25,1.25h8.7981a1.25014,1.25014,0,0,0,1.25-1.25V581.33042a1.2501,1.2501,0,0,0-1.25-1.25h-8.7981a1.2501,1.2501,0,0,0-1.25,1.25v5.71008h4.27662a.125.125,0,0,1,0,.25h-4.27662Z" fill="#fff" opacity="0.5"/>
      <rect x="738.20444" y="580.08042" width="11.29787" height="14.17021" rx="1.25" transform="translate(1487.70674 1174.33106) rotate(180)" fill="#fff" opacity="0.1"/>
    </g>
    <line x1="539.12615" y1="301.87221" x2="539.12615" y2="369.07508" fill="none" stroke="#fff" stroke-miterlimit="10" stroke-width="0.25"/>
    <line x1="609.40033" y1="301.87221" x2="609.40033" y2="369.07508" fill="none" stroke="#fff" stroke-miterlimit="10" stroke-width="0.25"/>
    <path d="M466.99982,429.23217a3.58684,3.58684,0,0,0-1.24633.21566l-1.00662-2.03729.5512-1.0305a.02342.02342,0,0,1,.02391-.02391c.6231.02391,1.12645.0958,1.12645-.6231,0-.35944-.07188-.64716-.695-.64716H463.1889a.39726.39726,0,0,0,0,.79092,3.01382,3.01382,0,0,1,1.31824.33553l-.4793.86282h-6.13559l.40742-.74294a.368.368,0,0,0,0-.38352.38245.38245,0,0,0-.33553-.19175h-1.19836a.49783.49783,0,0,1-.5512-.43133c0-.23974.26365-.26364.43132-.28755h1.89332a.40742.40742,0,0,0,0-.81484H456.6459a1.12614,1.12614,0,0,0-1.22228,1.07848v.0239a1.28828,1.28828,0,0,0,1.34212,1.22229h.52728c-.23974.43132-.93472,1.70175-1.6058,2.972a3.52317,3.52317,0,0,0-1.3901-.28772,3.59008,3.59008,0,1,0,2.06118.64716l.67108-1.22228,3.06779,3.64305a.87467.87467,0,0,0-.07189.35943,1.02878,1.02878,0,0,0,.81484.9827,1.3731,1.3731,0,0,0,.40757,0,1.00641,1.00641,0,0,0,.57526-.38351h1.62968a3.58475,3.58475,0,1,0,3.54709-4.02657Zm-9.89842,3.59507a2.80416,2.80416,0,0,1-5.60831,0,2.77226,2.77226,0,0,1,2.80415-2.78023,3.37747,3.37747,0,0,1,.9827.16785c-.71906,1.29414-1.31824,2.42064-1.31824,2.42064a.56556.56556,0,0,0-.048.19175.39532.39532,0,0,0,.21567.35944.42924.42924,0,0,0,.5512-.16785l1.29431-2.42047a2.80205,2.80205,0,0,1,1.12645,2.22886Zm7.93312-2.9959a3.5223,3.5223,0,0,0-1.6058,2.63647h-1.414l2.27684-4.17032c.16768.3596.45542.91079.74294,1.5339Zm.35944.71906c.40742.79092.767,1.55778.9586,1.91741h-2.13308a2.79494,2.79494,0,0,1,1.17444-1.91741Zm-7.95709-2.68428h6.13558l-2.10915,3.90669a2.09061,2.09061,0,0,0-.21566-.07189,1.26947,1.26947,0,0,0-.40757-.00018c-.07.01653-.14378.0239-.21567.048-1.00662-1.19836-2.924-3.4752-3.21155-3.81074Zm9.56288,7.76536a2.78768,2.78768,0,0,1-2.75613-2.37279l2.75613.00016a.38245.38245,0,0,0,.33554-.19175.43379.43379,0,0,0,.0239-.38352l-1.24633-2.49249a2.75209,2.75209,0,0,1,.88674-.14378,2.80777,2.80777,0,0,1,2.80416,2.80415,2.772,2.772,0,0,1-2.804,2.78006Z" fill="#fff" opacity="0.5"/>
    <line x1="418.16629" y1="301.87221" x2="418.16629" y2="369.07508" fill="none" stroke="#fff" stroke-miterlimit="10" stroke-width="0.25"/>
    <polygon points="1023.945 767.048 316.055 767.048 316.055 369.076 416.209 369.076 416.209 370.576 317.555 370.576 317.555 765.548 1022.445 765.548 1022.445 634.523 1023.945 634.523 1023.945 767.048" fill="#fff"/>
    <polygon points="378.464 340.266 378.464 318.537 391.102 329.402 378.464 340.266" fill="#fff"/>
    <polygon points="694.217 368.199 663.493 368.199 655.579 368.199 655.579 374.199 655.579 379.63 663.493 379.63 663.493 374.199 694.217 374.199 694.217 413.205 663.493 413.205 663.493 407.774 655.579 407.774 655.579 413.205 655.579 419.205 663.493 419.205 694.217 419.205 701.451 419.205 701.451 413.205 701.451 374.199 701.451 368.199 694.217 368.199" fill="#fff"/>
    <polyline points="701.451 390.237 729.549 390.237 729.549 340.058 664.642 340.058 664.642 368.199" fill="none" stroke="#fff" stroke-miterlimit="10" stroke-width="0.5"/>
    <rect x="701.40701" y="340.05773" width="28.14162" height="28.14162" fill="none" stroke="#fff" stroke-miterlimit="10" stroke-width="0.5"/>
    <rect x="664.64235" y="340.05773" width="7.34043" height="28.14162" fill="none" stroke="#fff" stroke-miterlimit="10" stroke-width="0.5"/>
    <rect x="671.98277" y="340.05773" width="7.34043" height="28.14162" fill="none" stroke="#fff" stroke-miterlimit="10" stroke-width="0.5"/>
    <rect x="679.35446" y="340.05773" width="7.34043" height="28.14162" fill="none" stroke="#fff" stroke-miterlimit="10" stroke-width="0.5"/>
    <rect x="686.69489" y="340.05773" width="7.34043" height="28.14162" fill="none" stroke="#fff" stroke-miterlimit="10" stroke-width="0.5"/>
    <rect x="711.8076" y="357.79875" width="7.34043" height="28.14162" transform="translate(343.60826 1087.34738) rotate(-90)" fill="none" stroke="#fff" stroke-miterlimit="10" stroke-width="0.5"/>
    <rect x="711.8076" y="365.13918" width="7.34043" height="28.14162" transform="translate(336.26783 1094.6878) rotate(-90)" fill="none" stroke="#fff" stroke-miterlimit="10" stroke-width="0.5"/>
    <polyline points="701.451 397.267 729.549 397.267 729.549 419.304" fill="none" stroke="#fff" stroke-miterlimit="10" stroke-width="0.5"/>
    <polyline points="655.579 419.304 729.549 419.304 729.549 411.963 701.407 411.963" fill="none" stroke="#fff" stroke-miterlimit="10" stroke-width="0.5"/>
    <rect x="711.8076" y="394.22229" width="7.34043" height="28.14162" transform="translate(1123.77092 -307.18471) rotate(90)" fill="none" stroke="#fff" stroke-miterlimit="10" stroke-width="0.5"/>
    <polygon points="728.245 419.205 729.549 419.205 729.549 391.08 729.549 341.362 729.549 340.058 664.642 340.058 664.642 341.362 728.245 341.362 728.245 419.205" fill="none" stroke="#fff" stroke-miterlimit="10" stroke-width="0.25"/>
    <g>
      <g>
        <path d="M664.64233,354.234h36.102a13.01074,13.01074,0,0,1,13.01075,13.01061v49.94149" fill="none" stroke="#fff" stroke-miterlimit="10" stroke-width="0.5"/>
        <path d="M711.35522,413.76868a.25.25,0,0,1,.34522.07715l2.05469,3.22605,2.05468-3.22605a.25005.25005,0,1,1,.42188.26855l-2.26563,3.55715a.25013.25013,0,0,1-.42187,0l-2.26563-3.55715a.25077.25077,0,0,1,.07666-.3457Z" fill="#fff"/>
      </g>
      <circle cx="664.64235" cy="354.23397" r="1.15527" fill="none" stroke="#fff" stroke-miterlimit="10" stroke-width="0.5"/>
    </g>
  </g>
</svg>
