<svg id="A_6NP" data-name="A/6NP" xmlns="http://www.w3.org/2000/svg" viewBox="0 0 1340 920">
  <g>
    <rect width="1340" height="920" fill="#214f77"/>
    <g>
      <path d="M523.89068,575.66964a26.09968,26.09968,0,0,1-6.549,17.18l-19.27715-17.3056" fill="none" stroke="#fff" stroke-miterlimit="10" stroke-width="0.25" opacity="0.5"/>
      <path d="M545.81612,513.246a23.153,23.153,0,0,0-5.80955-15.24032l-17.17221,15.44122" fill="none" stroke="#fff" stroke-miterlimit="10" stroke-width="0.25" opacity="0.5"/>
      <path d="M490.42038,525.28963a25.89775,25.89775,0,0,0-17.04709,6.4983l17.17171,19.128" fill="none" stroke="#fff" stroke-miterlimit="10" stroke-width="0.25" opacity="0.5"/>
      <path d="M576.13722,552.10432a30.05977,30.05977,0,0,1-19.78668-7.54263l19.93133-22.202" fill="none" stroke="#fff" stroke-miterlimit="10" stroke-width="0.25" opacity="0.5"/>
    </g>
    <path d="M746.45111,611.17154a26.0997,26.0997,0,0,1-6.549,17.18L720.625,611.046" fill="none" stroke="#fff" stroke-miterlimit="10" stroke-width="0.25" opacity="0.5"/>
    <path d="M746.45176,519.06168a23.15292,23.15292,0,0,0-5.80955-15.24032L723.47,519.26259" fill="none" stroke="#fff" stroke-miterlimit="10" stroke-width="0.25" opacity="0.5"/>
    <path d="M493.3943,439.7422a23.15293,23.15293,0,0,0,15.24032-5.80956l-15.44123-17.17221" fill="none" stroke="#fff" stroke-miterlimit="10" stroke-width="0.25" opacity="0.5"/>
    <path d="M757.01063,410.45617a23.15289,23.15289,0,0,0-15.24032,5.80956l15.44122,17.17221" fill="none" stroke="#fff" stroke-miterlimit="10" stroke-width="0.25" opacity="0.5"/>
    <path d="M704.59383,579.16672a25.89777,25.89777,0,0,0-17.04709,6.4983l17.17171,19.128" fill="none" stroke="#fff" stroke-miterlimit="10" stroke-width="0.25" opacity="0.5"/>
    <path d="M881.0787,457.16667a26.13352,26.13352,0,0,0-6.55748-17.20232l-19.30214,17.32807" fill="none" stroke="#fff" stroke-miterlimit="10" stroke-width="0.25" opacity="0.5"/>
    <path d="M769.76041,579.17988a25.98854,25.98854,0,0,1,17.10684,6.52108l-17.23189,19.195" fill="none" stroke="#fff" stroke-miterlimit="10" stroke-width="0.25" opacity="0.5"/>
    <path d="M644.6097,315.2327a26.40327,26.40327,0,0,1,17.37985,6.62515l-17.50691,19.50136" fill="none" stroke="#fff" stroke-miterlimit="10" stroke-width="0.25" opacity="0.5"/>
    <path d="M490.38738,341.34454a26.03438,26.03438,0,0,1-17.137-6.53259L490.51266,315.583" fill="none" stroke="#fff" stroke-miterlimit="10" stroke-width="0.25" opacity="0.5"/>
    <path d="M464.13034,364.03872a26.86557,26.86557,0,0,0,6.74115,17.68415l19.8428-17.81343" fill="none" stroke="#fff" stroke-miterlimit="10" stroke-width="0.25" opacity="0.5"/>
    <path d="M523.947,364.70823a27.60094,27.60094,0,0,1-6.92568,18.16823l-20.386-18.30105" fill="none" stroke="#fff" stroke-miterlimit="10" stroke-width="0.25" opacity="0.5"/>
    <path d="M707.10851,552.08881a30.56361,30.56361,0,0,0,20.11835-7.66907l-20.26543-22.57413" fill="none" stroke="#fff" stroke-miterlimit="10" stroke-width="0.25" opacity="0.5"/>
    <path d="M591.81667,362.35453a29.60546,29.60546,0,0,1,7.42863-19.48763L621.11171,362.497" fill="none" stroke="#fff" stroke-miterlimit="10" stroke-width="0.25" opacity="0.5"/>
    <g>
      <rect x="493.39701" y="393.48391" width="36.17451" height="17.71713" fill="#fff" opacity="0.1"/>
      <g opacity="0.5">
        <path d="M529.32146,393.73392V410.951l-35.67456,0V393.73392h35.67456m.25-.25H493.3969v17.71713l36.17456,0V393.48392Z" fill="#fff"/>
      </g>
    </g>
    <g>
      <rect x="552.76504" y="414.17806" width="23.38728" height="24.97606" fill="#fff" opacity="0.1"/>
      <g opacity="0.5">
        <path d="M575.90227,414.42806v24.47606l-22.88721,0V414.42806h22.88721m.25-.25H552.76506v24.97607l23.38721,0V414.17806Z" fill="#fff"/>
      </g>
    </g>
    <g>
      <rect x="707.21593" y="388.36374" width="17.87115" height="50.79033" transform="translate(1432.30549 827.51353) rotate(179.99966)" fill="#fff" opacity="0.1"/>
      <g opacity="0.5">
        <path d="M724.83709,388.61369V438.904l-17.3711.00011V388.61379l17.3711-.0001m.25-.25-17.8711.00011v50.79034l17.8711-.00011V388.36368Z" fill="#fff"/>
      </g>
    </g>
    <g>
      <rect x="731.26782" y="462.33427" width="17.84692" height="19.17576" transform="translate(268.27081 1212.1145) rotate(-90.00013)" fill="#fff" opacity="0.1"/>
      <g opacity="0.5">
        <path d="M749.52922,463.24869v17.34692H730.85344V463.24869h18.67578m.25-.25H730.60344v17.84692h19.17578V462.99869Z" fill="#fff"/>
      </g>
    </g>
    <g>
      <rect x="752.77955" y="462.99855" width="99.90868" height="17.59167" transform="matrix(-1, 0, 0, -1, 1605.4678, 943.58876)" fill="#fff" opacity="0.1"/>
      <g opacity="0.5">
        <path d="M852.43816,463.24855v17.09168H753.02947V463.24855h99.40869m.25-.25H752.77947v17.59168h99.90869V462.99855Z" fill="#fff"/>
      </g>
    </g>
    <g>
      <rect x="662.60346" y="557.96259" width="41.93496" height="17.84562" transform="translate(1367.14192 1133.77076) rotate(180)" fill="#fff" opacity="0.1"/>
      <g opacity="0.5">
        <path d="M704.2885,558.21259V575.5582H662.85344V558.21259H704.2885m.25-.25H662.60344V575.8082H704.5385V557.96259Z" fill="#fff"/>
      </g>
    </g>
    <g>
      <path d="M684.04807,558.20922v1.34253H678.338a1.50168,1.50168,0,0,0-1.5,1.5v8.79809a1.50168,1.50168,0,0,0,1.5,1.5h11.67023a1.50168,1.50168,0,0,0,1.5-1.5v-8.79809a1.50168,1.50168,0,0,0-1.5-1.5h-5.71014v-1.34253h-.25Zm5.96014,1.59253a1.25014,1.25014,0,0,1,1.25,1.25v8.79809a1.25014,1.25014,0,0,1-1.25,1.25H678.338a1.2501,1.2501,0,0,1-1.25-1.25v-8.79809a1.2501,1.2501,0,0,1,1.25-1.25h5.71009v4.27661a.125.125,0,0,0,.25,0v-4.27661Z" fill="#fff" opacity="0.5"/>
      <rect x="678.52416" y="558.36569" width="11.29787" height="14.17021" rx="1.25" transform="translate(118.7223 1249.62389) rotate(-90)" fill="#fff" opacity="0.1"/>
    </g>
    <g>
      <path d="M812.90436,463.24367v1.34253h-5.71008a1.50168,1.50168,0,0,0-1.5,1.5v8.79809a1.50168,1.50168,0,0,0,1.5,1.5H818.8645a1.50168,1.50168,0,0,0,1.5-1.5V466.0862a1.50168,1.50168,0,0,0-1.5-1.5h-5.71014v-1.34253h-.25Zm5.96014,1.59253a1.25014,1.25014,0,0,1,1.25,1.25v8.79809a1.25014,1.25014,0,0,1-1.25,1.25H807.19428a1.2501,1.2501,0,0,1-1.25-1.25V466.0862a1.2501,1.2501,0,0,1,1.25-1.25h5.71008v4.27661a.125.125,0,1,0,.25,0V464.8362Z" fill="#fff" opacity="0.5"/>
      <rect x="807.38045" y="463.40014" width="11.29787" height="14.17021" rx="1.25" transform="translate(342.54415 1283.51463) rotate(-90)" fill="#fff" opacity="0.1"/>
    </g>
    <g>
      <path d="M740.06625,463.24367v1.34253h-5.71008a1.50168,1.50168,0,0,0-1.5,1.5v8.79809a1.50168,1.50168,0,0,0,1.5,1.5h11.67022a1.50168,1.50168,0,0,0,1.5-1.5V466.0862a1.50168,1.50168,0,0,0-1.5-1.5h-5.71014v-1.34253h-.25Zm5.96014,1.59253a1.25014,1.25014,0,0,1,1.25,1.25v8.79809a1.25014,1.25014,0,0,1-1.25,1.25H734.35617a1.2501,1.2501,0,0,1-1.25-1.25V466.0862a1.2501,1.2501,0,0,1,1.25-1.25h5.71008v4.27661a.125.125,0,0,0,.25,0V464.8362Z" fill="#fff" opacity="0.5"/>
      <rect x="734.54234" y="463.40014" width="11.29787" height="14.17021" rx="1.25" transform="translate(269.70603 1210.67652) rotate(-90)" fill="#fff" opacity="0.1"/>
    </g>
    <g>
      <path d="M707.46377,424.4825h1.34253v5.71008a1.50168,1.50168,0,0,0,1.5,1.5h8.7981a1.50168,1.50168,0,0,0,1.5-1.5l0-11.67023a1.50168,1.50168,0,0,0-1.5-1.5l-8.79809,0a1.50168,1.50168,0,0,0-1.5,1.5v5.71014h-1.34253v.25Zm1.59253-5.96014a1.25014,1.25014,0,0,1,1.25-1.25l8.79809,0a1.25014,1.25014,0,0,1,1.25,1.25l0,11.67023a1.2501,1.2501,0,0,1-1.25,1.25h-8.7981a1.2501,1.2501,0,0,1-1.25-1.25V424.4825h4.27661a.125.125,0,0,0,0-.25H709.0563Z" fill="#fff" opacity="0.5"/>
      <rect x="709.05641" y="417.27236" width="11.29787" height="14.17021" rx="1.25" transform="translate(1429.41084 848.71471) rotate(179.99998)" fill="#fff" opacity="0.1"/>
    </g>
    <g>
      <path d="M707.46377,403.82434h1.34253v5.71008a1.50168,1.50168,0,0,0,1.5,1.5h8.7981a1.50169,1.50169,0,0,0,1.5-1.5l0-11.67022a1.50168,1.50168,0,0,0-1.5-1.5H710.3063a1.50168,1.50168,0,0,0-1.5,1.5v5.71015h-1.34253v.25Zm1.59253-5.96015a1.25014,1.25014,0,0,1,1.25-1.25h8.79809a1.25014,1.25014,0,0,1,1.25,1.25l0,11.67023a1.25011,1.25011,0,0,1-1.25,1.25h-8.7981a1.2501,1.2501,0,0,1-1.25-1.25v-5.71008l4.27661,0a.125.125,0,0,0,0-.25l-4.27661,0Z" fill="#fff" opacity="0.5"/>
      <rect x="709.05641" y="396.6142" width="11.29787" height="14.17021" rx="1.25" transform="translate(1429.41083 807.39837) rotate(179.99998)" fill="#fff" opacity="0.1"/>
    </g>
    <g>
      <path d="M512.21515,410.94972v-1.34253h5.71008a1.50168,1.50168,0,0,0,1.5-1.5v-8.7981a1.50168,1.50168,0,0,0-1.5-1.5l-11.67023,0a1.50168,1.50168,0,0,0-1.5,1.5v8.79809a1.50168,1.50168,0,0,0,1.5,1.5h5.71015v1.34253h.25Zm-5.96015-1.59253a1.25014,1.25014,0,0,1-1.25-1.25V399.3091a1.25014,1.25014,0,0,1,1.25-1.25l11.67023,0a1.25011,1.25011,0,0,1,1.25,1.25v8.7981a1.2501,1.2501,0,0,1-1.25,1.25h-5.71008v-4.27661a.125.125,0,0,0-.25,0v4.27661Z" fill="#fff" opacity="0.5"/>
      <rect x="506.44118" y="396.62304" width="11.29787" height="14.17021" rx="1.25" transform="translate(915.7981 -108.3821) rotate(89.99998)" fill="#fff" opacity="0.1"/>
    </g>
    <g>
      <rect x="493.39701" y="441.6754" width="33.30217" height="15.32446" fill="#fff" opacity="0.1"/>
      <g opacity="0.5">
        <path d="M526.44915,441.9254v14.82446H493.6469V441.9254h32.80225m.25-.25H493.3969v15.32446h33.30225V441.6754Z" fill="#fff"/>
      </g>
    </g>
    <g>
      <path d="M510.49174,456.74854V455.406h5.71009a1.50167,1.50167,0,0,0,1.5-1.5v-8.7981a1.50168,1.50168,0,0,0-1.5-1.5H504.53159a1.50168,1.50168,0,0,0-1.5,1.5V453.906a1.50168,1.50168,0,0,0,1.5,1.5h5.71014v1.34253h.25ZM504.5316,455.156a1.25014,1.25014,0,0,1-1.25-1.25v-8.79809a1.25014,1.25014,0,0,1,1.25-1.25h11.67023a1.2501,1.2501,0,0,1,1.25,1.25v8.7981a1.2501,1.2501,0,0,1-1.25,1.25h-5.71009V450.8794a.125.125,0,0,0-.25,0V455.156Z" fill="#fff" opacity="0.5"/>
      <rect x="504.71777" y="442.42185" width="11.29787" height="14.17021" rx="1.25" transform="translate(959.87351 -60.85989) rotate(89.99998)" fill="#fff" opacity="0.1"/>
    </g>
    <g>
      <path d="M534.46347,462.99987v1.34253h-5.71009a1.50168,1.50168,0,0,0-1.5,1.5l0,8.7981a1.50168,1.50168,0,0,0,1.5,1.5l11.67022,0a1.50168,1.50168,0,0,0,1.5-1.5v-8.7981a1.50168,1.50168,0,0,0-1.5-1.5l-5.71014,0v-1.34253h-.25Zm5.96014,1.59252a1.25014,1.25014,0,0,1,1.25,1.25v8.7981a1.25014,1.25014,0,0,1-1.25,1.25l-11.67022,0a1.2501,1.2501,0,0,1-1.25-1.25l0-8.7981a1.2501,1.2501,0,0,1,1.25-1.25h5.71009V468.869a.125.125,0,0,0,.25,0V464.5924Z" fill="#fff" opacity="0.5"/>
      <rect x="528.93956" y="463.15634" width="11.29787" height="14.17021" rx="1.25" transform="translate(64.34727 1004.83014) rotate(-90.00002)" fill="#fff" opacity="0.1"/>
    </g>
    <g>
      <rect x="514.43764" y="463.2579" width="38.0293" height="17.32967" fill="#fff" opacity="0.1"/>
      <g opacity="0.5">
        <path d="M552.71694,480.84561h-38.5293V462.99987h38.5293Zm-38.2793-.258h38.0293V463.2579h-38.0293Z" fill="#fff"/>
      </g>
    </g>
    <g>
      <rect x="644.6842" y="611.2514" width="60.61068" height="28.99863" transform="matrix(-1, 0, 0, -1, 1349.97913, 1251.50139)" fill="#fff" opacity="0.1"/>
      <g opacity="0.5">
        <path d="M705.04485,611.50141V640h-60.1106V611.50141h60.1106m.25-.25h-60.6106V640.25h60.6106V611.25141Z" fill="#fff"/>
      </g>
    </g>
    <g>
      <rect x="719.30633" y="641.15417" width="77.43617" height="17.62892" transform="translate(1407.9929 -108.05592) rotate(89.99999)" fill="#fff" opacity="0.1"/>
      <g opacity="0.5">
        <path d="M766.58879,611.50052v76.93619l-17.1289,0V611.50055l17.1289,0m.25-.25-17.6289,0v77.43619l17.6289,0V611.25052Z" fill="#fff"/>
      </g>
    </g>
    <g>
      <g>
        <rect x="633.18309" y="654.43588" width="42.50662" height="19.50429" transform="translate(1318.62416 9.75135) rotate(89.99998)" fill="#fff" opacity="0.1"/>
        <g opacity="0.5">
          <path d="M663.93865,643.18469v42.00663l-19.0044,0V643.18472l19.0044,0m.25-.25-19.5044,0v42.50663l19.5044,0V642.93469Z" fill="#fff"/>
        </g>
      </g>
      <g>
        <rect x="661.40397" y="661.38559" width="11.45745" height="5.88829" transform="translate(1331.46214 -2.80326) rotate(89.99997)" fill="#fff" opacity="0.1"/>
        <polyline points="664.189 670.058 670.077 670.058 670.077 658.601 664.189 658.601" fill="none" stroke="#fff" stroke-miterlimit="10" stroke-width="0.25" opacity="0.5"/>
      </g>
    </g>
    <g>
      <rect x="759.99646" y="438.97338" width="92.61758" height="18.02189" transform="translate(1612.61051 895.96863) rotate(180)" fill="#fff" opacity="0.1"/>
      <g opacity="0.5">
        <path d="M852.36394,439.22337v17.5219H760.24651v-17.5219h92.11743m.25-.25H759.99651v18.0219h92.61743v-18.0219Z" fill="#fff"/>
      </g>
    </g>
    <g>
      <rect x="733.38777" y="482.52235" width="55.84237" height="17.05952" transform="matrix(0, -1, 1, 0, 270.25733, 1252.36138)" fill="#fff" opacity="0.1"/>
      <g opacity="0.5">
        <path d="M769.58879,463.38092V518.7233l-16.55957,0V463.38094l16.55957,0m.25-.25-17.05957,0v55.84237l17.05957,0V463.13092Z" fill="#fff"/>
      </g>
    </g>
    <g>
      <rect x="759.43663" y="508.57115" width="3.74468" height="17.05952" transform="translate(244.21536 1278.41485) rotate(-90.00055)" fill="#fff" opacity="0.1"/>
      <g opacity="0.5">
        <path d="M769.58879,515.47858v3.24467H753.02922v-3.24467h16.55957m.25-.25H752.77922v3.74467h17.05957v-3.74467Z" fill="#fff"/>
      </g>
    </g>
    <g>
      <polygon points="547.914 647.447 541.978 647.447 541.978 635.872 547.914 635.872 547.914 635.622 541.978 635.622 541.728 635.622 541.728 635.872 541.728 647.447 541.728 647.697 541.978 647.697 547.914 647.697 547.914 647.447" fill="#fff" opacity="0.5"/>
      <rect x="547.91398" y="616.15933" width="22.59574" height="33.95745" fill="#fff" opacity="0.1"/>
      <g opacity="0.1">
        <rect x="541.97781" y="618.82954" width="5.93617" height="11.57447" fill="#fff"/>
      </g>
      <g opacity="0.5">
        <path d="M570.25969,616.40933v33.45743H548.164V616.40933h22.0957m.25-.25H547.914v33.95743h22.5957V616.15933Z" fill="#fff"/>
      </g>
      <polygon points="547.914 630.404 541.978 630.404 541.978 618.83 547.914 618.83 547.914 618.58 541.978 618.58 541.728 618.58 541.728 618.83 541.728 630.404 541.728 630.654 541.978 630.654 547.914 630.654 547.914 630.404" fill="#fff" opacity="0.5"/>
      <g opacity="0.1">
        <rect x="541.97781" y="635.87209" width="5.93617" height="11.57447" fill="#fff"/>
      </g>
      <polygon points="570.51 618.83 576.446 618.83 576.446 630.404 570.51 630.404 570.51 630.654 576.446 630.654 576.696 630.654 576.696 630.404 576.696 618.83 576.696 618.58 576.446 618.58 570.51 618.58 570.51 618.83" fill="#fff" opacity="0.5"/>
      <g opacity="0.1">
        <rect x="570.50972" y="635.8721" width="5.93617" height="11.57447" transform="translate(1146.95561 1283.31866) rotate(180)" fill="#fff"/>
      </g>
      <polygon points="570.51 635.872 576.446 635.872 576.446 647.447 570.51 647.447 570.51 647.697 576.446 647.697 576.696 647.697 576.696 647.447 576.696 635.872 576.696 635.622 576.446 635.622 570.51 635.622 570.51 635.872" fill="#fff" opacity="0.5"/>
      <g opacity="0.1">
        <rect x="570.50972" y="618.82955" width="5.93617" height="11.57447" transform="translate(1146.95561 1249.23357) rotate(180)" fill="#fff"/>
      </g>
    </g>
    <rect x="391.05228" y="456.99987" width="189.44681" height="6" fill="#fff"/>
    <rect x="546.38637" y="486.76583" width="65.53191" height="6" transform="translate(89.3865 1068.91815) rotate(-90)" fill="#fff"/>
    <rect x="576.15233" y="551.96263" width="68.53191" height="6" transform="translate(1220.83657 1109.92527) rotate(180)" fill="#fff"/>
    <rect x="574.82186" y="618.82502" width="133.72477" height="6" transform="translate(1263.50926 -19.85923) rotate(90)" fill="#fff"/>
    <rect x="446.99275" y="524.47226" width="3" height="99.67223" transform="translate(-125.81562 1022.80113) rotate(-90)" fill="#fff"/>
    <rect x="549.54696" y="547.02646" width="3" height="54.56383" transform="translate(-23.26142 1125.35533) rotate(-90)" fill="#fff"/>
    <rect x="681.27682" y="571.65863" width="3" height="76.18516" transform="translate(73.02561 1292.52803) rotate(-90)" fill="#fff"/>
    <rect x="755.08279" y="599.49526" width="3" height="20.51189" transform="translate(146.83159 1366.334) rotate(-90)" fill="#fff"/>
    <rect x="755.08279" y="510.21732" width="3" height="20.51189" transform="translate(236.10952 1277.05607) rotate(-90)" fill="#fff"/>
    <rect x="713.92576" y="512.26367" width="3" height="16.4192" transform="translate(194.95249 1235.89903) rotate(-90)" fill="#fff"/>
    <rect x="749.77918" y="462.99987" width="3" height="55.9734" fill="#fff"/>
    <rect x="756.99648" y="433.26583" width="3" height="23.83771" fill="#fff"/>
    <rect x="756.99648" y="362.0371" width="3" height="48.54516" fill="#fff"/>
    <rect x="506.714" y="499.96479" width="3" height="29.63399" transform="translate(-6.56778 1022.99579) rotate(-90)" fill="#fff"/>
    <rect x="559.37955" y="499.55091" width="3.0838" height="30.46176" transform="translate(46.13967 1075.70323) rotate(-90)" fill="#fff"/>
    <rect x="575.48845" y="551.96263" width="3" height="23.84574" transform="translate(1153.97689 1127.77101) rotate(180)" fill="#fff"/>
    <rect x="552.76504" y="462.75519" width="3" height="18.09043" transform="translate(1108.53008 943.6008) rotate(180)" fill="#fff"/>
    <rect x="562.95868" y="467.65197" width="3" height="23.38729" transform="translate(1043.8043 -85.11307) rotate(90)" fill="#fff"/>
    <rect x="620.76504" y="557.96263" width="3" height="17.84574" transform="translate(1244.53008 1133.77101) rotate(180)" fill="#fff"/>
    <rect x="628.22464" y="565.34878" width="3" height="17.9192" transform="translate(1204.03302 -55.41626) rotate(90)" fill="#fff"/>
    <rect x="490.39701" y="550.84029" width="3" height="21.96809" transform="translate(983.79402 1123.64867) rotate(180)" fill="#fff"/>
    <rect x="490.39701" y="462.99987" width="3" height="62.41489" transform="translate(983.79402 988.41463) rotate(180)" fill="#fff"/>
    <g>
      <g>
        <path d="M479.76953,671.0602H493.895V649.005H479.76953a3.8958,3.8958,0,0,0-3.91406,3.86817v14.31933A3.89539,3.89539,0,0,0,479.76953,671.0602Z" fill="#fff" opacity="0.1"/>
        <rect x="494.14498" y="649.00502" width="3.9502" height="22.05518" fill="#fff" opacity="0.2"/>
        <path d="M479.76953,671.3102h18.57564V648.755H479.76953a4.146,4.146,0,0,0-4.16406,4.11817v14.31933A4.14586,4.14586,0,0,0,479.76953,671.3102ZM494.145,649.005h3.95019V671.0602H494.145Zm-18.28951,3.86817a3.8958,3.8958,0,0,1,3.91406-3.86817H493.895V671.0602H479.76953a3.89539,3.89539,0,0,1-3.91406-3.86768Z" fill="#fff" opacity="0.5"/>
      </g>
      <g>
        <path d="M479.76953,634.27828H493.895V612.22311H479.76953a3.8958,3.8958,0,0,0-3.91406,3.86816v14.31934A3.89538,3.89538,0,0,0,479.76953,634.27828Z" fill="#fff" opacity="0.1"/>
        <rect x="494.14498" y="612.22311" width="3.9502" height="22.05518" fill="#fff" opacity="0.2"/>
        <path d="M479.76953,634.52828h18.57564V611.97311H479.76953a4.146,4.146,0,0,0-4.16406,4.11816v14.31934A4.14585,4.14585,0,0,0,479.76953,634.52828ZM494.145,612.22311h3.95019v22.05517H494.145Zm-18.28951,3.86816a3.8958,3.8958,0,0,1,3.91406-3.86816H493.895v22.05517H479.76953a3.89538,3.89538,0,0,1-3.91406-3.86767Z" fill="#fff" opacity="0.5"/>
      </g>
    </g>
    <g>
      <path d="M426.20731,606.30669H409.136v70.66992h17.07129a3.8958,3.8958,0,0,0,3.91407-3.86816V610.17437A3.89539,3.89539,0,0,0,426.20731,606.30669Z" fill="#fff" opacity="0.1"/>
      <rect x="404.93583" y="606.30669" width="3.9502" height="70.66992" fill="#fff" opacity="0.2"/>
      <path d="M426.20731,606.05669H404.68583v71.16992h21.52148a4.146,4.146,0,0,0,4.16407-4.11816V610.17437A4.14586,4.14586,0,0,0,426.20731,606.05669ZM408.886,676.97661h-3.95019V606.30669H408.886Zm21.23536-3.86816a3.8958,3.8958,0,0,1-3.91407,3.86816H409.136V606.30669h17.07129a3.89539,3.89539,0,0,1,3.91407,3.86768Z" fill="#fff" opacity="0.5"/>
    </g>
    <g>
      <g opacity="0.5">
        <path d="M452.90618,631.72321a9.91844,9.91844,0,1,1-9.91846,9.91845,9.91847,9.91847,0,0,1,9.91846-9.91845m0-.25a10.16844,10.16844,0,1,0,10.16845,10.16845,10.18,10.18,0,0,0-10.16845-10.16845Z" fill="#fff"/>
      </g>
      <circle cx="452.90627" cy="641.64165" r="9.91843" fill="#fff" opacity="0.1"/>
    </g>
    <g>
      <g>
        <path d="M469.76541,516.96V463.25486H419.28824V516.96a3.93614,3.93614,0,0,0,3.86817,3.9921h42.74133A3.93572,3.93572,0,0,0,469.76541,516.96Z" fill="#fff" opacity="0.1"/>
        <path d="M419.03824,462.99987V516.96a4.18882,4.18882,0,0,0,4.11817,4.24708h42.74133a4.18873,4.18873,0,0,0,4.11767-4.24708V462.99987m-.25,0H419.28824m3.86817,57.95224a3.93614,3.93614,0,0,1-3.86817-3.9921V463.25486h50.47717V516.96a3.93572,3.93572,0,0,1-3.86767,3.9921Z" fill="#fff" opacity="0.5"/>
      </g>
      <polygon points="418.449 475.286 398.912 475.286 398.912 463.275 418.449 463.275 418.783 463.275 419.038 463.275 419.038 463 398.657 463 398.657 475.561 419.038 475.561 419.038 475.286 418.783 475.286 418.449 475.286" fill="#fff" opacity="0.5"/>
      <polygon points="470.605 463.275 490.142 463.275 490.142 475.286 470.605 475.286 470.271 475.286 470.015 475.286 470.015 475.561 490.397 475.561 490.397 463 470.015 463 470.015 463.275 470.271 463.275 470.605 463.275" fill="#fff" opacity="0.5"/>
      <rect x="398.91208" y="463.27477" width="20.12616" height="12.01102" fill="#fff" opacity="0.1"/>
      <rect x="470.01541" y="463.27478" width="20.12616" height="12.01101" fill="#fff" opacity="0.1"/>
    </g>
    <g>
      <rect x="590.70392" y="545.74718" width="17.84573" height="42.2766" transform="translate(32.74108 1166.51205) rotate(-89.99998)" fill="#fff" opacity="0.1"/>
      <g opacity="0.5">
        <path d="M620.51506,558.21262v17.34573H578.73845V558.21262h41.77661m.25-.25H578.48845v17.84573h42.27661V557.96262Z" fill="#fff"/>
      </g>
    </g>
    <g>
      <rect x="444.07117" y="542.01309" width="12.10106" height="79.69137" transform="translate(-131.73755 1031.97987) rotate(-89.99994)" fill="#fff" opacity="0.1"/>
      <g opacity="0.5">
        <path d="M489.71746,576.05826v11.601H410.52605v-11.601h79.19141m.25-.25H410.27605v12.101h79.69141v-12.101Z" fill="#fff"/>
      </g>
    </g>
    <g>
      <rect x="435.63313" y="518.04462" width="17.78723" height="91.74036" transform="translate(-119.38841 1008.44108) rotate(-89.99995)" fill="#fff" opacity="0.1"/>
      <g opacity="0.5">
        <path d="M490.1469,555.27118v17.28723H398.90667V555.27118H490.1469m.25-.25H398.65667v17.78723H490.3969V555.02118Z" fill="#fff"/>
      </g>
    </g>
    <g>
      <rect x="620.7626" y="575.80839" width="17.91916" height="112.87901" transform="translate(1259.44429 1264.49586) rotate(-179.99999)" fill="#fff" opacity="0.1"/>
      <g opacity="0.5">
        <path d="M638.43173,576.05841v112.379H621.01261v-112.379h17.41912m.25-.25H620.76261v112.879h17.91912v-112.879Z" fill="#fff"/>
      </g>
    </g>
    <g>
      <path d="M493.397,462.99987v50.28191h20.79063V462.99987Zm20.53139,50.02268H493.65625V463.25911h10.007v2.97616h-7.0308v36.52057a7.15991,7.15991,0,0,0,14.31983,0V466.23527h-7.02979v-2.97616H513.9284Zm-10.13557-43.91491a.12955.12955,0,0,0,.12962-.12962v-2.48351H510.693v36.26133a6.90068,6.90068,0,0,1-13.80135,0V466.49451h6.77156V468.978A.12955.12955,0,0,0,503.79283,469.10764Z" fill="#fff" opacity="0.5"/>
      <path d="M493.65625,463.25911v49.76344H513.9284V463.25911ZM510.693,502.75584a6.90068,6.90068,0,0,1-13.80135,0V466.49451H510.693Z" fill="#fff" opacity="0.1"/>
      <path d="M496.89165,466.49451H510.693a0,0,0,0,1,0,0v36.50722a6.65478,6.65478,0,0,1-6.65478,6.65478h-.49179a6.65478,6.65478,0,0,1-6.65478-6.65478V466.49451A0,0,0,0,1,496.89165,466.49451Z" fill="#fff" opacity="0.2"/>
    </g>
    <g>
      <path d="M707.21616,388.62033h49.78032V368.0371H707.21616Zm49.52367-20.32658v20.06993h-49.267v-9.90714h2.94648v6.96066h36.15624a7.08848,7.08848,0,1,0,0-14.177H710.41929v6.95966h-2.94648v-9.90614ZM713.263,378.32822a.12825.12825,0,0,0-.12832-.12833h-2.45874v-6.703h35.89959a6.83183,6.83183,0,1,1,0,13.66367H710.67594v-6.704h2.45874A.12824.12824,0,0,0,713.263,378.32822Z" fill="#fff" opacity="0.5"/>
      <path d="M707.47281,388.36368h49.267V368.29375h-49.267Zm39.10272-16.8668a6.83184,6.83184,0,1,1,0,13.66367H710.67594V371.49688Z" fill="#fff" opacity="0.1"/>
      <path d="M725.20982,356.963h13.66367a0,0,0,0,1,0,0v36.07665a6.65478,6.65478,0,0,1-6.65478,6.65478h-.35412a6.65478,6.65478,0,0,1-6.65478-6.65478V356.963A0,0,0,0,1,725.20982,356.963Z" transform="translate(353.71294 1110.37037) rotate(-90)" fill="#fff" opacity="0.2"/>
    </g>
    <g>
      <path d="M576.15233,411.40145l0-46.19121-19.0992,0,0,46.1912ZM557.29124,365.4484l18.6229,0,0,45.71491-9.19284,0,0-2.734,6.45881,0,0-33.54941a6.57742,6.57742,0,1,0-13.15483,0l0,33.54942,6.45788,0v2.734l-9.19192,0Zm9.311,40.34218a.119.119,0,0,0-.11908.11908l0,2.28146-6.21973,0,0-33.31127a6.33927,6.33927,0,1,1,12.67853,0l0,33.31127h-6.22066v-2.28146A.119.119,0,0,0,566.60226,405.79058Z" fill="#fff" opacity="0.5"/>
      <path d="M575.91418,411.1633l0-45.71491-18.6229,0,0,45.71492Zm-15.65075-36.28344a6.33927,6.33927,0,1,1,12.67853,0l0,33.31127-12.67853,0Z" fill="#fff" opacity="0.1"/>
      <path d="M560.26344,368.54058H572.942a0,0,0,0,1,0,0v33.31128a6.33926,6.33926,0,0,1-6.33926,6.33926h0a6.33926,6.33926,0,0,1-6.33926-6.33926V368.54058a0,0,0,0,1,0,0Z" transform="translate(1133.20578 776.73118) rotate(179.99995)" fill="#fff" opacity="0.2"/>
    </g>
    <g>
      <g opacity="0.5">
        <path d="M571.82005,489.31044v9.7h-9.65014a4.85,4.85,0,0,1,0-9.7h9.65014m.25-.25h-9.90014a5.1,5.1,0,0,0,0,10.2h9.90014v-10.2Z" fill="#fff"/>
      </g>
      <g opacity="0.5">
        <polygon points="576.152 487.077 571.822 487.077 571.822 489.06 572.072 489.06 572.072 487.327 575.902 487.327 575.902 500.994 572.072 500.994 572.072 499.261 571.822 499.261 571.822 501.244 576.152 501.244 576.152 487.077 576.152 487.077" fill="#fff"/>
      </g>
      <path d="M571.82005,489.31044v9.7h-9.65014a4.85,4.85,0,0,1,0-9.7h9.65014" fill="#fff" opacity="0.1"/>
      <rect x="572.07005" y="487.327" width="3.83228" height="13.66699" fill="#fff" opacity="0.1"/>
    </g>
    <path d="M571.82005,489.31044v9.7h-9.65014a4.85,4.85,0,0,1,0-9.7h9.65014" fill="#fff" opacity="0.1"/>
    <g>
      <rect x="558.37621" y="555.69565" width="16.85963" height="16.86013" fill="#fff" opacity="0.1"/>
      <g opacity="0.5">
        <path d="M575.48845,555.443H558.12371v17.36535h17.36474V555.443Zm-17.1123,17.11273V555.69565h16.85962v16.86011Z" fill="#fff"/>
      </g>
      <g opacity="0.5">
        <polygon points="558.124 555.443 526.542 555.443 526.542 572.808 558.124 572.808 558.124 572.556 526.793 572.556 526.793 555.696 558.124 555.696 558.124 555.443 558.124 555.443" fill="#fff"/>
      </g>
      <g opacity="0.5">
        <path d="M566.80608,557.59317a6.53279,6.53279,0,1,0,6.5332,6.53278,6.5404,6.5404,0,0,0-6.5332-6.53278Zm0,12.813a6.28018,6.28018,0,1,1,6.28052-6.28018,6.28726,6.28726,0,0,1-6.28052,6.28018Z" fill="#fff"/>
      </g>
      <rect x="526.79425" y="555.69565" width="31.32935" height="16.86013" fill="#fff" opacity="0.1"/>
      <circle cx="566.80602" cy="564.12595" r="6.28042" fill="#fff" opacity="0.1"/>
    </g>
    <g>
      <rect x="621.14308" y="593.49729" width="17.41358" height="17.41358" fill="#fff" opacity="0.1"/>
      <g>
        <circle cx="625.7891" cy="598.13744" r="2.75801" fill="none" stroke="#fff" stroke-miterlimit="10" stroke-width="0.25" opacity="0.5"/>
        <circle cx="633.91065" cy="598.13744" r="2.75801" fill="none" stroke="#fff" stroke-miterlimit="10" stroke-width="0.25" opacity="0.5"/>
        <circle cx="625.7891" cy="606.27073" r="2.75801" fill="none" stroke="#fff" stroke-miterlimit="10" stroke-width="0.25" opacity="0.5"/>
        <circle cx="633.91065" cy="606.27073" r="2.75801" fill="none" stroke="#fff" stroke-miterlimit="10" stroke-width="0.25" opacity="0.5"/>
      </g>
      <g opacity="0.5">
        <path d="M638.6844,611.03844H621.01528V593.36931H638.6844Zm-17.41364-.25548h17.15816V593.62479H621.27076Z" fill="#fff"/>
      </g>
    </g>
    <g>
      <path d="M635.72336,652.82247h-1.21753v-5.71009a1.50169,1.50169,0,0,0-1.5-1.5h-8.7981a1.50168,1.50168,0,0,0-1.5,1.5v11.67023a1.50168,1.50168,0,0,0,1.5,1.5h8.7981a1.50168,1.50168,0,0,0,1.5-1.5v-5.71014h1.21753a.125.125,0,0,0,0-.25Zm-1.46753,5.96014a1.25014,1.25014,0,0,1-1.25,1.25h-8.7981a1.25014,1.25014,0,0,1-1.25-1.25V647.11238a1.2501,1.2501,0,0,1,1.25-1.25h8.7981a1.2501,1.2501,0,0,1,1.25,1.25v5.71009h-4.27662a.125.125,0,0,0,0,.25h4.27662Z" fill="#fff" opacity="0.5"/>
      <rect x="622.95784" y="645.86239" width="11.29787" height="14.17021" rx="1.25" fill="#fff" opacity="0.1"/>
    </g>
    <g>
      <rect x="662.60345" y="345.01051" width="91.39302" height="17.02659" fill="#fff" opacity="0.1"/>
      <g opacity="0.5">
        <path d="M753.74651,345.26051V361.7871H662.85344V345.26051h90.89307m.25-.25H662.60344V362.0371h91.39307V345.01051Z" fill="#fff"/>
      </g>
    </g>
    <g>
      <rect x="577.63536" y="280.16477" width="61.13665" height="28.97548" fill="#fff" opacity="0.1"/>
      <g opacity="0.5">
        <path d="M638.5219,280.41477v28.47548H577.88543V280.41477H638.5219m.25-.25H577.63543v28.97548H638.7719V280.16477Z" fill="#fff"/>
      </g>
    </g>
    <g>
      <rect x="498.79882" y="261.32582" width="77.82789" height="17.80218" transform="translate(267.48592 807.9397) rotate(-90.00001)" fill="#fff" opacity="0.1"/>
      <g opacity="0.5">
        <path d="M546.36394,231.563v77.32789l-17.30225,0V231.563l17.30225,0m.25-.25-17.80225,0v77.82789l17.80225,0V231.313Z" fill="#fff"/>
      </g>
    </g>
    <g>
      <rect x="434.84203" y="280.16477" width="58.55497" height="28.97548" fill="#fff" opacity="0.1"/>
      <g opacity="0.5">
        <path d="M493.1469,280.41477v28.47548H435.092V280.41477H493.1469m.25-.25H434.842v28.97548H493.3969V280.16477Z" fill="#fff"/>
      </g>
    </g>
    <g>
      <rect x="398.65664" y="343.88817" width="65.61701" height="18.14893" fill="#fff" opacity="0.1"/>
      <g opacity="0.5">
        <path d="M464.02361,344.13816V361.7871H398.90667V344.13817l65.11694,0m.25-.25-65.61694,0V362.0371h65.61694V343.88816Z" fill="#fff"/>
      </g>
    </g>
    <g>
      <rect x="368.64379" y="261.32582" width="77.82789" height="17.80218" transform="translate(137.33088 677.78467) rotate(-90.00001)" fill="#fff" opacity="0.1"/>
      <g opacity="0.5">
        <path d="M416.20891,231.563v77.32789l-17.30224,0V231.563l17.30224,0m.25-.25-17.80224,0v77.82789l17.80224,0V231.313Z" fill="#fff"/>
      </g>
    </g>
    <g>
      <rect x="793.06338" y="332.65412" width="79.56133" height="12.35638" fill="#fff" opacity="0.1"/>
      <g opacity="0.5">
        <path d="M872.37468,332.90413V344.7605H793.3134V332.90413h79.06128m.25-.25H793.0634V345.0105h79.56128V332.65413Z" fill="#fff"/>
      </g>
    </g>
    <g>
      <path d="M709.56994,359.52613V358.3086H715.28a1.50168,1.50168,0,0,0,1.5-1.5v-8.79809a1.50168,1.50168,0,0,0-1.5-1.5H703.60979a1.50168,1.50168,0,0,0-1.5,1.5v8.79809a1.50168,1.50168,0,0,0,1.5,1.5h5.71015v1.21753a.125.125,0,1,0,.25,0Zm-5.96015-1.46753a1.25014,1.25014,0,0,1-1.25-1.25v-8.79809a1.25014,1.25014,0,0,1,1.25-1.25H715.28a1.2501,1.2501,0,0,1,1.25,1.25v8.79809a1.2501,1.2501,0,0,1-1.25,1.25h-5.71008V353.782a.125.125,0,0,0-.25,0v4.27661Z" fill="#fff" opacity="0.5"/>
      <rect x="703.79597" y="345.32445" width="11.29787" height="14.17021" rx="1.25" transform="matrix(0, 1, -1, 0, 1061.85444, -357.03536)" fill="#fff" opacity="0.1"/>
    </g>
    <rect x="404.38796" y="672.01129" width="12" height="45.35221" transform="translate(-284.29944 1105.07536) rotate(-90)" fill="#fff"/>
    <rect x="519.21242" y="670.57095" width="12" height="48.23289" transform="translate(-169.47498 1219.89983) rotate(-90)" fill="#fff"/>
    <rect x="625.02251" y="681.02567" width="12" height="27.32346" transform="translate(-63.66489 1325.70992) rotate(-90)" fill="#fff"/>
    <rect x="386.65664" y="657.17008" width="12" height="43.51732" transform="translate(785.31327 1357.85748) rotate(180)" fill="#fff"/>
    <rect x="386.65664" y="549.53178" width="12" height="39.60638" transform="translate(785.31327 1138.66995) rotate(180)" fill="#fff"/>
    <rect x="386.65664" y="456.99987" width="12" height="24.5" transform="translate(785.31327 938.49974) rotate(180)" fill="#fff"/>
    <rect x="386.65664" y="589.13817" width="12" height="68.03191" transform="translate(785.31327 1246.30825) rotate(180)" fill="#d3d3d3" opacity="0.6"/>
    <rect x="358.64068" y="622.40412" width="68.03191" height="1.5" transform="translate(-230.49749 1015.81076) rotate(-90)" fill="#fff"/>
    <rect x="386.65664" y="481.49987" width="12" height="68.03191" transform="translate(785.31327 1031.03165) rotate(180)" fill="#d3d3d3" opacity="0.6"/>
    <rect x="358.64068" y="514.76583" width="68.03191" height="1.5" transform="translate(-122.85919 908.17246) rotate(-90)" fill="#fff"/>
    <rect x="461.08002" y="660.67144" width="12" height="68.03191" transform="translate(1161.76742 227.60738) rotate(90)" fill="#d3d3d3" opacity="0.6"/>
    <rect x="433.06406" y="693.9374" width="68.03191" height="1.5" transform="translate(934.16004 1389.3748) rotate(180)" fill="#fff"/>
    <rect x="577.34483" y="660.67144" width="12" height="68.03191" transform="translate(1278.03223 111.34257) rotate(90)" fill="#d3d3d3" opacity="0.6"/>
    <rect x="549.32887" y="693.9374" width="68.03191" height="1.5" transform="translate(1166.68966 1389.3748) rotate(180)" fill="#fff"/>
    <polyline points="388.157 219.312 388.157 163.819 895.212 163.819 895.212 219.312" fill="#fff" opacity="0.2"/>
    <g>
      <line x1="388.15664" y1="213.16791" x2="895.21185" y2="213.16801" fill="none" stroke="#fff" stroke-miterlimit="10" stroke-width="0.2"/>
      <line x1="388.15664" y1="209.36432" x2="895.21185" y2="209.36443" fill="none" stroke="#fff" stroke-miterlimit="10" stroke-width="0.2"/>
      <line x1="388.15664" y1="205.56074" x2="895.21185" y2="205.56084" fill="none" stroke="#fff" stroke-miterlimit="10" stroke-width="0.2"/>
      <line x1="388.15664" y1="201.75716" x2="895.21185" y2="201.75726" fill="none" stroke="#fff" stroke-miterlimit="10" stroke-width="0.2"/>
      <line x1="388.15664" y1="197.95358" x2="895.21185" y2="197.95368" fill="none" stroke="#fff" stroke-miterlimit="10" stroke-width="0.2"/>
      <line x1="388.15664" y1="194.15" x2="895.21185" y2="194.1501" fill="none" stroke="#fff" stroke-miterlimit="10" stroke-width="0.2"/>
      <line x1="388.15664" y1="190.34642" x2="895.21185" y2="190.34652" fill="none" stroke="#fff" stroke-miterlimit="10" stroke-width="0.2"/>
      <line x1="388.15664" y1="186.54284" x2="895.21185" y2="186.54294" fill="none" stroke="#fff" stroke-miterlimit="10" stroke-width="0.2"/>
      <line x1="388.15664" y1="182.73926" x2="895.21185" y2="182.73936" fill="none" stroke="#fff" stroke-miterlimit="10" stroke-width="0.2"/>
      <line x1="388.15664" y1="178.93568" x2="895.21185" y2="178.93578" fill="none" stroke="#fff" stroke-miterlimit="10" stroke-width="0.2"/>
      <line x1="388.15664" y1="175.1321" x2="895.21185" y2="175.1322" fill="none" stroke="#fff" stroke-miterlimit="10" stroke-width="0.2"/>
      <line x1="388.15664" y1="171.32852" x2="895.21185" y2="171.32862" fill="none" stroke="#fff" stroke-miterlimit="10" stroke-width="0.2"/>
      <line x1="388.15664" y1="167.52493" x2="895.21185" y2="167.52504" fill="none" stroke="#fff" stroke-miterlimit="10" stroke-width="0.2"/>
      <polyline points="895.212 216.972 388.157 216.971 388.157 163.721 895.212 163.721" fill="none" stroke="#fff" stroke-miterlimit="10" stroke-width="0.2"/>
    </g>
    <rect x="391.05228" y="456.99987" width="189.44681" height="6" fill="#fff"/>
    <rect x="528.67095" y="409.51848" width="100.96277" height="6" transform="translate(991.67081 -166.63384) rotate(90)" fill="#fff"/>
    <rect x="552.76504" y="439.15412" width="3" height="18.09043" transform="translate(1108.53008 896.39867) rotate(180)" fill="#fff"/>
    <rect x="562.95868" y="428.96048" width="3" height="23.38729" transform="translate(123.80456 1005.11281) rotate(-90)" fill="#fff"/>
    <rect x="493.67576" y="361.75835" width="3" height="3.5575" transform="translate(131.63866 858.71286) rotate(-90)" fill="#fff"/>
    <rect x="429.96515" y="330.72859" width="3" height="65.61702" transform="translate(67.92804 795.00225) rotate(-90)" fill="#fff"/>
    <rect x="446.31355" y="261.48334" width="3" height="98.31383" transform="translate(137.1733 758.4538) rotate(-90)" fill="#fff"/>
    <rect x="534.42892" y="297.16254" width="3" height="26.95542" transform="translate(225.28867 846.56917) rotate(-90)" fill="#fff"/>
    <rect x="525.8119" y="231.31233" width="3" height="77.82792" transform="translate(1054.62381 540.45259) rotate(180)" fill="#fff"/>
    <rect x="605.25554" y="278.71155" width="3" height="63.8574" transform="translate(296.11529 917.3958) rotate(-90)" fill="#fff"/>
    <rect x="620.76504" y="345.01051" width="3" height="17.0266" transform="translate(1244.53008 707.04761) rotate(180)" fill="#fff"/>
    <rect x="628.22464" y="337.55091" width="3" height="17.9192" transform="translate(283.21414 976.23515) rotate(-90)" fill="#fff"/>
    <rect x="548.48959" y="337.37436" width="3" height="52.32548" transform="translate(186.45249 913.52669) rotate(-90)" fill="#fff"/>
    <rect x="533.27467" y="371.3004" width="3" height="82.75532" transform="translate(122.09661 947.45273) rotate(-90)" fill="#fff"/>
    <rect x="490.39701" y="439.61708" width="3" height="17.38278" transform="translate(983.79402 896.61694) rotate(180)" fill="#fff"/>
    <rect x="490.39701" y="341.22208" width="3" height="75.71929" transform="translate(983.79402 758.16346) rotate(180)" fill="#fff"/>
    <rect x="490.39701" y="312.14025" width="3" height="3.51919" transform="translate(983.79402 627.79969) rotate(180)" fill="#fff"/>
    <rect x="490.93363" y="246.99899" width="0.25" height="0.25" transform="translate(982.11725 494.24799) rotate(180)" fill="#fff"/>
    <g>
      <g>
        <path d="M469.76541,403.03972v53.70515H419.28824V403.03972a3.93614,3.93614,0,0,1,3.86817-3.9921h42.74133A3.93572,3.93572,0,0,1,469.76541,403.03972Z" fill="#fff" opacity="0.1"/>
        <path d="M419.03824,456.99986V403.03972a4.18883,4.18883,0,0,1,4.11817-4.24709h42.74133a4.18873,4.18873,0,0,1,4.11767,4.24709v53.96014m-.25,0H419.28824m3.86817-57.95224a3.93614,3.93614,0,0,0-3.86817,3.9921v53.70515h50.47717V403.03972a3.93572,3.93572,0,0,0-3.86767-3.9921Z" fill="#fff" opacity="0.5"/>
      </g>
      <polygon points="418.449 444.714 398.912 444.714 398.912 456.725 418.449 456.725 418.783 456.725 419.038 456.725 419.038 457 398.657 457 398.657 444.439 419.038 444.439 419.038 444.714 418.783 444.714 418.449 444.714" fill="#fff" opacity="0.5"/>
      <polygon points="470.605 456.725 490.142 456.725 490.142 444.714 470.605 444.714 470.271 444.714 470.015 444.714 470.015 444.439 490.397 444.439 490.397 457 470.015 457 470.015 456.725 470.271 456.725 470.605 456.725" fill="#fff" opacity="0.5"/>
      <rect x="398.91208" y="444.71395" width="20.12616" height="12.01102" fill="#fff" opacity="0.1"/>
      <rect x="470.01541" y="444.71395" width="20.12616" height="12.01101" fill="#fff" opacity="0.1"/>
    </g>
    <g>
      <g>
        <path d="M801.78026,404.97066V351.2655h50.47717v53.70516a3.93612,3.93612,0,0,1-3.86817,3.99209H805.64794A3.93571,3.93571,0,0,1,801.78026,404.97066Z" fill="#fff" opacity="0.1"/>
        <path d="M852.50743,351.01051v53.96015a4.18882,4.18882,0,0,1-4.11817,4.24708H805.64794a4.18873,4.18873,0,0,1-4.11768-4.24708V351.01051m.25,0h50.47717m-3.86817,57.95224a3.93612,3.93612,0,0,0,3.86817-3.99209V351.2655H801.78026v53.70516a3.93571,3.93571,0,0,0,3.86768,3.99209Z" fill="#fff" opacity="0.5"/>
      </g>
      <polygon points="853.097 363.296 884.456 363.296 884.456 351.285 853.097 351.285 852.763 351.285 852.507 351.285 852.507 351.011 884.712 351.011 884.712 363.571 852.507 363.571 852.507 363.296 852.763 363.296 853.097 363.296" fill="#fff" opacity="0.5"/>
      <polygon points="800.941 351.285 760.252 351.285 760.252 363.296 800.941 363.296 801.275 363.296 801.53 363.296 801.53 363.571 759.996 363.571 759.996 351.011 801.53 351.011 801.53 351.285 801.275 351.285 800.941 351.285" fill="#fff" opacity="0.5"/>
      <rect x="852.50743" y="351.28541" width="31.94897" height="12.01102" transform="translate(1736.96384 714.58184) rotate(180)" fill="#fff" opacity="0.1"/>
      <rect x="760.25193" y="351.28542" width="41.27834" height="12.01101" transform="translate(1561.78219 714.58184) rotate(180)" fill="#fff" opacity="0.1"/>
    </g>
    <rect x="404.38796" y="202.63623" width="12" height="45.35221" transform="translate(635.70029 -185.07562) rotate(90)" fill="#fff"/>
    <rect x="519.21242" y="201.19589" width="12" height="48.23289" transform="translate(750.52476 -299.90009) rotate(90)" fill="#fff"/>
    <rect x="625.02251" y="211.65061" width="12" height="27.32346" transform="translate(856.33485 -405.71018) rotate(90)" fill="#fff"/>
    <rect x="386.65664" y="219.31233" width="12" height="43.51732" transform="translate(785.31327 482.14199) rotate(180)" fill="#fff"/>
    <rect x="386.65664" y="262.82966" width="12" height="107.6383" transform="translate(785.31327 633.29761) rotate(180)" fill="#fff"/>
    <rect x="386.65664" y="438.49987" width="12" height="24.5" transform="translate(785.31327 901.49974) rotate(180)" fill="#fff"/>
    <rect x="386.65664" y="370.46795" width="12" height="68.03191" transform="translate(785.31327 808.96782) rotate(180)" fill="#d3d3d3" opacity="0.6"/>
    <rect x="358.64068" y="403.73391" width="68.03191" height="1.5" transform="translate(797.14055 11.82727) rotate(90)" fill="#fff"/>
    <rect x="461.08002" y="191.29638" width="12" height="68.03191" transform="translate(241.76769 692.39236) rotate(-90)" fill="#d3d3d3" opacity="0.6"/>
    <rect x="433.06406" y="224.56233" width="68.03191" height="1.5" transform="translate(934.16004 450.62467) rotate(180)" fill="#fff"/>
    <g opacity="0.5">
      <polygon points="641.361 163.819 388.157 163.819 388.157 219.312 386.657 219.312 386.657 163.819 386.657 162.319 388.157 162.319 641.361 162.319 642.861 162.319 642.861 163.819 641.361 163.819" fill="#fff"/>
    </g>
    <polyline points="641.361 700.687 641.361 756.181 388.157 756.181 388.157 700.688" fill="#fff" opacity="0.2"/>
    <g>
      <line x1="641.3608" y1="706.83183" x2="388.15665" y2="706.83199" fill="none" stroke="#fff" stroke-miterlimit="10" stroke-width="0.2"/>
      <line x1="641.3608" y1="710.63541" x2="388.15665" y2="710.63557" fill="none" stroke="#fff" stroke-miterlimit="10" stroke-width="0.2"/>
      <line x1="641.36081" y1="714.43899" x2="388.15666" y2="714.43915" fill="none" stroke="#fff" stroke-miterlimit="10" stroke-width="0.2"/>
      <line x1="641.36081" y1="718.24257" x2="388.15666" y2="718.24273" fill="none" stroke="#fff" stroke-miterlimit="10" stroke-width="0.2"/>
      <line x1="641.36081" y1="722.04615" x2="388.15666" y2="722.04631" fill="none" stroke="#fff" stroke-miterlimit="10" stroke-width="0.2"/>
      <line x1="641.36082" y1="725.84973" x2="388.15667" y2="725.84989" fill="none" stroke="#fff" stroke-miterlimit="10" stroke-width="0.2"/>
      <line x1="641.36082" y1="729.65332" x2="388.15667" y2="729.65348" fill="none" stroke="#fff" stroke-miterlimit="10" stroke-width="0.2"/>
      <line x1="641.36082" y1="733.4569" x2="388.15668" y2="733.45706" fill="none" stroke="#fff" stroke-miterlimit="10" stroke-width="0.2"/>
      <line x1="641.36083" y1="737.26048" x2="388.15668" y2="737.26064" fill="none" stroke="#fff" stroke-miterlimit="10" stroke-width="0.2"/>
      <line x1="641.36083" y1="741.06406" x2="388.15668" y2="741.06422" fill="none" stroke="#fff" stroke-miterlimit="10" stroke-width="0.2"/>
      <line x1="641.36084" y1="744.86764" x2="388.15669" y2="744.8678" fill="none" stroke="#fff" stroke-miterlimit="10" stroke-width="0.2"/>
      <line x1="641.36084" y1="748.67122" x2="388.15669" y2="748.67138" fill="none" stroke="#fff" stroke-miterlimit="10" stroke-width="0.2"/>
      <line x1="641.36084" y1="752.4748" x2="388.1567" y2="752.47496" fill="none" stroke="#fff" stroke-miterlimit="10" stroke-width="0.2"/>
      <rect x="388.15667" y="703.02833" width="253.20415" height="53.25013" fill="none" stroke="#fff" stroke-miterlimit="10" stroke-width="0.2"/>
    </g>
    <g opacity="0.5">
      <polygon points="388.157 700.688 388.157 756.181 641.361 756.181 641.361 700.687 642.861 700.687 642.861 756.181 642.861 757.681 641.361 757.681 388.157 757.681 386.657 757.681 386.657 756.181 386.657 700.688 388.157 700.688" fill="#fff"/>
    </g>
    <rect x="577.34483" y="191.29638" width="12" height="68.03191" transform="translate(358.03249 808.65716) rotate(-90)" fill="#d3d3d3" opacity="0.6"/>
    <rect x="549.32887" y="224.56233" width="68.03191" height="1.5" transform="translate(1166.68966 450.62467) rotate(180)" fill="#fff"/>
    <rect x="702.8694" y="456.99987" width="152.55319" height="6" transform="translate(1558.29199 919.99974) rotate(180)" fill="#fff"/>
    <rect x="880.95451" y="456.99987" width="3.75734" height="6" transform="translate(1765.66636 919.99974) rotate(180)" fill="#fff"/>
    <rect x="656.73478" y="412.51848" width="94.96277" height="6" transform="translate(1119.73464 -288.69767) rotate(90)" fill="#fff"/>
    <rect x="620.76504" y="362.0371" width="138.48734" height="6" fill="#fff"/>
    <rect x="754.82685" y="345.01051" width="129.885" height="6" fill="#fff"/>
    <rect x="748.48318" y="350.5238" width="17.0266" height="6" transform="translate(1110.52029 -403.47268) rotate(90)" fill="#fff"/>
    <rect x="631.19919" y="348.61157" width="20.85106" height="6" transform="translate(993.23629 -290.01315) rotate(90)" fill="#fff"/>
    <rect x="582.15233" y="362.0371" width="9.7809" height="6" fill="#fff"/>
    <rect x="599.66229" y="270.33429" width="84.04392" height="6" transform="translate(368.34995 915.01854) rotate(-90)" fill="#fff"/>
    <rect x="727.60345" y="439.15412" width="3" height="18.09043" fill="#fff"/>
    <rect x="717.4098" y="428.96048" width="3" height="23.38729" transform="translate(278.25568 1159.56392) rotate(-90)" fill="#fff"/>
    <rect x="659.60345" y="345.01051" width="3" height="17.0266" fill="#fff"/>
    <rect x="652.14384" y="337.55091" width="3" height="17.9192" transform="translate(307.13334 1000.15435) rotate(-90)" fill="#fff"/>
    <rect x="792.18486" y="246.99899" width="0.25" height="0.25" fill="#fff"/>
    <rect x="866.98053" y="202.63623" width="12" height="45.35221" transform="translate(1098.29286 -647.66819) rotate(90)" fill="#fff"/>
    <rect x="752.15606" y="201.19589" width="12" height="48.23289" transform="translate(983.4684 -532.84373) rotate(90)" fill="#fff"/>
    <rect x="646.34597" y="211.65061" width="12" height="27.32346" transform="translate(877.65831 -427.03364) rotate(90)" fill="#fff"/>
    <rect x="884.71185" y="219.31233" width="12" height="43.51732" fill="#fff"/>
    <rect x="884.71185" y="262.82966" width="12" height="107.6383" fill="#fff"/>
    <rect x="884.71185" y="438.49987" width="12" height="24.5" fill="#fff"/>
    <rect x="884.71185" y="370.46795" width="12" height="68.03191" fill="#d3d3d3" opacity="0.6"/>
    <rect x="856.69589" y="403.73391" width="68.03191" height="1.5" transform="translate(1295.19576 -486.22794) rotate(90)" fill="#fff"/>
    <rect x="810.28846" y="191.29638" width="12" height="68.03191" transform="translate(590.97613 1041.6008) rotate(-90)" fill="#d3d3d3" opacity="0.6"/>
    <rect x="782.27251" y="224.56233" width="68.03191" height="1.5" fill="#fff"/>
    <g opacity="0.5">
      <polygon points="642.861 163.819 895.212 163.819 895.212 219.312 896.712 219.312 896.712 163.819 896.712 162.319 895.212 162.319 642.861 162.319 642.861 163.819" fill="#fff"/>
    </g>
    <rect x="694.02366" y="191.29638" width="12" height="68.03191" transform="translate(474.71132 925.33599) rotate(-90)" fill="#d3d3d3" opacity="0.6"/>
    <rect x="666.0077" y="224.56233" width="68.03191" height="1.5" fill="#fff"/>
    <polyline points="951.843 700.687 896.712 700.687 896.712 592.09 951.843 592.09" fill="#fff" opacity="0.2"/>
    <polyline points="951.843 700.687 951.843 756.181 642.861 756.181 642.861 700.687" fill="#fff" opacity="0.2"/>
    <rect x="671.72946" y="486.48657" width="64.9734" height="6" transform="translate(214.72959 1193.70273) rotate(-90)" fill="#fff"/>
    <rect x="638.68424" y="551.96263" width="68.53191" height="6" fill="#fff"/>
    <rect x="574.82186" y="618.82502" width="133.72477" height="6" transform="translate(1263.50926 -19.85923) rotate(90)" fill="#fff"/>
    <rect x="704.53841" y="551.96263" width="3" height="27.32979" fill="#fff"/>
    <rect x="766.83874" y="604.76051" width="3" height="83.92689" fill="#fff"/>
    <rect x="766.83874" y="518.97327" width="3" height="60.33074" fill="#fff"/>
    <rect x="704.53841" y="604.71795" width="3" height="3.53325" fill="#fff"/>
    <rect x="727.60345" y="462.75519" width="3" height="18.09043" fill="#fff"/>
    <rect x="717.4098" y="467.65197" width="3" height="23.38729" transform="translate(1198.25541 -239.56419) rotate(90)" fill="#fff"/>
    <rect x="659.60345" y="557.96263" width="3" height="17.84574" fill="#fff"/>
    <rect x="652.14384" y="565.34878" width="3" height="17.9192" transform="translate(1227.95222 -79.33547) rotate(90)" fill="#fff"/>
    <g>
      <g>
        <path d="M809.04577,673.06088H794.92032V651.0057h14.12545a3.8958,3.8958,0,0,1,3.91406,3.86817V669.1932A3.89539,3.89539,0,0,1,809.04577,673.06088Z" fill="#fff" opacity="0.1"/>
        <rect x="790.72012" y="651.0057" width="3.9502" height="22.05518" fill="#fff" opacity="0.2"/>
        <path d="M809.04577,673.31088H790.47012V650.7557h18.57565a4.146,4.146,0,0,1,4.16406,4.11817V669.1932A4.14586,4.14586,0,0,1,809.04577,673.31088ZM794.67032,651.0057h-3.9502v22.05518h3.9502Zm18.28951,3.86817a3.8958,3.8958,0,0,0-3.91406-3.86817H794.92032v22.05518h14.12545a3.89539,3.89539,0,0,0,3.91406-3.86768Z" fill="#fff" opacity="0.5"/>
      </g>
      <g>
        <path d="M809.04577,636.279H794.92032V614.22379h14.12545a3.8958,3.8958,0,0,1,3.91406,3.86816v14.31934A3.89538,3.89538,0,0,1,809.04577,636.279Z" fill="#fff" opacity="0.1"/>
        <rect x="790.72012" y="614.22379" width="3.9502" height="22.05518" fill="#fff" opacity="0.2"/>
        <path d="M809.04577,636.529H790.47012V613.97379h18.57565a4.146,4.146,0,0,1,4.16406,4.11816v14.31934A4.14585,4.14585,0,0,1,809.04577,636.529Zm-14.37545-22.30517h-3.9502V636.279h3.9502Zm18.28951,3.86816a3.8958,3.8958,0,0,0-3.91406-3.86816H794.92032V636.279h14.12545a3.89538,3.89538,0,0,0,3.91406-3.86767Z" fill="#fff" opacity="0.5"/>
      </g>
    </g>
    <g>
      <path d="M856.91117,608.30737h17.07129v70.66992H856.91117a3.8958,3.8958,0,0,1-3.91406-3.86816V612.17505A3.89539,3.89539,0,0,1,856.91117,608.30737Z" fill="#fff" opacity="0.1"/>
      <rect x="874.23246" y="608.30737" width="3.9502" height="70.66992" fill="#fff" opacity="0.2"/>
      <path d="M856.91117,608.05737h21.52149v71.16992H856.91117a4.146,4.146,0,0,1-4.16406-4.11816V612.17505A4.14586,4.14586,0,0,1,856.91117,608.05737Zm17.32129,70.91992h3.9502V608.30737h-3.9502Zm-21.23535-3.86816a3.8958,3.8958,0,0,0,3.91406,3.86816h17.07129V608.30737H856.91117a3.89539,3.89539,0,0,0-3.91406,3.86768Z" fill="#fff" opacity="0.5"/>
    </g>
    <g>
      <g opacity="0.5">
        <path d="M829.90886,633.72391a9.91843,9.91843,0,1,1-9.91821,9.91843,9.91845,9.91845,0,0,1,9.91821-9.91843m0-.25a10.16843,10.16843,0,1,0,10.16846,10.16843,10.17988,10.17988,0,0,0-10.16846-10.16843Z" fill="#fff"/>
      </g>
      <circle cx="829.90896" cy="643.64233" r="9.91843" fill="#fff" opacity="0.1"/>
    </g>
    <g>
      <g>
        <path d="M803.04577,308.20763H788.92032V286.15245h14.12545a3.8958,3.8958,0,0,1,3.91406,3.86816V304.34A3.89539,3.89539,0,0,1,803.04577,308.20763Z" fill="#fff" opacity="0.1"/>
        <rect x="784.72012" y="286.15245" width="3.9502" height="22.05518" fill="#fff" opacity="0.2"/>
        <path d="M803.04577,308.45763H784.47012V285.90245h18.57565a4.146,4.146,0,0,1,4.16406,4.11816V304.34A4.14586,4.14586,0,0,1,803.04577,308.45763Zm-14.37545-22.30518h-3.9502v22.05518h3.9502Zm18.28951,3.86816a3.8958,3.8958,0,0,0-3.91406-3.86816H788.92032v22.05518h14.12545a3.89539,3.89539,0,0,0,3.91406-3.86768Z" fill="#fff" opacity="0.5"/>
      </g>
      <g>
        <path d="M803.04577,271.42571H788.92032V249.37053h14.12545a3.89581,3.89581,0,0,1,3.91406,3.86817V267.558A3.89539,3.89539,0,0,1,803.04577,271.42571Z" fill="#fff" opacity="0.1"/>
        <rect x="784.72012" y="249.37053" width="3.9502" height="22.05518" fill="#fff" opacity="0.2"/>
        <path d="M803.04577,271.67571H784.47012V249.12053h18.57565a4.146,4.146,0,0,1,4.16406,4.11817V267.558A4.14586,4.14586,0,0,1,803.04577,271.67571Zm-14.37545-22.30518h-3.9502v22.05518h3.9502Zm18.28951,3.86817a3.89581,3.89581,0,0,0-3.91406-3.86817H788.92032v22.05518h14.12545a3.89539,3.89539,0,0,0,3.91406-3.86768Z" fill="#fff" opacity="0.5"/>
      </g>
    </g>
    <g>
      <path d="M856.91117,243.45412h17.07129V314.124H856.91117a3.8958,3.8958,0,0,1-3.91406-3.86816V247.32179A3.89538,3.89538,0,0,1,856.91117,243.45412Z" fill="#fff" opacity="0.1"/>
      <rect x="874.23246" y="243.45412" width="3.9502" height="70.66992" fill="#fff" opacity="0.2"/>
      <path d="M856.91117,243.20412h21.52149V314.374H856.91117a4.146,4.146,0,0,1-4.16406-4.11816V247.32179A4.14585,4.14585,0,0,1,856.91117,243.20412ZM874.23246,314.124h3.9502V243.45412h-3.9502Zm-21.23535-3.86816a3.8958,3.8958,0,0,0,3.91406,3.86816h17.07129V243.45412H856.91117a3.89538,3.89538,0,0,0-3.91406,3.86767Z" fill="#fff" opacity="0.5"/>
    </g>
    <g>
      <g opacity="0.5">
        <path d="M829.90886,268.87065a9.91843,9.91843,0,1,1-9.91821,9.91843,9.91846,9.91846,0,0,1,9.91821-9.91843m0-.25a10.16843,10.16843,0,1,0,10.16846,10.16843,10.17989,10.17989,0,0,0-10.16846-10.16843Z" fill="#fff"/>
      </g>
      <circle cx="829.90896" cy="278.78908" r="9.91843" fill="#fff" opacity="0.1"/>
    </g>
    <g>
      <polygon points="849.821 550.928 849.821 544.992 838.247 544.992 838.247 550.928 837.997 550.928 837.997 544.992 837.997 544.742 838.247 544.742 849.821 544.742 850.071 544.742 850.071 544.992 850.071 550.928 849.821 550.928" fill="#fff" opacity="0.5"/>
      <rect x="824.21509" y="545.24721" width="22.59574" height="33.95745" transform="translate(1397.73889 -273.28703) rotate(90)" fill="#fff" opacity="0.1"/>
      <g opacity="0.1">
        <rect x="824.0236" y="542.17274" width="5.93617" height="11.57447" transform="translate(1374.95166 -279.03171) rotate(90)" fill="#fff"/>
      </g>
      <g opacity="0.5">
        <path d="M852.24163,551.17807v22.09574H818.78435V551.17807h33.45728m.25-.25H818.53435v22.59574h33.95728V550.92807Z" fill="#fff"/>
      </g>
      <polygon points="832.779 550.928 832.779 544.992 821.204 544.992 821.204 550.928 820.954 550.928 820.954 544.992 820.954 544.742 821.204 544.742 832.779 544.742 833.029 544.742 833.029 544.992 833.029 550.928 832.779 550.928" fill="#fff" opacity="0.5"/>
      <g opacity="0.1">
        <rect x="841.06614" y="542.17274" width="5.93617" height="11.57447" transform="translate(1391.9942 -296.07426) rotate(90)" fill="#fff"/>
      </g>
      <polygon points="821.204 573.524 821.204 579.46 832.779 579.46 832.779 573.524 833.029 573.524 833.029 579.46 833.029 579.71 832.779 579.71 821.204 579.71 820.954 579.71 820.954 579.46 820.954 573.524 821.204 573.524" fill="#fff" opacity="0.5"/>
      <g opacity="0.1">
        <rect x="841.06616" y="570.70466" width="5.93617" height="11.57447" transform="translate(267.54235 1420.52613) rotate(-90)" fill="#fff"/>
      </g>
      <polygon points="838.247 573.524 838.247 579.46 849.821 579.46 849.821 573.524 850.071 573.524 850.071 579.46 850.071 579.71 849.821 579.71 838.247 579.71 837.997 579.71 837.997 579.46 837.997 573.524 838.247 573.524" fill="#fff" opacity="0.5"/>
      <g opacity="0.1">
        <rect x="824.02361" y="570.70466" width="5.93617" height="11.57447" transform="translate(250.4998 1403.48358) rotate(-90)" fill="#fff"/>
      </g>
    </g>
    <g>
      <polygon points="732.223 251.782 732.223 245.846 720.648 245.846 720.648 251.782 720.398 251.782 720.398 245.846 720.398 245.596 720.648 245.596 732.223 245.596 732.473 245.596 732.473 245.846 732.473 251.782 732.223 251.782" fill="#fff" opacity="0.5"/>
      <rect x="706.61639" y="246.10104" width="22.59574" height="33.95745" transform="translate(980.99402 -454.8345) rotate(90)" fill="#fff" opacity="0.1"/>
      <g opacity="0.1">
        <rect x="706.4249" y="243.02657" width="5.93617" height="11.57447" transform="translate(958.20679 -460.57918) rotate(90)" fill="#fff"/>
      </g>
      <g opacity="0.5">
        <path d="M734.643,252.0319v22.09574H701.18547V252.0319H734.643m.25-.25H700.93547v22.59574H734.893V251.7819Z" fill="#fff"/>
      </g>
      <polygon points="715.18 251.782 715.18 245.846 703.606 245.846 703.606 251.782 703.356 251.782 703.356 245.846 703.356 245.596 703.606 245.596 715.18 245.596 715.43 245.596 715.43 245.846 715.43 251.782 715.18 251.782" fill="#fff" opacity="0.5"/>
      <g opacity="0.1">
        <rect x="723.46745" y="243.02657" width="5.93617" height="11.57447" transform="translate(975.24934 -477.62173) rotate(90)" fill="#fff"/>
      </g>
      <polygon points="703.606 274.378 703.606 280.314 715.18 280.314 715.18 274.378 715.43 274.378 715.43 280.314 715.43 280.564 715.18 280.564 703.606 280.564 703.356 280.564 703.356 280.314 703.356 274.378 703.606 274.378" fill="#fff" opacity="0.5"/>
      <g opacity="0.1">
        <rect x="723.46746" y="271.55849" width="5.93617" height="11.57447" transform="translate(449.08982 1003.78126) rotate(-90)" fill="#fff"/>
      </g>
      <polygon points="720.648 274.378 720.648 280.314 732.223 280.314 732.223 274.378 732.473 274.378 732.473 280.314 732.473 280.564 732.223 280.564 720.648 280.564 720.398 280.564 720.398 280.314 720.398 274.378 720.648 274.378" fill="#fff" opacity="0.5"/>
      <g opacity="0.1">
        <rect x="706.42491" y="271.55849" width="5.93617" height="11.57447" transform="translate(432.04727 986.73872) rotate(-90)" fill="#fff"/>
      </g>
    </g>
    <g>
      <rect x="769.83872" y="612.42014" width="12.30611" height="68.15272" transform="translate(1551.98404 1292.99241) rotate(179.99996)" fill="#fff" opacity="0.1"/>
      <g opacity="0.5">
        <path d="M781.895,612.67014v67.65271l-11.80616,0V612.67014H781.895m.25-.25H769.83879v68.15274l12.30616,0V612.42014Z" fill="#fff"/>
      </g>
    </g>
    <g>
      <rect x="801.54441" y="506.85418" width="51.14348" height="22.81725" transform="translate(1654.23234 1036.52556) rotate(180)" fill="#fff" opacity="0.1"/>
      <g opacity="0.5">
        <path d="M852.43792,507.10417v22.31725l-50.64356,0V507.10419l50.64356,0m.25-.25-51.14356,0v22.81724l51.14356,0V506.85417Z" fill="#fff"/>
      </g>
    </g>
    <g>
      <rect x="640.30477" y="579.96387" width="32.70401" height="23.87175" transform="translate(1248.55556 -64.7579) rotate(89.99992)" fill="#fff" opacity="0.1"/>
      <g opacity="0.5">
        <path d="M668.3427,575.79773v32.204H644.97087v-32.204H668.3427m.25-.25H644.72087v32.704H668.5927v-32.704Z" fill="#fff"/>
      </g>
    </g>
    <g>
      <g opacity="0.5">
        <path d="M711.54843,495.02981v9.7h9.65015a4.85,4.85,0,0,0,0-9.7h-9.65015m-.25-.25h9.90015a5.1,5.1,0,0,1,0,10.2h-9.90015v-10.2Z" fill="#fff"/>
      </g>
      <g opacity="0.5">
        <polygon points="711.546 492.796 707.216 492.796 707.216 506.963 711.546 506.963 711.546 504.98 711.296 504.98 711.296 506.713 707.466 506.713 707.466 493.046 711.296 493.046 711.296 494.78 711.546 494.78 711.546 492.796 711.546 492.796" fill="#fff"/>
      </g>
      <path d="M711.54843,495.02981v9.7h9.65015a4.85,4.85,0,0,0,0-9.7h-9.65015" fill="#fff" opacity="0.1"/>
      <rect x="707.46616" y="493.04637" width="3.83228" height="13.66699" transform="translate(1418.76459 999.75973) rotate(180)" fill="#fff" opacity="0.1"/>
    </g>
    <g>
      <g opacity="0.5">
        <path d="M534.52568,452.66759h9.7v-9.65015a4.85,4.85,0,0,0-9.7,0v9.65014m-.25.25v-9.90014a5.1,5.1,0,0,1,10.2,0v9.90015Z" fill="#fff"/>
      </g>
      <g opacity="0.5">
        <polygon points="546.459 452.67 544.476 452.67 544.476 452.92 546.209 452.92 546.209 456.75 532.542 456.75 532.542 452.92 534.276 452.92 534.276 452.67 532.292 452.67 532.292 457 546.459 457 546.459 452.67 546.459 452.67" fill="#fff"/>
      </g>
      <path d="M534.52568,452.66759h9.7v-9.65015a4.85,4.85,0,0,0-9.7,0v9.65014" fill="#fff" opacity="0.1"/>
      <rect x="537.45959" y="448.00023" width="3.83228" height="13.66699" transform="translate(994.20927 -84.54216) rotate(89.99998)" fill="#fff" opacity="0.1"/>
    </g>
    <g>
      <g opacity="0.5">
        <path d="M538.46226,406.86877h9.7l0-9.65015a4.85,4.85,0,0,0-9.7,0l0,9.65014m-.25.25,0-9.90014a5.1,5.1,0,0,1,10.2,0l0,9.90015Z" fill="#fff"/>
      </g>
      <g opacity="0.5">
        <polygon points="550.396 406.871 548.413 406.871 548.413 407.121 550.146 407.121 550.146 410.951 536.479 410.951 536.479 407.121 538.212 407.121 538.212 406.871 536.229 406.871 536.229 411.201 550.396 411.201 550.396 406.871 550.396 406.871" fill="#fff"/>
      </g>
      <path d="M538.46226,406.86877h9.7l0-9.65015a4.85,4.85,0,0,0-9.7,0l0,9.65014" fill="#fff" opacity="0.1"/>
      <rect x="541.39617" y="402.20141" width="3.83228" height="13.66699" transform="translate(952.34703 -134.27754) rotate(89.99998)" fill="#fff" opacity="0.1"/>
    </g>
    <g>
      <g opacity="0.5">
        <path d="M738.94991,452.66891l9.7,0v-9.65014a4.85,4.85,0,0,0-9.7,0v9.65015m-.25.25v-9.90015a5.1,5.1,0,0,1,10.2,0v9.90014l-10.2,0Z" fill="#fff"/>
      </g>
      <g opacity="0.5">
        <polygon points="750.883 452.671 748.9 452.671 748.9 452.921 750.633 452.921 750.633 456.751 736.966 456.751 736.966 452.921 738.7 452.921 738.7 452.671 736.716 452.671 736.716 457.001 750.883 457.001 750.883 452.671 750.883 452.671" fill="#fff"/>
      </g>
      <path d="M738.94991,452.66891l9.7,0v-9.65014a4.85,4.85,0,0,0-9.7,0v9.65015" fill="#fff" opacity="0.1"/>
      <rect x="741.88383" y="448.00155" width="3.83228" height="13.66699" transform="translate(1198.63475 -288.96508) rotate(89.99998)" fill="#fff" opacity="0.1"/>
    </g>
    <g>
      <rect x="739.84739" y="549.21662" width="36.61743" height="16.86013" transform="matrix(0, -1, 1, 0, 200.50965, 1315.80296)" fill="#fff" opacity="0.1"/>
      <rect x="749.72624" y="522.22566" width="16.85963" height="16.86013" transform="translate(227.5006 1288.81196) rotate(-90.00002)" fill="#fff" opacity="0.1"/>
      <g opacity="0.5">
        <path d="M766.83879,521.9733H749.47332v17.36485l17.36547,0V521.9733ZM749.726,539.08554V522.22591l16.86011,0v16.85964l-16.86011,0Z" fill="#fff"/>
      </g>
      <g opacity="0.5">
        <polygon points="766.839 539.338 766.586 539.338 766.586 575.955 749.726 575.955 749.726 539.338 749.473 539.338 749.473 576.249 766.839 576.249 766.839 539.338 766.839 539.338" fill="#fff"/>
      </g>
      <g opacity="0.5">
        <path d="M758.15569,524.12244a6.53328,6.53328,0,1,0,6.533,6.53328,6.54036,6.54036,0,0,0-6.533-6.53328Zm.00024,12.81395a6.28067,6.28067,0,1,1,6.28-6.28067,6.28726,6.28726,0,0,1-6.28,6.28067Z" fill="#fff"/>
      </g>
      <circle cx="758.15581" cy="530.65572" r="6.28042" fill="#fff" opacity="0.1"/>
    </g>
    <g>
      <rect x="526.8102" y="344.92437" width="16.85963" height="16.86013" transform="translate(1070.48017 706.70866) rotate(179.99998)" fill="#fff" opacity="0.1"/>
      <g opacity="0.5">
        <path d="M543.92253,344.67176h-17.365V362.0371h17.365V344.67176Zm-17.1123,17.11274V344.92437l16.85962,0v16.86013l-16.85962,0Z" fill="#fff"/>
      </g>
      <g opacity="0.5">
        <polygon points="588.955 344.671 543.923 344.671 543.923 344.924 588.596 344.924 588.596 361.784 543.923 361.784 543.923 362.037 588.955 362.037 588.955 344.671 588.955 344.671" fill="#fff"/>
      </g>
      <g opacity="0.5">
        <path d="M535.23992,346.82189h0a6.53279,6.53279,0,1,0,6.53344,6.53278,6.54036,6.54036,0,0,0-6.53344-6.53278Zm0,12.813a6.28018,6.28018,0,1,1,6.28076-6.28018,6.28721,6.28721,0,0,1-6.28076,6.28018Z" fill="#fff"/>
      </g>
      <rect x="543.92259" y="344.92393" width="44.67186" height="16.86013" transform="translate(1132.51713 706.70784) rotate(179.99999)" fill="#fff" opacity="0.1"/>
      <circle cx="535.24002" cy="353.35467" r="6.28042" fill="#fff" opacity="0.1"/>
    </g>
    <rect x="866.98053" y="672.01129" width="12" height="45.35221" transform="translate(178.29313 1567.66793) rotate(-90)" fill="#fff"/>
    <rect x="752.15606" y="670.57095" width="12" height="48.23289" transform="translate(63.46866 1452.84346) rotate(-90)" fill="#fff"/>
    <polygon points="638.684 688.687 639.537 700.687 666.008 700.687 666.008 688.687 638.684 688.687" fill="#fff"/>
    <rect x="884.71185" y="660.12221" width="12" height="40.56519" fill="#fff"/>
    <rect x="884.71185" y="549.53178" width="12" height="42.55851" fill="#fff"/>
    <rect x="884.71185" y="456.99987" width="12" height="24.5" fill="#fff"/>
    <rect x="884.71185" y="592.09029" width="12" height="68.03191" fill="#d3d3d3" opacity="0.6"/>
    <rect x="856.69589" y="625.35625" width="68.03191" height="1.5" transform="translate(264.6056 1516.8181) rotate(-90)" fill="#fff"/>
    <rect x="884.71185" y="481.49987" width="12" height="68.03191" fill="#d3d3d3" opacity="0.6"/>
    <rect x="856.69589" y="514.76583" width="68.03191" height="1.5" transform="translate(375.19602 1406.22767) rotate(-90)" fill="#fff"/>
    <rect x="810.28846" y="660.67144" width="12" height="68.03191" transform="translate(1510.97587 -121.60106) rotate(90)" fill="#d3d3d3" opacity="0.6"/>
    <rect x="782.27251" y="693.9374" width="68.03191" height="1.5" fill="#fff"/>
    <g opacity="0.5">
      <polygon points="642.861 700.687 642.861 756.181 951.843 756.181 951.843 592.09 953.343 592.09 953.343 756.181 953.343 757.681 951.843 757.681 642.861 757.681 641.361 757.681 641.361 756.181 641.361 700.687 642.861 700.687" fill="#fff"/>
    </g>
    <rect x="896.71185" y="590.59029" width="56.63152" height="1.5" fill="#fff" opacity="0.5"/>
    <rect x="694.02366" y="660.67144" width="12" height="68.03191" transform="translate(1394.71106 -5.33626) rotate(90)" fill="#d3d3d3" opacity="0.6"/>
    <rect x="666.0077" y="693.9374" width="68.03191" height="1.5" fill="#fff"/>
    <g>
      <polygon points="902.403 592.09 902.403 706.646 642.866 706.646 642.866 702.836 898.593 702.836 898.593 592.09 902.403 592.09" fill="none" stroke="#fff" stroke-miterlimit="10" stroke-width="0.2"/>
      <polygon points="951.843 592.09 951.843 756.091 642.866 756.091 642.866 752.381 948.043 752.381 948.043 592.09 951.843 592.09" fill="none" stroke="#fff" stroke-miterlimit="10" stroke-width="0.2"/>
      <polygon points="906.203 592.09 906.203 710.541 642.866 710.541 642.866 706.741 902.403 706.741 902.403 592.09 906.203 592.09" fill="none" stroke="#fff" stroke-miterlimit="10" stroke-width="0.2"/>
      <polygon points="910.013 592.09 910.003 702.931 910.003 714.351 642.866 714.351 642.866 710.541 906.203 710.541 906.203 592.09 910.013 592.09" fill="none" stroke="#fff" stroke-miterlimit="10" stroke-width="0.2"/>
      <polygon points="913.813 592.09 913.813 718.151 642.866 718.151 642.866 714.351 910.003 714.351 910.003 702.931 910.013 592.09 913.813 592.09" fill="none" stroke="#fff" stroke-miterlimit="10" stroke-width="0.2"/>
      <polygon points="917.613 592.09 917.613 721.951 642.866 721.951 642.866 718.151 913.813 718.151 913.813 592.09 917.613 592.09" fill="none" stroke="#fff" stroke-miterlimit="10" stroke-width="0.2"/>
      <polygon points="921.423 592.09 921.423 725.761 642.866 725.761 642.866 721.951 917.613 721.951 917.613 592.09 921.423 592.09" fill="none" stroke="#fff" stroke-miterlimit="10" stroke-width="0.2"/>
      <polygon points="925.223 592.09 925.223 729.561 642.866 729.561 642.866 725.761 921.423 725.761 921.423 592.09 925.223 592.09" fill="none" stroke="#fff" stroke-miterlimit="10" stroke-width="0.2"/>
      <polygon points="948.043 592.09 948.043 752.381 642.866 752.381 642.866 748.581 944.243 748.581 944.243 592.09 948.043 592.09" fill="none" stroke="#fff" stroke-miterlimit="10" stroke-width="0.2"/>
      <line x1="642.86647" y1="756.18058" x2="642.86647" y2="756.09058" fill="none" stroke="#fff" stroke-miterlimit="10" stroke-width="0.2"/>
      <polygon points="929.023 592.09 929.023 733.361 642.866 733.361 642.866 729.561 925.223 729.561 925.223 592.09 929.023 592.09" fill="none" stroke="#fff" stroke-miterlimit="10" stroke-width="0.2"/>
      <polygon points="944.243 592.09 944.243 748.581 642.866 748.581 642.866 744.771 940.433 744.771 940.433 592.09 944.243 592.09" fill="none" stroke="#fff" stroke-miterlimit="10" stroke-width="0.2"/>
      <polygon points="940.433 592.09 940.433 744.771 642.866 744.771 642.866 740.971 936.633 740.971 936.633 592.09 940.433 592.09" fill="none" stroke="#fff" stroke-miterlimit="10" stroke-width="0.2"/>
      <polygon points="936.633 592.09 936.633 740.971 642.866 740.971 642.866 737.171 932.833 737.171 932.833 592.09 936.633 592.09" fill="none" stroke="#fff" stroke-miterlimit="10" stroke-width="0.2"/>
      <polygon points="932.833 592.09 932.833 737.171 642.866 737.171 642.866 733.361 929.023 733.361 929.023 592.09 932.833 592.09" fill="none" stroke="#fff" stroke-miterlimit="10" stroke-width="0.2"/>
    </g>
    <g>
      <rect x="808.76536" y="508.28847" width="17.1618" height="17.1618" fill="#fff" opacity="0.1"/>
      <g>
        <circle cx="813.34421" cy="512.86152" r="2.71813" fill="none" stroke="#fff" stroke-miterlimit="10" stroke-width="0.25" opacity="0.5"/>
        <circle cx="821.34832" cy="512.86152" r="2.71813" fill="none" stroke="#fff" stroke-miterlimit="10" stroke-width="0.25" opacity="0.5"/>
        <circle cx="813.34421" cy="520.87721" r="2.71813" fill="none" stroke="#fff" stroke-miterlimit="10" stroke-width="0.25" opacity="0.5"/>
        <circle cx="821.34832" cy="520.87721" r="2.71813" fill="none" stroke="#fff" stroke-miterlimit="10" stroke-width="0.25" opacity="0.5"/>
      </g>
      <g opacity="0.5">
        <path d="M826.05305,525.576H808.6394V508.16233h17.41365Zm-17.16186-.25179h16.91007V508.41412H808.89119Z" fill="#fff"/>
      </g>
    </g>
    <g>
      <rect x="683.87716" y="295.80439" width="51.14348" height="22.81725" transform="translate(1418.89782 614.42598) rotate(180)" fill="#fff" opacity="0.1"/>
      <g opacity="0.5">
        <path d="M734.77068,296.05439v22.31724H684.12712V296.05439h50.64356m.25-.25H683.87712v22.81724h51.14356V295.80439Z" fill="#fff"/>
      </g>
    </g>
    <g>
      <rect x="700.99827" y="299.88654" width="17.1618" height="17.1618" fill="#fff" opacity="0.1"/>
      <g>
        <circle cx="705.57711" cy="304.45959" r="2.71813" fill="none" stroke="#fff" stroke-miterlimit="10" stroke-width="0.25" opacity="0.5"/>
        <circle cx="713.58123" cy="304.45959" r="2.71813" fill="none" stroke="#fff" stroke-miterlimit="10" stroke-width="0.25" opacity="0.5"/>
        <circle cx="705.57711" cy="312.47528" r="2.71813" fill="none" stroke="#fff" stroke-miterlimit="10" stroke-width="0.25" opacity="0.5"/>
        <circle cx="713.58123" cy="312.47528" r="2.71813" fill="none" stroke="#fff" stroke-miterlimit="10" stroke-width="0.25" opacity="0.5"/>
      </g>
      <g opacity="0.5">
        <path d="M718.286,317.17405H700.87231V299.76041H718.286Zm-17.16186-.25178h16.91007V300.01219H701.1241Z" fill="#fff"/>
      </g>
    </g>
    <g>
      <rect x="643.73786" y="582.99838" width="26.79502" height="18.06379" transform="translate(1249.16476 -65.10589) rotate(89.99992)" fill="#fff" opacity="0.1"/>
      <g opacity="0.5">
        <path d="M665.91716,578.88275v26.295l-17.56372,0v-26.295l17.56372,0m.25-.25-18.06372,0v26.795l18.06372,0v-26.795Z" fill="#fff"/>
      </g>
    </g>
    <g>
      <g>
        <rect x="577.69263" y="231.31234" width="42.50662" height="19.50429" transform="translate(1197.8919 482.12892) rotate(180)" fill="#fff" opacity="0.1"/>
        <g opacity="0.5">
          <path d="M619.94915,231.56234v19.00428l-42.0066,0V231.56234h42.0066m.25-.25h-42.5066v19.50429l42.5066,0V231.31234Z" fill="#fff"/>
        </g>
      </g>
      <g>
        <rect x="593.0755" y="250.81663" width="11.45745" height="5.88829" transform="translate(1197.60847 507.52148) rotate(179.99999)" fill="#fff" opacity="0.1"/>
        <polyline points="593.075 250.817 593.075 256.705 604.533 256.705 604.533 250.817" fill="none" stroke="#fff" stroke-miterlimit="10" stroke-width="0.25" opacity="0.5"/>
      </g>
    </g>
    <g>
      <g>
        <rect x="451.64786" y="231.31234" width="42.50662" height="19.50429" transform="translate(945.80235 482.12893) rotate(180)" fill="#fff" opacity="0.1"/>
        <g opacity="0.5">
          <path d="M493.90447,231.56234v19.00428l-42.00659,0V231.56234h42.00659m.25-.25H451.64788v19.50429l42.50659,0V231.31234Z" fill="#fff"/>
        </g>
      </g>
      <g>
        <rect x="467.03072" y="250.81663" width="11.45745" height="5.88829" transform="translate(945.51892 507.5215) rotate(179.99999)" fill="#fff" opacity="0.1"/>
        <polyline points="467.031 250.817 467.031 256.705 478.488 256.705 478.488 250.817" fill="none" stroke="#fff" stroke-miterlimit="10" stroke-width="0.25" opacity="0.5"/>
      </g>
    </g>
    <g>
      <rect x="555.0064" y="416.57168" width="18.90457" height="20.18882" fill="#fff" opacity="0.1"/>
      <g opacity="0.5">
        <path d="M573.66106,416.82168V436.5105H555.25652l-.00025-19.68882h18.40479m.25-.25H555.00627l.00025,20.18882h18.90454V416.57168Z" fill="#fff"/>
      </g>
    </g>
    <g>
      <polygon points="665.884 434.705 635.161 434.705 627.246 434.705 627.246 440.705 627.246 446.136 635.161 446.136 635.161 440.705 665.884 440.705 665.884 479.71 635.161 479.71 635.161 474.279 627.246 474.279 627.246 479.71 627.246 485.71 635.161 485.71 665.884 485.71 673.118 485.71 673.118 479.71 673.118 440.705 673.118 434.705 665.884 434.705" fill="#fff"/>
      <polyline points="673.118 456.742 701.216 456.742 701.216 406.563 636.31 406.563 636.31 434.705" fill="none" stroke="#fff" stroke-miterlimit="10" stroke-width="0.5"/>
      <rect x="673.07454" y="406.56304" width="28.14162" height="28.14162" fill="none" stroke="#fff" stroke-miterlimit="10" stroke-width="0.5"/>
      <rect x="636.30988" y="406.56304" width="7.34043" height="28.14162" fill="none" stroke="#fff" stroke-miterlimit="10" stroke-width="0.5"/>
      <rect x="643.6503" y="406.56304" width="7.34043" height="28.14162" fill="none" stroke="#fff" stroke-miterlimit="10" stroke-width="0.5"/>
      <rect x="651.02199" y="406.56304" width="7.34043" height="28.14162" fill="none" stroke="#fff" stroke-miterlimit="10" stroke-width="0.5"/>
      <rect x="658.36242" y="406.56304" width="7.34043" height="28.14162" fill="none" stroke="#fff" stroke-miterlimit="10" stroke-width="0.5"/>
      <rect x="683.47513" y="424.30406" width="7.34043" height="28.14162" transform="translate(248.77047 1125.52022) rotate(-90)" fill="none" stroke="#fff" stroke-miterlimit="10" stroke-width="0.5"/>
      <rect x="683.47513" y="431.64449" width="7.34043" height="28.14162" transform="translate(241.43005 1132.86065) rotate(-90)" fill="none" stroke="#fff" stroke-miterlimit="10" stroke-width="0.5"/>
      <polyline points="673.118 463.772 701.216 463.772 701.216 513.951 636.31 513.951 636.31 485.809" fill="none" stroke="#fff" stroke-miterlimit="10" stroke-width="0.5"/>
      <rect x="673.07454" y="485.80905" width="28.14162" height="28.14162" fill="none" stroke="#fff" stroke-miterlimit="10" stroke-width="0.5"/>
      <rect x="636.30988" y="485.80905" width="7.34043" height="28.14162" fill="none" stroke="#fff" stroke-miterlimit="10" stroke-width="0.5"/>
      <rect x="643.6503" y="485.80905" width="7.34043" height="28.14162" fill="none" stroke="#fff" stroke-miterlimit="10" stroke-width="0.5"/>
      <rect x="651.02199" y="485.80905" width="7.34043" height="28.14162" fill="none" stroke="#fff" stroke-miterlimit="10" stroke-width="0.5"/>
      <rect x="658.36242" y="485.80905" width="7.34043" height="28.14162" fill="none" stroke="#fff" stroke-miterlimit="10" stroke-width="0.5"/>
      <rect x="683.47513" y="468.06803" width="7.34043" height="28.14162" transform="translate(1169.28419 -205.0065) rotate(90)" fill="none" stroke="#fff" stroke-miterlimit="10" stroke-width="0.5"/>
      <rect x="683.47513" y="460.72761" width="7.34043" height="28.14162" transform="translate(1161.94376 -212.34693) rotate(90)" fill="none" stroke="#fff" stroke-miterlimit="10" stroke-width="0.5"/>
      <polygon points="699.912 512.647 636.31 512.647 636.31 513.951 701.216 513.951 701.216 512.647 701.216 407.867 701.216 406.563 636.31 406.563 636.31 407.867 699.912 407.867 699.912 512.647" fill="none" stroke="#fff" stroke-miterlimit="10" stroke-width="0.25"/>
      <g>
        <g>
          <path d="M685.42253,467.86688v19.00237A13.01053,13.01053,0,0,1,672.412,499.87987h-35.501" fill="none" stroke="#fff" stroke-miterlimit="10" stroke-width="0.5"/>
          <path d="M640.32854,497.48a.25.25,0,0,1-.07715.34521l-3.22607,2.05469,3.22607,2.05469a.25.25,0,1,1-.26855.42187l-3.55738-2.26562a.25041.25041,0,0,1,0-.42188l3.55738-2.26562a.25074.25074,0,0,1,.3457.07666Z" fill="#fff"/>
        </g>
        <g>
          <path d="M636.31,420.73928H672.412a13.01052,13.01052,0,0,1,13.01049,13.01061v34.87754" fill="none" stroke="#fff" stroke-miterlimit="10" stroke-width="0.5"/>
          <path d="M683.02263,465.21a.25.25,0,0,1,.34522.07715l2.05468,3.22606,2.05469-3.22606a.25005.25005,0,1,1,.42188.26855l-2.26563,3.55715a.25013.25013,0,0,1-.42187,0l-2.26563-3.55715a.25077.25077,0,0,1,.07666-.3457Z" fill="#fff"/>
        </g>
        <circle cx="636.30988" cy="420.73928" r="1.15527" fill="none" stroke="#fff" stroke-miterlimit="10" stroke-width="0.5"/>
      </g>
    </g>
  </g>
</svg>
